<?xml version="1.0" encoding="utf-8"?>
<!-- Generator: Adobe Illustrator 27.5.0, SVG Export Plug-In . SVG Version: 6.00 Build 0)  -->
<svg version="1.1" xmlns="http://www.w3.org/2000/svg" xmlns:xlink="http://www.w3.org/1999/xlink" x="0px" y="0px"
	 viewBox="0 0 750 500" style="enable-background:new 0 0 750 500;" xml:space="preserve">
<g id="BACKGROUND">
	<rect style="fill:#FFFFFF;" width="750" height="500"/>
</g>
<g id="OBJECTS">
	<g>
		<g>
			<rect y="424.182" style="fill:#D8E2E5;" width="750" height="75.818"/>
			<g>
				<g>
					<ellipse style="fill:#E6ECED;" cx="654.826" cy="185.755" rx="62.361" ry="82.379"/>
					<g>
						<path style="fill:#D8E2E5;" d="M654.826,428.245c-1.381,0-2.5-1.119-2.5-2.5V121c0-1.381,1.119-2.5,2.5-2.5
							c1.381,0,2.5,1.119,2.5,2.5v304.745C657.326,427.126,656.207,428.245,654.826,428.245z"/>
					</g>
					<g>
						<path style="fill:#D8E2E5;" d="M654.825,257.5c-0.469,0-0.938-0.164-1.318-0.497l-46.093-40.48
							c-0.83-0.729-0.912-1.993-0.184-2.823c0.73-0.831,1.992-0.912,2.822-0.183l46.093,40.48c0.83,0.729,0.912,1.993,0.184,2.822
							C655.934,257.27,655.381,257.5,654.825,257.5z"/>
					</g>
					<g>
						<path style="fill:#D8E2E5;" d="M654.824,198.311c-0.406,0-0.816-0.124-1.171-0.38l-49.229-35.644
							c-0.894-0.648-1.095-1.898-0.447-2.793c0.648-0.894,1.898-1.094,2.793-0.447l49.23,35.644
							c0.895,0.648,1.095,1.898,0.447,2.793C656.055,198.024,655.444,198.311,654.824,198.311z"/>
					</g>
					<g>
						<path style="fill:#D8E2E5;" d="M654.825,154.467c-0.471,0-0.943-0.165-1.324-0.502l-28.403-25.133
							c-0.827-0.732-0.904-1.996-0.173-2.823c0.733-0.827,1.995-0.903,2.823-0.173l28.403,25.133
							c0.827,0.732,0.904,1.996,0.173,2.823C655.929,154.239,655.378,154.467,654.825,154.467z"/>
					</g>
					<g>
						<path style="fill:#D8E2E5;" d="M654.828,172.099c-0.69,0-1.362-0.358-1.733-0.999c-0.553-0.956-0.227-2.18,0.731-2.733
							l40.507-23.432c0.953-0.552,2.179-0.226,2.733,0.73c0.553,0.956,0.227,2.18-0.731,2.733l-40.507,23.432
							C655.513,172.012,655.168,172.099,654.828,172.099z"/>
					</g>
					<g>
						<path style="fill:#D8E2E5;" d="M654.827,225.611c-0.751,0-1.471-0.425-1.812-1.151c-0.47-1-0.039-2.191,0.961-2.66
							l48.174-22.61c0.998-0.468,2.189-0.041,2.66,0.961c0.47,1,0.039,2.191-0.961,2.66l-48.174,22.61
							C655.401,225.55,655.112,225.611,654.827,225.611z"/>
					</g>
				</g>
				<g>
					<ellipse style="fill:#E6ECED;" cx="74.426" cy="261.705" rx="42.829" ry="56.577"/>
					<g>
						<path style="fill:#D8E2E5;" d="M74.426,428.245c-0.948,0-1.717-0.769-1.717-1.717V217.232c0-0.948,0.769-1.717,1.717-1.717
							c0.948,0,1.717,0.769,1.717,1.717v209.296C76.143,427.477,75.374,428.245,74.426,428.245z"/>
					</g>
					<g>
						<path style="fill:#D8E2E5;" d="M74.425,310.979c-0.322,0-0.645-0.113-0.905-0.341l-31.656-27.801
							c-0.57-0.501-0.626-1.369-0.126-1.939c0.501-0.57,1.368-0.626,1.938-0.126l31.656,27.801c0.57,0.501,0.626,1.369,0.126,1.938
							C75.187,310.821,74.807,310.979,74.425,310.979z"/>
					</g>
					<g>
						<path style="fill:#D8E2E5;" d="M74.425,270.328c-0.279,0-0.561-0.085-0.804-0.261l-33.81-24.48
							c-0.614-0.445-0.752-1.304-0.307-1.918c0.445-0.614,1.304-0.751,1.918-0.307l33.81,24.48c0.614,0.445,0.752,1.304,0.307,1.918
							C75.27,270.131,74.851,270.328,74.425,270.328z"/>
					</g>
					<g>
						<path style="fill:#D8E2E5;" d="M74.425,240.217c-0.323,0-0.648-0.114-0.909-0.345l-19.507-17.261
							c-0.568-0.503-0.621-1.371-0.119-1.939c0.504-0.568,1.37-0.62,1.939-0.119l19.507,17.261c0.568,0.503,0.621,1.371,0.119,1.939
							C75.183,240.06,74.805,240.217,74.425,240.217z"/>
					</g>
					<g>
						<path style="fill:#D8E2E5;" d="M74.427,252.326c-0.474,0-0.936-0.246-1.19-0.686c-0.38-0.657-0.156-1.497,0.502-1.877
							l27.82-16.093c0.655-0.379,1.496-0.155,1.877,0.501c0.38,0.657,0.156,1.497-0.502,1.877l-27.82,16.093
							C74.898,252.267,74.661,252.326,74.427,252.326z"/>
					</g>
					<g>
						<path style="fill:#D8E2E5;" d="M74.427,289.078c-0.516,0-1.01-0.292-1.244-0.79c-0.323-0.687-0.027-1.505,0.66-1.827
							l33.085-15.529c0.685-0.322,1.504-0.028,1.827,0.66c0.323,0.687,0.027,1.505-0.66,1.827L75.01,288.947
							C74.821,289.036,74.623,289.078,74.427,289.078z"/>
					</g>
				</g>
				<g>
					<ellipse style="fill:#E6ECED;" cx="33.94" cy="342.731" rx="24.504" ry="29.051"/>
					<g>
						<path style="fill:#D8E2E5;" d="M33.941,428.245c-0.543,0-0.982-0.395-0.982-0.882V319.895c0-0.487,0.44-0.882,0.982-0.882
							c0.542,0,0.982,0.395,0.982,0.882v107.468C34.923,427.85,34.483,428.245,33.941,428.245z"/>
					</g>
					<g>
						<path style="fill:#D8E2E5;" d="M33.94,368.032c-0.184,0-0.369-0.058-0.518-0.175l-18.111-14.275
							c-0.326-0.257-0.358-0.703-0.072-0.996c0.287-0.293,0.783-0.322,1.109-0.065l18.111,14.275
							c0.326,0.257,0.358,0.703,0.072,0.995C34.376,367.951,34.159,368.032,33.94,368.032z"/>
					</g>
					<g>
						<path style="fill:#D8E2E5;" d="M33.94,347.159c-0.16,0-0.321-0.043-0.46-0.134l-19.344-12.57
							c-0.352-0.229-0.43-0.669-0.176-0.985c0.255-0.315,0.746-0.386,1.097-0.158l19.344,12.57c0.351,0.229,0.43,0.67,0.176,0.985
							C34.423,347.058,34.183,347.159,33.94,347.159z"/>
					</g>
					<g>
						<path style="fill:#D8E2E5;" d="M33.94,331.697c-0.185,0-0.371-0.058-0.52-0.177l-11.16-8.863
							c-0.325-0.258-0.355-0.704-0.068-0.996c0.288-0.292,0.784-0.318,1.109-0.061l11.161,8.863
							c0.325,0.258,0.355,0.704,0.068,0.996C34.374,331.617,34.157,331.697,33.94,331.697z"/>
					</g>
					<g>
						<path style="fill:#D8E2E5;" d="M33.941,337.915c-0.271,0-0.535-0.126-0.681-0.352c-0.217-0.337-0.089-0.769,0.287-0.964
							l15.917-8.263c0.375-0.195,0.856-0.08,1.074,0.257c0.217,0.337,0.089,0.769-0.287,0.964l-15.916,8.263
							C34.21,337.884,34.075,337.915,33.941,337.915z"/>
					</g>
					<g>
						<path style="fill:#D8E2E5;" d="M33.941,356.786c-0.295,0-0.578-0.15-0.712-0.406c-0.184-0.353-0.015-0.773,0.378-0.938
							l18.929-7.974c0.392-0.165,0.86-0.014,1.045,0.339c0.184,0.353,0.015,0.773-0.378,0.938l-18.929,7.973
							C34.167,356.765,34.053,356.786,33.941,356.786z"/>
					</g>
				</g>
				<g>
					<ellipse style="fill:#E6ECED;" cx="698.001" cy="351.226" rx="38.21" ry="45.301"/>
					<g>
						<path style="fill:#D8E2E5;" d="M699.533,427.667V315.617c0-0.759-0.686-1.375-1.532-1.375c-0.846,0-1.532,0.615-1.532,1.375
							v112.049H699.533z"/>
					</g>
					<g>
						<path style="fill:#D8E2E5;" d="M698.001,390.679c-0.287,0-0.575-0.09-0.808-0.273l-28.242-22.26
							c-0.509-0.401-0.559-1.096-0.112-1.552c0.447-0.457,1.221-0.502,1.729-0.101l28.242,22.26
							c0.509,0.401,0.559,1.096,0.112,1.552C698.68,390.552,698.341,390.679,698.001,390.679z"/>
					</g>
					<g>
						<path style="fill:#D8E2E5;" d="M698,358.131c-0.249,0-0.5-0.068-0.717-0.209l-30.164-19.601
							c-0.548-0.356-0.671-1.044-0.274-1.536c0.397-0.492,1.163-0.602,1.711-0.246l30.164,19.601
							c0.548,0.356,0.671,1.044,0.274,1.536C698.754,357.973,698.38,358.131,698,358.131z"/>
					</g>
					<g>
						<path style="fill:#D8E2E5;" d="M698.001,334.021c-0.288,0-0.578-0.091-0.811-0.276l-17.403-13.821
							c-0.507-0.403-0.554-1.098-0.106-1.553c0.449-0.455,1.222-0.497,1.73-0.095l17.403,13.821
							c0.507,0.403,0.554,1.098,0.106,1.552C698.677,333.895,698.339,334.021,698.001,334.021z"/>
					</g>
					<g>
						<path style="fill:#D8E2E5;" d="M698.003,343.717c-0.423,0-0.835-0.197-1.062-0.549c-0.339-0.526-0.139-1.199,0.448-1.503
							l24.819-12.885c0.584-0.304,1.335-0.124,1.674,0.401c0.339,0.526,0.139,1.199-0.448,1.503l-24.819,12.885
							C698.422,343.669,698.211,343.717,698.003,343.717z"/>
					</g>
					<g>
						<path style="fill:#D8E2E5;" d="M698.002,373.143c-0.46,0-0.901-0.234-1.11-0.633c-0.288-0.55-0.024-1.205,0.589-1.463
							l29.517-12.434c0.612-0.257,1.341-0.022,1.63,0.528c0.288,0.55,0.024,1.205-0.589,1.463l-29.517,12.434
							C698.354,373.109,698.177,373.143,698.002,373.143z"/>
					</g>
				</g>
				<g>
					<polygon style="fill:#D8E2E5;" points="517.16,428.245 127.672,428.245 127.672,156.53 320.871,98.309 517.16,156.53 					"/>
					<polygon style="fill:#E6ECED;" points="322.416,74.447 62.381,171.974 65.843,182.122 322.416,107.438 578.989,182.122 
						582.452,171.974 					"/>
				</g>
			</g>
		</g>
		<g>
			<path style="fill:#BCCFD3;" d="M208.01,454.156H110.99c-2.194,0-3.99-1.795-3.99-3.99l0,0c0-2.194,1.795-3.99,3.99-3.99h97.021
				c2.194,0,3.99,1.795,3.99,3.99l0,0C212,452.361,210.205,454.156,208.01,454.156z"/>
			<path style="fill:#BCCFD3;" d="M632.62,454.156h-97.021c-2.194,0-3.99-1.795-3.99-3.99l0,0c0-2.194,1.795-3.99,3.99-3.99h97.021
				c2.194,0,3.99,1.795,3.99,3.99l0,0C636.61,452.361,634.815,454.156,632.62,454.156z"/>
			<path style="fill:#BCCFD3;" d="M699.748,458.451H295.244c-2.194,0-3.99-1.795-3.99-3.99l0,0c0-2.194,1.795-3.99,3.99-3.99
				h404.504c2.194,0,3.99,1.795,3.99,3.99l0,0C703.738,456.656,701.943,458.451,699.748,458.451z"/>
			<path style="fill:#BCCFD3;" d="M551.132,443.915H296.76c-1.745,0-3.172-1.427-3.172-3.172v-1.636
				c0-1.745,1.427-3.172,3.172-3.172h254.372c1.745,0,3.172,1.427,3.172,3.172v1.636
				C554.304,442.487,552.877,443.915,551.132,443.915z"/>
			<path style="fill:#BCCFD3;" d="M308.584,443.193h-166.57c-1.416,0-2.574-1.158-2.574-2.574v-2.831
				c0-1.416,1.158-2.574,2.574-2.574h166.57c1.416,0,2.574,1.158,2.574,2.574v2.831C311.159,442.035,310,443.193,308.584,443.193z"
				/>
			<path style="fill:#BCCFD3;" d="M391.01,447.183H226.548c-2.194,0-3.99-1.795-3.99-3.99l0,0c0-2.194,1.795-3.99,3.99-3.99H391.01
				c2.194,0,3.99,1.795,3.99,3.99l0,0C395,445.388,393.205,447.183,391.01,447.183z"/>
			<g>
				<g>
					<g>
						<g>
							<rect x="267.885" y="300.203" style="fill:#5E5E5E;" width="14.108" height="55.475"/>
							<rect x="269.798" y="300.203" style="fill:#686868;" width="10.521" height="55.475"/>
							<polygon style="fill:#919191;" points="267.885,300.203 281.993,300.203 280.319,306.58 269.798,306.58 							"/>
						</g>
						<g>
							<polygon style="fill:#4F4F4F;" points="260.701,362.122 230.648,362.122 245.239,263.379 260.701,263.379 							"/>
							<polygon style="fill:#4F4F4F;" points="228.341,373.323 224.529,375.09 229.105,375.781 232.127,373.872 232.885,368.857 
								233.642,363.846 234.399,358.84 235.156,353.832 235.913,348.824 236.669,343.818 237.425,338.813 238.181,333.812 
								238.937,328.812 239.693,323.806 240.45,318.801 241.206,313.796 241.962,308.793 242.719,303.787 243.474,298.785 
								244.23,293.783 244.986,288.779 245.742,283.78 246.498,278.777 247.254,273.776 248.009,268.778 248.401,263.948 
								245.239,263.379 240.817,265.159 244.221,268.239 240.059,270.174 243.464,273.252 239.302,275.185 242.707,278.257 
								238.546,280.191 241.95,283.268 237.789,285.2 241.193,288.276 237.032,290.207 240.436,293.283 236.276,295.213 
								239.68,298.289 235.519,300.218 238.924,303.289 234.763,305.219 238.168,308.293 234.008,310.219 237.412,313.294 
								233.251,315.225 236.656,318.3 232.495,320.23 235.9,323.304 231.739,325.235 235.143,328.309 230.982,330.239 
								234.387,333.312 230.226,335.244 233.631,338.317 229.47,340.246 232.875,343.318 228.714,345.249 232.119,348.323 
								227.958,350.252 231.363,353.323 227.203,355.251 230.608,358.323 226.447,360.254 229.851,363.327 225.691,365.255 
								229.096,368.326 224.935,370.253 							"/>
						</g>
						<g>
							<rect x="204.997" y="318.137" style="fill:#AD6525;" width="9.326" height="60.167"/>
							<rect x="195.433" y="310.087" style="fill:#3D3D3D;" width="29.013" height="11.138"/>
							<rect x="222.891" y="307.616" style="fill:#4F4F4F;" width="8.05" height="16.26"/>
							<rect x="187.92" y="307.616" style="fill:#4F4F4F;" width="8.05" height="16.26"/>
						</g>
					</g>
					<g>
						<rect x="160.889" y="352.233" style="fill:#AD6525;" width="164.883" height="77.907"/>
						<g>
							<rect x="160.889" y="417.288" style="fill:#C6823E;" width="164.883" height="12.852"/>
							<rect x="160.889" y="350.654" style="fill:#C6823E;" width="164.883" height="12.852"/>
							<rect x="158.366" y="350.654" style="fill:#C6823E;" width="12.434" height="85.429"/>
							<rect x="237.113" y="350.654" style="fill:#C6823E;" width="12.434" height="77.932"/>
							<rect x="314.26" y="350.654" style="fill:#C6823E;" width="12.434" height="85.429"/>
							
								<rect x="158.279" y="387.17" transform="matrix(0.7998 0.6003 -0.6003 0.7998 276.7398 -44.806)" style="fill:#C6823E;" width="94.511" height="10.521"/>
							
								<rect x="234.037" y="387.17" transform="matrix(-0.7998 0.6003 -0.6003 -0.7998 741.8431 537.416)" style="fill:#C6823E;" width="94.511" height="10.521"/>
						</g>
					</g>
				</g>
				<g>
					<rect x="368.161" y="149.906" style="fill:#C6823E;" width="166.803" height="264.036"/>
					<rect x="392.015" y="149.906" style="fill:#AD6525;" width="119.656" height="264.036"/>
					<g>
						<rect x="362.255" y="144" style="fill:#D3A954;" width="11.811" height="294.487"/>
						
							<rect x="445.657" y="60.599" transform="matrix(-1.836970e-16 1 -1 -1.836970e-16 601.4681 -301.6566)" style="fill:#D3A954;" width="11.811" height="178.615"/>
						
							<rect x="445.657" y="147.812" transform="matrix(-1.836970e-16 1 -1 -1.836970e-16 688.6812 -214.4435)" style="fill:#D3A954;" width="11.811" height="178.615"/>
						
							<rect x="445.657" y="235.025" transform="matrix(-1.836970e-16 1 -1 -1.836970e-16 775.8942 -127.2305)" style="fill:#D3A954;" width="11.811" height="178.615"/>
						
							<rect x="445.657" y="322.237" transform="matrix(-1.836970e-16 1 -1 -1.836970e-16 863.1071 -40.0176)" style="fill:#D3A954;" width="11.811" height="178.615"/>
						<rect x="529.058" y="144" style="fill:#D3A954;" width="11.812" height="294.487"/>
					</g>
				</g>
				<g>
					<g>
						<path style="fill:#ED2424;" d="M267.466,260.608h-1.067c-1.692,0-3.064-1.372-3.064-3.064v-24.968h17.867v14.297
							C281.202,254.458,275.052,260.608,267.466,260.608z"/>
						<g>
							<path style="fill:#4F4F4F;" d="M273.223,232.576c0,0,30.291,99.848,22.534,116.773
								c-10.548,23.013-38.355,27.807-38.355,27.807h107.514c0,0-8.39-53.487-27.508-72.29
								c-19.118-18.803-13.266-64.189,7.012-67.975C324.523,227.571,273.223,232.576,273.223,232.576z"/>
							<path style="fill:#EEAE18;" d="M385.412,390.58H235.348v0c0-11.386,9.23-20.616,20.616-20.616h108.833
								C376.182,369.964,385.412,379.194,385.412,390.58L385.412,390.58z"/>
							<path style="fill:#545454;" d="M254.945,380.272c0,1.423-1.154,2.577-2.577,2.577c-1.423,0-2.577-1.154-2.577-2.577
								c0-1.423,1.154-2.577,2.577-2.577C253.791,377.695,254.945,378.849,254.945,380.272z"/>
							<path style="fill:#545454;" d="M367.493,380.272c0,1.423-1.154,2.577-2.577,2.577c-1.423,0-2.577-1.154-2.577-2.577
								c0-1.423,1.154-2.577,2.577-2.577C366.339,377.695,367.493,378.849,367.493,380.272z"/>
							<path style="fill:#545454;" d="M313.736,380.272c0,1.423-1.154,2.577-2.577,2.577c-1.423,0-2.577-1.154-2.577-2.577
								c0-1.423,1.154-2.577,2.577-2.577C312.582,377.695,313.736,378.849,313.736,380.272z"/>
							<rect x="231.512" y="388.423" style="fill:#3D3D3D;" width="155.697" height="53.577"/>
						</g>
						<g>
							<g>
								<path style="fill:#3D3D3D;" d="M153.484,205.128H34.223c-2.913,0-5.274-2.361-5.274-5.274l0,0
									c0-2.913,2.361-5.274,5.274-5.274h119.26V205.128z"/>
								<path style="fill:#4F4F4F;" d="M36.441,194.58c0,0,5.394,0.21,6.832,3.536c1.438,3.326,3.461,11.776,12.495,7.012
									c-6.113-1.798-7.306-5.455-8.45-8.675C46.104,193.037,40.711,190.834,36.441,194.58z"/>
								<path style="fill:#4F4F4F;" d="M48.546,194.58c0,0,5.394,0.21,6.832,3.536c1.438,3.326,3.461,11.776,12.495,7.012
									c-6.113-1.798-7.306-5.455-8.45-8.675C58.21,193.037,52.816,190.834,48.546,194.58z"/>
								<path style="fill:#4F4F4F;" d="M60.652,194.58c0,0,5.394,0.21,6.832,3.536c1.438,3.326,3.461,11.776,12.495,7.012
									c-6.113-1.798-7.306-5.455-8.45-8.675C70.316,193.037,64.922,190.834,60.652,194.58z"/>
								<path style="fill:#4F4F4F;" d="M72.758,194.58c0,0,5.394,0.21,6.832,3.536c1.438,3.326,3.461,11.776,12.495,7.012
									c-6.113-1.798-7.306-5.455-8.45-8.675C82.422,193.037,77.028,190.834,72.758,194.58z"/>
								<path style="fill:#4F4F4F;" d="M84.864,194.58c0,0,5.394,0.21,6.832,3.536s3.461,11.776,12.495,7.012
									c-6.113-1.798-7.306-5.455-8.45-8.675C94.528,193.037,89.134,190.834,84.864,194.58z"/>
								<path style="fill:#4F4F4F;" d="M96.97,194.58c0,0,5.394,0.21,6.832,3.536c1.438,3.326,3.461,11.776,12.495,7.012
									c-6.113-1.798-7.306-5.455-8.45-8.675C106.633,193.037,101.24,190.834,96.97,194.58z"/>
								<path style="fill:#4F4F4F;" d="M109.076,194.58c0,0,5.394,0.21,6.832,3.536s3.461,11.776,12.495,7.012
									c-6.113-1.798-7.306-5.455-8.45-8.675C118.739,193.037,113.345,190.834,109.076,194.58z"/>
								<path style="fill:#4F4F4F;" d="M121.181,194.58c0,0,5.394,0.21,6.832,3.536c1.438,3.326,3.461,11.776,12.495,7.012
									c-6.113-1.798-7.306-5.455-8.45-8.675C130.845,193.037,125.451,190.834,121.181,194.58z"/>
							</g>
							<g>
								<path style="fill:#3D3D3D;" d="M165.829,214.746h-5.813c-7.977,0-14.443-6.466-14.443-14.443l0,0
									c0-7.977,6.466-14.443,14.443-14.443h5.813V214.746z"/>
								<rect x="162.233" y="180.536" style="fill:#727272;" width="27.807" height="38.635"/>
								<g>
									<g>
										<g>
											<g>
												<rect x="187.284" y="167.132" style="fill:#3D3D3D;" width="38.475" height="65.443"/>
												<g>
													<path style="fill:#545454;" d="M212.814,176.122h-15.821c-1.45,0-2.637-1.187-2.637-2.637l0,0
														c0-1.45,1.187-2.637,2.637-2.637h15.821c1.45,0,2.637,1.187,2.637,2.637l0,0
														C215.451,174.935,214.264,176.122,212.814,176.122z"/>
													<path style="fill:#545454;" d="M212.814,186.669h-15.821c-1.45,0-2.637-1.187-2.637-2.637v0
														c0-1.45,1.187-2.637,2.637-2.637h15.821c1.45,0,2.637,1.187,2.637,2.637v0
														C215.451,185.483,214.264,186.669,212.814,186.669z"/>
													<path style="fill:#545454;" d="M212.814,197.217h-15.821c-1.45,0-2.637-1.187-2.637-2.637l0,0
														c0-1.45,1.187-2.637,2.637-2.637h15.821c1.45,0,2.637,1.187,2.637,2.637l0,0
														C215.451,196.03,214.264,197.217,212.814,197.217z"/>
													<path style="fill:#545454;" d="M212.814,207.764h-15.821c-1.45,0-2.637-1.187-2.637-2.637l0,0
														c0-1.45,1.187-2.637,2.637-2.637h15.821c1.45,0,2.637,1.187,2.637,2.637l0,0
														C215.451,206.578,214.264,207.764,212.814,207.764z"/>
													<path style="fill:#545454;" d="M212.814,218.312h-15.821c-1.45,0-2.637-1.187-2.637-2.637l0,0
														c0-1.45,1.187-2.637,2.637-2.637h15.821c1.45,0,2.637,1.187,2.637,2.637l0,0
														C215.451,217.126,214.264,218.312,212.814,218.312z"/>
													<path style="fill:#545454;" d="M212.814,228.86h-15.821c-1.45,0-2.637-1.187-2.637-2.637l0,0
														c0-1.45,1.187-2.637,2.637-2.637h15.821c1.45,0,2.637,1.187,2.637,2.637l0,0
														C215.451,227.673,214.264,228.86,212.814,228.86z"/>
												</g>
											</g>
											<g>
												<path style="fill:#EEAE18;" d="M348.375,236.89H221.444v-74.073h126.931c20.455,0,37.036,16.582,37.036,37.037l0,0
													C385.412,220.309,368.83,236.89,348.375,236.89z"/>
												<path style="fill:#3D3D3D;" d="M321.325,221.333h-24.108c-1.351,0-2.446-1.095-2.446-2.446v-8.441
													c0-1.351,1.095-2.446,2.446-2.446h24.108c1.351,0,2.446,1.095,2.446,2.446v8.441
													C323.771,220.238,322.676,221.333,321.325,221.333z"/>
												<path style="fill:#ED2424;" d="M321.205,220.719h-17.002c-1.099,0-1.989-0.891-1.989-1.989v-8.209
													c0-1.098,0.891-1.989,1.989-1.989h17.002c1.099,0,1.989,0.891,1.989,1.989v8.209
													C323.194,219.828,322.303,220.719,321.205,220.719z"/>
												<path style="fill:#AA1111;" d="M312.56,208.531h-8.62c-0.953,0-1.727,1.026-1.727,2.292v7.604
													c0,1.266,0.773,2.292,1.727,2.292h8.62V208.531z"/>
												<path style="fill:#3D3D3D;" d="M348.375,162.817h-3.955v74.073h3.955c20.455,0,37.037-16.582,37.037-37.037v0
													C385.412,179.399,368.83,162.817,348.375,162.817z"/>
											</g>
										</g>
										<path style="fill:#545454;" d="M328.778,172.846h-39.014c-0.89,0-1.618-0.728-1.618-1.618l0,0
											c0-0.89,0.728-1.618,1.618-1.618h39.014c0.89,0,1.618,0.728,1.618,1.618l0,0
											C330.396,172.117,329.668,172.846,328.778,172.846z"/>
										<path style="fill:#545454;" d="M328.778,179.678h-39.014c-0.89,0-1.618-0.728-1.618-1.618v0
											c0-0.89,0.728-1.618,1.618-1.618h39.014c0.89,0,1.618,0.728,1.618,1.618v0
											C330.396,178.949,329.668,179.678,328.778,179.678z"/>
										<path style="fill:#545454;" d="M328.778,186.509h-39.014c-0.89,0-1.618-0.728-1.618-1.618l0,0
											c0-0.89,0.728-1.618,1.618-1.618h39.014c0.89,0,1.618,0.728,1.618,1.618l0,0
											C330.396,185.781,329.668,186.509,328.778,186.509z"/>
										<path style="fill:#545454;" d="M328.778,193.341h-39.014c-0.89,0-1.618-0.728-1.618-1.618l0,0
											c0-0.89,0.728-1.618,1.618-1.618h39.014c0.89,0,1.618,0.728,1.618,1.618l0,0
											C330.396,192.613,329.668,193.341,328.778,193.341z"/>
									</g>
									<g>
										<circle style="fill:#545454;" cx="227.916" cy="170.488" r="2.577"/>
										<circle style="fill:#545454;" cx="227.916" cy="199.854" r="2.577"/>
										<circle style="fill:#545454;" cx="227.916" cy="229.219" r="2.577"/>
									</g>
									<g>
										<circle style="fill:#545454;" cx="337.408" cy="170.488" r="2.577"/>
										<circle style="fill:#545454;" cx="337.408" cy="199.854" r="2.577"/>
										<circle style="fill:#545454;" cx="337.408" cy="229.219" r="2.577"/>
									</g>
								</g>
							</g>
						</g>
					</g>
					<path style="fill:#3D3D3D;" d="M337.408,304.866c-9.421-9.266-12.768-24.983-11.323-39c-4.906,0.126-11.185,1.122-13.787,5.095
						c-4.555,6.952,16.301,51.06,20.376,65.923c4.075,14.863,3.356,23.732,6.233,25.171c2.418,1.209,13.718,4.928,23.349,1.54
						C358.44,346.454,350.406,317.65,337.408,304.866z"/>
				</g>
				<g>
					<g>
						<path style="fill:#EE7552;" d="M136.373,241.219c0,0-1.85,3.173-5.405,12.314c-3.555,9.141-4.063,30.979,11.511,23.192
							C158.053,268.937,136.373,241.219,136.373,241.219z"/>
						<g>
							<g>
								<g>
									<path style="fill:#2A3051;" d="M168.483,317.194c0,0-1.991,33.984-2.921,41.481c-0.93,7.497-22.279,76.911-22.279,76.911
										l-7.932-1.662c0,0,2.931-52.489,13.791-69.288c3.538-16.887-11.49-35.419-6.824-54.633
										C153.516,310.106,168.483,317.194,168.483,317.194z"/>
									<path style="fill:#2A3051;" d="M175.359,314.996c0,0,5.019,33.67,5.647,41.199c0.627,7.529-2.823,79.888-2.823,79.888
										h-8.104c0,0-10.951-48.241-3.921-70.686c0-17.253-18.508-32.311-17.881-52.074
										C159.256,311.127,175.359,314.996,175.359,314.996z"/>
								</g>
								<g>
									<path style="fill:#FCA08B;" d="M149.363,215.147c0,0,0.904,5.795-1.39,10.748c4.035,1.4,7.462,5.261,9.364,4.96
										c1.308-0.207,1.754-4.462,1.754-4.462L149.363,215.147z"/>
									<g>
										<path style="fill:#FFB29C;" d="M163.044,203.827c0,0,2.489,3.848,2.722,5.508c0.233,1.661-0.605,3.226,0.336,4.222
											c0.941,0.996,1.018,1.116,1.271,1.71c0.253,0.594-0.277,2.913-0.783,3.155c0.058,1.62-0.634,5.835-1.263,7.254
											c-0.628,1.419-4.652,0.542-8.79-0.965c-4.138-1.507-5.295-4.777-6.135-6.8c-0.841-2.023-6.398-4.158-3.012-10.156
											C150.774,201.757,161.951,202.014,163.044,203.827z"/>
										<path style="fill:#202441;" d="M156.254,218.256c-0.068-0.403-1.088-3.583-1.417-7.529
											c1.238-1.119,1.872-4.219,1.872-4.219l0.107-3.731c-3.544,0.341-7.608,1.756-9.426,4.977
											c-1.542,2.732-1.227,4.661-0.349,6.144c1.225-2.361,3.849-3.565,5.001-2.523c1.371,1.24,1.701,3.635,1.132,5.958
											c-0.322,1.312-1.04,2.417-1.418,3.44c0.913,1.514,2.629,3.999,4.695,5.619c4.1,3.216,9.197,4.132,9.826,2.713
											c0.613-1.384,0.337-8.856,0.316-10.556C162.156,217.952,156.315,218.619,156.254,218.256z"/>
										<path style="fill:#FFFFFF;" d="M166.164,221h-4.438C163.664,224.188,166.477,225.625,166.164,221z"/>
										<path style="fill:#202441;" d="M155.609,206.313c0,0,7.284,0.323,9.219-4.347c1.935-4.671-0.472-8.622-2.867-8.624
											c-2.395-0.002-3.606,3.022-3.606,3.022c-2.776-2.11-8.022,0.543-9.2,3.086c-5.482-1.024-4.834,3.715-4.834,3.715
											c-5.671-0.104-2.777,10.727,5.078,16.606c2.283-1.872,1.502-7.923,1.502-7.923L155.609,206.313z"/>
										<path style="fill:#202441;" d="M163.885,213.605c-0.016,0.574-0.313,1.03-0.664,1.02c-0.351-0.01-0.621-0.483-0.605-1.057
											c0.016-0.574,0.313-1.031,0.664-1.02C163.631,212.558,163.902,213.031,163.885,213.605z"/>
										<path style="fill:#FFB29C;" d="M152.64,217.44c0,0-1.386,1.151-3.029-1.072c-1.643-2.223-1.227-4.292-0.298-5.222
											c0.929-0.93,2.915-0.48,3.796,0.779C153.989,213.183,154.214,216.293,152.64,217.44z"/>
									</g>
								</g>
								<path style="fill:#202441;" d="M159.135,210.644c0,0,1.175-2.921,4.835-2.787c0.369-0.101,0.336-1.527-0.739-1.519
									C162.156,206.346,159.403,207.991,159.135,210.644z"/>
								<g>
									<path style="fill:#FF905F;" d="M162.903,233.067c0,0-4.298-5.558-9.485-7.929c-5.187-2.371-6.744-1.26-7.262,1.037
										c-0.519,2.297-1.186,5.706-1.186,5.706L162.903,233.067z"/>
									<path style="fill:#EE7552;" d="M136.373,241.219c0,0,4.595-9.634,12.45-11.561c7.855-1.927,10.968,1.779,13.191,2.075
										c2.223,0.296,6.47,10.013,8.228,16.552c0.535,1.988,2.709,10.315,3.724,25.55c1.091,16.361,1.759,43.631,1.759,43.631
										s-19.435,0.327-28.748-2.341C143.444,280.444,135.508,249.222,136.373,241.219z"/>
									<path style="fill:#2A3051;" d="M174.935,257.333c-1.167-8-8.73-21.196-8.73-21.196s-2.353-5.887-8.603-5.72
										c-6.25,0.167-7.256,6.083-11.294,7.25c-4.039,1.167-2.288-5.725-2.288-5.725c-0.834-0.275-2.427,2.011-3.117,2.778
										c-0.69,0.767-5.301,11.53-4.051,36.28c0.502,9.944,4.626,17.434,5.25,25.375c0.929,11.825-5.464,13.629,0.014,29.123
										c19.236,8.752,34.535-1.718,34.535-1.718S176.102,265.333,174.935,257.333z M173.602,280.667
										c-0.667,3.5-12.833,6.5-15.333,2.167c-2.5-4.333-8.667-34.5-6.667-41.615s10.333-6.719,13.07-4.328
										c2.736,2.39,4.597,11.276,4.597,11.276C172.251,257.176,174.268,277.167,173.602,280.667z"/>
									<path style="fill:#FFB29C;" d="M190.665,231.557c0,0-0.004-1.991-0.639-3.596c-0.635-1.605-2.653-4.835-2.599-5.951
										c0.054-1.116,1.567-0.698,2.338,0.564c0.771,1.262,1.31,1.929,1.31,1.929s-0.24-7.103-1.003-9.815
										c-0.123-2.02,1.411-1.327,1.851,0.124c0.44,1.451,1.193,6.58,1.193,6.58s-0.256-5.628-0.605-7.527
										c-0.349-1.899,0.272-2.018,1.046-1.885c0.775,0.133,1.758,8.545,1.737,9.078c0.974-3.368,0.354-7.713,0.501-8.323
										c0.147-0.61,1.065-0.98,1.532-0.061c0.467,0.919,0.634,7.36,0.451,8.122c0.73-2.137,0.768-5.193,1.017-5.778
										c0.249-0.585,1.328-0.379,1.267,1.435c-0.061,1.814-0.627,8.4-1.459,10.512c-0.832,2.112-1.138,4.978-1.138,4.978
										L190.665,231.557z"/>
									<path style="fill:#EE7552;" d="M161.359,232.939c0,0,20.235,13.187,21.034,14.973s0.511-1.031,1.393-1.587
										c0.883-0.556,1.493-0.858,1.508-1.437c0.015-0.579,0.115-1.872,0.329-2.621c0.214-0.749,2.623-11.267,4.815-12.696
										c2.191-1.429,6.468-0.072,7.651,2.371c0.155,4.204-2.198,14.16-3.151,15.667c-0.953,1.507-0.939,9.212-3.218,12.931
										c-2.279,3.719-4.107,4.678-9.062,3.581c-4.955-1.096-29.125-11.787-29.125-11.787S151.915,233.473,161.359,232.939z"/>
								</g>
							</g>
						</g>
					</g>
					<path style="fill:#EE7552;" d="M164.671,413.801l16.41-0.634c0,0,0.52,21.5,0.853,24c0.333,2.5,8.333,4.5,13.5,6.333
						c5.167,1.833,4.667,5.333,2.667,6s-27.895,0.667-29.618,0.667c-3.812,0-1.298-5.833-0.465-11
						C168.852,434,164.671,413.801,164.671,413.801z"/>
					<g>
						<path style="fill:#4F4F4F;" d="M198.102,446.75c-2,0.667-27.895,0.667-29.618,0.667c-1.1,0-1.662-0.496-1.901-1.311
							c-0.365,2.365-0.151,4.061,1.901,4.061c1.723,0,27.618,0,29.618-0.667c1.246-0.415,1.909-1.931,0.982-3.457
							C198.837,446.366,198.501,446.617,198.102,446.75z"/>
					</g>
					<path style="fill:#E26B50;" d="M135.352,413.167l15.871,2.323c0,0-5.836,18.86-5.503,21.36s8.548,4.5,13.715,6.333
						c5.167,1.833,4.667,5.333,2.667,6c-1,0.333-5.88,0.471-12.873,0.555c-6.993,0.083-15.598-2.655-16.46-2.655
						c-3.812,0-1.298-5.833-0.465-11S135.352,413.167,135.352,413.167z"/>
					<g>
						<path style="fill:#4F4F4F;" d="M162.102,446.683c-1,0.333-5.88,0.471-12.873,0.555c-6.993,0.083-15.598-2.655-16.46-2.655
							c-1.136,0-1.702-0.526-1.926-1.39c-0.327,2.275-0.075,3.89,1.926,3.89c0.862,0,9.467,2.738,16.46,2.655
							c6.993-0.083,11.873-0.221,12.873-0.555c1.207-0.402,1.858-1.838,1.055-3.315
							C162.906,446.244,162.544,446.535,162.102,446.683z"/>
					</g>
				</g>
				<g>
					<g>
						<g>
							<rect x="418.83" y="129.333" style="fill:#727272;" width="4" height="312.667"/>
							<rect x="497.83" y="129.333" style="fill:#727272;" width="4" height="312.667"/>
						</g>
						<rect x="420.83" y="167.132" style="fill:#727272;" width="79" height="5.933"/>
						<rect x="420.83" y="214.667" style="fill:#727272;" width="79" height="5.933"/>
						<rect x="420.83" y="262.201" style="fill:#727272;" width="79" height="5.933"/>
						<rect x="420.83" y="309.736" style="fill:#727272;" width="79" height="5.933"/>
						<rect x="420.83" y="357.27" style="fill:#727272;" width="79" height="5.933"/>
						<rect x="420.83" y="404.805" style="fill:#727272;" width="79" height="5.933"/>
					</g>
					<g>
						<g>
							<path style="fill:#FCA08B;" d="M456.438,82.84c0,0,1.037,9.285,3.6,14.098c-4.035,1.4-9.672,1.911-11.574,1.61
								C447.155,98.34,446.402,93,446.402,93L456.438,82.84z"/>
							<g>
								<path style="fill:#FFB29C;" d="M442.756,71.52c0,0-2.489,3.848-2.722,5.508s0.605,3.226-0.336,4.222
									c-0.941,0.996-1.703,1.667-1.956,2.261c-0.253,0.594,0.962,2.362,1.469,2.604c-0.058,1.62,0.634,5.835,1.263,7.254
									c0.628,1.419,5.502,1.021,9.64-0.486s4.283-6.125,5.124-8.148c0.841-2.023,6.559-3.289,3.173-9.287
									C455.026,69.45,443.85,69.707,442.756,71.52z"/>
								<path style="fill:#202441;" d="M439.211,86.114c0,0,5.756-0.261,6.506,0c0.75,0.261,1.455,7.163,1.185,7.689
									c-0.269,0.526-6.537,0.884-7.33,0.697s0.183-3.763,0.183-3.763s0.475,1.076,2.187,1.201
									c1.712,0.125,3.076-0.389,3.332-1.663c0.255-1.274,0.099-3.019-0.276-3.209s-3.262,0.659-5.787,0
									C438.811,86.688,439.211,86.114,439.211,86.114z"/>
								<path style="fill:#FFFFFF;" d="M439.573,87.291c0,0,0.733,0.936,4.74,0C442.337,90.7,439.826,92.937,439.573,87.291z"/>
								<path style="fill:#202441;" d="M445.274,79.496c0,0-2.666-1.27-3.767-1.185c-1.1,0.085-0.423-1.397,0.55-1.058
									C443.031,77.592,444.851,78.777,445.274,79.496z"/>
								<path style="fill:#202441;" d="M458.412,75.447c-1.818-3.221-5.883-4.636-9.426-4.977l0.106,3.731
									c0,0,0.634,3.1,1.872,4.219c-0.137,1.649-0.396,3.161-0.655,4.395l2.064,0.123c-0.009-1.574,0.91-1.19,1.866-2.055
									c1.152-1.042,3.297-1.654,4.521,0.708C459.638,80.108,459.953,78.179,458.412,75.447z"/>
								<path style="fill:#202441;" d="M450.192,74.006c0,0-7.284,0.323-9.219-4.347c-1.935-4.67,0.472-8.622,2.866-8.625
									c2.395-0.002,3.606,3.022,3.606,3.022c2.776-2.11,8.022,0.543,9.199,3.086c5.482-1.024,4.834,3.715,4.834,3.715
									c5.671-0.104,4.231,13.967-3.623,19.845c-1.379,1.048-2.442-1.233-2.972-3.244c-0.795-3.017,0.015-7.918,0.015-7.918
									L450.192,74.006z"/>
								<path style="fill:#202441;" d="M441.915,81.298c0.016,0.574,0.313,1.03,0.664,1.021c0.35-0.01,0.621-0.483,0.605-1.057
									c-0.016-0.573-0.313-1.03-0.664-1.021C442.17,80.251,441.899,80.724,441.915,81.298z"/>
								<path style="fill:#FFB29C;" d="M452.925,86.767c0,0,1.386,1.151,3.029-1.072c1.643-2.223,1.227-4.292,0.298-5.222
									c-0.929-0.93-2.915-0.479-3.796,0.779C451.576,82.511,451.351,85.62,452.925,86.767z"/>
							</g>
						</g>
						<g>
							<path style="fill:#FFB29C;" d="M522.359,144.6c0,0,1.933,0.436,3.631,0.175c1.698-0.261,5.278-1.505,6.35-1.206
								c1.072,0.299,0.331,1.675-1.064,2.144c-1.395,0.47-2.162,0.844-2.162,0.844s6.946,1.338,9.747,1.197
								c1.987,0.327,0.976,1.663-0.529,1.769c-1.505,0.106-6.649-0.298-6.649-0.298s5.519,0.996,7.439,1.077
								c1.92,0.082,1.899,0.71,1.598,1.432c-0.3,0.722-8.681-0.184-9.193-0.322c3.054,1.69,7.407,2.049,7.966,2.327
								c0.559,0.278,0.716,1.25-0.28,1.5c-0.995,0.249-7.283-1.012-7.982-1.359c1.912,1.181,4.87,1.894,5.383,2.265
								s0.074,1.373-1.673,0.913c-1.747-0.46-8.013-2.466-9.879-3.741c-1.865-1.274-4.579-2.206-4.579-2.206L522.359,144.6z"/>
							<path style="fill:#EE7552;" d="M463.699,100.959c0,0,6.973,17.859,13.106,31.35c6.133,13.491,44.147,20.158,44.147,20.158
								l2.706-8.135c0,0-30.056-13.556-32.29-14.544c-4.055-1.793-11.12-17.472-13.466-23.467
								C475.364,99.832,464.812,93.342,463.699,100.959z"/>
							<g>
								<g>
									<g>
										<g>
											<path style="fill:#202441;" d="M480.352,226.629c4.809-29.362,0.469-62.347,0.469-62.347l-12.998-0.514l-2.142-0.453
												c0,0-0.014,0.132-0.038,0.367l-5.477-0.217c-0.014-0.098-0.022-0.15-0.022-0.15l-0.876,0.115l-2.905-0.115
												c0,0,0.056,0.173,0.155,0.476l-18.33,2.404c0,0,2.483,51.307,4.653,65.017c0.155,8.889-0.496,17.429,0.922,25.838
												c2.071,12.289,6.934,37.587,6.934,37.587l6.524,0.414c0,0,1.577-47.881,1.21-60.419l0,0
												c-0.001-0.214,1.822-29.335,2.866-46.124c1.164,12.434,2.829,30.298,3.463,38.135l0,0
												c-0.018,2.954-0.06,5.406-0.134,7.072c-0.483,10.908,2.171,61.337,2.171,61.337l6.524-0.414
												c0,0,3.87-25.298,5.941-37.587C480.922,247.206,479.75,237.182,480.352,226.629z"/>
											<g>
												<path style="fill:#EE7552;" d="M446.663,279.333c-0.138,2.17,3.375,19.667,1.325,22.898
													c-1.953,3.078-6.352,6.213-4.418,8.028c1.933,1.815,16.431,1.913,17.122,0c0.618-1.712-2.153-16.384-1.862-30.926
													H446.663z"/>
												<path style="fill:#4F4F4F;" d="M443.678,307.455c-0.672,1.094-0.889,2.073-0.109,2.805
													c1.933,1.815,16.431,1.913,17.122,0c0.151-0.419,0.089-1.421-0.098-2.725
													C459.184,309.25,445.895,309.137,443.678,307.455z"/>
											</g>
											<path style="fill:#EE7552;" d="M476.031,302.231c-1.427-1.873,0.937-20.728,0.798-22.898h-11.5
												c0,15.469-2.619,29.214-2.001,30.926c0.69,1.913,15.189,1.815,17.122,0C482.383,308.445,478.24,305.131,476.031,302.231z
												"/>
											<path style="fill:#4F4F4F;" d="M463.418,307.592c-0.181,1.276-0.239,2.254-0.09,2.667c0.69,1.913,15.189,1.815,17.122,0
												c0.768-0.721,0.569-1.681-0.079-2.756C478.24,309.211,464.777,309.329,463.418,307.592z"/>
										</g>
										<path style="fill:#DB5D40;" d="M438.189,138.833c0,0-3.525,9.281-15.359,14.307
											c-3.667-11.141,12.833-27.336,12.833-27.336L438.189,138.833z"/>
										<g>
											<path style="fill:#EE7552;" d="M431.186,103.828c0,0,7.35-6.237,14.806-7.066c7.456-0.828,16.535-1.381,23.783,1.435
												c3.832,17.378,9.837,54.298,12.754,71.527c-23.749,9.941-46.55,7.011-46.55,7.011s-0.724-38.412-3.485-50.839
												C429.733,113.47,431.186,103.828,431.186,103.828z"/>
										</g>
										<path style="fill:#202441;" d="M442.579,97.518c0,0,0.161,5.856,10.641,4.649c10.479-1.208,9.634-5.674,9.634-5.674
											l4.072,0.788c0,0-3.901,24.991,9.418,35.855c5.986,21.365,7.72,38.698,6.186,52.698
											c-7.701-3.667-39.082,1.564-42.891,6.699c-4.309-11.032-4.993-21.728-5.143-36.72c-0.5-7.145-1.083-17.811-1.083-17.811
											s9.635-11.646,4.776-38.656C440.663,97.167,442.579,97.518,442.579,97.518z"/>
										<path style="fill:#EE7552;" d="M430.188,104.969c-4.772,9.065-7.578,24.443-14.206,37.698
											c-6.628,13.255,8.431,12.417,11.092,7.685c4.577-8.139,7.182-19.139,9.978-24.938
											C439.848,119.614,433.572,98.539,430.188,104.969z"/>
									</g>
								</g>
							</g>
						</g>
					</g>
				</g>
				<g>
					<g>
						<g>
							<path style="fill:#DB5D40;" d="M565.501,241.63c0,0-15.856,21.911-17.751,27.23c-0.718,2.016-32.965,7.069-32.965,7.069
								s1.664,4.856,0.995,9.2c14.054-0.984,28.913-1.419,34.873-2.37c5.961-0.951,7.94-3.656,10.229-8.123
								c2.483-4.845,8.715-14.402,13.077-22.497C575.75,248.813,565.501,241.63,565.501,241.63z"/>
							<g>
								<g>
									<g>
										<g>
											<path style="fill:#2A3051;" d="M558.978,315.282c0,0-4.208,37.913-4.649,45.455c-0.441,7.542,5.155,75.012,5.155,75.012
												l8.101-0.201c0,0,8.509-43.473,1.816-65.98c-0.427-17.248,17.727-36.889,16.61-56.63
												C574.98,311.015,558.978,315.282,558.978,315.282z"/>
										</g>
										<g>
											<g>
												<path style="fill:#FFB29C;" d="M613.418,430.253c0,0,2.619,5.608,3.038,6.587c0.419,0.979-5.107,6.767-5.604,7.2
													c-0.497,0.434,6.414-0.43,10.147-2.47c3.733-2.04,3.573-1.751,3.658-2.615c0.085-0.864-1.402-2.875-2.582-4.301
													c-1.18-1.426-2.463-6.78-2.463-6.78L613.418,430.253z"/>
											</g>
											<path style="fill:#2A3051;" d="M568.326,317.913c0,0,10.356,38.663,12.654,45.624
												c2.299,6.96,33.106,70.125,33.106,70.125l7.449-3.19c0,0-8.36-44.22-23.392-64.575
												c-6.589-15.385,4.673-36.099-3.451-53.474C583.76,314.786,568.326,317.913,568.326,317.913z"/>
										</g>
									</g>
									<g>
										<path style="fill:#EE7552;" d="M606.102,246.309c0,0-5.697-11.369-16.096-14.152c-7.813-2.091-10.968,1.779-13.191,2.075
											c-2.223,0.296-6.677,2.775-10.871,6.415c-1.555,1.35-5.043,11.807-6.821,30.003c-1.594,16.32-0.782,44.665-0.782,44.665
											s32.121,7.017,41.434,4.349C603.308,284.982,606.967,254.312,606.102,246.309z"/>
										<path style="fill:#2A3051;" d="M605.675,241.63c-2.667-6.982-10.05-8.221-12.167-6.066c0,0-8.381,5.875-11.586,26.375
											c-11.956-1.375-14.344-4.125-14.344-4.125s2.666-18.907,6.59-22.703c-2.076-1.172-5.66,0.107-7.826,9.822
											c-2.167,9.715-6.766,21.556-6.766,21.556s-3.633,47.656-2.433,65.657c25.2,4.668,40.599-5.906,40.599-5.906
											s1.933-22.759,6.6-38.426C609.009,272.147,608.342,248.612,605.675,241.63z M595.592,283.969
											c-7.5-1.845-7.75-19.405-6.75-27.405c1-8,5.625-19.781,9.25-19.156s5.875,6.531,5.875,6.531
											c2.75,9.5,0.375,22.875,0,28.625S603.092,285.814,595.592,283.969z"/>
									</g>
								</g>
							</g>
							<g>
								<path style="fill:#FCA08B;" d="M586.309,219.16c0,0,0.84,7.916,3.134,12.868c-4.035,1.4-13.289,14.536-13.17,6.536
									c0.049-3.28,0-9.245,0-9.245L586.309,219.16z"/>
								<g>
									<path style="fill:#202441;" d="M571.75,212.188c0,0-4.72-0.644-4.171-4.121c0.344-2.179,2.559-2.248,2.559-2.248
										s-2.649-1.15-2.022-3.451c0.627-2.3,2.614-1.516,2.614-1.516l4.444-2.562c0,0,1.611-2.562,3.681-1.856
										c2.07,0.706,2.305,1.856,2.305,1.856c1.229-2.196,4.941-1.464,4.862,1.229c3.058-2.771,7.659-0.131,7.607,3.111
										c3.346-2.144,3.189,1.464,2.144,2.196c3.294,0.627,2.562,4.81,1.15,5.699c3.503,1.987-0.732,5.228-1.673,5.281
										c2.039,3.189-2.039,4.444-2.039,4.444c0.366,2.667-2.369,3.973-3.903,3.085c-1.534-0.889,0.453-6.169,0.766-8.313
										c0.314-2.144-1.673-6.222-6.379-7.633C578.991,205.975,571.75,212.188,571.75,212.188z"/>
									<path style="fill:#FFB29C;" d="M572.627,207.839c0,0-2.489,3.848-2.722,5.508s0.605,3.226-0.336,4.222
										c-0.941,0.996-1.703,1.667-1.956,2.261c-0.253,0.594,0.962,2.362,1.469,2.604c-0.058,1.62,0.634,5.835,1.263,7.254
										c0.628,1.419,5.502,1.021,9.64-0.486s4.283-6.125,5.124-8.148c0.841-2.023,6.559-3.289,3.173-9.287
										C584.897,205.769,573.72,206.027,572.627,207.839z"/>
									<path style="fill:#FFFFFF;" d="M569.443,223.61c0,0,0.734,0.936,4.74,0C572.208,227.019,569.696,229.257,569.443,223.61z"
										/>
									<path style="fill:#202441;" d="M575.145,215.816c0,0-2.666-1.27-3.767-1.185c-1.1,0.085-0.423-1.397,0.55-1.058
										C572.902,213.911,574.721,215.096,575.145,215.816z"/>
									<path style="fill:#202441;" d="M588.282,211.767c-1.818-3.221-5.883-4.636-9.426-4.977l0.107,3.731
										c0,0,0.634,3.1,1.872,4.219c-0.137,1.649-0.396,3.161-0.655,4.395l2.064,0.124c-0.009-1.574,0.91-1.19,1.866-2.055
										c1.152-1.042,3.297-1.654,4.521,0.708C589.509,216.427,589.824,214.499,588.282,211.767z"/>
									<path style="fill:#202441;" d="M580.063,210.326c0,0-7.284,0.323-9.219-4.347c-1.935-4.67,0.472-8.622,2.867-8.625
										c2.395-0.002,3.606,3.022,3.606,3.022c2.776-2.11,8.022,0.543,9.2,3.086c5.482-1.024,4.834,3.715,4.834,3.715
										c5.671-0.104,3.21,13.967-4.645,19.845c-0.786-2.747-1.935-11.162-1.935-11.162L580.063,210.326z"/>
									<path style="fill:#202441;" d="M571.786,217.617c0.016,0.574,0.313,1.03,0.664,1.021c0.351-0.01,0.621-0.483,0.605-1.057
										c-0.016-0.574-0.313-1.03-0.664-1.021C572.04,216.57,571.769,217.044,571.786,217.617z"/>
									<path style="fill:#FFB29C;" d="M582.796,223.087c0,0,1.386,1.151,3.029-1.072c1.643-2.223,1.227-4.292,0.298-5.222
										c-0.929-0.93-2.915-0.479-3.796,0.779C581.447,218.83,581.222,221.94,582.796,223.087z"/>
								</g>
							</g>
						</g>
						
							<rect x="355.449" y="265.278" transform="matrix(-0.959 -0.2834 0.2834 -0.959 975.2646 712.1516)" style="fill:#D3A954;" width="367.394" height="40.504"/>
						<path style="fill:#FFB29C;" d="M509.887,299.668c0,0-3.875-3.375-3.125-4.5s2.188-0.688,4.188,2.25
							c-0.438-1.063-0.313-2.438,0.563-2.438s2.563,3.438,2.563,3.438c-0.563-1.938,0.25-2.25,0.938-2s2.063,3.25,2.063,3.25
							c-0.313-1.313,0.25-2.063,0.875-1.875s1.112,2.362,3.056,3.493C518.262,304.605,510.979,300.701,509.887,299.668z"/>
						<g>
							<path style="fill:#FFB29C;" d="M554.792,303.518c0,0-1.958,0.357-3.652,0.024c-1.694-0.333-5.236-1.732-6.324-1.476
								c-1.088,0.256-0.402,1.667,0.979,2.197c1.381,0.53,2.135,0.938,2.135,0.938s-4.45,1.747-7.255,1.488
								c-2.008,0.245,1,3.583,2.75,4.542c0.689,0.378,4.782,2.458,8.29,0.926c2.08-0.908,4.689-2.023,4.689-2.023L554.792,303.518z"
								/>
							<path style="fill:#EE7552;" d="M594.312,255.762c0,0-6.663,21.288-7.457,23.076c-0.62,1.394-30.271,22.111-32.651,23.198
								c-2.38,1.086-0.045,6.135,1.386,8.442c5.514,0.764,27.466-9.582,31.349-11.569c7.938-4.063,13.48-11.694,15.206-16.466
								c1.343-3.714,6.972-19.832,5.884-30.815c-0.304-3.065-5.011-11.773-7.024-12.485
								C597.193,237.794,596.682,245.943,594.312,255.762z"/>
						</g>
					</g>
					<path style="fill:#EE7552;" d="M614.684,447.771c1.925-0.812,3.966-1.796,5.932-2.883c3.715-2.041,6.602-4.095,6.975-5.006
						c0.149-2.772-1.644-5.593-4.186-9.825c-2.541-4.232-3.139-10.36-6.577-24.076c-3.588,5.253-16.438,7.18-16.438,7.18
						c3.777,5.256,11.028,20.557,10.878,22.551c-0.079,1.051-1.382,2.075-2.598,2.811c-0.664,0.342-2.453,1.04-2.453,1.04
						c-5.364,2.786-12.211,2.02-11.192,9.285c0.17,1.212,9.884,1.679,13.334,1.014c1.352-0.261,3.1-0.812,5.019-1.562
						c0.001,0.001,0.002,0.001,0.003,0.001c0.056-0.022,0.112-0.046,0.168-0.068c0.299-0.118,0.602-0.242,0.909-0.37
						C614.534,447.833,614.609,447.803,614.684,447.771z"/>
					<g>
						<path style="fill:#4F4F4F;" d="M620.615,442.262c-1.965,1.087-4.006,2.072-5.932,2.883c-0.075,0.032-0.15,0.062-0.225,0.093
							c-0.307,0.128-0.61,0.251-0.909,0.37c-0.056,0.022-0.112,0.046-0.168,0.068c-0.001-0.001-0.002-0.001-0.003-0.002
							c-1.919,0.75-3.668,1.301-5.019,1.562c-3.373,0.651-12.706,0.216-13.284-0.935c-0.156,0.709-0.192,1.537-0.05,2.548
							c0.17,1.212,9.884,1.679,13.334,1.014c1.352-0.261,3.1-0.812,5.019-1.562c0.001,0.001,0.002,0.001,0.003,0.001
							c0.056-0.022,0.112-0.046,0.168-0.068c0.299-0.118,0.602-0.242,0.909-0.37c0.075-0.031,0.15-0.062,0.225-0.093
							c1.925-0.812,3.966-1.796,5.932-2.883c3.715-2.041,6.602-4.095,6.975-5.006c0.039-0.727-0.062-1.46-0.269-2.219
							C626.457,438.697,623.852,440.484,620.615,442.262z"/>
					</g>
					<g>
						<path style="fill:#EE7552;" d="M572.467,413.375l-16.275,0.511c0,0,2.45,20.355,2.116,22.855c-0.333,2.5-8.333,4.5-13.5,6.333
							c-5.167,1.833-4.667,5.333-2.667,6c2,0.667,27.895,0.667,29.618,0.667c3.812,0,1.299-5.833,0.465-11
							C571.392,433.574,572.467,413.375,572.467,413.375z"/>
						<g>
							<path style="fill:#4F4F4F;" d="M542.142,446.324c2,0.667,27.895,0.667,29.618,0.667c1.099,0,1.662-0.496,1.901-1.311
								c0.365,2.365,0.151,4.061-1.901,4.061c-1.723,0-27.618,0-29.618-0.667c-1.246-0.415-1.909-1.931-0.982-3.457
								C541.407,445.94,541.742,446.19,542.142,446.324z"/>
						</g>
					</g>
				</g>
				<g>
					<g>
						<polygon style="fill:#C6823E;" points="337.406,454.462 353.017,454.462 342.833,403.726 327.222,403.726 						"/>
						<polygon style="fill:#D3A954;" points="326.769,455.628 311.159,455.628 321.342,403.726 336.953,403.726 						"/>
					</g>
					<g>
						<polygon style="fill:#C6823E;" points="672.906,454.462 688.517,454.462 678.333,403.726 662.722,403.726 						"/>
						<polygon style="fill:#D3A954;" points="662.269,455.628 646.659,455.628 656.842,403.726 672.453,403.726 						"/>
					</g>
					<rect x="294.009" y="400.519" style="fill:#D3A954;" width="406.667" height="6.414"/>
				</g>
			</g>
		</g>
	</g>
</g>
</svg>
