<?xml version="1.0" encoding="utf-8"?>
<!-- Generator: Adobe Illustrator 27.5.0, SVG Export Plug-In . SVG Version: 6.00 Build 0)  -->
<svg version="1.1" id="Layer_1" xmlns="http://www.w3.org/2000/svg" xmlns:xlink="http://www.w3.org/1999/xlink" x="0px" y="0px"
	 viewBox="0 0 4700 2000" style="enable-background:new 0 0 4700 2000;" xml:space="preserve">
<rect style="fill:#FFFFFF;" width="4700" height="2000"/>
<g>
	<path style="fill:#FFF8E9;" d="M358.988,1921.454c0,0-427.489-183.494-273.967-788.319
		C238.543,528.31,240.863,137.77,1020.938,56.9c675.864-70.067,897.686,167.736,1311.332,175.166
		C4282.593,267.1,4441.448,658.578,4566.58,1051.752c125.133,393.175-43.491,862.725-43.491,862.725L358.988,1921.454z"/>
	<path style="opacity:0.5;fill:#FFFFFF;" d="M948.469,693.729c67.608-33.383,132.591-73.705,205.014-94.678
		c106.586-30.866,220.351-17.465,330.914-26.879c86.413-7.358,184.138-39.36,214.761-120.526
		c24.118-63.925-4.656-138.686-54.489-185.413c-49.834-46.727-116.792-70.352-182.999-87.146
		c-52.16-13.23-107.917-24.374-147.699-60.622c-23.469-21.384-39.47-49.998-59.549-74.459
		c-71.571,0.187-148.979,4.134-233.484,12.894c-270.406,28.033-447.354,93.279-569.542,191.758
		c77.082,3.956,155.508-20.654,233.281-30.848c73.714-9.661,148.44-6.275,222.706-2.871c29.098,1.333,63.742,6.125,76.415,32.361
		c6.035,12.493,5.295,27.269,1.964,40.737c-17.703,71.58-98.202,108.909-171.538,116.362
		c-73.336,7.453-148.952-4.519-220.106,14.741c-97.615,26.42-170.808,106.848-262.151,150.253
		c-34.318,16.308-71.184,27.071-108.826,32.172c-26.489,76.372-48.398,159.811-70.24,249.855
		c46.908,5.986,93.693,13.38,140.929,14.747c96.682,2.796,192.174-19.712,285.733-44.256
		C705.701,788.821,831.534,751.468,948.469,693.729z"/>
	<path style="opacity:0.5;fill:#FFFFFF;" d="M4598.382,1187.038c-41.729,3.316-84.352-4.233-122.181-22.209
		c-58.921-27.999-106.136-79.88-169.104-96.924c-45.899-12.423-94.677-4.701-141.982-9.509s-99.233-28.888-110.652-75.061
		c-2.149-8.688-2.626-18.219,1.267-26.278c8.175-16.924,30.521-20.015,49.293-20.875c47.906-2.196,96.109-4.38,143.659,1.852
		c60.528,7.933,121.669,29.404,181.161,15.717c18.184-4.183,35.49-11.559,53.558-16.216c13.752-3.544,27.709-5.464,41.771-6.18
		c-27.689-71.597-62.622-141.905-115.74-208.716c0,0-34.463-42.766-45.646-51.71c-47.882,25.994-108.103,74.081-158.308,95.717
		c-60.233,25.957-128.095,26.734-193.573,23.01c-39.135-2.226-82.221-4.795-113.368,19.009
		c-22.813,17.435-34.564,45.945-55.788,65.283c-25.662,23.382-61.629,30.571-95.275,39.105
		c-42.708,10.833-85.9,26.073-118.046,56.215c-32.146,30.142-50.707,78.368-35.149,119.603
		c19.754,52.357,82.793,73.001,138.535,77.747c71.319,6.073,144.705-2.571,213.46,17.339
		c46.718,13.529,88.636,39.539,132.247,61.073c75.431,37.245,156.601,61.341,237.969,82.687
		c60.352,15.832,121.948,30.352,184.315,28.548c37.409-1.082,74.381-8.026,111.598-11.953
		C4611.151,1292.442,4606.813,1239.616,4598.382,1187.038z"/>
	<g>
		<path style="fill:#333333;" d="M842.645,891.922h758.684c65.907,0,119.335,48.263,119.335,107.8v399.808h50.635V999.722
			c0-59.537,53.429-107.8,119.335-107.8h334.298c65.907,0,119.335,48.263,119.335,107.8v399.808h47.333V999.722
			c0-59.537,53.428-107.8,119.335-107.8h737.078c65.906,0,119.335,48.263,119.335,107.8v521.963
			c0,59.536-53.429,107.801-119.335,107.801h-737.078c-54.15,0-99.849-32.592-114.439-77.236h-57.125
			c-14.59,44.645-60.288,77.236-114.438,77.236h-334.298c-54.15,0-99.849-32.592-114.439-77.236h-60.428
			c-14.59,44.645-60.289,77.236-114.439,77.236H842.645c-65.907,0-119.335-48.265-119.335-107.801V999.722
			C723.31,940.185,776.738,891.922,842.645,891.922z"/>
		<polygon style="fill:#02CCC0;" points="1162.403,1442.888 3015.096,1442.888 3015.096,573.569 1332.592,573.569 1162.403,780.82 
			1162.403,881.076 		"/>
		
			<rect x="3015.096" y="553.352" transform="matrix(-1 -1.224647e-16 1.224647e-16 -1 6095.4307 1996.2402)" style="fill:#02BAA8;" width="65.239" height="889.535"/>
		<polygon style="fill:#02CCC0;" points="1143.493,1414.514 1453.614,1414.514 1453.614,573.569 1477.725,573.569 
			1477.725,1414.514 1837.958,1414.514 1837.958,573.569 1862.067,573.569 1862.067,1414.514 2222.3,1414.514 2222.3,573.569 
			2246.41,573.569 2246.41,1414.514 2606.643,1414.514 2606.643,573.569 2630.753,573.569 2630.753,1414.514 2990.985,1414.514 
			2990.985,573.569 3015.096,573.569 3015.096,1414.514 3015.096,1433.43 3015.096,1442.888 2990.985,1442.888 2990.985,1433.43 
			2630.753,1433.43 2630.753,1442.888 2606.643,1442.888 2606.643,1433.43 2246.41,1433.43 2246.41,1442.888 2222.3,1442.888 
			2222.3,1433.43 1862.067,1433.43 1862.067,1442.888 1837.958,1442.888 1837.958,1433.43 1477.725,1433.43 1477.725,1442.888 
			1453.614,1442.888 1453.614,1433.43 1143.493,1433.43 		"/>
		
			<rect x="2630.753" y="553.352" transform="matrix(-1 -1.224647e-16 1.224647e-16 -1 5326.7451 1996.2402)" style="fill:#02BAA8;" width="65.239" height="889.535"/>
		
			<rect x="2246.41" y="553.352" transform="matrix(-1 -1.224647e-16 1.224647e-16 -1 4558.0596 1996.2402)" style="fill:#02BAA8;" width="65.239" height="889.535"/>
		
			<rect x="1862.067" y="553.352" transform="matrix(-1 -1.224647e-16 1.224647e-16 -1 3789.3735 1996.2402)" style="fill:#02BAA8;" width="65.239" height="889.535"/>
		
			<rect x="1477.725" y="553.352" transform="matrix(-1 -1.224647e-16 1.224647e-16 -1 3020.6885 1996.2402)" style="fill:#02BAA8;" width="65.239" height="889.535"/>
		<polygon style="fill:#02CCC0;" points="1079.909,1507.203 689.184,1507.203 625.363,1062.672 895.162,655.856 1332.592,573.569 
			1248.503,1193.484 		"/>
		<polygon style="fill:#02CCC0;" points="1359.679,573.569 1332.592,573.569 1070.456,1487.104 1094.566,1493.252 1325.973,771.835 
					"/>
		<polygon style="fill:#02BAA8;" points="1094.566,1491.598 1157.912,1507.203 1434.18,550.477 1370.834,534.872 		"/>
		
			<rect x="637.418" y="1433.43" transform="matrix(-1 -1.224647e-16 1.224647e-16 -1 3734.2988 2940.6328)" style="fill:#02BAA8;" width="2459.463" height="73.773"/>
		<rect x="637.418" y="1433.43" style="opacity:0.5;fill:#02CCC0;" width="2459.463" height="18.916"/>
		<g>
			<g>
				<path style="fill:#02CCC0;" d="M689.444,1076.801l-0.493-4.003l237.003-369.384l338.995-53.648l-211.371,738.088h-326.06
					L689.444,1076.801z M1233.825,677.316L939.342,723.92l-227.237,354.165l35.183,287.424h289.456L1233.825,677.316z"/>
			</g>
		</g>
		<path style="fill:#02CCC0;" d="M3782.739,866.403h-535.491c-53.248,0-96.415,43.181-96.415,96.448v612.956h378.359h479.201
			v-254.393l-149.357-401.955C3847.185,887.563,3816.755,866.403,3782.739,866.403z"/>
		<path style="opacity:0.2;fill:#02CCC0;" d="M3312.215,985.181c0,0,89.763,487.209,552.759,467.165l1.773,75.01l-1.773,18.089
			l-7.445,12.769l-9.573,9.576l-14.359,6.422l-6.914,0.849l-32.797,0.747h-115.587c0,0-140.051-0.215-140.76,0.14
			c-0.709,0.355-52.298,0-52.298,0l-174.62-112.433L3312.215,985.181z"/>
		
			<rect x="4008.394" y="1321.414" transform="matrix(-1 -1.224647e-16 1.224647e-16 -1 8036.6426 2812.4766)" style="fill:#02CCC0;" width="19.855" height="169.648"/>
		<g>
			<path style="fill:#183658;" d="M3309.024,1531.753V985.181c0-25.171,20.472-45.649,45.634-45.649h365.05
				c18.945,0,36.127,11.928,42.752,29.683l102.822,275.484c1.913,5.122,2.882,10.495,2.882,15.967v271.088
				c0,25.173-20.47,45.649-45.633,45.649h-467.873C3329.496,1577.402,3309.024,1556.926,3309.024,1531.753z M3354.658,942.723
				c-23.403,0-42.443,19.046-42.443,42.458v546.572c0,23.411,19.04,42.458,42.443,42.458h467.873
				c23.403,0,42.442-19.047,42.442-42.458v-271.088c0-5.09-0.902-10.087-2.681-14.851L3759.472,970.33
				c-6.163-16.512-22.143-27.607-39.764-27.607H3354.658z"/>
		</g>
		<path style="fill:#E5BE00;" d="M4041.882,1478.775h-13.633v-145.074h13.633c3.437,0,6.222,2.785,6.222,6.222v132.631
			C4048.104,1475.99,4045.318,1478.775,4041.882,1478.775z"/>
		<path style="fill:#183658;" d="M3820.894,1219.807l-85.104-240.608c-3.485-9.855-12.802-16.443-23.252-16.443h-351.724
			c-13.623,0-24.665,11.047-24.665,24.673v240.609c0,13.626,11.042,24.673,24.665,24.673h436.828
			C3814.667,1252.71,3826.573,1235.862,3820.894,1219.807z"/>
		<path style="fill:#02BAA8;" d="M4059.45,1635.816L4059.45,1635.816c0,33.143-22.741,60.01-50.793,60.01h-857.824v-120.02h857.824
			C4036.709,1575.807,4059.45,1602.674,4059.45,1635.816z"/>
		<path style="fill:#183658;" d="M3982.864,1252.71h-33.092l-96.236-258.885c-5.595-15.053,5.533-31.07,21.588-31.07l0,0
			L3982.864,1252.71z"/>
		<path style="fill:#333333;" d="M2064.574,1695.813h-41.243h-442.652c0,0-19.691-35.099-11.656-36.518
			c8.035-1.419,50.582-105.523,50.582-105.523l100.695-74.997l110.623-26.43l100.695,26.43l75.255,54.255l46.713,58.168
			l24.11,86.541L2064.574,1695.813z"/>
		<path style="fill:#02BAA8;" d="M2075.571,1706.376c-5.906,0-10.743-4.659-10.997-10.563
			c-5.547-128.698-111.95-231.692-241.947-231.692s-236.401,102.994-241.948,231.692c-0.254,5.903-5.091,10.563-10.998,10.563l0,0
			c-6.282,0-11.321-5.246-11.05-11.524c6.052-140.428,122.151-252.807,263.996-252.807c141.844,0,257.943,112.379,263.995,252.807
			C2086.893,1701.13,2081.854,1706.376,2075.571,1706.376L2075.571,1706.376z"/>
		
			<rect x="3461.899" y="948.068" transform="matrix(-1 -1.224647e-16 1.224647e-16 -1 6940.8164 2215.4653)" style="fill:#02CCC0;" width="17.018" height="319.33"/>
		<g>
			<path style="fill:#333333;" d="M1336.513,1695.813h-41.243H852.618c0,0-19.691-35.099-11.656-36.518
				c8.035-1.419,50.582-105.523,50.582-105.523l100.695-74.997l110.623-26.43l100.695,26.43l75.255,54.255l46.713,58.168
				l24.11,86.541L1336.513,1695.813z"/>
			<path style="fill:#02BAA8;" d="M1347.511,1706.376c-5.907,0-10.743-4.659-10.998-10.563
				c-5.547-128.698-111.951-231.692-241.948-231.692c-129.997,0-236.4,102.994-241.948,231.692
				c-0.254,5.903-5.091,10.563-10.997,10.563l0,0c-6.282,0-11.321-5.246-11.051-11.524
				c6.052-140.428,122.151-252.807,263.996-252.807c141.844,0,257.943,112.379,263.995,252.807
				C1358.832,1701.13,1353.792,1706.376,1347.511,1706.376L1347.511,1706.376z"/>
		</g>
		<g>
			
				<ellipse transform="matrix(0.002 -1 1 0.002 118.6329 3519.7432)" style="fill:#1A1A1A;" cx="1822.627" cy="1700.439" rx="210.797" ry="210.727"/>
			
				<ellipse transform="matrix(0.0025 -1 1 0.0025 117.5493 3518.7278)" style="fill:#9E9DA2;" cx="1822.627" cy="1700.439" rx="146.666" ry="146.617"/>
			<path style="opacity:0.5;fill:#9E9DA2;" d="M1740.864,1578.686c-14.092,22.527-22.265,49.138-22.265,77.672
				c0,81.002,65.643,146.666,146.617,146.666c30.275,0,58.404-9.184,81.762-24.912c-25.911,41.424-71.901,68.994-124.352,68.994
				c-80.974,0-146.617-65.665-146.617-146.666C1676.01,1649.723,1701.746,1605.023,1740.864,1578.686z"/>
			<path style="fill:#D8D9DD;" d="M1724.573,1700.439c0,54.172,43.9,98.086,98.054,98.086c54.153,0,98.054-43.914,98.054-98.086
				s-43.9-98.088-98.054-98.088C1768.473,1602.352,1724.573,1646.268,1724.573,1700.439z"/>
			<path style="opacity:0.3;fill:#D8D9DD;" d="M1768.471,1618.676c-10.303,15.524-16.318,34.144-16.318,54.174
				c0,54.171,43.9,98.087,98.054,98.087c20.024,0,38.637-6.018,54.156-16.324c-17.562,26.461-47.606,43.913-81.736,43.913
				c-54.154,0-98.054-43.914-98.054-98.086C1724.573,1666.298,1742.02,1636.244,1768.471,1618.676z"/>
		</g>
		<path style="opacity:0.5;fill:#02CCC0;" d="M4008.657,1575.807c28.052,0,50.793,26.867,50.793,60.01l0,0
			c0,2.464-0.164,4.879-0.408,7.265c-3.041-29.709-24.418-52.744-50.385-52.744h-857.824v-14.53H4008.657z"/>
		<g>
			
				<ellipse transform="matrix(0.0019 -1 1 0.0019 -608.0036 2791.6887)" style="fill:#1A1A1A;" cx="1094.565" cy="1700.439" rx="210.797" ry="210.727"/>
			
				<ellipse transform="matrix(0.0025 -1 1 0.0025 -608.6533 2790.6746)" style="fill:#9E9DA2;" cx="1094.565" cy="1700.439" rx="146.666" ry="146.617"/>
			<path style="opacity:0.5;fill:#9E9DA2;" d="M1012.803,1578.686c-14.092,22.527-22.265,49.138-22.265,77.672
				c0,81.002,65.643,146.666,146.617,146.666c30.275,0,58.404-9.184,81.763-24.912c-25.912,41.424-71.901,68.994-124.352,68.994
				c-80.975,0-146.617-65.665-146.617-146.666C947.949,1649.723,973.685,1605.023,1012.803,1578.686z"/>
			<path style="fill:#D8D9DD;" d="M996.512,1700.439c0,54.172,43.9,98.086,98.054,98.086c54.153,0,98.054-43.914,98.054-98.086
				s-43.9-98.088-98.054-98.088C1040.412,1602.352,996.512,1646.268,996.512,1700.439z"/>
			<path style="opacity:0.3;fill:#D8D9DD;" d="M1040.41,1618.676c-10.303,15.524-16.318,34.144-16.318,54.174
				c0,54.171,43.9,98.087,98.054,98.087c20.024,0,38.637-6.018,54.156-16.324c-17.562,26.461-47.606,43.913-81.736,43.913
				c-54.154,0-98.054-43.914-98.054-98.086C996.511,1666.298,1013.958,1636.244,1040.41,1618.676z"/>
		</g>
		<path style="fill:#333333;" d="M3646.385,1695.813h-41.243h-442.652c0,0-19.691-35.099-11.656-36.518
			s50.582-105.523,50.582-105.523l100.695-74.997l110.623-26.43l100.694,26.43l75.256,54.255l46.713,58.168l24.11,86.541
			L3646.385,1695.813z"/>
		<path style="fill:#333333;" d="M3372.979,1298.942h127.729c1.542,0,2.792-1.25,2.792-2.792v-12.243
			c0-1.542-1.25-2.792-2.792-2.792h-127.729c-1.542,0-2.793,1.25-2.793,2.792v12.243
			C3370.186,1297.692,3371.437,1298.942,3372.979,1298.942z"/>
		<g>
			
				<ellipse transform="matrix(0.002 -1 1 0.002 1697.2955 5101.5205)" style="fill:#1A1A1A;" cx="3404.437" cy="1700.439" rx="210.797" ry="210.727"/>
			
				<ellipse transform="matrix(0.0025 -1 1 0.0025 1695.3417 5100.5386)" style="fill:#9E9DA2;" cx="3404.437" cy="1700.439" rx="146.666" ry="146.617"/>
			<path style="opacity:0.5;fill:#9E9DA2;" d="M3322.675,1578.686c-14.093,22.527-22.266,49.138-22.266,77.672
				c0,81.002,65.643,146.666,146.617,146.666c30.275,0,58.404-9.184,81.763-24.912c-25.911,41.424-71.901,68.994-124.353,68.994
				c-80.974,0-146.616-65.665-146.616-146.666C3257.82,1649.723,3283.556,1605.023,3322.675,1578.686z"/>
			<path style="fill:#D8D9DD;" d="M3306.383,1700.439c0,54.172,43.9,98.086,98.054,98.086c54.154,0,98.055-43.914,98.055-98.086
				s-43.9-98.088-98.055-98.088C3350.283,1602.352,3306.383,1646.268,3306.383,1700.439z"/>
			<path style="opacity:0.3;fill:#D8D9DD;" d="M3350.281,1618.676c-10.303,15.524-16.317,34.144-16.317,54.174
				c0,54.171,43.899,98.087,98.053,98.087c20.024,0,38.637-6.018,54.156-16.324c-17.561,26.461-47.605,43.913-81.736,43.913
				c-54.153,0-98.054-43.914-98.054-98.086C3306.383,1666.298,3323.83,1636.244,3350.281,1618.676z"/>
		</g>
		<path style="fill:#1A1A1A;" d="M2529.675,1695.826h421.626c11.506,0,20.833-9.327,20.833-20.833v-91.337
			c0-11.506-9.327-20.833-20.833-20.833h-421.626c-11.506,0-20.833,9.327-20.833,20.833v91.337
			C2508.842,1686.499,2518.169,1695.826,2529.675,1695.826z"/>
		<path style="fill:#9E9DA2;" d="M2906.162,1700.439h9.737c1.228,0,2.223-0.995,2.223-2.223v-191.014h-14.182v191.014
			C2903.94,1699.444,2904.935,1700.439,2906.162,1700.439z"/>
		<path style="fill:#9E9DA2;" d="M2570.513,1700.439h9.737c1.228,0,2.223-0.995,2.223-2.223v-191.014h-14.183v191.014
			C2568.29,1699.444,2569.285,1700.439,2570.513,1700.439z"/>
		<path style="fill:#333333;" d="M572.635,1535.395h164.666c2.439,0,4.416-1.977,4.416-4.415v-19.36
			c0-2.439-1.977-4.416-4.416-4.416H572.635c-2.439,0-4.416,1.977-4.416,4.416v19.36
			C568.219,1533.418,570.196,1535.395,572.635,1535.395z"/>
		<path style="fill:#02BAA8;" d="M3657.382,1706.376c-5.906,0-10.742-4.659-10.997-10.563
			c-5.548-128.698-111.951-231.692-241.948-231.692c-129.996,0-236.4,102.994-241.947,231.692
			c-0.254,5.903-5.09,10.563-10.997,10.563l0,0c-6.282,0-11.321-5.246-11.051-11.524c6.053-140.428,122.151-252.807,263.995-252.807
			c141.845,0,257.943,112.379,263.996,252.807C3668.703,1701.13,3663.664,1706.376,3657.382,1706.376L3657.382,1706.376z"/>
		<polygon style="opacity:0.3;fill:#FFFFFF;" points="3650.335,962.755 3750.149,1252.71 3668.443,1252.71 3565.492,962.755 		"/>
		<polygon style="opacity:0.3;fill:#FFFFFF;" points="3533.552,962.755 3637.358,1252.71 3605.142,1252.71 3507.6,962.755 		"/>
	</g>
	<g>
		<g>
			<path style="fill:#C2DDF9;" d="M1787.84,1206.016c0,0-31.651,37.62-106.193,44.257s-18.733,46.011-18.733,46.011
				s89.83,12.939,121.213-8.142C1815.511,1267.06,1787.84,1206.016,1787.84,1206.016z"/>
			<g>
				<g>
					<path style="opacity:0.6;fill:#CFE9FA;" d="M1544.699,1222.621l-0.086-0.585c-1.498-10.229,4.491-19.821,13.829-23.235
						c1.563-0.572,2.492-2.185,2.25-3.832l-1.351-9.228l9.354-1.371l1.352,9.233c0.241,1.646,1.591,2.925,3.25,3.025
						c9.914,0.603,18.389,8.07,19.886,18.291l0.085,0.585c0.26,1.777-0.873,3.438-2.576,3.873l4.699,32.089
						c1.854,0.262,3.394,1.713,3.679,3.66l6.785,46.336c1.107,7.561-4.123,14.587-11.68,15.694l-10.601,1.554l-10.601,1.553
						c-7.558,1.107-14.582-4.123-15.689-11.684l-6.785-46.337c-0.285-1.947,0.774-3.779,2.475-4.562l-4.699-32.088
						C1546.521,1225.664,1544.959,1224.399,1544.699,1222.621z"/>
					<path style="fill:#FF5B7E;" d="M1559.268,1191.652l11.276-1.652c0.755-0.11,1.278-0.813,1.168-1.567l-0.529-3.613
						c-0.111-0.756-0.813-1.278-1.568-1.167l-11.276,1.652c-0.755,0.11-1.278,0.812-1.167,1.567l0.529,3.613
						C1557.811,1191.24,1558.512,1191.763,1559.268,1191.652z"/>
					<g>
						<path style="fill:#FFFFFF;" d="M1550.24,1221.355c0.729-0.107,1.285-0.736,1.28-1.494
							c-0.065-10.193,7.545-15.041,7.869-15.242c0.702-0.437,0.92-1.359,0.486-2.063c-0.434-0.703-1.353-0.925-2.058-0.492
							c-0.383,0.235-9.371,5.89-9.295,17.816c0.005,0.828,0.681,1.495,1.509,1.49
							C1550.102,1221.37,1550.171,1221.365,1550.24,1221.355z"/>
					</g>
					<path style="opacity:0.3;fill:#CFE9FA;" d="M1552.976,1257.682l-4.699-32.088l21.263-3.116c0,0-15.699,4.323-15.797,11.315
						c-0.099,6.993-2.515,24.679,20.559,21.586c0,0-18.658,4.427-18.505,14.285s0.337,52.513,27.779,49.047l-10.601,1.553
						c-7.558,1.107-14.582-4.123-15.689-11.684l-6.785-46.337C1550.215,1260.296,1551.274,1258.464,1552.976,1257.682z"/>
				</g>
				<g>
					<path style="opacity:0.6;fill:#CFE9FA;" d="M1651.67,1215.135l0.567-0.165c9.922-2.893,20.245,1.72,24.911,10.501
						c0.781,1.471,2.506,2.168,4.104,1.702l8.951-2.609l2.645,9.079l-8.956,2.611c-1.596,0.466-2.676,1.979-2.547,3.638
						c0.768,9.905-5.458,19.331-15.372,22.222l-0.567,0.165c-1.725,0.503-3.524-0.392-4.19-2.019l-31.125,9.075
						c-0.003,1.873-1.229,3.599-3.117,4.149l-44.945,13.104c-7.333,2.138-15.011-2.075-17.148-9.411l-2.998-10.289l-2.998-10.289
						c-2.137-7.336,2.075-15.016,9.408-17.154l44.945-13.104c1.889-0.551,3.849,0.246,4.858,1.823l31.124-9.074
						C1648.907,1217.359,1649.945,1215.638,1651.67,1215.135z"/>
					<path style="fill:#FF5B7E;" d="M1684.339,1225.304l3.189,10.945c0.214,0.733,0.981,1.154,1.714,0.94l3.504-1.021
						c0.733-0.214,1.153-0.98,0.94-1.714l-3.189-10.945c-0.214-0.732-0.981-1.153-1.714-0.94l-3.504,1.022
						C1684.546,1223.804,1684.126,1224.571,1684.339,1225.304z"/>
					<g>
						<path style="fill:#FFFFFF;" d="M1653.687,1220.451c0.205,0.707,0.906,1.172,1.655,1.063
							c10.083-1.468,15.932,5.403,16.176,5.696c0.529,0.636,1.473,0.725,2.109,0.198c0.636-0.527,0.729-1.468,0.204-2.107
							c-0.285-0.347-7.122-8.473-18.92-6.756c-0.819,0.119-1.387,0.881-1.268,1.7
							C1653.652,1220.316,1653.667,1220.385,1653.687,1220.451z"/>
					</g>
					<path style="opacity:0.3;fill:#CFE9FA;" d="M1618.095,1228.164l31.124-9.074l6.014,20.639c0,0-6.442-14.959-13.38-14.094
						c-6.937,0.865-24.781,0.908-18.541,23.343c0,0-6.953-17.876-16.693-16.367s-51.948,7.566-44.737,34.278l-2.998-10.289
						c-2.137-7.336,2.075-15.016,9.408-17.154l44.945-13.104C1615.126,1225.79,1617.086,1226.587,1618.095,1228.164z"/>
				</g>
				<g>
					<path style="opacity:0.6;fill:#CFE9FA;" d="M1632.883,1177.562l0.47-0.354c8.22-6.192,19.478-5.513,26.943,1.054
						c1.25,1.1,3.104,1.145,4.429,0.147l7.416-5.587l5.687,7.555l-7.42,5.59c-1.323,0.997-1.792,2.791-1.084,4.295
						c4.231,8.987,1.772,19.985-6.441,26.173l-0.47,0.354c-1.429,1.076-3.424,0.873-4.621-0.413l-25.788,19.426
						c0.661,1.752,0.132,3.795-1.433,4.974l-37.238,28.052c-6.076,4.576-14.726,3.339-19.321-2.765l-6.445-8.562l-6.444-8.562
						c-4.595-6.104-3.395-14.763,2.681-19.339l37.238-28.052c1.565-1.179,3.674-1.124,5.175-0.004l25.788-19.426
						C1631.098,1180.612,1631.454,1178.639,1632.883,1177.562z"/>
					<path style="fill:#FF5B7E;" d="M1666.938,1175.576l6.856,9.107c0.459,0.61,1.326,0.732,1.935,0.272l2.894-2.18
						c0.609-0.459,0.731-1.325,0.272-1.935l-6.856-9.107c-0.459-0.61-1.326-0.732-1.936-0.273l-2.894,2.181
						C1666.602,1174.101,1666.479,1174.967,1666.938,1175.576z"/>
					<g>
						<path style="fill:#FFFFFF;" d="M1636.649,1181.82c0.443,0.588,1.26,0.776,1.919,0.411c8.877-4.918,16.766-0.553,17.097-0.364
							c0.718,0.407,1.63,0.159,2.036-0.558c0.406-0.716,0.159-1.627-0.559-2.04c-0.389-0.224-9.643-5.414-20.03,0.34
							c-0.721,0.399-0.98,1.311-0.578,2.034C1636.569,1181.706,1636.607,1181.766,1636.649,1181.82z"/>
					</g>
					<path style="opacity:0.3;fill:#CFE9FA;" d="M1606.215,1201.545l25.788-19.426l12.927,17.173c0,0-11.312-11.714-17.47-8.466
						c-6.158,3.248-22.773,9.563-8.998,28.334c0,0-12.823-14.261-21.365-9.426c-8.542,4.836-45.73,25.34-29.531,47.767l-6.444-8.562
						c-4.595-6.104-3.395-14.763,2.681-19.34l37.238-28.051C1602.605,1200.37,1604.714,1200.425,1606.215,1201.545z"/>
				</g>
				<g>
					<path style="opacity:0.6;fill:#CFE9FA;" d="M1544.254,1250.875l-0.509-0.295c-8.907-5.154-12.675-15.788-9.544-25.227
						c0.524-1.58-0.158-3.307-1.593-4.137l-8.036-4.649l4.734-8.187l8.041,4.653c1.434,0.829,3.268,0.562,4.376-0.679
						c6.621-7.404,17.703-9.431,26.603-4.28l0.509,0.295c1.548,0.896,2.14,2.813,1.424,4.417l27.942,16.17
						c1.354-1.292,3.441-1.602,5.137-0.62l40.351,23.351c6.583,3.81,8.82,12.26,4.995,18.874l-5.365,9.276l-5.365,9.277
						c-3.825,6.613-12.263,8.887-18.846,5.077l-40.351-23.351c-1.696-0.981-2.468-2.945-2.023-4.765l-27.943-16.17
						C1547.758,1251.328,1545.802,1251.771,1544.254,1250.875z"/>
					<path style="fill:#FF5B7E;" d="M1529.137,1220.283l5.707-9.869c0.382-0.66,0.156-1.506-0.505-1.888l-3.136-1.814
						c-0.661-0.383-1.506-0.157-1.889,0.504l-5.707,9.868c-0.382,0.661-0.156,1.506,0.504,1.889l3.136,1.814
						C1527.91,1221.17,1528.755,1220.943,1529.137,1220.283z"/>
					<g>
						<path style="fill:#FFFFFF;" d="M1546.704,1245.745c0.369-0.638,0.223-1.464-0.371-1.929
							c-7.99-6.257-7.051-15.226-7.007-15.604c0.095-0.82-0.489-1.563-1.307-1.658c-0.817-0.094-1.56,0.489-1.66,1.311
							c-0.054,0.445-1.22,10.995,8.129,18.315c0.649,0.509,1.589,0.392,2.098-0.261
							C1546.63,1245.862,1546.67,1245.805,1546.704,1245.745z"/>
					</g>
					<path style="opacity:0.3;fill:#CFE9FA;" d="M1576.735,1266.077l-27.943-16.17l10.761-18.608c0,0-6.367,14.99-0.974,19.395
						c5.393,4.404,17.688,17.243,29.59-2.77c0,0-8.123,17.375-0.339,23.355c7.784,5.98,41.168,32.23,55.488,8.559l-5.365,9.277
						c-3.825,6.613-12.263,8.887-18.846,5.077l-40.351-23.351C1577.062,1269.86,1576.29,1267.896,1576.735,1266.077z"/>
				</g>
				<path style="fill:#D7EEF9;" d="M1637.584,1287.468c0,0,23.349-53.121,22.93-64.181c0,0,35.073,2.605,70.156,5.63l-25.416,60.694
					L1637.584,1287.468z"/>
				<path style="fill:#D7EEF9;" d="M1610.706,1290.307c0,0-23.349-53.121-22.93-64.18c0,0-35.073,2.605-70.156,5.629l25.416,60.694
					L1610.706,1290.307z"/>
				<rect x="1512.188" y="1259.775" style="fill:#EDD9A4;" width="214.857" height="143.453"/>
				<rect x="1654.408" y="1259.775" style="fill:#D6BB80;" width="72.637" height="143.453"/>
				<path style="fill:#D6BB80;" d="M1716.983,1292.064h-49.333c-1.88,0-3.404-1.523-3.404-3.403v-0.001
					c0-1.88,1.524-3.404,3.404-3.404h49.333c1.88,0,3.404,1.524,3.404,3.404v0.001
					C1720.387,1290.541,1718.863,1292.064,1716.983,1292.064z"/>
			</g>
			<polygon style="fill:#FFC0BB;" points="1809.044,1891.354 1809.044,1870.259 1784.92,1863.575 1779.551,1865.935 
				1778.635,1891.354 1786.231,1913.503 			"/>
			<polygon style="fill:#122F5B;" points="1756.58,1458.747 1773.696,1876.088 1813.56,1876.088 1848.684,1560.643 
				1802.632,1419.316 			"/>
			<polygon style="fill:#FFC0BB;" points="1963.201,1891.354 1963.201,1870.259 1939.077,1863.575 1933.708,1865.935 
				1932.792,1891.354 1940.389,1913.503 			"/>
			<path style="fill:#FFC0BB;" d="M1650.965,1347.756c0.704,0.624,0.443,1.786-0.466,2.032c-7.039,1.906-29.148,8.048-29.07,9.949
				c0.092,2.261,19.981-2.744,21.146-0.995c1.164,1.748-18.359,6.141-17.871,8.542c0.489,2.401,18.156-2.201,18.715-1.261
				c0.56,0.94-15.896,7.16-16.457,8.745s17.814-2.916,18.816-1.968s-10.646,8.272-10.133,9.346c0.512,1.072,0.675,1.873,31.62-7.1
				l12.032-4.054l8.038-8.614l-6.016-12.825c0,0-38.76-14.739-40.151-13.745C1639.843,1336.757,1640.12,1338.137,1650.965,1347.756z
				"/>
			<path style="fill:#224887;" d="M1773.696,1459.633l156.164,416.455l38.246-3.124c0,0-47.612-381.813-76.103-418.12
				c-28.49-36.308-90.933-28.5-90.933-28.5L1773.696,1459.633z"/>
			<path style="fill:#FFC0BB;" d="M1791.026,1212.58c0,0,19.291,11.438,34.319,0l0,0l-3.543-27.918l-29.901-6.164L1791.026,1212.58
				L1791.026,1212.58z"/>
			<path style="fill:#FC8D84;" d="M1791.434,1196.709l0.467-18.211l30.334,9.438l0.853,6.825
				C1816.357,1197.205,1803.565,1200.174,1791.434,1196.709z"/>
			<path style="fill:#E4F0FF;" d="M1675.013,1333.818c15.287,3.652,51.255,1.833,78.504-0.309
				c0.221-22.543,1.084-43.523,3.063-58.251c7.025-52.314,31.26-69.243,31.26-69.243c24.158,2.874,40.94-10.009,40.94-10.009
				c32.393,0.391,51.125,17.958,51.125,17.958c49.766,42.94,12.099,130.785,12.099,130.785l13.66,116.06
				c-30.832,10.54-156.89,4.204-156.89,4.204s6.162-36.963,5.26-74.578c-39.949-2.242-79.021-8.598-79.021-8.598
				C1673.452,1373.249,1675.013,1333.818,1675.013,1333.818z"/>
			<path style="fill:#122F5B;" d="M1841.399,1255.608c0.081,17.376-7.53,34.115-19.544,46.061
				c-6.005,6.014-12.976,11.025-20.501,15.002c-7.521,3.974-15.461,7.248-23.719,9.514c-1.026,0.301-2.035,0.66-3.073,0.922
				l-3.12,0.768c-2.083,0.497-4.152,1.056-6.248,1.505l-6.325,1.188l-3.163,0.594l-3.191,0.443c-4.254,0.606-8.504,1.254-12.8,1.563
				l-6.429,0.596c-2.147,0.162-4.3,0.243-6.451,0.368c-17.215,0.894-34.517,0.563-51.824-0.313
				c17.178,2.234,34.538,3.493,51.933,3.053c17.362-0.474,34.862-2.331,51.682-7.318c8.424-2.386,16.598-5.759,24.315-9.969
				c7.675-4.273,14.882-9.546,20.884-16.024c3.05-3.186,5.699-6.739,8.086-10.435c2.294-3.763,4.27-7.705,5.833-11.808
				c1.478-4.134,2.586-8.385,3.239-12.7C1841.642,1264.31,1841.887,1259.922,1841.399,1255.608z"/>
			<path style="fill:#122F5B;" d="M1675.013,1381.838c18.862,4.228,38.049,7.043,57.333,8.749
				c19.286,1.706,38.717,2.213,58.102,1.02c19.334-1.321,38.798-4.204,57.128-11.018c9.143-3.372,17.95-7.856,25.732-13.768
				c7.719-5.943,14.412-13.373,18.695-22.071c-4.978,8.299-11.805,15.311-19.708,20.679c-7.854,5.453-16.605,9.494-25.643,12.579
				c-9.051,3.079-18.393,5.297-27.843,6.875c-9.45,1.594-19,2.638-28.586,3.22c-19.171,1.25-38.45,0.9-57.673-0.239
				c-9.613-0.595-19.221-1.394-28.812-2.403C1694.138,1384.516,1684.569,1383.265,1675.013,1381.838z"/>
			<g>
				<path style="fill:#122F5B;" d="M1743.162,1918.226l70.223-0.204c2.17-0.007,3.924-1.771,3.917-3.942l0,0
					c-0.006-2.171-1.77-3.926-3.941-3.919l-70.223,0.204c-2.17,0.006-3.924,1.771-3.917,3.942l0,0
					C1739.228,1916.477,1740.992,1918.231,1743.162,1918.226z"/>
				<path style="fill:#3660AC;" d="M1813.647,1886.278l2.65,21.855c0.327,2.694-1.174,5.146-3.154,5.152l-68.806,0.2
					c-1.787,0.005-3.558-1.105-4.502-3.201c-0.969-2.147-1.171-5.388,1.897-9.752c6.071-8.639,25.953-10.867,35.938-18.148
					c0.204-0.148,0.444-0.229,0.697-0.23l31.662-0.092C1811.82,1882.058,1813.351,1883.843,1813.647,1886.278z"/>
				<g>
					<path style="fill:#FFFFFF;" d="M1782.882,1894.836L1782.882,1894.836c0.496-0.307,0.676-1.146,0.386-1.782
						c-1.36-2.991-5.604-10.271-14.191-8.749c-0.497,0.088-0.831,0.749-0.745,1.429l0.003,0.021
						c0.084,0.658,0.533,1.089,1.013,1.005c7.696-1.336,11.305,5.081,12.405,7.588
						C1781.988,1894.883,1782.469,1895.092,1782.882,1894.836z"/>
				</g>
				<g>
					<path style="fill:#FFFFFF;" d="M1775.744,1897.671L1775.744,1897.671c0.497-0.308,0.676-1.146,0.386-1.782
						c-1.36-2.991-5.604-10.271-14.191-8.749c-0.496,0.088-0.831,0.749-0.744,1.429l0.002,0.021
						c0.084,0.658,0.532,1.089,1.013,1.005c7.696-1.337,11.306,5.081,12.405,7.588
						C1774.85,1897.718,1775.332,1897.927,1775.744,1897.671z"/>
				</g>
				<g>
					<path style="fill:#FFFFFF;" d="M1769.106,1900.316L1769.106,1900.316c0.497-0.308,0.675-1.146,0.386-1.783
						c-1.36-2.991-5.604-10.271-14.192-8.748c-0.496,0.088-0.83,0.748-0.744,1.428l0.003,0.022c0.083,0.658,0.532,1.088,1.012,1.005
						c7.696-1.337,11.306,5.08,12.406,7.588C1768.212,1900.362,1768.693,1900.571,1769.106,1900.316z"/>
				</g>
			</g>
			<g>
				<path style="fill:#122F5B;" d="M1895.752,1918.226l70.223-0.204c2.17-0.007,3.924-1.771,3.917-3.942l0,0
					c-0.006-2.171-1.771-3.926-3.94-3.919l-70.223,0.204c-2.17,0.006-3.924,1.771-3.918,3.942l0,0
					C1891.817,1916.477,1893.582,1918.231,1895.752,1918.226z"/>
				<path style="fill:#3660AC;" d="M1966.237,1886.278l2.651,21.855c0.327,2.694-1.174,5.146-3.154,5.152l-68.806,0.2
					c-1.787,0.005-3.557-1.105-4.502-3.201c-0.969-2.147-1.171-5.388,1.896-9.752c6.071-8.639,25.953-10.867,35.938-18.148
					c0.204-0.148,0.444-0.229,0.697-0.23l31.663-0.092C1964.41,1882.058,1965.941,1883.843,1966.237,1886.278z"/>
				<g>
					<path style="fill:#FFFFFF;" d="M1935.472,1894.836L1935.472,1894.836c0.497-0.307,0.676-1.146,0.386-1.782
						c-1.359-2.991-5.604-10.271-14.191-8.749c-0.496,0.088-0.831,0.749-0.744,1.429l0.003,0.021
						c0.083,0.658,0.532,1.089,1.012,1.005c7.696-1.336,11.305,5.081,12.405,7.588
						C1934.578,1894.883,1935.06,1895.092,1935.472,1894.836z"/>
				</g>
				<g>
					<path style="fill:#FFFFFF;" d="M1928.334,1897.671L1928.334,1897.671c0.497-0.308,0.676-1.146,0.386-1.782
						c-1.36-2.991-5.604-10.271-14.191-8.749c-0.496,0.088-0.831,0.749-0.744,1.429l0.003,0.021
						c0.083,0.658,0.532,1.089,1.012,1.005c7.696-1.337,11.305,5.081,12.406,7.588
						C1927.441,1897.718,1927.921,1897.927,1928.334,1897.671z"/>
				</g>
				<g>
					<path style="fill:#FFFFFF;" d="M1921.696,1900.316L1921.696,1900.316c0.497-0.308,0.676-1.146,0.386-1.783
						c-1.359-2.991-5.604-10.271-14.191-8.748c-0.496,0.088-0.831,0.748-0.744,1.428l0.003,0.022
						c0.084,0.658,0.532,1.088,1.012,1.005c7.696-1.337,11.305,5.08,12.406,7.588
						C1920.802,1900.362,1921.283,1900.571,1921.696,1900.316z"/>
				</g>
			</g>
			<g>
				<path style="fill:#333333;" d="M1762.867,1113.685l0.045,26.272l14.015-32.808c0,0-11.17-7.779-12.04-5.729
					C1764.017,1103.473,1762.867,1113.685,1762.867,1113.685z"/>
				<path style="fill:#F99893;" d="M1770.585,1140.838c1.584,5.232-0.524,10.502-4.709,11.769c-4.184,1.268-8.86-1.946-10.444-7.179
					c-1.584-5.232,0.524-10.502,4.709-11.77C1764.325,1132.392,1769.001,1135.605,1770.585,1140.838z"/>
				<path style="fill:#FFC0BB;" d="M1764.353,1143.505c-0.005-1.301-0.085-2.597-0.189-3.894
					c-0.422-5.232,0.107-10.689,1.839-16.191c5.574-17.7,22.431-29.854,40.979-29.502c24.987,0.476,43.675,21.984,41.416,46.213
					c2.77-1.218,5.759-1.279,8.254,0.127c4.787,2.697,5.935,9.737,2.563,15.724c-3.371,5.985-9.985,8.65-14.772,5.952
					c-0.665-0.374-1.252-0.84-1.774-1.367c-4.022,20.42-22.393,34.757-42.614,32.532
					C1780.161,1190.91,1764.473,1175.318,1764.353,1143.505z"/>
				<path style="fill:#F99893;" d="M1796.906,1134.909c-0.457,2.381-0.844,4.714-1.328,6.983c-0.502,2.214-1.122,4.568-2.268,6.004
					l-0.219,0.223c-0.082,0.084-0.106,0.131-0.271,0.278c-0.26,0.267-0.557,0.478-0.773,0.802c-0.464,0.594-0.835,1.314-0.969,2.096
					c-0.305,1.574,0.308,3.123,1.213,4.154c1.85,2.131,4.588,2.737,6.966,2.534c-2.271-0.78-4.382-1.937-5.444-3.668
					c-0.484-0.853-0.75-1.764-0.485-2.534c0.106-0.385,0.3-0.748,0.586-1.07c0.108-0.181,0.322-0.308,0.47-0.47l0.362-0.349
					l0.408-0.411c0.949-1.159,1.393-2.415,1.732-3.642c0.314-1.238,0.489-2.459,0.564-3.687
					C1797.597,1139.711,1797.454,1137.281,1796.906,1134.909z"/>
				<path style="fill:#333333;" d="M1810.261,1140.258c-0.223,2.026,1.239,3.85,3.264,4.072c2.026,0.224,3.849-1.238,4.072-3.266
					c0.223-2.026-1.239-3.85-3.264-4.072C1812.307,1136.769,1810.484,1138.231,1810.261,1140.258z"/>
				<path style="fill:#333333;" d="M1778.533,1138.857c-0.223,2.026,1.239,3.851,3.264,4.073c2.026,0.223,3.849-1.239,4.072-3.266
					s-1.239-3.851-3.265-4.073S1778.756,1136.831,1778.533,1138.857z"/>
				<path style="fill:#F99893;" d="M1812.484,1165.91c-1.087,0.684-2.208,1.299-3.372,1.814c-1.151,0.538-2.333,1.004-3.543,1.368
					c-2.414,0.73-4.918,1.148-7.417,1.059c-2.5-0.077-4.959-0.685-7.259-1.699c-2.288-1.05-4.393-2.511-6.343-4.182
					c0.843,0.97,1.765,1.878,2.766,2.702c1,0.826,2.109,1.515,3.251,2.149c1.161,0.601,2.387,1.085,3.657,1.425
					c1.274,0.323,2.581,0.514,3.895,0.572c2.63,0.071,5.256-0.399,7.689-1.324
					C1808.239,1168.873,1810.539,1167.602,1812.484,1165.91z"/>
				<path style="fill:#333333;" d="M1806.982,1131.301c1.946-0.281,3.762-0.442,5.532-0.438c1.767,0.006,3.465,0.227,5.081,0.687
					c1.603,0.479,3.196,1.09,4.667,2.06c0.799,0.395,1.454,1.009,2.249,1.498c0.756,0.538,1.435,1.178,2.29,1.726
					c-0.326-0.918-0.73-1.83-1.235-2.688c-0.58-0.795-1.115-1.675-1.893-2.333c-1.41-1.473-3.314-2.49-5.306-3.064
					c-2.006-0.568-4.143-0.599-6.116-0.147C1810.287,1129.066,1808.42,1129.927,1806.982,1131.301z"/>
				<path style="fill:#333333;" d="M1790.64,1130.577c-1.267-1.533-3.021-2.606-4.917-3.3c-1.906-0.679-4.032-0.898-6.091-0.569
					c-2.045,0.337-4.056,1.125-5.629,2.423c-0.848,0.563-1.483,1.373-2.151,2.096c-0.602,0.792-1.11,1.65-1.541,2.524
					c0.913-0.444,1.662-1,2.475-1.446c0.847-0.393,1.569-0.926,2.409-1.224c1.574-0.792,3.228-1.212,4.875-1.5
					c1.658-0.268,3.371-0.288,5.126-0.087C1786.956,1129.697,1788.739,1130.07,1790.64,1130.577z"/>
				<path style="fill:#333333;" d="M1765.904,1089.314c0,0-12.324-1.538,2.178-9.881c14.503-8.343,50.966-15.058,71.267,0.132
					c0,0,5.912-8.719,11.959-5.461s-5.538,8.071-5.538,8.071s8.216,1.024,10.078,5.43c1.377,3.256-3.649,2.597-6.365,2.031
					c4.529,1.525,20.592,15.609,5.968,50.181c-3.073-1.201-17.062-30.367-17.062-30.367s-45.103,16.508-38.114-1.172
					c0,0-47.192,20.047-37.605-1.148C1762.67,1107.13,1745.864,1105.729,1765.904,1089.314z"/>
				<path style="fill:#333333;" d="M1855.453,1140.04c0,0-3.245-1.749-7.4,0.601c-4.155,2.349-5.37,12.716-5.37,12.716
					s-19.421,8.592-9.979-39.235c10.045-50.881,14.059,6.425,14.059,6.425L1855.453,1140.04z"/>
			</g>
		</g>
		<g>
			<g>
				<path style="fill:#FFC0BB;" d="M2295.971,1254.158c-2.767-7.03-4.151-12.8-3.375-16.367l2.524-5.669
					c3.167-7.071,2.456-12.279-0.404-13.149l-0.575-0.062c0,0-7.052,9.521-12.828,17.309l-3.607-4.902l-8.526,26.479l3.428,14.624
					L2295.971,1254.158z"/>
				<g>
					<g>
						<path style="fill:#F4A640;" d="M2464.638,1207.549l-104.012,71.452l-69.198-41.382c0,0-11.163,13.966-9.807,31.436
							c0.022,0.288,55.646,55.947,70.805,62.313c15.158,6.367,109.275-58.555,109.275-58.555L2464.638,1207.549z"/>
					</g>
				</g>
				<path style="fill:#333333;" d="M2354.082,1388.807c-8.834-39.533,3.796-71.696-20.826-102.021c-0.3-0.369-0.599-0.735-0.897-1.1
					c-14.351-17.501-34.081-27.995-54.817-31.047c13.338-15.365,19.424-41.454,19.424-41.454
					c-24.682,6.995-41.481-3.793-41.481-3.793l9.909,44.318c-19.931-0.138-40.003,6.529-56.459,20.395
					c-28.927,24.375-63.316,61.854-64.078,102.725c-0.758,40.638-9.388,56.221,50.908,92.724
					c62.124,37.608,91.569,4.342,128.931,9.331C2362.056,1483.875,2364.192,1434.059,2354.082,1388.807z"/>
				<path style="fill:#FFC0BB;" d="M2264.965,1248.342l0.428,5.369c-2.5,0.239-5.121-1.172-5.626-3.632l-5.761-28.046
					c-0.307-1.361,0.198-2.775,1.3-3.632c3.429-2.667,10.708-8.077,12.311-7.259c2.115,1.079-8.561,10.539-7.713,11.082
					c0.848,0.544,13.051-4.071,13.444-2.527c0.353,1.381-11.118,7.65-10.964,8.485s11.815-1.607,12.535-0.239
					c0.65,1.235-10.994,5.518-11.035,6.074L2264.965,1248.342z"/>
				<path style="fill:#FFC0BB;" d="M2370.693,1904.591l38.291-23.554l23.379,20.495l-9.993,7.093l-34.662,4.838
					c0,0-13.524-1.752-14.118-2.154C2372.995,1910.907,2370.693,1904.591,2370.693,1904.591z"/>
				<path style="fill:#07085B;" d="M2370.693,1904.591l-8.394,5.383c-3.89,2.446-2.178,8.458,2.416,8.486l63.485,0.394
					c2.239,0.014,4.066-1.791,4.08-4.031l0.082-13.29C2390,1914.734,2375.423,1910.548,2370.693,1904.591z"/>
				<path style="fill:#333333;" d="M2533.87,1149.446c0,0,16.068-36.599-3.598-54.843c-19.668-18.245-43.473-20.808-61.012-15.057
					c-17.539,5.752-32.414,33.979-28.25,52.344l56.067-6.929L2533.87,1149.446z"/>
				<path style="opacity:0.5;fill:#DAEEF7;" d="M2527.515,1424.715c-4.274,0.775-8.574,1.405-12.879,1.978
					c-4.305,0.577-8.618,1.083-12.939,1.507c-8.641,0.861-17.312,1.432-25.99,1.618c-4.34,0.093-8.681,0.103-13.02-0.007
					c-4.339-0.127-8.673-0.368-12.998-0.727c-4.321-0.391-8.635-0.898-12.916-1.611c-4.281-0.719-8.533-1.617-12.727-2.758
					c4.169,1.224,8.408,2.208,12.682,3.013c4.281,0.767,8.598,1.321,12.924,1.762c4.33,0.423,8.675,0.65,13.021,0.803
					c4.348,0.125,8.697,0.134,13.045,0.054c8.693-0.23,17.378-0.795,26.021-1.743c4.321-0.474,8.634-1.023,12.934-1.655
					C2518.968,1426.29,2523.256,1425.574,2527.515,1424.715z"/>
				<polygon style="fill:#FFC0BB;" points="2432.363,1901.532 2440.289,1856.613 2407.185,1853.1 2405.169,1855.373 
					2399.617,1886.546 2415.256,1902.316 				"/>
				<path style="fill:#FFC0BB;" d="M2603.635,1903.383l14.87-42.435l31.064,1.157l-3.284,11.81l-23.853,25.62
					c0,0-11.6,7.172-12.314,7.234C2609.403,1906.833,2603.635,1903.383,2603.635,1903.383z"/>
				<path style="fill:#07085B;" d="M2603.635,1903.383l-3.12,9.473c-1.477,4.352,3.642,7.938,7.226,5.062l49.519-39.742
					c1.747-1.401,2.026-3.954,0.625-5.702l-8.314-10.367C2625.015,1899.076,2611.061,1905.022,2603.635,1903.383z"/>
				<polygon style="fill:#FFC0BB;" points="2649.569,1862.105 2627.403,1822.244 2599.496,1840.401 2599.365,1843.438 
					2614.708,1871.133 2636.786,1873.507 				"/>
				<path style="fill:#FFC0BB;" d="M2676.495,1139.843c0.446,0.782,1.586,0.764,1.994-0.04c3.162-6.222,13.24-25.736,15.005-25.291
					c2.1,0.528-6.479,18.186-5.069,19.619c1.409,1.434,9.342-16.001,11.496-15.073c2.152,0.928-5.614,16.581-4.843,17.289
					c0.771,0.708,9.814-13.494,11.409-13.709c1.594-0.214-6.217,16.122-5.525,17.246c0.692,1.125,9.83-8.356,10.734-7.666
					s1.621,0.999-12.836,28.239l-6.15,10.481l-9.641,5.847l-10.831-8.147c0,0-6.216-39.204-5.014-40.313
					C2668.372,1127.268,2669.61,1127.798,2676.495,1139.843z"/>
				<path style="fill:#1E1E1E;" d="M2486.318,1444.441l-10.077,186.035c0,0-14.875,196.74-33.881,238.072h-42.145l20.659-462.092
					h62.804L2486.318,1444.441z"/>
				<path style="fill:#3A2645;" d="M2418.496,1459.674l2.379-53.218l50.163-1.298l1.128,5.091l57.376-7.099
					c0,0,47.103,60.758,35.946,157.475c-11.155,96.717-8.677,131.436-8.677,131.436s60.738,55.799,79.331,136.396
					c0,0-26.65,18.6-44.624,21.699c0,0-89.246-136.396-96.064-152.516c-4.076-9.639-17.632-109.748-27.874-188.695
					C2467.578,1508.943,2422.876,1476.229,2418.496,1459.674z"/>
				<path style="fill:#FEB546;" d="M2409.911,1287.32c3.079-28.586,17.368-54.589,39.385-72.574c2.672-2.184,5.818-3.727,9.174-4.53
					c9.119-2.183,21.019-2.602,26.853-2.667h19.171c0,0,30.787,1.711,44.47,5.988s67.56,28.23,73.545,24.809
					c5.986-3.422,47.89-79.559,47.89-79.559l23.09,11.977c0,0-14.537,106.553-54.73,114.442s-79.532-2.376-79.532-2.376
					s-7.696,106.933-27.365,125.753c0,0-77.673,5.269-106.546,1.938c-5.237-0.604-9.421-4.636-10.256-9.843
					C2412,1381.589,2405.175,1331.297,2409.911,1287.32z"/>
				<path style="fill:#FFC0BB;" d="M2434.712,1229.165c4.369-5.212,9.229-10.04,14.551-14.392c2.685-2.195,5.83-3.749,9.201-4.557
					c9.12-2.184,21.023-2.602,26.858-2.668h19.171c0,0,5.241,0.292,12.355,0.935
					C2501.366,1220.304,2472.374,1236.276,2434.712,1229.165z"/>
				<path style="fill:#FFC0BB;" d="M2497.441,1215.814l-36.234,0.751c0.734-8.046,1.363-18.709,0.024-22.554
					c-2.259-6.484,38.108-7.465,38.108-7.465S2497.19,1203.203,2497.441,1215.814z"/>
				<path style="fill:#F99893;" d="M2499.34,1186.547c0,0-0.869,6.731-1.438,14.876c-7.351,5.948-16.854,8.99-26.761,7.711
					c-3.258-0.42-6.351-1.29-9.239-2.528c0.229-5.312,0.149-10.235-0.671-12.594
					C2458.973,1187.527,2499.34,1186.547,2499.34,1186.547z"/>
				<path style="fill:#333333;" d="M2511.812,1137.044c0,0,19.309,1.652,35.783,21.092s17.807,64.42-14.451,86.462
					c-32.259,22.043-47.369,20.019-59.11,44.701c0,0-14.717-28.153,10.524-59.61c0,0-8.13,1.311-13.754,8.226
					c0,0-0.114-25.843,21.967-38.119c22.083-12.275,27.941-33.51,13.713-40.539
					C2492.256,1152.229,2511.812,1137.044,2511.812,1137.044z"/>
				<path style="fill:#F99893;" d="M2446.731,1139.87c0.985,5.479-1.77,10.562-6.152,11.35s-8.734-3.016-9.719-8.496
					c-0.985-5.48,1.77-10.563,6.152-11.351S2445.747,1134.39,2446.731,1139.87z"/>
				<path style="fill:#FFC0BB;" d="M2440.214,1162.113c-1.037-7.001-0.793-14.149-0.102-20.281c0.148-1.316,0.22-2.638,0.268-3.961
					c0.19-5.344,1.369-10.803,3.771-16.164c7.729-17.248,26.216-27.553,44.938-25.006c25.223,3.432,41.591,27.397,36.446,51.643
					c2.945-0.905,5.977-0.615,8.335,1.103c4.524,3.295,4.854,10.553,0.737,16.21c-4.118,5.657-11.124,7.572-15.647,4.277
					c-0.629-0.457-1.168-0.998-1.633-1.593c-6.479,20.183-26.756,32.519-46.951,27.88
					C2455.108,1192.712,2442.519,1179.869,2440.214,1162.113z"/>
				<path style="fill:#333333;" d="M2485.204,1147.226c-0.5,2.179,0.86,4.35,3.038,4.851c2.178,0.5,4.349-0.86,4.849-3.039
					s-0.859-4.35-3.037-4.85C2487.875,1143.687,2485.704,1145.047,2485.204,1147.226z"/>
				<path style="fill:#333333;" d="M2452.505,1141.449c-0.5,2.178,0.859,4.35,3.037,4.85s4.349-0.86,4.849-3.038
					c0.501-2.179-0.859-4.351-3.037-4.851S2453.005,1139.271,2452.505,1141.449z"/>
				<g>
					<path style="fill:#333333;" d="M2483.027,1139.989c1.98-0.641,3.988-1.022,5.988-1.159c2-0.119,3.99,0.057,5.885,0.58
						c0.951,0.25,1.869,0.614,2.757,1.043c0.733,0.328,2.121,1.172,2.562,1.513c1.631,1.163,3.11,2.572,4.531,4.102
						c-0.925-1.872-2.227-3.576-3.831-4.988c-0.801-0.706-1.681-1.338-2.633-1.847c-0.946-0.517-1.954-0.937-3-1.217
						c-2.09-0.574-4.299-0.668-6.4-0.304c-1.053,0.17-2.078,0.462-3.066,0.831
						C2484.837,1138.927,2483.881,1139.381,2483.027,1139.989z"/>
				</g>
				<g>
					<path style="fill:#333333;" d="M2466.975,1137.153c-0.593-0.863-1.336-1.618-2.127-2.315c-0.802-0.686-1.666-1.311-2.598-1.832
						c-1.85-1.063-3.957-1.73-6.116-1.907c-1.079-0.095-2.169-0.046-3.235,0.115c-1.069,0.152-2.112,0.443-3.105,0.833
						c-1.991,0.777-3.798,1.933-5.308,3.374c1.858-0.949,3.731-1.767,5.661-2.301c0.529-0.169,2.118-0.485,2.925-0.544
						c0.98-0.099,1.968-0.126,2.946-0.035c1.96,0.157,3.89,0.674,5.729,1.472
						C2463.578,1134.826,2465.334,1135.873,2466.975,1137.153z"/>
				</g>
				<path style="fill:#FFFFFF;" d="M2558.606,1282.146c-1.086-1.132-2.113-2.41-3.059-3.71c-0.938-1.313-1.826-2.666-2.602-4.085
					c-0.804-1.404-1.516-2.863-2.131-4.367c-0.652-1.492-1.127-3.051-1.619-4.623c0.211,1.628,0.521,3.261,1.036,4.835
					c0.229,0.797,0.534,1.566,0.826,2.344c0.335,0.757,0.646,1.53,1.028,2.267c0.747,1.482,1.582,2.926,2.548,4.28
					c0.767,1.099,1.584,2.142,2.5,3.137c-0.829,0.165-1.699,0.274-2.552,0.316c-1.186,0.058-2.379,0.013-3.557-0.164
					c-0.593-0.069-1.172-0.211-1.759-0.332c-0.571-0.171-1.158-0.31-1.716-0.535c-1.144-0.386-2.208-0.968-3.276-1.57
					c0.944,0.772,1.954,1.507,3.083,2.026c1.107,0.562,2.302,0.959,3.523,1.219c1.223,0.26,2.477,0.402,3.731,0.376
					c1.263-0.018,2.493-0.139,3.766-0.474l0.901-0.236L2558.606,1282.146z"/>
				<path style="fill:#333333;" d="M2525.535,1148.344c0,0-26.79-16.758-39.001-37.201c0,0-1.375,9.779,1.262,13.762
					c-1.144,0.502-19.672-10.957-21.596-27.025c-1.924-16.069,24.327-5.374,24.327-5.374s15.964,0.183,16.585,0.645
					c0.622,0.462,10.528,9.069,10.949,9.671s11.309,23.802,11.309,23.802l2.354,8.329l-1.014,10.723L2525.535,1148.344z"/>
				<path style="opacity:0.5;fill:#DAEEF7;" d="M2430.973,1469.145c2.534,2.469,4.984,5.015,7.374,7.617
					c2.381,2.61,4.697,5.277,6.975,7.979c2.279,2.698,4.516,5.435,6.703,8.208c2.177,2.781,4.36,5.563,6.458,8.398l0.465-0.456
					c-1.916-1.387-3.903-2.622-5.946-3.781c-2.044-1.151-4.158-2.175-6.307-3.109c-2.147-0.939-4.352-1.751-6.6-2.409l-1.69-0.478
					l-1.71-0.396l-0.855-0.196l-0.865-0.146l-1.729-0.286l1.713,0.37l0.855,0.184l0.846,0.227l1.688,0.456l1.664,0.536
					c0.558,0.169,1.103,0.374,1.648,0.579c0.544,0.208,1.099,0.388,1.636,0.612l1.615,0.663c0.539,0.219,1.063,0.476,1.595,0.711
					c2.117,0.969,4.181,2.05,6.197,3.21c2.012,1.161,3.989,2.412,5.849,3.779l1.724,1.266l-1.259-1.722
					c-2.092-2.863-4.233-5.68-6.454-8.438c-2.213-2.763-4.474-5.488-6.777-8.176c-2.317-2.677-4.715-5.283-7.153-7.851
					c-1.236-1.267-2.474-2.531-3.76-3.749C2433.611,1471.502,2432.286,1470.328,2430.973,1469.145z"/>
				<path style="opacity:0.5;fill:#DAEEF7;" d="M2490.331,1500.471c2.723-3.674,5.508-7.288,8.395-10.828
					c2.879-3.544,5.815-7.04,8.81-10.487c3.012-3.433,6.126-6.774,9.291-10.064c1.605-1.624,3.214-3.245,4.882-4.804
					c1.633-1.594,3.353-3.098,5.056-4.613c-3.288,3.164-6.47,6.426-9.573,9.763c-3.094,3.347-6.104,6.768-9.063,10.231
					c-2.963,3.461-5.869,6.971-8.715,10.529c-2.289,2.888-4.583,5.777-6.821,8.703c1.803-1.187,3.646-2.293,5.527-3.344
					c2.646-1.468,5.381-2.771,8.161-3.957c2.776-1.195,5.627-2.223,8.531-3.053l2.184-0.602l2.209-0.496l1.104-0.246l1.117-0.182
					l2.233-0.354l-2.213,0.463l-1.104,0.229l-1.092,0.285l-2.181,0.574l-2.151,0.678c-0.721,0.213-1.425,0.474-2.13,0.733
					c-0.703,0.264-1.42,0.49-2.115,0.774l-2.089,0.843c-0.697,0.278-1.375,0.604-2.063,0.903c-2.737,1.232-5.408,2.609-8.019,4.089
					c-2.604,1.48-5.165,3.077-7.575,4.824l-2.233,1.618L2490.331,1500.471z"/>
				<path style="opacity:0.3;fill:#F99893;" d="M2477.012,1169.706c0,0-4.38-2.501-9.285-0.396c0,0-4.229-3.816-8.478-1.636
					c0,0,0.489,7.39,8.384,8.292C2475.526,1176.869,2477.012,1169.706,2477.012,1169.706z"/>
				<path style="fill:#F99893;" d="M2481.551,1167.892c-1.011,0.559-2.046,1.056-3.117,1.461c-1.061,0.427-2.146,0.786-3.249,1.053
					c-2.203,0.536-4.473,0.787-6.711,0.583c-2.24-0.193-4.419-0.86-6.434-1.886c-2.002-1.056-3.819-2.472-5.488-4.069
					c0.709,0.913,1.492,1.773,2.35,2.563c0.857,0.792,1.819,1.465,2.813,2.091c1.013,0.597,2.09,1.093,3.213,1.461
					c1.128,0.354,2.292,0.589,3.469,0.707c2.357,0.194,4.739-0.098,6.969-0.808
					C2477.593,1170.341,2479.72,1169.313,2481.551,1167.892z"/>
				<path style="fill:#F99893;" d="M2470.798,1142.787c-1.439,1.612-2.732,3.34-3.94,5.125c-1.212,1.785-2.322,3.641-3.28,5.604
					c-0.459,0.993-0.894,2.005-1.169,3.13c-0.123,0.592-0.235,1.404,0.024,1.95c0.23,0.483,0.785,1.049,1.195,1.387
					c0.842,0.746,1.769,1.335,2.715,1.869c0.955,0.521,1.931,0.992,2.949,1.358c-1.75-1.248-3.519-2.492-4.949-3.97
					c-0.229-0.229-0.51-0.591-0.711-0.864c-0.282-0.387-0.149-0.948-0.009-1.432c0.269-0.951,0.686-1.92,1.146-2.86
					c0.899-1.902,1.944-3.762,2.965-5.637C2468.766,1146.579,2469.81,1144.708,2470.798,1142.787z"/>
			</g>
			<g>
				<path style="fill:#FF5B7E;" d="M1597.753,1426.119h10.273h171.216l-48.392,464.231c-1.689,16.207-15.347,28.519-31.636,28.519
					h-91.188h-10.273h-91.188c-16.29,0-29.947-12.312-31.636-28.519l-48.392-464.231H1597.753z"/>
				<path style="fill:#F44E7A;" d="M1421.013,1452.781h360.783c8.347,0,15.113-6.766,15.113-15.112v-9.864
					c0-8.346-6.767-15.112-15.113-15.112h-360.783c-8.346,0-15.112,6.767-15.112,15.112v9.864
					C1405.9,1446.016,1412.667,1452.781,1421.013,1452.781z"/>
				<polygon style="opacity:0.2;fill:#FFFFFF;" points="1694.192,1452.781 1660.423,1918.869 1536.601,1918.869 1505.333,1452.781 
									"/>
			</g>
			<g>
				<path style="fill:#FFC0BB;" d="M1002.858,1307.762c4.744-7.31,7.635-13.512,7.58-17.723l-1.549-6.988
					c-1.954-8.721,0.047-14.443,3.481-14.77l0.664,0.063c0,0,5.78,12.384,10.519,22.515l5.204-4.71l3.546,31.89l-7.237,15.74
					L1002.858,1307.762z"/>
				<polygon style="fill:#FFC0BB;" points="795.423,1891.765 795.423,1873.786 815.983,1868.091 820.559,1870.102 821.339,1891.765 
					814.865,1910.641 				"/>
				<path style="fill:#333333;" d="M862.049,1917.545l-71.162,0.678c-1.212,0.012-2.204-0.961-2.215-2.173l-0.03-3.11
					c-0.011-1.212,0.962-2.203,2.174-2.215l71.161-0.679c1.212-0.012,2.204,0.962,2.215,2.173l0.029,3.11
					C864.234,1916.541,863.261,1917.533,862.049,1917.545z"/>
				<path style="fill:#FF5B7E;" d="M791.864,1887.934l-2.304,20.878c-0.284,2.574,1.197,4.896,3.113,4.877l66.575-0.635
					c1.729-0.017,3.429-1.097,4.318-3.107c0.912-2.061,1.068-5.153-1.951-9.279c-5.931-8.104-24.94-10.024-34.758-16.721
					c-0.352-0.239-0.761-0.372-1.189-0.367l-30.354,0.289C793.581,1883.885,792.121,1885.606,791.864,1887.934z"/>
				<g>
					<path style="fill:#333333;" d="M821.732,1895.727L821.732,1895.727c-0.484-0.287-0.667-1.084-0.395-1.695
						c1.28-2.87,5.3-9.865,13.627-8.516c0.481,0.078,0.813,0.704,0.737,1.354l-0.002,0.021c-0.073,0.629-0.502,1.044-0.968,0.971
						c-7.462-1.184-10.878,4.981-11.913,7.387C822.598,1895.761,822.135,1895.966,821.732,1895.727z"/>
				</g>
				<g>
					<path style="fill:#333333;" d="M828.672,1898.345L828.672,1898.345c-0.484-0.287-0.667-1.085-0.394-1.695
						c1.28-2.869,5.299-9.865,13.626-8.516c0.481,0.078,0.813,0.704,0.737,1.354l-0.002,0.021c-0.073,0.629-0.502,1.044-0.968,0.971
						c-7.462-1.183-10.878,4.981-11.913,7.387C829.538,1898.379,829.074,1898.584,828.672,1898.345z"/>
				</g>
				<g>
					<path style="fill:#333333;" d="M835.126,1900.788L835.126,1900.788c-0.484-0.287-0.667-1.085-0.394-1.696
						c1.28-2.869,5.299-9.864,13.626-8.515c0.481,0.078,0.813,0.704,0.737,1.354l-0.002,0.021c-0.073,0.628-0.502,1.044-0.968,0.97
						c-7.462-1.182-10.878,4.982-11.913,7.387C835.992,1900.822,835.529,1901.027,835.126,1900.788z"/>
				</g>
				<path style="opacity:0.3;fill:#E87B50;" d="M809.469,1910.756c-4.777-12.437-11.727-15.19-16.507-15.412
					c-1.079-0.05-2,0.764-2.117,1.822l-1.285,11.646c-0.284,2.574,1.197,4.896,3.113,4.877l14.889-0.143
					C809.011,1913.532,809.983,1912.094,809.469,1910.756z"/>
				<polygon style="fill:#FFC0BB;" points="651.962,1891.765 651.962,1873.786 672.522,1868.091 677.098,1870.102 677.878,1891.765 
					671.404,1910.641 				"/>
				<path style="fill:#333333;" d="M718.588,1917.545l-71.162,0.678c-1.212,0.012-2.204-0.961-2.215-2.173l-0.03-3.11
					c-0.011-1.211,0.961-2.203,2.174-2.215l71.161-0.679c1.212-0.012,2.204,0.962,2.215,2.173l0.029,3.11
					C720.773,1916.541,719.8,1917.533,718.588,1917.545z"/>
				<path style="fill:#FF5B7E;" d="M648.403,1887.934l-2.305,20.878c-0.284,2.574,1.197,4.896,3.113,4.877l66.575-0.635
					c1.729-0.017,3.429-1.097,4.318-3.107c0.912-2.061,1.068-5.153-1.951-9.279c-5.931-8.104-24.94-10.024-34.758-16.721
					c-0.352-0.239-0.761-0.372-1.189-0.367l-30.354,0.289C650.12,1883.885,648.66,1885.606,648.403,1887.934z"/>
				<g>
					<path style="fill:#333333;" d="M678.271,1895.727L678.271,1895.727c-0.484-0.287-0.667-1.084-0.395-1.695
						c1.28-2.87,5.3-9.865,13.627-8.516c0.481,0.078,0.813,0.704,0.737,1.354l-0.003,0.021c-0.073,0.629-0.502,1.044-0.968,0.971
						c-7.462-1.184-10.877,4.981-11.913,7.387C679.137,1895.761,678.674,1895.966,678.271,1895.727z"/>
				</g>
				<g>
					<path style="fill:#333333;" d="M685.211,1898.345L685.211,1898.345c-0.484-0.287-0.668-1.085-0.395-1.695
						c1.28-2.869,5.299-9.865,13.626-8.516c0.481,0.078,0.813,0.704,0.737,1.354l-0.002,0.021c-0.073,0.629-0.502,1.044-0.968,0.971
						c-7.462-1.183-10.878,4.981-11.913,7.387C686.077,1898.379,685.613,1898.584,685.211,1898.345z"/>
				</g>
				<g>
					<path style="fill:#333333;" d="M691.666,1900.788L691.666,1900.788c-0.484-0.287-0.667-1.085-0.395-1.696
						c1.28-2.869,5.299-9.864,13.627-8.515c0.481,0.078,0.813,0.704,0.737,1.354l-0.002,0.021c-0.073,0.628-0.503,1.044-0.968,0.97
						c-7.462-1.182-10.878,4.982-11.913,7.387C692.531,1900.822,692.068,1901.027,691.666,1900.788z"/>
				</g>
				<path style="opacity:0.3;fill:#E87B50;" d="M666.008,1910.756c-4.776-12.437-11.727-15.19-16.507-15.412
					c-1.079-0.05-2,0.764-2.117,1.822l-1.285,11.646c-0.284,2.574,1.197,4.896,3.113,4.877l14.888-0.143
					C665.55,1913.532,666.522,1912.094,666.008,1910.756z"/>
				<g>
					<g>
						<path style="fill:#F44E7A;" d="M822.944,1216.266l101.124,104.694l87.728-30.847c0,0,9.405,18.354,3.854,37.787
							c-0.091,0.32-75.76,50.428-94.357,54.135c-18.598,3.707-110.042-91.33-110.042-91.33L822.944,1216.266z"/>
					</g>
				</g>
				<path style="fill:#07085B;" d="M719.045,1137.076c0,0-9.861-41.406,13.017-57.117c22.878-15.71,47.223-14.167,63.849-4.984
					c16.626,9.182,26.725,41.56,19.393,60.16l-55.114-17.288L719.045,1137.076z"/>
				<polygon style="fill:#FFC0BB;" points="745.558,1173.994 743.654,1220.796 784.703,1217.04 778.165,1175.953 				"/>
				<path style="fill:#F99893;" d="M781.274,1195.493l-3.109-19.54l-32.607-1.959l-0.66,16.208
					C751.632,1196.354,763.528,1202.518,781.274,1195.493z"/>
				<path style="fill:#F99893;" d="M804.13,1139.969c-2.251,5.225-0.688,10.92,3.49,12.721c4.178,1.802,9.39-0.973,11.641-6.198
					c2.251-5.224,0.688-10.92-3.49-12.721C811.593,1131.969,806.381,1134.744,804.13,1139.969z"/>
				<path style="fill:#FFC0BB;" d="M810.262,1143.457c0.158-1.344,0.393-2.675,0.652-4.003c1.049-5.362,1.143-11.066-0.004-16.958
					c-3.689-18.956-19.695-33.5-38.915-35.311c-25.893-2.439-47.737,17.609-48.241,42.927c-2.721-1.584-5.804-1.999-8.549-0.837
					c-5.267,2.229-7.278,9.373-4.493,15.958c2.785,6.585,9.311,10.116,14.578,7.888c0.731-0.31,1.393-0.723,1.994-1.207
					c1.766,21.586,19.081,38.566,40.251,38.637C788.351,1190.62,806.407,1176.354,810.262,1143.457z"/>
				<path style="fill:#F99893;" d="M777.608,1130.752c0.194,2.516,0.32,4.973,0.555,7.376c0.26,2.349,0.625,4.855,1.642,6.475
					l0.2,0.256c0.075,0.097,0.095,0.147,0.248,0.319c0.237,0.307,0.519,0.56,0.705,0.92c0.411,0.669,0.709,1.457,0.757,2.279
					c0.13,1.665-0.685,3.194-1.742,4.154c-2.163,1.986-5.065,2.293-7.5,1.804c2.439-0.541,4.758-1.489,6.059-3.154
					c0.601-0.825,0.983-1.735,0.799-2.563c-0.065-0.41-0.223-0.809-0.481-1.176c-0.091-0.199-0.297-0.355-0.432-0.541l-0.333-0.402
					l-0.373-0.474c-0.846-1.309-1.157-2.659-1.364-3.969c-0.18-1.316-0.218-2.6-0.152-3.877
					C776.332,1135.635,776.764,1133.14,777.608,1130.752z"/>
				<path style="fill:#333333;" d="M763.173,1134.716c-0.007,2.121-1.732,3.835-3.853,3.828c-2.121-0.007-3.835-1.732-3.828-3.854
					c0.007-2.121,1.732-3.835,3.853-3.828C761.466,1130.868,763.18,1132.594,763.173,1134.716z"/>
				<path style="fill:#333333;" d="M796.144,1136.989c-0.007,2.121-1.733,3.835-3.853,3.828c-2.121-0.007-3.834-1.732-3.828-3.854
					c0.007-2.121,1.732-3.835,3.853-3.828C794.438,1133.142,796.151,1134.867,796.144,1136.989z"/>
				<path style="fill:#07085B;" d="M767.612,1125.839c-1.979-0.519-3.837-0.899-5.668-1.103c-1.828-0.201-3.609-0.172-5.335,0.114
					c-1.713,0.307-3.432,0.752-5.066,1.583c-0.873,0.313-1.622,0.872-2.501,1.284c-0.844,0.469-1.621,1.05-2.57,1.517
					c0.444-0.912,0.97-1.808,1.592-2.635c0.692-0.754,1.35-1.601,2.23-2.19c1.631-1.356,3.72-2.187,5.846-2.546
					c2.141-0.353,4.353-0.134,6.341,0.564C764.457,1123.141,766.287,1124.249,767.612,1125.839z"/>
				<path style="fill:#07085B;" d="M784.596,1127.008c1.489-1.438,3.429-2.341,5.471-2.836c2.051-0.479,4.274-0.456,6.364,0.126
					c2.075,0.588,4.062,1.639,5.536,3.164c0.811,0.683,1.373,1.595,1.979,2.42c0.529,0.89,0.955,1.837,1.297,2.791
					c-0.892-0.565-1.602-1.229-2.39-1.785c-0.829-0.506-1.514-1.143-2.348-1.549c-1.534-1.003-3.194-1.632-4.865-2.122
					c-1.683-0.472-3.451-0.693-5.29-0.691C788.508,1126.529,786.62,1126.706,784.596,1127.008z"/>
				<path style="fill:#07085B;" d="M724.393,1130.706c-2.536-2.176-4.473-2.004-4.473-2.004l1.084-13.413l4.128-8.097
					c0,0,16.221-21.811,16.793-22.353s12.993-7.626,13.758-7.99c0.765-0.364,18.221,2.191,18.221,2.191s30.65-6.408,25.545,9.663
					c-5.105,16.071-27.47,24.584-28.624,23.876c3.623-3.612,3.951-13.831,3.951-13.831
					C758.991,1116.026,729.056,1128.785,724.393,1130.706z"/>
				<path style="fill:#FFFFFF;" d="M787.283,1159.878c-0.866,4.815-5.334,8.557-10.812,8.701
					c-5.479,0.144-10.129-3.358-11.238-8.122L787.283,1159.878z"/>
				<path style="fill:#FFC0BB;" d="M733.212,1209.729l57.794-0.16l7.317,34.16l-31.71,82.961c0,0-31.71-34.16-31.71-39.041
					c0-4.88-14.635-41.48-12.196-46.36C725.147,1236.408,733.212,1209.729,733.212,1209.729z"/>
				<path style="fill:#1E1E1E;" d="M838.379,1445.283c-24.46,35.977-73.336,87.873-73.336,87.873l0,0l22.532,348.606
					c0,0,32.633,3.446,43.851-5.021C831.425,1876.741,839.975,1546.249,838.379,1445.283z"/>
				<path style="fill:#3A2645;" d="M829.126,1458.655c-0.081-5.101,9.446,9.938,9.267,5.865
					c-3.739-84.677-122.458-13.679-122.458-13.679l-24.936-5.12l-45.808,434.637c0,0,29.802,6.425,46.867,0l72.985-342.952
					C765.042,1537.406,791.158,1526.46,829.126,1458.655z"/>
				<path style="fill:#FFC0BB;" d="M677.76,1522.126c-0.663-0.755-1.903-0.481-2.17,0.487c-2.07,7.504-8.738,31.073-10.766,30.98
					c-2.412-0.111,3.032-21.316,1.173-22.568c-1.86-1.253-6.647,19.565-9.206,19.031c-2.559-0.533,2.443-19.369,1.443-19.971
					c-1.001-0.602-7.721,16.932-9.415,17.521c-1.694,0.589,3.204-19.001,2.197-20.076c-1.006-1.074-8.881,11.321-10.023,10.769
					c-1.141-0.553-1.995-0.73,7.74-33.718l4.387-12.823l9.232-8.535l13.649,6.489c0,0,15.521,41.453,14.453,42.934
					C689.436,1534.057,687.965,1533.754,677.76,1522.126z"/>
				<path style="fill:#3C2340;" d="M738.338,1215.103c0,0,28.841,17.471,51.714,0c0,0,13.006,34.347,11.772,35.581
					c-1.233,1.233-14.8,38.246-14.8,39.479c0,1.234-16.033,16.039-23.434,4.936c-7.4-11.104-12.333-9.87-22.2-33.312
					c-9.867-23.441-17.267-30.844-14.8-33.312S738.338,1215.103,738.338,1215.103z"/>
				<path style="fill:#FF5B7E;" d="M734.904,1209.568c0,0-58.541,4.88-70.737,24.399c-12.196,19.521-41.466,131.762-39.027,165.923
					c2.439,34.16,24.392,100.041,24.392,100.041s19.514,2.439,26.831-9.761c0,0-14.635-92.721-12.196-100.041
					s29.271-82.961,29.271-82.961l-4.878,148.842c0,0,58.541,36.601,151.231,7.32c0,0,12.196-241.563-19.514-248.883l-29.27-4.88
					l-12.196,70.761L734.904,1209.568z"/>
				<path style="fill:#333333;" d="M906.212,1446.574c19.076-42.65,12.198-81.908,47.001-110.516
					c0.424-0.349,0.846-0.693,1.267-1.036c20.245-16.478,44.958-23.799,69.096-22.476c-11.542-20.437-12.421-51.324-12.421-51.324
					c26.288,13.587,47.756,5.26,47.756,5.26l-21.391,47.811c22.559,4.431,43.712,16.586,59.122,36.044
					c27.089,34.207,57.339,84.48,48.8,130.851c-8.489,46.104-2.319,65.703-78.863,93.084
					c-78.864,28.21-104.494-16.166-147.869-19.124C875.336,1552.188,884.378,1495.393,906.212,1446.574z"/>
				<path style="fill:#FFC0BB;" d="M1039.24,1308.322l-1.719,5.971c2.77,0.846,6.058-0.146,7.194-2.81l12.961-30.374
					c0.66-1.467,0.414-3.182-0.635-4.403c-3.262-3.804-10.245-11.593-12.245-11.038c-2.639,0.733,7.251,13.883,6.168,14.302
					c-1.083,0.419-13.813-7.605-14.613-5.952c-0.716,1.48,10.807,11.206,10.44,12.114c-0.366,0.907-12.984-4.535-14.112-3.154
					c-1.019,1.247,11.156,8.766,11.074,9.404L1039.24,1308.322z"/>
			</g>
			<g>
				<path style="fill:#FEB546;" d="M1036.769,1426.119h10.272h171.216l-48.392,464.231c-1.69,16.207-15.346,28.519-31.636,28.519
					h-91.188h-10.272h-91.188c-16.29,0-29.947-12.312-31.636-28.519l-48.392-464.231H1036.769z"/>
				<path style="fill:#F4A640;" d="M860.029,1452.781h360.783c8.346,0,15.112-6.766,15.112-15.112v-9.864
					c0-8.346-6.766-15.112-15.112-15.112H860.029c-8.347,0-15.113,6.767-15.113,15.112v9.864
					C844.916,1446.016,851.682,1452.781,860.029,1452.781z"/>
				<polygon style="opacity:0.2;fill:#FFFFFF;" points="1133.208,1452.781 1099.438,1918.869 975.617,1918.869 944.349,1452.781 
									"/>
			</g>
			<g style="opacity:0.6;">
				<g>
					<path style="fill:#FFFFFF;" d="M1003.582,1648.524l-25.607,44.258c0,0-6.818,10.609-2.424,21.22l-22.693-38.186
						c-3.001-5.049-4.227-11.008-3.199-16.791c0.305-1.719,0.779-3.377,1.498-4.741c2.879-5.456,15.606-27.13,15.606-27.13
						l-21.06-11.822l52.879-1.971l24.091,46.076L1003.582,1648.524z"/>
					<path style="fill:#FFFFFF;" d="M986.764,1684.9h37.273v43.045h-24.849c0,0-26.667-2.121-20.151-28.191L986.764,1684.9z"/>
				</g>
				<g>
					<path style="fill:#FFFFFF;" d="M1066.87,1682.701l51.105-1.171c0,0,12.604,0.299,19.373-8.978l-20.776,39.262
						c-2.747,5.191-7.195,9.341-12.666,11.475c-1.626,0.635-3.288,1.093-4.827,1.188c-6.156,0.382-31.281,0.796-31.281,0.796
						l0.874,24.143l-29.211-44.137l26.784-44.564L1066.87,1682.701z"/>
					<path style="fill:#FFFFFF;" d="M1106.672,1678.128l-19.405-31.834l36.738-22.41l12.937,21.223c0,0,12.072,23.88-13.57,31.888
						L1106.672,1678.128z"/>
				</g>
				<path style="fill:#FFFFFF;" d="M1064.006,1610.062l-25.822-44.132c0,0-5.854-11.171-17.247-12.59l44.399-0.878
					c5.871-0.116,11.656,1.761,16.175,5.511c1.344,1.115,2.551,2.346,3.381,3.646c3.321,5.198,15.874,26.974,15.874,26.974
					l20.679-12.479l-24.406,46.967l-51.949-1.804L1064.006,1610.062z"/>
				<path style="fill:#FFFFFF;" d="M1040.695,1577.466l-18.41,32.42l-37.416-21.261l12.273-21.613c0,0,15.016-22.146,34.458-3.604
					L1040.695,1577.466z"/>
			</g>
			<g>
				<g>
					<path style="fill:#67A2DA;" d="M2193.747,1426.119h10.272h171.216l-48.393,464.231c-1.689,16.207-15.346,28.519-31.636,28.519
						h-91.188h-10.272h-91.188c-16.289,0-29.946-12.312-31.636-28.519l-48.392-464.231H2193.747z"/>
					<path style="fill:#224887;" d="M2017.007,1452.781h360.782c8.347,0,15.112-6.766,15.112-15.112v-9.864
						c0-8.346-6.766-15.112-15.112-15.112h-360.782c-8.347,0-15.113,6.767-15.113,15.112v9.864
						C2001.894,1446.016,2008.66,1452.781,2017.007,1452.781z"/>
					<polygon style="opacity:0.2;fill:#FFFFFF;" points="2290.186,1452.781 2256.416,1918.869 2132.595,1918.869 2101.326,1452.781 
											"/>
				</g>
				<g style="opacity:0.6;">
					<g>
						<path style="fill:#FFFFFF;" d="M2160.56,1648.524l-25.605,44.258c0,0-6.818,10.609-2.425,21.22l-22.693-38.186
							c-3.001-5.049-4.227-11.008-3.2-16.791c0.306-1.719,0.779-3.377,1.499-4.741c2.879-5.456,15.605-27.13,15.605-27.13
							l-21.061-11.822l52.879-1.971l24.091,46.076L2160.56,1648.524z"/>
						<path style="fill:#FFFFFF;" d="M2143.742,1684.9h37.272v43.045h-24.849c0,0-26.667-2.121-20.151-28.191L2143.742,1684.9z"/>
					</g>
					<g>
						<path style="fill:#FFFFFF;" d="M2223.848,1682.701l51.104-1.171c0,0,12.605,0.299,19.373-8.978l-20.776,39.262
							c-2.747,5.191-7.195,9.341-12.666,11.475c-1.626,0.635-3.288,1.093-4.826,1.188c-6.156,0.382-31.281,0.796-31.281,0.796
							l0.874,24.143l-29.211-44.137l26.784-44.564L2223.848,1682.701z"/>
						<path style="fill:#FFFFFF;" d="M2263.65,1678.128l-19.405-31.834l36.739-22.41l12.937,21.223c0,0,12.072,23.88-13.57,31.888
							L2263.65,1678.128z"/>
					</g>
					<path style="fill:#FFFFFF;" d="M2220.984,1610.062l-25.821-44.132c0,0-5.854-11.171-17.247-12.59l44.399-0.878
						c5.871-0.116,11.656,1.761,16.176,5.511c1.343,1.115,2.55,2.346,3.381,3.646c3.32,5.198,15.874,26.974,15.874,26.974
						l20.678-12.479l-24.405,46.967l-51.949-1.804L2220.984,1610.062z"/>
					<path style="fill:#FFFFFF;" d="M2197.673,1577.466l-18.41,32.42l-37.416-21.261l12.273-21.613c0,0,15.016-22.146,34.458-3.604
						L2197.673,1577.466z"/>
				</g>
			</g>
			<g style="opacity:0.6;">
				<g>
					<path style="fill:#FFFFFF;" d="M1560.602,1648.524l-25.606,44.258c0,0-6.818,10.609-2.425,21.22l-22.693-38.186
						c-3-5.049-4.227-11.008-3.199-16.791c0.305-1.719,0.779-3.377,1.499-4.741c2.879-5.456,15.606-27.13,15.606-27.13
						l-21.061-11.822l52.879-1.971l24.091,46.076L1560.602,1648.524z"/>
					<path style="fill:#FFFFFF;" d="M1543.784,1684.9h37.273v43.045h-24.849c0,0-26.667-2.121-20.151-28.191L1543.784,1684.9z"/>
				</g>
				<g>
					<path style="fill:#FFFFFF;" d="M1623.89,1682.701l51.104-1.171c0,0,12.605,0.299,19.373-8.978l-20.776,39.262
						c-2.747,5.191-7.194,9.341-12.666,11.475c-1.626,0.635-3.288,1.093-4.827,1.188c-6.156,0.382-31.281,0.796-31.281,0.796
						l0.875,24.143l-29.212-44.137l26.784-44.564L1623.89,1682.701z"/>
					<path style="fill:#FFFFFF;" d="M1663.692,1678.128l-19.405-31.834l36.739-22.41l12.937,21.223c0,0,12.072,23.88-13.57,31.888
						L1663.692,1678.128z"/>
				</g>
				<path style="fill:#FFFFFF;" d="M1621.026,1610.062l-25.821-44.132c0,0-5.854-11.171-17.247-12.59l44.399-0.878
					c5.871-0.116,11.656,1.761,16.176,5.511c1.343,1.115,2.551,2.346,3.381,3.646c3.321,5.198,15.874,26.974,15.874,26.974
					l20.678-12.479l-24.406,46.967l-51.949-1.804L1621.026,1610.062z"/>
				<path style="fill:#FFFFFF;" d="M1597.715,1577.466l-18.41,32.42l-37.416-21.261l12.273-21.613c0,0,15.016-22.146,34.458-3.604
					L1597.715,1577.466z"/>
			</g>
		</g>
	</g>
	<path style="fill:#EFD7AB;" d="M4533.023,1939.037H299.458c-5.833,0-10.562-4.729-10.562-10.562v-0.004
		c0-5.833,4.729-10.563,10.562-10.563h4233.565c5.833,0,10.562,4.729,10.562,10.563v0.004
		C4543.585,1934.309,4538.856,1939.037,4533.023,1939.037z"/>
	<path style="fill:#FFFFFF;" d="M3931.92,612.999c-6.63-28.872-32.458-50.412-63.333-50.412c-5.668,0-11.165,0.729-16.406,2.093
		c-15.238-32.598-48.309-55.185-86.656-55.185c-9.915,0-19.477,1.51-28.469,4.312c-20.645-34.197-58.151-57.063-100.999-57.063
		c-50.979,0-94.398,32.366-110.851,77.675c-11.646-6.495-25.053-10.21-39.333-10.21c-44.684,0-80.907,36.236-80.907,80.936
		c0,2.65,0.136,5.268,0.385,7.853H3931.92z"/>
	<path style="fill:#FFFFFF;" d="M1869.702,378.689c-9.235-40.214-45.209-70.215-88.212-70.215c-7.895,0-15.551,1.016-22.852,2.915
		c-21.224-45.402-67.285-76.862-120.698-76.862c-13.809,0-27.127,2.103-39.652,6.005c-28.754-47.63-80.994-79.478-140.674-79.478
		c-71.004,0-131.48,45.08-154.396,108.188c-16.221-9.046-34.894-14.22-54.783-14.22c-62.237,0-112.691,50.471-112.691,112.729
		c0,3.691,0.19,7.338,0.537,10.939H1869.702z"/>
	<path style="fill:#FFFFFF;" d="M312.661,637.083c5.391-23.472,26.387-40.982,51.487-40.982c4.608,0,9.077,0.593,13.337,1.701
		c12.388-26.5,39.272-44.862,70.448-44.862c8.06,0,15.833,1.228,23.144,3.505c16.783-27.8,47.274-46.389,82.107-46.389
		c41.443,0,76.741,26.311,90.116,63.146c9.468-5.28,20.366-8.3,31.975-8.3c36.326,0,65.774,29.458,65.774,65.796
		c0,2.154-0.111,4.283-0.313,6.384H312.661z"/>
</g>
</svg>
