<?xml version="1.0" encoding="utf-8"?>
<!-- Generator: Adobe Illustrator 27.5.0, SVG Export Plug-In . SVG Version: 6.00 Build 0)  -->
<svg version="1.1" xmlns="http://www.w3.org/2000/svg" xmlns:xlink="http://www.w3.org/1999/xlink" x="0px" y="0px"
	 viewBox="0 0 500 500" style="enable-background:new 0 0 500 500;" xml:space="preserve">
<g id="Background_Complete">
	<g>
		<rect x="416.779" y="398.494" style="fill:#EBEBEB;" width="33.122" height="0.25"/>
		<rect x="322.527" y="401.208" style="fill:#EBEBEB;" width="8.693" height="0.25"/>
		<rect x="396.586" y="389.208" style="fill:#EBEBEB;" width="19.192" height="0.25"/>
		<rect x="52.459" y="390.888" style="fill:#EBEBEB;" width="43.193" height="0.25"/>
		<rect x="104.556" y="390.888" style="fill:#EBEBEB;" width="6.333" height="0.25"/>
		<rect x="131.471" y="395.111" style="fill:#EBEBEB;" width="93.676" height="0.25"/>
		<g>
			<path style="fill:#EBEBEB;" d="M238.401,337.8H45.302c-3.147,0-5.708-2.561-5.708-5.708V60.66c0-3.147,2.561-5.708,5.708-5.708
				h193.099c3.146,0,5.707,2.561,5.707,5.708v271.432C244.108,335.239,241.547,337.8,238.401,337.8z M45.302,55.203
				c-3.01,0-5.458,2.448-5.458,5.458v271.432c0,3.01,2.448,5.458,5.458,5.458h193.099c3.009,0,5.457-2.448,5.457-5.458V60.66
				c0-3.009-2.448-5.458-5.457-5.458H45.302z"/>
			<path style="fill:#EBEBEB;" d="M454.698,337.8H261.599c-3.146,0-5.707-2.561-5.707-5.708V60.66c0-3.147,2.561-5.708,5.707-5.708
				h193.099c3.148,0,5.708,2.561,5.708,5.708v271.432C460.406,335.239,457.845,337.8,454.698,337.8z M261.599,55.203
				c-3.009,0-5.457,2.448-5.457,5.458v271.432c0,3.01,2.448,5.458,5.457,5.458h193.099c3.01,0,5.458-2.448,5.458-5.458V60.66
				c0-3.009-2.448-5.458-5.458-5.458H261.599z"/>
		</g>
		<rect y="382.398" style="fill:#EBEBEB;" width="500" height="0.25"/>
	</g>
	<g>
		<path style="fill:#F0F0F0;" d="M108.089,382.648h-66.38l-0.709-4.014c-0.673-3.808,2.256-7.301,6.124-7.301h55.552
			c3.867,0,6.797,3.493,6.124,7.301L108.089,382.648z"/>
		<path style="fill:#EBEBEB;" d="M243.522,382.648h-66.381l-0.809-4.579c-0.621-3.514,2.082-6.736,5.65-6.736h56.7
			c3.568,0,6.271,3.222,5.65,6.736L243.522,382.648z"/>
		<path style="fill:#F5F5F5;" d="M297.379,382.648h-56.603l-0.742-4.197c-0.503-2.844,1.685-5.452,4.573-5.452h48.941
			c2.888,0,5.076,2.608,4.573,5.452L297.379,382.648z"/>
		<path style="fill:#E6E6E6;" d="M360.549,382.648h-66.381l-0.809-4.579c-0.621-3.514,2.082-6.736,5.65-6.736h56.7
			c3.568,0,6.271,3.222,5.65,6.736L360.549,382.648z"/>
		<path style="fill:#F5F5F5;" d="M414.406,382.648h-56.603l-0.742-4.197c-0.503-2.844,1.685-5.452,4.573-5.452h48.941
			c2.888,0,5.076,2.608,4.573,5.452L414.406,382.648z"/>
		<path style="fill:#EBEBEB;" d="M458.284,382.648h-56.603l-0.742-4.197c-0.503-2.844,1.685-5.452,4.573-5.452h48.941
			c2.888,0,5.076,2.608,4.573,5.452L458.284,382.648z"/>
		<path style="fill:#F5F5F5;" d="M177.206,382.648h-72.004l-1.017-5.754c-0.601-3.401,2.015-6.52,5.468-6.52h63.102
			c3.453,0,6.069,3.119,5.468,6.52L177.206,382.648z"/>
	</g>
	<g>
		<g>
			<g>
				<g>
					<g>
						<g>
							<rect x="126.886" y="348.406" style="fill:#F0F0F0;" width="135.495" height="31.313"/>
							<path style="fill:#E0E0E0;" d="M262.895,378.454H126.372c-1.179,0-2.134,0.955-2.134,2.134l0,0
								c0,1.179,0.955,2.134,2.134,2.134h136.522c1.179,0,2.134-0.956,2.134-2.134l0,0
								C265.029,379.409,264.073,378.454,262.895,378.454z"/>
							<g>
								<g>
									<path style="fill:#FAFAFA;" d="M139.86,359.642h7.343c-0.213-4.077-3.34-7.378-7.343-7.852V359.642z"/>
									<rect x="139.86" y="361.628" style="fill:#FAFAFA;" width="7.365" height="6.924"/>
									<rect x="130.509" y="361.628" style="fill:#FAFAFA;" width="7.365" height="6.924"/>
									<rect x="139.86" y="370.537" style="fill:#FAFAFA;" width="7.365" height="7.916"/>
									<path style="fill:#FAFAFA;" d="M137.874,359.642v-7.852c-4.003,0.475-7.129,3.775-7.342,7.852H137.874z"/>
									<rect x="130.509" y="370.537" style="fill:#FAFAFA;" width="7.365" height="7.916"/>
								</g>
								<g>
									<path style="fill:#FAFAFA;" d="M177.038,359.642h7.342c-0.213-4.077-3.34-7.378-7.342-7.852V359.642z"/>
									<rect x="177.038" y="361.628" style="fill:#FAFAFA;" width="7.365" height="6.924"/>
									<rect x="167.687" y="361.628" style="fill:#FAFAFA;" width="7.365" height="6.924"/>
									<rect x="177.038" y="370.537" style="fill:#FAFAFA;" width="7.365" height="7.916"/>
									<path style="fill:#FAFAFA;" d="M175.051,359.642v-7.852c-4.003,0.475-7.129,3.775-7.342,7.852H175.051z"/>
									<rect x="167.687" y="370.537" style="fill:#FAFAFA;" width="7.365" height="7.916"/>
								</g>
								<g>
									<path style="fill:#FAFAFA;" d="M214.215,359.642h7.342c-0.213-4.077-3.34-7.378-7.342-7.852V359.642z"/>
									<rect x="214.215" y="361.628" style="fill:#FAFAFA;" width="7.365" height="6.924"/>
									<rect x="204.864" y="361.628" style="fill:#FAFAFA;" width="7.365" height="6.924"/>
									<rect x="214.215" y="370.537" style="fill:#FAFAFA;" width="7.365" height="7.916"/>
									<path style="fill:#FAFAFA;" d="M212.229,359.642v-7.852c-4.003,0.475-7.129,3.775-7.342,7.852H212.229z"/>
									<rect x="204.864" y="370.537" style="fill:#FAFAFA;" width="7.365" height="7.916"/>
								</g>
								<g>
									<path style="fill:#FAFAFA;" d="M251.393,359.642h7.342c-0.213-4.077-3.34-7.378-7.342-7.852V359.642z"/>
									<rect x="251.393" y="361.628" style="fill:#FAFAFA;" width="7.365" height="6.924"/>
									<rect x="242.042" y="361.628" style="fill:#FAFAFA;" width="7.365" height="6.924"/>
									<rect x="251.393" y="370.537" style="fill:#FAFAFA;" width="7.365" height="7.916"/>
									<path style="fill:#FAFAFA;" d="M249.407,359.642v-7.852c-4.003,0.475-7.129,3.775-7.343,7.852H249.407z"/>
									<rect x="242.042" y="370.537" style="fill:#FAFAFA;" width="7.365" height="7.916"/>
								</g>
							</g>
							<g>
								<rect x="152.631" y="348.406" style="fill:#EBEBEB;" width="10.427" height="4.95"/>
								<rect x="152.631" y="354.681" style="fill:#EBEBEB;" width="10.427" height="4.95"/>
								<rect x="152.631" y="360.955" style="fill:#EBEBEB;" width="10.427" height="4.95"/>
								<rect x="152.631" y="367.229" style="fill:#EBEBEB;" width="10.427" height="4.95"/>
								<rect x="152.631" y="373.503" style="fill:#EBEBEB;" width="10.427" height="4.95"/>
							</g>
							<g>
								<rect x="189.42" y="348.406" style="fill:#EBEBEB;" width="10.427" height="4.95"/>
								<rect x="189.42" y="354.681" style="fill:#EBEBEB;" width="10.427" height="4.95"/>
								<rect x="189.42" y="360.955" style="fill:#EBEBEB;" width="10.427" height="4.95"/>
								<rect x="189.42" y="367.229" style="fill:#EBEBEB;" width="10.427" height="4.95"/>
								<rect x="189.42" y="373.503" style="fill:#EBEBEB;" width="10.427" height="4.95"/>
							</g>
							<g>
								<rect x="226.824" y="348.406" style="fill:#EBEBEB;" width="10.427" height="4.95"/>
								<rect x="226.824" y="354.681" style="fill:#EBEBEB;" width="10.427" height="4.95"/>
								<rect x="226.824" y="360.955" style="fill:#EBEBEB;" width="10.427" height="4.95"/>
								<rect x="226.824" y="367.229" style="fill:#EBEBEB;" width="10.427" height="4.95"/>
								<rect x="226.824" y="373.503" style="fill:#EBEBEB;" width="10.427" height="4.95"/>
							</g>
							<rect x="126.886" y="315.57" style="fill:#F0F0F0;" width="135.495" height="31.313"/>
							<path style="fill:#E0E0E0;" d="M262.895,345.617H126.372c-1.179,0-2.134,0.956-2.134,2.134l0,0
								c0,1.179,0.955,2.134,2.134,2.134h136.522c1.179,0,2.134-0.955,2.134-2.134l0,0
								C265.029,346.573,264.073,345.617,262.895,345.617z"/>
							<g>
								<g>
									<path style="fill:#FAFAFA;" d="M139.86,326.805h7.343c-0.213-4.077-3.34-7.378-7.343-7.852V326.805z"/>
									<rect x="139.86" y="328.791" style="fill:#FAFAFA;" width="7.365" height="6.924"/>
									<rect x="130.509" y="328.791" style="fill:#FAFAFA;" width="7.365" height="6.924"/>
									<rect x="139.86" y="337.701" style="fill:#FAFAFA;" width="7.365" height="7.916"/>
									<path style="fill:#FAFAFA;" d="M137.874,326.805v-7.852c-4.003,0.475-7.129,3.775-7.342,7.852H137.874z"/>
									<rect x="130.509" y="337.701" style="fill:#FAFAFA;" width="7.365" height="7.916"/>
								</g>
								<g>
									<path style="fill:#FAFAFA;" d="M177.038,326.805h7.342c-0.213-4.077-3.34-7.378-7.342-7.852V326.805z"/>
									<rect x="177.038" y="328.791" style="fill:#FAFAFA;" width="7.365" height="6.924"/>
									<rect x="167.687" y="328.791" style="fill:#FAFAFA;" width="7.365" height="6.924"/>
									<rect x="177.038" y="337.701" style="fill:#FAFAFA;" width="7.365" height="7.916"/>
									<path style="fill:#FAFAFA;" d="M175.051,326.805v-7.852c-4.003,0.475-7.129,3.775-7.342,7.852H175.051z"/>
									<rect x="167.687" y="337.701" style="fill:#FAFAFA;" width="7.365" height="7.916"/>
								</g>
								<g>
									<path style="fill:#FAFAFA;" d="M214.215,326.805h7.342c-0.213-4.077-3.34-7.378-7.342-7.852V326.805z"/>
									<rect x="214.215" y="328.791" style="fill:#FAFAFA;" width="7.365" height="6.924"/>
									<rect x="204.864" y="328.791" style="fill:#FAFAFA;" width="7.365" height="6.924"/>
									<rect x="214.215" y="337.701" style="fill:#FAFAFA;" width="7.365" height="7.916"/>
									<path style="fill:#FAFAFA;" d="M212.229,326.805v-7.852c-4.003,0.475-7.129,3.775-7.342,7.852H212.229z"/>
									<rect x="204.864" y="337.701" style="fill:#FAFAFA;" width="7.365" height="7.916"/>
								</g>
								<g>
									<path style="fill:#FAFAFA;" d="M251.393,326.805h7.342c-0.213-4.077-3.34-7.378-7.342-7.852V326.805z"/>
									<rect x="251.393" y="328.791" style="fill:#FAFAFA;" width="7.365" height="6.924"/>
									<rect x="242.042" y="328.791" style="fill:#FAFAFA;" width="7.365" height="6.924"/>
									<rect x="251.393" y="337.701" style="fill:#FAFAFA;" width="7.365" height="7.916"/>
									<path style="fill:#FAFAFA;" d="M249.407,326.805v-7.852c-4.003,0.475-7.129,3.775-7.343,7.852H249.407z"/>
									<rect x="242.042" y="337.701" style="fill:#FAFAFA;" width="7.365" height="7.916"/>
								</g>
							</g>
							<g>
								<rect x="152.631" y="315.57" style="fill:#EBEBEB;" width="10.427" height="4.95"/>
								<rect x="152.631" y="321.844" style="fill:#EBEBEB;" width="10.427" height="4.95"/>
								<rect x="152.631" y="328.118" style="fill:#EBEBEB;" width="10.427" height="4.95"/>
								<rect x="152.631" y="334.393" style="fill:#EBEBEB;" width="10.427" height="4.95"/>
								<rect x="152.631" y="340.667" style="fill:#EBEBEB;" width="10.427" height="4.95"/>
							</g>
							<g>
								<rect x="189.42" y="315.57" style="fill:#EBEBEB;" width="10.427" height="4.95"/>
								<rect x="189.42" y="321.844" style="fill:#EBEBEB;" width="10.427" height="4.95"/>
								<rect x="189.42" y="328.118" style="fill:#EBEBEB;" width="10.427" height="4.95"/>
								<rect x="189.42" y="334.393" style="fill:#EBEBEB;" width="10.427" height="4.95"/>
								<rect x="189.42" y="340.667" style="fill:#EBEBEB;" width="10.427" height="4.95"/>
							</g>
							<g>
								<rect x="226.824" y="315.57" style="fill:#EBEBEB;" width="10.427" height="4.95"/>
								<rect x="226.824" y="321.844" style="fill:#EBEBEB;" width="10.427" height="4.95"/>
								<rect x="226.824" y="328.118" style="fill:#EBEBEB;" width="10.427" height="4.95"/>
								<rect x="226.824" y="334.393" style="fill:#EBEBEB;" width="10.427" height="4.95"/>
								<rect x="226.824" y="340.667" style="fill:#EBEBEB;" width="10.427" height="4.95"/>
							</g>
							<rect x="126.886" y="282.734" style="fill:#F0F0F0;" width="135.495" height="31.313"/>
							<path style="fill:#E0E0E0;" d="M262.895,312.781H126.372c-1.179,0-2.134,0.955-2.134,2.134l0,0
								c0,1.179,0.955,2.134,2.134,2.134h136.522c1.179,0,2.134-0.956,2.134-2.134l0,0
								C265.029,313.736,264.073,312.781,262.895,312.781z"/>
							<g>
								<g>
									<path style="fill:#FAFAFA;" d="M139.86,293.969h7.343c-0.213-4.077-3.34-7.378-7.343-7.852V293.969z"/>
									<rect x="139.86" y="295.955" style="fill:#FAFAFA;" width="7.365" height="6.924"/>
									<rect x="130.509" y="295.955" style="fill:#FAFAFA;" width="7.365" height="6.924"/>
									<rect x="139.86" y="304.864" style="fill:#FAFAFA;" width="7.365" height="7.916"/>
									<path style="fill:#FAFAFA;" d="M137.874,293.969v-7.852c-4.003,0.475-7.129,3.775-7.342,7.852H137.874z"/>
									<rect x="130.509" y="304.864" style="fill:#FAFAFA;" width="7.365" height="7.916"/>
								</g>
								<g>
									<path style="fill:#FAFAFA;" d="M177.038,293.969h7.342c-0.213-4.077-3.34-7.378-7.342-7.852V293.969z"/>
									<rect x="177.038" y="295.955" style="fill:#FAFAFA;" width="7.365" height="6.924"/>
									<rect x="167.687" y="295.955" style="fill:#FAFAFA;" width="7.365" height="6.924"/>
									<rect x="177.038" y="304.864" style="fill:#FAFAFA;" width="7.365" height="7.916"/>
									<path style="fill:#FAFAFA;" d="M175.051,293.969v-7.852c-4.003,0.475-7.129,3.775-7.342,7.852H175.051z"/>
									<rect x="167.687" y="304.864" style="fill:#FAFAFA;" width="7.365" height="7.916"/>
								</g>
								<g>
									<path style="fill:#FAFAFA;" d="M214.215,293.969h7.342c-0.213-4.077-3.34-7.378-7.342-7.852V293.969z"/>
									<rect x="214.215" y="295.955" style="fill:#FAFAFA;" width="7.365" height="6.924"/>
									<rect x="204.864" y="295.955" style="fill:#FAFAFA;" width="7.365" height="6.924"/>
									<rect x="214.215" y="304.864" style="fill:#FAFAFA;" width="7.365" height="7.916"/>
									<path style="fill:#FAFAFA;" d="M212.229,293.969v-7.852c-4.003,0.475-7.129,3.775-7.342,7.852H212.229z"/>
									<rect x="204.864" y="304.864" style="fill:#FAFAFA;" width="7.365" height="7.916"/>
								</g>
								<g>
									<path style="fill:#FAFAFA;" d="M251.393,293.969h7.342c-0.213-4.077-3.34-7.378-7.342-7.852V293.969z"/>
									<rect x="251.393" y="295.955" style="fill:#FAFAFA;" width="7.365" height="6.924"/>
									<rect x="242.042" y="295.955" style="fill:#FAFAFA;" width="7.365" height="6.924"/>
									<rect x="251.393" y="304.864" style="fill:#FAFAFA;" width="7.365" height="7.916"/>
									<path style="fill:#FAFAFA;" d="M249.407,293.969v-7.852c-4.003,0.475-7.129,3.775-7.343,7.852H249.407z"/>
									<rect x="242.042" y="304.864" style="fill:#FAFAFA;" width="7.365" height="7.916"/>
								</g>
							</g>
							<g>
								<rect x="152.631" y="282.734" style="fill:#EBEBEB;" width="10.427" height="4.95"/>
								<rect x="152.631" y="289.008" style="fill:#EBEBEB;" width="10.427" height="4.951"/>
								<rect x="152.631" y="295.282" style="fill:#EBEBEB;" width="10.427" height="4.95"/>
								<rect x="152.631" y="301.556" style="fill:#EBEBEB;" width="10.427" height="4.95"/>
								<rect x="152.631" y="307.83" style="fill:#EBEBEB;" width="10.427" height="4.951"/>
							</g>
							<g>
								<rect x="189.42" y="282.734" style="fill:#EBEBEB;" width="10.427" height="4.95"/>
								<rect x="189.42" y="289.008" style="fill:#EBEBEB;" width="10.427" height="4.951"/>
								<rect x="189.42" y="295.282" style="fill:#EBEBEB;" width="10.427" height="4.95"/>
								<rect x="189.42" y="301.556" style="fill:#EBEBEB;" width="10.427" height="4.95"/>
								<rect x="189.42" y="307.83" style="fill:#EBEBEB;" width="10.427" height="4.951"/>
							</g>
							<g>
								<rect x="226.824" y="282.734" style="fill:#EBEBEB;" width="10.427" height="4.95"/>
								<rect x="226.824" y="289.008" style="fill:#EBEBEB;" width="10.427" height="4.951"/>
								<rect x="226.824" y="295.282" style="fill:#EBEBEB;" width="10.427" height="4.95"/>
								<rect x="226.824" y="301.556" style="fill:#EBEBEB;" width="10.427" height="4.95"/>
								<rect x="226.824" y="307.83" style="fill:#EBEBEB;" width="10.427" height="4.951"/>
							</g>
							<rect x="126.886" y="249.897" style="fill:#F0F0F0;" width="135.495" height="31.313"/>
							<path style="fill:#E0E0E0;" d="M262.895,279.944H126.372c-1.179,0-2.134,0.956-2.134,2.134l0,0
								c0,1.179,0.955,2.134,2.134,2.134h136.522c1.179,0,2.134-0.955,2.134-2.134l0,0
								C265.029,280.9,264.073,279.944,262.895,279.944z"/>
							<g>
								<g>
									<path style="fill:#FAFAFA;" d="M139.86,261.132h7.343c-0.213-4.077-3.34-7.378-7.343-7.852V261.132z"/>
									<rect x="139.86" y="263.118" style="fill:#FAFAFA;" width="7.365" height="6.924"/>
									<rect x="130.509" y="263.118" style="fill:#FAFAFA;" width="7.365" height="6.924"/>
									<rect x="139.86" y="272.028" style="fill:#FAFAFA;" width="7.365" height="7.916"/>
									<path style="fill:#FAFAFA;" d="M137.874,261.132v-7.852c-4.003,0.475-7.129,3.775-7.342,7.852H137.874z"/>
									<rect x="130.509" y="272.028" style="fill:#FAFAFA;" width="7.365" height="7.916"/>
								</g>
								<g>
									<path style="fill:#FAFAFA;" d="M177.038,261.132h7.342c-0.213-4.077-3.34-7.378-7.342-7.852V261.132z"/>
									<rect x="177.038" y="263.118" style="fill:#FAFAFA;" width="7.365" height="6.924"/>
									<rect x="167.687" y="263.118" style="fill:#FAFAFA;" width="7.365" height="6.924"/>
									<rect x="177.038" y="272.028" style="fill:#FAFAFA;" width="7.365" height="7.916"/>
									<path style="fill:#FAFAFA;" d="M175.051,261.132v-7.852c-4.003,0.475-7.129,3.775-7.342,7.852H175.051z"/>
									<rect x="167.687" y="272.028" style="fill:#FAFAFA;" width="7.365" height="7.916"/>
								</g>
								<g>
									<path style="fill:#FAFAFA;" d="M214.215,261.132h7.342c-0.213-4.077-3.34-7.378-7.342-7.852V261.132z"/>
									<rect x="214.215" y="263.118" style="fill:#FAFAFA;" width="7.365" height="6.924"/>
									<rect x="204.864" y="263.118" style="fill:#FAFAFA;" width="7.365" height="6.924"/>
									<rect x="214.215" y="272.028" style="fill:#FAFAFA;" width="7.365" height="7.916"/>
									<path style="fill:#FAFAFA;" d="M212.229,261.132v-7.852c-4.003,0.475-7.129,3.775-7.342,7.852H212.229z"/>
									<rect x="204.864" y="272.028" style="fill:#FAFAFA;" width="7.365" height="7.916"/>
								</g>
								<g>
									<path style="fill:#FAFAFA;" d="M251.393,261.132h7.342c-0.213-4.077-3.34-7.378-7.342-7.852V261.132z"/>
									<rect x="251.393" y="263.118" style="fill:#FAFAFA;" width="7.365" height="6.924"/>
									<rect x="242.042" y="263.118" style="fill:#FAFAFA;" width="7.365" height="6.924"/>
									<rect x="251.393" y="272.028" style="fill:#FAFAFA;" width="7.365" height="7.916"/>
									<path style="fill:#FAFAFA;" d="M249.407,261.132v-7.852c-4.003,0.475-7.129,3.775-7.343,7.852H249.407z"/>
									<rect x="242.042" y="272.028" style="fill:#FAFAFA;" width="7.365" height="7.916"/>
								</g>
							</g>
							<g>
								<rect x="152.631" y="249.897" style="fill:#EBEBEB;" width="10.427" height="4.95"/>
								<rect x="152.631" y="256.171" style="fill:#EBEBEB;" width="10.427" height="4.95"/>
								<rect x="152.631" y="262.445" style="fill:#EBEBEB;" width="10.427" height="4.951"/>
								<rect x="152.631" y="268.72" style="fill:#EBEBEB;" width="10.427" height="4.95"/>
								<rect x="152.631" y="274.994" style="fill:#EBEBEB;" width="10.427" height="4.95"/>
							</g>
							<g>
								<rect x="189.42" y="249.897" style="fill:#EBEBEB;" width="10.427" height="4.95"/>
								<rect x="189.42" y="256.171" style="fill:#EBEBEB;" width="10.427" height="4.95"/>
								<rect x="189.42" y="262.445" style="fill:#EBEBEB;" width="10.427" height="4.951"/>
								<rect x="189.42" y="268.72" style="fill:#EBEBEB;" width="10.427" height="4.95"/>
								<rect x="189.42" y="274.994" style="fill:#EBEBEB;" width="10.427" height="4.95"/>
							</g>
							<g>
								<rect x="226.824" y="249.897" style="fill:#EBEBEB;" width="10.427" height="4.95"/>
								<rect x="226.824" y="256.171" style="fill:#EBEBEB;" width="10.427" height="4.95"/>
								<rect x="226.824" y="262.445" style="fill:#EBEBEB;" width="10.427" height="4.951"/>
								<rect x="226.824" y="268.72" style="fill:#EBEBEB;" width="10.427" height="4.95"/>
								<rect x="226.824" y="274.994" style="fill:#EBEBEB;" width="10.427" height="4.95"/>
							</g>
							<rect x="126.886" y="217.061" style="fill:#F0F0F0;" width="135.495" height="31.313"/>
							<path style="fill:#E0E0E0;" d="M262.895,247.108H126.372c-1.179,0-2.134,0.956-2.134,2.134l0,0
								c0,1.179,0.955,2.134,2.134,2.134h136.522c1.179,0,2.134-0.955,2.134-2.134l0,0
								C265.029,248.063,264.073,247.108,262.895,247.108z"/>
							<g>
								<g>
									<path style="fill:#FAFAFA;" d="M139.86,228.296h7.343c-0.213-4.077-3.34-7.378-7.343-7.852V228.296z"/>
									<rect x="139.86" y="230.282" style="fill:#FAFAFA;" width="7.365" height="6.924"/>
									<rect x="130.509" y="230.282" style="fill:#FAFAFA;" width="7.365" height="6.924"/>
									<rect x="139.86" y="239.191" style="fill:#FAFAFA;" width="7.365" height="7.916"/>
									<path style="fill:#FAFAFA;" d="M137.874,228.296v-7.852c-4.003,0.475-7.129,3.775-7.342,7.852H137.874z"/>
									<rect x="130.509" y="239.191" style="fill:#FAFAFA;" width="7.365" height="7.916"/>
								</g>
								<g>
									<path style="fill:#FAFAFA;" d="M177.038,228.296h7.342c-0.213-4.077-3.34-7.378-7.342-7.852V228.296z"/>
									<rect x="177.038" y="230.282" style="fill:#FAFAFA;" width="7.365" height="6.924"/>
									<rect x="167.687" y="230.282" style="fill:#FAFAFA;" width="7.365" height="6.924"/>
									<rect x="177.038" y="239.191" style="fill:#FAFAFA;" width="7.365" height="7.916"/>
									<path style="fill:#FAFAFA;" d="M175.051,228.296v-7.852c-4.003,0.475-7.129,3.775-7.342,7.852H175.051z"/>
									<rect x="167.687" y="239.191" style="fill:#FAFAFA;" width="7.365" height="7.916"/>
								</g>
								<g>
									<path style="fill:#FAFAFA;" d="M214.215,228.296h7.342c-0.213-4.077-3.34-7.378-7.342-7.852V228.296z"/>
									<rect x="214.215" y="230.282" style="fill:#FAFAFA;" width="7.365" height="6.924"/>
									<rect x="204.864" y="230.282" style="fill:#FAFAFA;" width="7.365" height="6.924"/>
									<rect x="214.215" y="239.191" style="fill:#FAFAFA;" width="7.365" height="7.916"/>
									<path style="fill:#FAFAFA;" d="M212.229,228.296v-7.852c-4.003,0.475-7.129,3.775-7.342,7.852H212.229z"/>
									<rect x="204.864" y="239.191" style="fill:#FAFAFA;" width="7.365" height="7.916"/>
								</g>
								<g>
									<path style="fill:#FAFAFA;" d="M251.393,228.296h7.342c-0.213-4.077-3.34-7.378-7.342-7.852V228.296z"/>
									<rect x="251.393" y="230.282" style="fill:#FAFAFA;" width="7.365" height="6.924"/>
									<rect x="242.042" y="230.282" style="fill:#FAFAFA;" width="7.365" height="6.924"/>
									<rect x="251.393" y="239.191" style="fill:#FAFAFA;" width="7.365" height="7.916"/>
									<path style="fill:#FAFAFA;" d="M249.407,228.296v-7.852c-4.003,0.475-7.129,3.775-7.343,7.852H249.407z"/>
									<rect x="242.042" y="239.191" style="fill:#FAFAFA;" width="7.365" height="7.916"/>
								</g>
							</g>
							<g>
								<rect x="152.631" y="217.061" style="fill:#EBEBEB;" width="10.427" height="4.95"/>
								<rect x="152.631" y="223.335" style="fill:#EBEBEB;" width="10.427" height="4.95"/>
								<rect x="152.631" y="229.609" style="fill:#EBEBEB;" width="10.427" height="4.95"/>
								<rect x="152.631" y="235.883" style="fill:#EBEBEB;" width="10.427" height="4.95"/>
								<rect x="152.631" y="242.158" style="fill:#EBEBEB;" width="10.427" height="4.95"/>
							</g>
							<g>
								<rect x="189.42" y="217.061" style="fill:#EBEBEB;" width="10.427" height="4.95"/>
								<rect x="189.42" y="223.335" style="fill:#EBEBEB;" width="10.427" height="4.95"/>
								<rect x="189.42" y="229.609" style="fill:#EBEBEB;" width="10.427" height="4.95"/>
								<rect x="189.42" y="235.883" style="fill:#EBEBEB;" width="10.427" height="4.95"/>
								<rect x="189.42" y="242.158" style="fill:#EBEBEB;" width="10.427" height="4.95"/>
							</g>
							<g>
								<rect x="226.824" y="217.061" style="fill:#EBEBEB;" width="10.427" height="4.95"/>
								<rect x="226.824" y="223.335" style="fill:#EBEBEB;" width="10.427" height="4.95"/>
								<rect x="226.824" y="229.609" style="fill:#EBEBEB;" width="10.427" height="4.95"/>
								<rect x="226.824" y="235.883" style="fill:#EBEBEB;" width="10.427" height="4.95"/>
								<rect x="226.824" y="242.158" style="fill:#EBEBEB;" width="10.427" height="4.95"/>
							</g>
							<polygon style="fill:#E0E0E0;" points="265.029,219.278 124.238,219.278 168.964,170.312 227.137,170.312 							"/>
						</g>
					</g>
				</g>
				<g>
					<g>
						<g>
							<rect x="237.619" y="348.406" style="fill:#F0F0F0;" width="135.495" height="31.313"/>
							<path style="fill:#E0E0E0;" d="M373.628,378.454H237.105c-1.179,0-2.134,0.955-2.134,2.134l0,0
								c0,1.179,0.956,2.134,2.134,2.134h136.522c1.179,0,2.134-0.956,2.134-2.134l0,0
								C375.762,379.409,374.806,378.454,373.628,378.454z"/>
							<g>
								<g>
									<path style="fill:#FAFAFA;" d="M250.593,359.642h7.343c-0.213-4.077-3.34-7.378-7.343-7.852V359.642z"/>
									<rect x="250.593" y="361.628" style="fill:#FAFAFA;" width="7.365" height="6.924"/>
									<rect x="241.242" y="361.628" style="fill:#FAFAFA;" width="7.365" height="6.924"/>
									<rect x="250.593" y="370.537" style="fill:#FAFAFA;" width="7.365" height="7.916"/>
									<path style="fill:#FAFAFA;" d="M248.607,359.642v-7.852c-4.003,0.475-7.129,3.775-7.342,7.852H248.607z"/>
									<rect x="241.242" y="370.537" style="fill:#FAFAFA;" width="7.365" height="7.916"/>
								</g>
								<g>
									<path style="fill:#FAFAFA;" d="M287.771,359.642h7.342c-0.213-4.077-3.34-7.378-7.342-7.852V359.642z"/>
									<rect x="287.771" y="361.628" style="fill:#FAFAFA;" width="7.365" height="6.924"/>
									<rect x="278.42" y="361.628" style="fill:#FAFAFA;" width="7.365" height="6.924"/>
									<rect x="287.771" y="370.537" style="fill:#FAFAFA;" width="7.365" height="7.916"/>
									<path style="fill:#FAFAFA;" d="M285.785,359.642v-7.852c-4.003,0.475-7.129,3.775-7.342,7.852H285.785z"/>
									<rect x="278.42" y="370.537" style="fill:#FAFAFA;" width="7.365" height="7.916"/>
								</g>
								<g>
									<path style="fill:#FAFAFA;" d="M324.948,359.642h7.342c-0.213-4.077-3.34-7.378-7.342-7.852V359.642z"/>
									<rect x="324.948" y="361.628" style="fill:#FAFAFA;" width="7.365" height="6.924"/>
									<rect x="315.598" y="361.628" style="fill:#FAFAFA;" width="7.365" height="6.924"/>
									<rect x="324.948" y="370.537" style="fill:#FAFAFA;" width="7.365" height="7.916"/>
									<path style="fill:#FAFAFA;" d="M322.962,359.642v-7.852c-4.003,0.475-7.129,3.775-7.342,7.852H322.962z"/>
									<rect x="315.598" y="370.537" style="fill:#FAFAFA;" width="7.365" height="7.916"/>
								</g>
								<g>
									<path style="fill:#FAFAFA;" d="M362.126,359.642h7.342c-0.213-4.077-3.34-7.378-7.342-7.852V359.642z"/>
									<rect x="362.126" y="361.628" style="fill:#FAFAFA;" width="7.365" height="6.924"/>
									<rect x="352.775" y="361.628" style="fill:#FAFAFA;" width="7.365" height="6.924"/>
									<rect x="362.126" y="370.537" style="fill:#FAFAFA;" width="7.365" height="7.916"/>
									<path style="fill:#FAFAFA;" d="M360.14,359.642v-7.852c-4.003,0.475-7.129,3.775-7.343,7.852H360.14z"/>
									<rect x="352.775" y="370.537" style="fill:#FAFAFA;" width="7.365" height="7.916"/>
								</g>
							</g>
							<g>
								<rect x="263.365" y="348.406" style="fill:#EBEBEB;" width="10.427" height="4.95"/>
								<rect x="263.365" y="354.681" style="fill:#EBEBEB;" width="10.427" height="4.95"/>
								<rect x="263.365" y="360.955" style="fill:#EBEBEB;" width="10.427" height="4.95"/>
								<rect x="263.365" y="367.229" style="fill:#EBEBEB;" width="10.427" height="4.95"/>
								<rect x="263.365" y="373.503" style="fill:#EBEBEB;" width="10.427" height="4.95"/>
							</g>
							<g>
								<rect x="300.153" y="348.406" style="fill:#EBEBEB;" width="10.427" height="4.95"/>
								<rect x="300.153" y="354.681" style="fill:#EBEBEB;" width="10.427" height="4.95"/>
								<rect x="300.153" y="360.955" style="fill:#EBEBEB;" width="10.427" height="4.95"/>
								<rect x="300.153" y="367.229" style="fill:#EBEBEB;" width="10.427" height="4.95"/>
								<rect x="300.153" y="373.503" style="fill:#EBEBEB;" width="10.427" height="4.95"/>
							</g>
							<g>
								<rect x="337.557" y="348.406" style="fill:#EBEBEB;" width="10.427" height="4.95"/>
								<rect x="337.557" y="354.681" style="fill:#EBEBEB;" width="10.427" height="4.95"/>
								<rect x="337.557" y="360.955" style="fill:#EBEBEB;" width="10.427" height="4.95"/>
								<rect x="337.557" y="367.229" style="fill:#EBEBEB;" width="10.427" height="4.95"/>
								<rect x="337.557" y="373.503" style="fill:#EBEBEB;" width="10.427" height="4.95"/>
							</g>
							<rect x="237.619" y="315.57" style="fill:#F0F0F0;" width="135.495" height="31.313"/>
							<path style="fill:#E0E0E0;" d="M373.628,345.617H237.105c-1.179,0-2.134,0.956-2.134,2.134l0,0
								c0,1.179,0.956,2.134,2.134,2.134h136.522c1.179,0,2.134-0.955,2.134-2.134l0,0
								C375.762,346.573,374.806,345.617,373.628,345.617z"/>
							<g>
								<g>
									<path style="fill:#FAFAFA;" d="M250.593,326.805h7.343c-0.213-4.077-3.34-7.378-7.343-7.852V326.805z"/>
									<rect x="250.593" y="328.791" style="fill:#FAFAFA;" width="7.365" height="6.924"/>
									<rect x="241.242" y="328.791" style="fill:#FAFAFA;" width="7.365" height="6.924"/>
									<rect x="250.593" y="337.701" style="fill:#FAFAFA;" width="7.365" height="7.916"/>
									<path style="fill:#FAFAFA;" d="M248.607,326.805v-7.852c-4.003,0.475-7.129,3.775-7.342,7.852H248.607z"/>
									<rect x="241.242" y="337.701" style="fill:#FAFAFA;" width="7.365" height="7.916"/>
								</g>
								<g>
									<path style="fill:#FAFAFA;" d="M287.771,326.805h7.342c-0.213-4.077-3.34-7.378-7.342-7.852V326.805z"/>
									<rect x="287.771" y="328.791" style="fill:#FAFAFA;" width="7.365" height="6.924"/>
									<rect x="278.42" y="328.791" style="fill:#FAFAFA;" width="7.365" height="6.924"/>
									<rect x="287.771" y="337.701" style="fill:#FAFAFA;" width="7.365" height="7.916"/>
									<path style="fill:#FAFAFA;" d="M285.785,326.805v-7.852c-4.003,0.475-7.129,3.775-7.342,7.852H285.785z"/>
									<rect x="278.42" y="337.701" style="fill:#FAFAFA;" width="7.365" height="7.916"/>
								</g>
								<g>
									<path style="fill:#FAFAFA;" d="M324.948,326.805h7.342c-0.213-4.077-3.34-7.378-7.342-7.852V326.805z"/>
									<rect x="324.948" y="328.791" style="fill:#FAFAFA;" width="7.365" height="6.924"/>
									<rect x="315.598" y="328.791" style="fill:#FAFAFA;" width="7.365" height="6.924"/>
									<rect x="324.948" y="337.701" style="fill:#FAFAFA;" width="7.365" height="7.916"/>
									<path style="fill:#FAFAFA;" d="M322.962,326.805v-7.852c-4.003,0.475-7.129,3.775-7.342,7.852H322.962z"/>
									<rect x="315.598" y="337.701" style="fill:#FAFAFA;" width="7.365" height="7.916"/>
								</g>
								<g>
									<path style="fill:#FAFAFA;" d="M362.126,326.805h7.342c-0.213-4.077-3.34-7.378-7.342-7.852V326.805z"/>
									<rect x="362.126" y="328.791" style="fill:#FAFAFA;" width="7.365" height="6.924"/>
									<rect x="352.775" y="328.791" style="fill:#FAFAFA;" width="7.365" height="6.924"/>
									<rect x="362.126" y="337.701" style="fill:#FAFAFA;" width="7.365" height="7.916"/>
									<path style="fill:#FAFAFA;" d="M360.14,326.805v-7.852c-4.003,0.475-7.129,3.775-7.343,7.852H360.14z"/>
									<rect x="352.775" y="337.701" style="fill:#FAFAFA;" width="7.365" height="7.916"/>
								</g>
							</g>
							<g>
								<rect x="263.365" y="315.57" style="fill:#EBEBEB;" width="10.427" height="4.95"/>
								<rect x="263.365" y="321.844" style="fill:#EBEBEB;" width="10.427" height="4.95"/>
								<rect x="263.365" y="328.118" style="fill:#EBEBEB;" width="10.427" height="4.95"/>
								<rect x="263.365" y="334.393" style="fill:#EBEBEB;" width="10.427" height="4.95"/>
								<rect x="263.365" y="340.667" style="fill:#EBEBEB;" width="10.427" height="4.95"/>
							</g>
							<g>
								<rect x="300.153" y="315.57" style="fill:#EBEBEB;" width="10.427" height="4.95"/>
								<rect x="300.153" y="321.844" style="fill:#EBEBEB;" width="10.427" height="4.95"/>
								<rect x="300.153" y="328.118" style="fill:#EBEBEB;" width="10.427" height="4.95"/>
								<rect x="300.153" y="334.393" style="fill:#EBEBEB;" width="10.427" height="4.95"/>
								<rect x="300.153" y="340.667" style="fill:#EBEBEB;" width="10.427" height="4.95"/>
							</g>
							<g>
								<rect x="337.557" y="315.57" style="fill:#EBEBEB;" width="10.427" height="4.95"/>
								<rect x="337.557" y="321.844" style="fill:#EBEBEB;" width="10.427" height="4.95"/>
								<rect x="337.557" y="328.118" style="fill:#EBEBEB;" width="10.427" height="4.95"/>
								<rect x="337.557" y="334.393" style="fill:#EBEBEB;" width="10.427" height="4.95"/>
								<rect x="337.557" y="340.667" style="fill:#EBEBEB;" width="10.427" height="4.95"/>
							</g>
							<rect x="237.619" y="282.734" style="fill:#F0F0F0;" width="135.495" height="31.313"/>
							<path style="fill:#E0E0E0;" d="M373.628,312.781H237.105c-1.179,0-2.134,0.955-2.134,2.134l0,0
								c0,1.179,0.956,2.134,2.134,2.134h136.522c1.179,0,2.134-0.956,2.134-2.134l0,0
								C375.762,313.736,374.806,312.781,373.628,312.781z"/>
							<g>
								<g>
									<path style="fill:#FAFAFA;" d="M250.593,293.969h7.343c-0.213-4.077-3.34-7.378-7.343-7.852V293.969z"/>
									<rect x="250.593" y="295.955" style="fill:#FAFAFA;" width="7.365" height="6.924"/>
									<rect x="241.242" y="295.955" style="fill:#FAFAFA;" width="7.365" height="6.924"/>
									<rect x="250.593" y="304.864" style="fill:#FAFAFA;" width="7.365" height="7.916"/>
									<path style="fill:#FAFAFA;" d="M248.607,293.969v-7.852c-4.003,0.475-7.129,3.775-7.342,7.852H248.607z"/>
									<rect x="241.242" y="304.864" style="fill:#FAFAFA;" width="7.365" height="7.916"/>
								</g>
								<g>
									<path style="fill:#FAFAFA;" d="M287.771,293.969h7.342c-0.213-4.077-3.34-7.378-7.342-7.852V293.969z"/>
									<rect x="287.771" y="295.955" style="fill:#FAFAFA;" width="7.365" height="6.924"/>
									<rect x="278.42" y="295.955" style="fill:#FAFAFA;" width="7.365" height="6.924"/>
									<rect x="287.771" y="304.864" style="fill:#FAFAFA;" width="7.365" height="7.916"/>
									<path style="fill:#FAFAFA;" d="M285.785,293.969v-7.852c-4.003,0.475-7.129,3.775-7.342,7.852H285.785z"/>
									<rect x="278.42" y="304.864" style="fill:#FAFAFA;" width="7.365" height="7.916"/>
								</g>
								<g>
									<path style="fill:#FAFAFA;" d="M324.948,293.969h7.342c-0.213-4.077-3.34-7.378-7.342-7.852V293.969z"/>
									<rect x="324.948" y="295.955" style="fill:#FAFAFA;" width="7.365" height="6.924"/>
									<rect x="315.598" y="295.955" style="fill:#FAFAFA;" width="7.365" height="6.924"/>
									<rect x="324.948" y="304.864" style="fill:#FAFAFA;" width="7.365" height="7.916"/>
									<path style="fill:#FAFAFA;" d="M322.962,293.969v-7.852c-4.003,0.475-7.129,3.775-7.342,7.852H322.962z"/>
									<rect x="315.598" y="304.864" style="fill:#FAFAFA;" width="7.365" height="7.916"/>
								</g>
								<g>
									<path style="fill:#FAFAFA;" d="M362.126,293.969h7.342c-0.213-4.077-3.34-7.378-7.342-7.852V293.969z"/>
									<rect x="362.126" y="295.955" style="fill:#FAFAFA;" width="7.365" height="6.924"/>
									<rect x="352.775" y="295.955" style="fill:#FAFAFA;" width="7.365" height="6.924"/>
									<rect x="362.126" y="304.864" style="fill:#FAFAFA;" width="7.365" height="7.916"/>
									<path style="fill:#FAFAFA;" d="M360.14,293.969v-7.852c-4.003,0.475-7.129,3.775-7.343,7.852H360.14z"/>
									<rect x="352.775" y="304.864" style="fill:#FAFAFA;" width="7.365" height="7.916"/>
								</g>
							</g>
							<g>
								<rect x="263.365" y="282.734" style="fill:#EBEBEB;" width="10.427" height="4.95"/>
								<rect x="263.365" y="289.008" style="fill:#EBEBEB;" width="10.427" height="4.951"/>
								<rect x="263.365" y="295.282" style="fill:#EBEBEB;" width="10.427" height="4.95"/>
								<rect x="263.365" y="301.556" style="fill:#EBEBEB;" width="10.427" height="4.95"/>
								<rect x="263.365" y="307.83" style="fill:#EBEBEB;" width="10.427" height="4.951"/>
							</g>
							<g>
								<rect x="300.153" y="282.734" style="fill:#EBEBEB;" width="10.427" height="4.95"/>
								<rect x="300.153" y="289.008" style="fill:#EBEBEB;" width="10.427" height="4.951"/>
								<rect x="300.153" y="295.282" style="fill:#EBEBEB;" width="10.427" height="4.95"/>
								<rect x="300.153" y="301.556" style="fill:#EBEBEB;" width="10.427" height="4.95"/>
								<rect x="300.153" y="307.83" style="fill:#EBEBEB;" width="10.427" height="4.951"/>
							</g>
							<g>
								<rect x="337.557" y="282.734" style="fill:#EBEBEB;" width="10.427" height="4.95"/>
								<rect x="337.557" y="289.008" style="fill:#EBEBEB;" width="10.427" height="4.951"/>
								<rect x="337.557" y="295.282" style="fill:#EBEBEB;" width="10.427" height="4.95"/>
								<rect x="337.557" y="301.556" style="fill:#EBEBEB;" width="10.427" height="4.95"/>
								<rect x="337.557" y="307.83" style="fill:#EBEBEB;" width="10.427" height="4.951"/>
							</g>
							<rect x="237.619" y="249.897" style="fill:#F0F0F0;" width="135.495" height="31.313"/>
							<path style="fill:#E0E0E0;" d="M373.628,279.944H237.105c-1.179,0-2.134,0.956-2.134,2.134l0,0
								c0,1.179,0.956,2.134,2.134,2.134h136.522c1.179,0,2.134-0.955,2.134-2.134l0,0
								C375.762,280.9,374.806,279.944,373.628,279.944z"/>
							<g>
								<g>
									<path style="fill:#FAFAFA;" d="M250.593,261.132h7.343c-0.213-4.077-3.34-7.378-7.343-7.852V261.132z"/>
									<rect x="250.593" y="263.118" style="fill:#FAFAFA;" width="7.365" height="6.924"/>
									<rect x="241.242" y="263.118" style="fill:#FAFAFA;" width="7.365" height="6.924"/>
									<rect x="250.593" y="272.028" style="fill:#FAFAFA;" width="7.365" height="7.916"/>
									<path style="fill:#FAFAFA;" d="M248.607,261.132v-7.852c-4.003,0.475-7.129,3.775-7.342,7.852H248.607z"/>
									<rect x="241.242" y="272.028" style="fill:#FAFAFA;" width="7.365" height="7.916"/>
								</g>
								<g>
									<path style="fill:#FAFAFA;" d="M287.771,261.132h7.342c-0.213-4.077-3.34-7.378-7.342-7.852V261.132z"/>
									<rect x="287.771" y="263.118" style="fill:#FAFAFA;" width="7.365" height="6.924"/>
									<rect x="278.42" y="263.118" style="fill:#FAFAFA;" width="7.365" height="6.924"/>
									<rect x="287.771" y="272.028" style="fill:#FAFAFA;" width="7.365" height="7.916"/>
									<path style="fill:#FAFAFA;" d="M285.785,261.132v-7.852c-4.003,0.475-7.129,3.775-7.342,7.852H285.785z"/>
									<rect x="278.42" y="272.028" style="fill:#FAFAFA;" width="7.365" height="7.916"/>
								</g>
								<g>
									<path style="fill:#FAFAFA;" d="M324.948,261.132h7.342c-0.213-4.077-3.34-7.378-7.342-7.852V261.132z"/>
									<rect x="324.948" y="263.118" style="fill:#FAFAFA;" width="7.365" height="6.924"/>
									<rect x="315.598" y="263.118" style="fill:#FAFAFA;" width="7.365" height="6.924"/>
									<rect x="324.948" y="272.028" style="fill:#FAFAFA;" width="7.365" height="7.916"/>
									<path style="fill:#FAFAFA;" d="M322.962,261.132v-7.852c-4.003,0.475-7.129,3.775-7.342,7.852H322.962z"/>
									<rect x="315.598" y="272.028" style="fill:#FAFAFA;" width="7.365" height="7.916"/>
								</g>
								<g>
									<path style="fill:#FAFAFA;" d="M362.126,261.132h7.342c-0.213-4.077-3.34-7.378-7.342-7.852V261.132z"/>
									<rect x="362.126" y="263.118" style="fill:#FAFAFA;" width="7.365" height="6.924"/>
									<rect x="352.775" y="263.118" style="fill:#FAFAFA;" width="7.365" height="6.924"/>
									<rect x="362.126" y="272.028" style="fill:#FAFAFA;" width="7.365" height="7.916"/>
									<path style="fill:#FAFAFA;" d="M360.14,261.132v-7.852c-4.003,0.475-7.129,3.775-7.343,7.852H360.14z"/>
									<rect x="352.775" y="272.028" style="fill:#FAFAFA;" width="7.365" height="7.916"/>
								</g>
							</g>
							<g>
								<rect x="263.365" y="249.897" style="fill:#EBEBEB;" width="10.427" height="4.95"/>
								<rect x="263.365" y="256.171" style="fill:#EBEBEB;" width="10.427" height="4.95"/>
								<rect x="263.365" y="262.445" style="fill:#EBEBEB;" width="10.427" height="4.951"/>
								<rect x="263.365" y="268.72" style="fill:#EBEBEB;" width="10.427" height="4.95"/>
								<rect x="263.365" y="274.994" style="fill:#EBEBEB;" width="10.427" height="4.95"/>
							</g>
							<g>
								<rect x="300.153" y="249.897" style="fill:#EBEBEB;" width="10.427" height="4.95"/>
								<rect x="300.153" y="256.171" style="fill:#EBEBEB;" width="10.427" height="4.95"/>
								<rect x="300.153" y="262.445" style="fill:#EBEBEB;" width="10.427" height="4.951"/>
								<rect x="300.153" y="268.72" style="fill:#EBEBEB;" width="10.427" height="4.95"/>
								<rect x="300.153" y="274.994" style="fill:#EBEBEB;" width="10.427" height="4.95"/>
							</g>
							<g>
								<rect x="337.557" y="249.897" style="fill:#EBEBEB;" width="10.427" height="4.95"/>
								<rect x="337.557" y="256.171" style="fill:#EBEBEB;" width="10.427" height="4.95"/>
								<rect x="337.557" y="262.445" style="fill:#EBEBEB;" width="10.427" height="4.951"/>
								<rect x="337.557" y="268.72" style="fill:#EBEBEB;" width="10.427" height="4.95"/>
								<rect x="337.557" y="274.994" style="fill:#EBEBEB;" width="10.427" height="4.95"/>
							</g>
							<rect x="237.619" y="217.061" style="fill:#F0F0F0;" width="135.495" height="31.313"/>
							<path style="fill:#E0E0E0;" d="M373.628,247.108H237.105c-1.179,0-2.134,0.956-2.134,2.134l0,0
								c0,1.179,0.956,2.134,2.134,2.134h136.522c1.179,0,2.134-0.955,2.134-2.134l0,0
								C375.762,248.063,374.806,247.108,373.628,247.108z"/>
							<g>
								<g>
									<path style="fill:#FAFAFA;" d="M250.593,228.296h7.343c-0.213-4.077-3.34-7.378-7.343-7.852V228.296z"/>
									<rect x="250.593" y="230.282" style="fill:#FAFAFA;" width="7.365" height="6.924"/>
									<rect x="241.242" y="230.282" style="fill:#FAFAFA;" width="7.365" height="6.924"/>
									<rect x="250.593" y="239.191" style="fill:#FAFAFA;" width="7.365" height="7.916"/>
									<path style="fill:#FAFAFA;" d="M248.607,228.296v-7.852c-4.003,0.475-7.129,3.775-7.342,7.852H248.607z"/>
									<rect x="241.242" y="239.191" style="fill:#FAFAFA;" width="7.365" height="7.916"/>
								</g>
								<g>
									<path style="fill:#FAFAFA;" d="M287.771,228.296h7.342c-0.213-4.077-3.34-7.378-7.342-7.852V228.296z"/>
									<rect x="287.771" y="230.282" style="fill:#FAFAFA;" width="7.365" height="6.924"/>
									<rect x="278.42" y="230.282" style="fill:#FAFAFA;" width="7.365" height="6.924"/>
									<rect x="287.771" y="239.191" style="fill:#FAFAFA;" width="7.365" height="7.916"/>
									<path style="fill:#FAFAFA;" d="M285.785,228.296v-7.852c-4.003,0.475-7.129,3.775-7.342,7.852H285.785z"/>
									<rect x="278.42" y="239.191" style="fill:#FAFAFA;" width="7.365" height="7.916"/>
								</g>
								<g>
									<path style="fill:#FAFAFA;" d="M324.948,228.296h7.342c-0.213-4.077-3.34-7.378-7.342-7.852V228.296z"/>
									<rect x="324.948" y="230.282" style="fill:#FAFAFA;" width="7.365" height="6.924"/>
									<rect x="315.598" y="230.282" style="fill:#FAFAFA;" width="7.365" height="6.924"/>
									<rect x="324.948" y="239.191" style="fill:#FAFAFA;" width="7.365" height="7.916"/>
									<path style="fill:#FAFAFA;" d="M322.962,228.296v-7.852c-4.003,0.475-7.129,3.775-7.342,7.852H322.962z"/>
									<rect x="315.598" y="239.191" style="fill:#FAFAFA;" width="7.365" height="7.916"/>
								</g>
								<g>
									<path style="fill:#FAFAFA;" d="M362.126,228.296h7.342c-0.213-4.077-3.34-7.378-7.342-7.852V228.296z"/>
									<rect x="362.126" y="230.282" style="fill:#FAFAFA;" width="7.365" height="6.924"/>
									<rect x="352.775" y="230.282" style="fill:#FAFAFA;" width="7.365" height="6.924"/>
									<rect x="362.126" y="239.191" style="fill:#FAFAFA;" width="7.365" height="7.916"/>
									<path style="fill:#FAFAFA;" d="M360.14,228.296v-7.852c-4.003,0.475-7.129,3.775-7.343,7.852H360.14z"/>
									<rect x="352.775" y="239.191" style="fill:#FAFAFA;" width="7.365" height="7.916"/>
								</g>
							</g>
							<g>
								<rect x="263.365" y="217.061" style="fill:#EBEBEB;" width="10.427" height="4.95"/>
								<rect x="263.365" y="223.335" style="fill:#EBEBEB;" width="10.427" height="4.95"/>
								<rect x="263.365" y="229.609" style="fill:#EBEBEB;" width="10.427" height="4.95"/>
								<rect x="263.365" y="235.883" style="fill:#EBEBEB;" width="10.427" height="4.95"/>
								<rect x="263.365" y="242.158" style="fill:#EBEBEB;" width="10.427" height="4.95"/>
							</g>
							<g>
								<rect x="300.153" y="217.061" style="fill:#EBEBEB;" width="10.427" height="4.95"/>
								<rect x="300.153" y="223.335" style="fill:#EBEBEB;" width="10.427" height="4.95"/>
								<rect x="300.153" y="229.609" style="fill:#EBEBEB;" width="10.427" height="4.95"/>
								<rect x="300.153" y="235.883" style="fill:#EBEBEB;" width="10.427" height="4.95"/>
								<rect x="300.153" y="242.158" style="fill:#EBEBEB;" width="10.427" height="4.95"/>
							</g>
							<g>
								<rect x="337.557" y="217.061" style="fill:#EBEBEB;" width="10.427" height="4.95"/>
								<rect x="337.557" y="223.335" style="fill:#EBEBEB;" width="10.427" height="4.95"/>
								<rect x="337.557" y="229.609" style="fill:#EBEBEB;" width="10.427" height="4.95"/>
								<rect x="337.557" y="235.883" style="fill:#EBEBEB;" width="10.427" height="4.95"/>
								<rect x="337.557" y="242.158" style="fill:#EBEBEB;" width="10.427" height="4.95"/>
							</g>
							<polygon style="fill:#E0E0E0;" points="375.762,219.278 234.971,219.278 279.697,170.312 337.87,170.312 							"/>
						</g>
					</g>
				</g>
			</g>
			<g>
				<g>
					<g>
						<polygon style="fill:#E0E0E0;" points="301.638,175.296 300.821,204.591 300.64,211.06 299.573,248.775 299.505,251.359 
							299.278,259.519 299.119,264.687 299.119,264.742 298.552,285.524 298.552,285.561 298.098,301.528 298.03,304.131 
							297.803,311.863 297.735,314.447 297.621,318.443 277.786,318.443 277.786,175.296 						"/>
					</g>
					<g>
						<polygon style="fill:#FAFAFA;" points="301.638,175.296 300.821,204.591 300.64,211.06 299.573,248.775 299.505,251.359 
							299.278,259.519 299.119,264.687 299.119,264.742 298.552,285.524 298.552,285.561 298.098,301.528 298.03,304.131 
							297.803,311.863 297.735,314.447 297.621,318.443 277.786,318.443 277.786,175.296 						"/>
					</g>
				</g>
				<g>
					<g>
						<polygon style="fill:#E0E0E0;" points="222.298,175.296 222.298,318.443 202.462,318.443 202.349,314.447 202.281,311.863 
							202.054,304.131 201.986,301.528 201.532,285.208 200.964,264.742 200.964,264.687 200.806,259.519 200.579,251.359 
							200.51,248.775 199.444,211.06 199.262,204.591 198.445,175.296 						"/>
					</g>
					<g>
						<polygon style="fill:#FAFAFA;" points="222.298,175.296 222.298,318.443 202.462,318.443 202.349,314.447 202.281,311.863 
							202.054,304.131 201.986,301.528 201.532,285.208 200.964,264.742 200.964,264.687 200.806,259.519 200.579,251.359 
							200.51,248.775 199.444,211.06 199.262,204.591 198.445,175.296 						"/>
					</g>
				</g>
				<g>
					<g>
						<g>
							<rect x="221.98" y="196.097" style="fill:#E0E0E0;" width="55.806" height="122.347"/>
						</g>
					</g>
					<g>
						<rect x="221.98" y="196.097" style="fill:#EBEBEB;" width="55.806" height="122.347"/>
					</g>
				</g>
				<g>
					<g>
						<g>
							<polygon style="fill:#E0E0E0;" points="277.775,175.143 301.607,175.143 304.095,171.485 275.287,171.485 							"/>
						</g>
						<g>
							<polygon style="fill:#E0E0E0;" points="275.177,171.457 304.205,171.457 289.543,127.848 							"/>
						</g>
						<g>
							<g>
								
									<rect x="288.141" y="116.445" transform="matrix(-1 -1.224647e-16 1.224647e-16 -1 579.0293 249.6411)" style="fill:#E0E0E0;" width="2.748" height="16.752"/>
							</g>
							<g>
								
									<rect x="288.566" y="117.453" transform="matrix(6.123234e-17 -1 1 6.123234e-17 166.2704 413.1115)" style="fill:#E0E0E0;" width="2.251" height="11.936"/>
							</g>
						</g>
					</g>
					<g>
						<g>
							<polygon style="fill:#E0E0E0;" points="198.451,175.143 222.283,175.143 224.77,171.485 195.963,171.485 							"/>
						</g>
						<g>
							<polygon style="fill:#E0E0E0;" points="195.853,171.457 224.881,171.457 210.219,127.848 							"/>
						</g>
						<g>
							<g>
								
									<rect x="208.817" y="116.445" transform="matrix(-1 -1.224647e-16 1.224647e-16 -1 420.3811 249.6411)" style="fill:#E0E0E0;" width="2.748" height="16.752"/>
							</g>
							<g>
								
									<rect x="209.242" y="117.453" transform="matrix(6.123234e-17 -1 1 6.123234e-17 86.9464 333.7874)" style="fill:#E0E0E0;" width="2.251" height="11.936"/>
							</g>
						</g>
					</g>
					<g>
						<polygon style="fill:#E0E0E0;" points="275.695,264.738 275.695,269.237 277.909,285.56 281.402,272.237 286.692,283.286 
							288.225,286.514 289.772,283.286 295.062,272.237 298.555,285.56 300.296,269.237 300.296,264.738 						"/>
					</g>
					<g style="opacity:0.4;">
						<polygon style="fill:#FAFAFA;" points="275.695,264.738 275.695,269.237 277.909,285.56 281.402,272.237 286.692,283.286 
							288.225,286.514 289.772,283.286 295.062,272.237 298.555,285.56 300.296,269.237 300.296,264.738 						"/>
					</g>
					<g>
						<polygon style="fill:#E0E0E0;" points="199.223,264.738 199.223,269.237 201.437,285.56 204.93,272.237 210.22,283.286 
							211.753,286.514 213.3,283.286 218.59,272.237 222.083,285.56 223.824,269.237 223.824,264.738 						"/>
					</g>
					<g style="opacity:0.4;">
						<polygon style="fill:#FAFAFA;" points="199.223,264.738 199.223,269.237 201.437,285.56 204.93,272.237 210.22,283.286 
							211.753,286.514 213.3,283.286 218.59,272.237 222.083,285.56 223.824,269.237 223.824,264.738 						"/>
					</g>
					<g>
						<polygon style="fill:#E0E0E0;" points="198.987,211.055 301.013,211.055 304.397,204.588 195.603,204.588 						"/>
					</g>
					<g>
						<polygon style="fill:#E0E0E0;" points="199.223,264.695 300.197,264.695 303.809,259.519 195.611,259.519 						"/>
					</g>
					<g>
						<polygon style="fill:#E0E0E0;" points="200.503,251.356 300.197,251.356 303.809,248.768 196.891,248.768 						"/>
					</g>
					<g>
						<polygon style="fill:#E0E0E0;" points="200.959,304.124 298.848,304.124 302.46,301.536 197.348,301.536 						"/>
					</g>
					<g>
						<polygon style="fill:#E0E0E0;" points="200.959,314.444 298.848,314.444 302.46,311.855 197.348,311.855 						"/>
					</g>
				</g>
				<g>
					<g>
						<g>
							
								<rect x="261.298" y="284.98" transform="matrix(-1 -1.224647e-16 1.224647e-16 -1 532.3466 588.3949)" style="fill:#E0E0E0;" width="9.751" height="18.435"/>
						</g>
						<g>
							<line style="fill:none;" x1="271.049" y1="293.3" x2="261.298" y2="293.3"/>
						</g>
					</g>
					<g>
						<g>
							<path style="fill:#FAFAFA;" d="M262.263,284.985v0.781h7.83v-0.781H262.263z M260.334,284.185v20.02h11.688v-20.02H260.334z
								 M270.093,302.625h-7.83v-16.859h7.83V302.625z"/>
						</g>
						<g>
							<rect x="261.298" y="292.51" style="fill:#FAFAFA;" width="9.751" height="1.579"/>
						</g>
					</g>
					<g>
						<polygon style="fill:#FAFAFA;" points="257.284,290.552 262.261,290.552 262.261,282.253 270.085,282.253 270.085,290.552 
							275.38,290.552 275.38,288.973 272.013,288.973 272.013,280.674 260.334,280.674 260.334,288.973 257.284,288.973 						"/>
					</g>
				</g>
				<g>
					<g>
						<g>
							
								<rect x="244.497" y="284.98" transform="matrix(-1 -1.224647e-16 1.224647e-16 -1 498.745 588.3949)" style="fill:#E0E0E0;" width="9.751" height="18.435"/>
						</g>
						<g>
							<line style="fill:none;" x1="254.248" y1="293.3" x2="244.497" y2="293.3"/>
						</g>
					</g>
					<g>
						<g>
							<path style="fill:#FAFAFA;" d="M243.54,284.185v20.02h11.665v-20.02H243.54z M253.276,302.625h-7.807v-16.859h7.807V302.625z
								"/>
						</g>
						<g>
							<rect x="244.497" y="292.51" style="fill:#FAFAFA;" width="9.751" height="1.579"/>
						</g>
					</g>
					<g>
						<polygon style="fill:#FAFAFA;" points="240.484,290.552 245.461,290.552 245.461,282.253 253.285,282.253 253.285,290.552 
							260.984,290.552 260.984,288.973 255.212,288.973 255.212,280.674 243.533,280.674 243.533,288.973 240.484,288.973 						"/>
					</g>
				</g>
				<g>
					<g>
						<g>
							
								<rect x="227.696" y="284.98" transform="matrix(-1 -1.224647e-16 1.224647e-16 -1 465.1436 588.3949)" style="fill:#E0E0E0;" width="9.751" height="18.435"/>
						</g>
						<g>
							<line style="fill:none;" x1="237.447" y1="293.3" x2="227.696" y2="293.3"/>
						</g>
					</g>
					<g>
						<g>
							<path style="fill:#FAFAFA;" d="M226.723,284.185v20.02h11.688v-20.02H226.723z M236.482,302.625h-7.829v-16.859h7.829
								V302.625z"/>
						</g>
						<g>
							<rect x="227.697" y="292.51" style="fill:#FAFAFA;" width="9.751" height="1.579"/>
						</g>
					</g>
					<g>
						<polygon style="fill:#FAFAFA;" points="223.683,290.552 228.66,290.552 228.66,282.253 236.484,282.253 236.484,290.552 
							244.183,290.552 244.183,288.973 238.411,288.973 238.411,280.674 226.733,280.674 226.733,288.973 223.683,288.973 						"/>
					</g>
				</g>
				<g>
					<g>
						<g>
							
								<rect x="264.812" y="212.345" transform="matrix(-1 -1.224647e-16 1.224647e-16 -1 539.3751 443.1247)" style="fill:#E0E0E0;" width="9.751" height="18.435"/>
						</g>
						<g>
							<line style="fill:none;" x1="274.563" y1="220.665" x2="264.812" y2="220.665"/>
						</g>
					</g>
					<g>
						<g>
							<path style="fill:#FAFAFA;" d="M263.852,211.562v20.001h11.665v-20.001H263.852z M273.61,229.983h-7.83v-16.841h7.83V229.983
								z"/>
						</g>
						<g>
							<rect x="264.812" y="219.875" style="fill:#FAFAFA;" width="9.751" height="1.579"/>
						</g>
					</g>
					<g>
						<polygon style="fill:#FAFAFA;" points="260.799,217.917 265.776,217.917 265.776,209.618 273.599,209.618 273.599,217.917 
							278.894,217.917 278.894,216.338 275.527,216.338 275.527,208.039 263.849,208.039 263.849,216.338 260.799,216.338 						"/>
					</g>
				</g>
				<g>
					<g>
						<g>
							
								<rect x="225.118" y="212.345" transform="matrix(-1 -1.224647e-16 1.224647e-16 -1 459.9876 443.1247)" style="fill:#E0E0E0;" width="9.751" height="18.435"/>
						</g>
						<g>
							<line style="fill:none;" x1="234.869" y1="220.665" x2="225.118" y2="220.665"/>
						</g>
					</g>
					<g>
						<g>
							<path style="fill:#FAFAFA;" d="M224.159,211.562v20.001h11.665v-20.001H224.159z M233.917,229.983h-7.83v-16.841h7.83
								V229.983z"/>
						</g>
						<g>
							<rect x="225.118" y="219.875" style="fill:#FAFAFA;" width="9.751" height="1.579"/>
						</g>
					</g>
					<g>
						<polygon style="fill:#FAFAFA;" points="221.105,217.917 226.082,217.917 226.082,209.618 233.906,209.618 233.906,217.917 
							241.22,217.917 241.22,216.338 235.833,216.338 235.833,208.039 224.155,208.039 224.155,216.338 221.105,216.338 						"/>
					</g>
				</g>
				<g>
					<g>
						<g>
							
								<rect x="240.291" y="212.345" transform="matrix(-1 -1.224647e-16 1.224647e-16 -1 500.8978 443.1247)" style="fill:#E0E0E0;" width="20.315" height="18.435"/>
						</g>
						<g>
							<g>
								<path style="fill:#FAFAFA;" d="M239.319,211.562v20.001h22.241v-20.001H239.319z M241.247,213.142h18.406v16.841h-18.406
									V213.142z"/>
							</g>
							<g>
								<rect x="252.808" y="212.345" style="fill:#FAFAFA;" width="1.927" height="18.435"/>
							</g>
							<g>
								<rect x="245.954" y="212.345" style="fill:#FAFAFA;" width="1.927" height="18.435"/>
							</g>
							<g>
								<rect x="240.291" y="219.875" style="fill:#FAFAFA;" width="20.315" height="1.579"/>
							</g>
						</g>
					</g>
					<g>
						<path style="fill:#FAFAFA;" d="M259.781,217.533l1.651-0.812l-2.149-2.929c-0.464-0.634-1.258-1.007-2.18-0.997
							c-0.901,0.008-1.705,0.397-2.15,1.037l-2.019,2.904l1.674,0.781l2.019-2.903c0.152-0.218,0.37-0.233,0.505-0.24
							c0.104,0,0.347,0.024,0.499,0.23L259.781,217.533z"/>
					</g>
					<g>
						<path style="fill:#FAFAFA;" d="M253.04,217.533l1.651-0.812l-2.149-2.929c-0.464-0.634-1.262-1.007-2.18-0.997
							c-0.901,0.008-1.705,0.397-2.15,1.037l-2.019,2.904l1.675,0.781l2.019-2.903c0.152-0.218,0.37-0.233,0.505-0.24
							c0.104,0,0.347,0.024,0.499,0.23L253.04,217.533z"/>
					</g>
					<g>
						<path style="fill:#FAFAFA;" d="M246.3,217.533l1.652-0.812l-2.149-2.929c-0.458-0.626-1.26-0.997-2.149-0.997
							c-0.01,0-0.02,0-0.03,0c-0.9,0.008-1.705,0.396-2.151,1.037l-2.019,2.904l1.675,0.781l2.019-2.903
							c0.152-0.22,0.414-0.237,0.505-0.24c0.104,0,0.347,0.024,0.498,0.23L246.3,217.533z"/>
					</g>
				</g>
				<g>
					<g>
						<g>
							
								<rect x="249.862" y="86.547" transform="matrix(-1 -1.224647e-16 1.224647e-16 -1 502.4719 188.4939)" style="fill:#E0E0E0;" width="2.748" height="15.401"/>
						</g>
						<g>
							
								<rect x="250.287" y="88.499" transform="matrix(6.123234e-17 -1 1 6.123234e-17 156.9456 345.8792)" style="fill:#E0E0E0;" width="2.251" height="11.936"/>
						</g>
					</g>
					<g>
						<g>
							<polygon style="fill:#E0E0E0;" points="247.113,113.645 254.463,113.645 254.992,101.852 246.584,101.852 							"/>
						</g>
						<g>
							<polygon style="fill:#E0E0E0;" points="254.703,113.645 247.352,113.645 216.534,196.095 285.52,196.095 							"/>
						</g>
					</g>
					<g>
						<polygon style="fill:#FAFAFA;" points="230.908,184.264 234.464,186.877 234.464,196.095 250.943,196.095 267.103,196.095 
							267.103,186.877 270.668,184.264 266.746,180.673 266.746,170.2 264.058,168.068 264.058,162.323 265.792,160.634 
							258.449,160.634 260.54,162.607 260.54,165.053 251.453,153.42 250.788,152.559 250.123,153.42 241.036,165.053 
							241.036,162.607 243.118,160.634 235.785,160.634 237.519,162.323 237.519,168.068 234.83,170.2 234.83,180.673 						"/>
					</g>
				</g>
				<g>
					<g>
						<g>
							
								<rect x="240.577" y="175.143" transform="matrix(-1 -1.224647e-16 1.224647e-16 -1 501.4679 368.721)" style="fill:#E0E0E0;" width="20.315" height="18.435"/>
						</g>
						<g>
							<g>
								<path style="fill:#FAFAFA;" d="M239.613,174.348v20.019h22.241v-20.019H239.613z M259.925,192.788h-18.383v-16.859h18.383
									V192.788z"/>
							</g>
							<g>
								<rect x="253.093" y="175.143" style="fill:#FAFAFA;" width="1.927" height="18.434"/>
							</g>
							<g>
								<rect x="246.239" y="175.143" style="fill:#FAFAFA;" width="1.927" height="18.434"/>
							</g>
							<g>
								<rect x="240.577" y="182.673" style="fill:#FAFAFA;" width="20.315" height="1.579"/>
							</g>
						</g>
					</g>
					<g>
						<path style="fill:#FAFAFA;" d="M260.066,180.331l1.652-0.812l-2.149-2.929c-0.463-0.634-1.257-0.997-2.18-0.997
							c-0.901,0.008-1.705,0.397-2.15,1.038l-2.019,2.903l1.675,0.782l2.019-2.904c0.152-0.218,0.365-0.227,0.505-0.24
							c0.104,0,0.347,0.024,0.499,0.23L260.066,180.331z"/>
					</g>
					<g>
						<path style="fill:#FAFAFA;" d="M253.326,180.331l1.652-0.812l-2.149-2.929c-0.463-0.634-1.26-0.997-2.179-0.997
							c-0.901,0.008-1.705,0.397-2.15,1.038l-2.019,2.903l1.675,0.782l2.019-2.904c0.151-0.218,0.365-0.227,0.505-0.24
							c0.104,0,0.347,0.024,0.499,0.23L253.326,180.331z"/>
					</g>
					<g>
						<path style="fill:#FAFAFA;" d="M246.585,180.331l1.651-0.812l-2.149-2.929c-0.463-0.633-1.259-0.995-2.179-0.997
							c-0.901,0.008-1.705,0.396-2.151,1.038l-2.019,2.903l1.675,0.782l2.019-2.904c0.152-0.22,0.414-0.254,0.504-0.24
							c0.104,0,0.347,0.024,0.498,0.23L246.585,180.331z"/>
					</g>
				</g>
				<g>
					<polygon style="fill:#E0E0E0;" points="224.111,231.771 224.111,248.511 230.298,248.511 230.298,241.432 236.908,241.432 
						236.908,250.295 239.462,250.295 239.462,247.138 261.886,247.138 261.886,250.295 264.449,250.295 264.449,241.432 
						271.05,241.432 271.05,248.511 275.695,248.511 275.695,231.771 					"/>
				</g>
				<g style="opacity:0.7;">
					<g>
						
							<rect x="270.856" y="233.23" transform="matrix(-1 -1.224647e-16 1.224647e-16 -1 545.2265 472.5088)" style="fill:#FAFAFA;" width="3.514" height="6.048"/>
					</g>
					<g>
						
							<rect x="270.856" y="241.107" transform="matrix(-1 -1.224647e-16 1.224647e-16 -1 545.2265 488.263)" style="fill:#FAFAFA;" width="3.514" height="6.048"/>
					</g>
					<g>
						
							<rect x="225.168" y="233.23" transform="matrix(-1 -1.224647e-16 1.224647e-16 -1 453.8508 472.5088)" style="fill:#FAFAFA;" width="3.514" height="6.048"/>
					</g>
					<g>
						
							<rect x="225.168" y="241.107" transform="matrix(-1 -1.224647e-16 1.224647e-16 -1 453.8508 488.263)" style="fill:#FAFAFA;" width="3.514" height="6.048"/>
					</g>
					<g>
						<g>
							
								<rect x="259.37" y="231.542" transform="matrix(-1 -1.224647e-16 1.224647e-16 -1 522.2551 469.133)" style="fill:#FAFAFA;" width="3.514" height="6.049"/>
						</g>
						<g>
							
								<rect x="238.079" y="231.542" transform="matrix(-1 -1.224647e-16 1.224647e-16 -1 479.6726 469.133)" style="fill:#FAFAFA;" width="3.514" height="6.049"/>
						</g>
						<g>
							<g>
								<rect x="259.37" y="241.107" style="fill:#FAFAFA;" width="3.514" height="6.048"/>
							</g>
							<g>
								<rect x="252.278" y="241.107" style="fill:#FAFAFA;" width="3.514" height="6.048"/>
							</g>
							<g>
								<rect x="245.185" y="241.107" style="fill:#FAFAFA;" width="3.514" height="6.048"/>
							</g>
							<g>
								<rect x="238.092" y="241.107" style="fill:#FAFAFA;" width="3.514" height="6.048"/>
							</g>
						</g>
						<g>
							
								<rect x="235.992" y="237.591" transform="matrix(-1 -1.224647e-16 1.224647e-16 -1 501.9255 476.8694)" style="fill:#FAFAFA;" width="29.942" height="1.688"/>
						</g>
						<g>
							<polygon style="fill:#FAFAFA;" points="236.856,241.032 265.07,241.032 265.576,240.634 236.35,240.634 							"/>
						</g>
					</g>
				</g>
				<g style="opacity:0.2;">
					
						<rect x="237.341" y="193.578" transform="matrix(-1 -1.224647e-16 1.224647e-16 -1 501.5746 398.1657)" style="fill:#FAFAFA;" width="26.893" height="11.01"/>
				</g>
			</g>
		</g>
		<g>
			<g>
				<rect x="80.652" y="318.953" style="fill:#F0F0F0;" width="6.345" height="63.844"/>
				<path style="fill:#EBEBEB;" d="M90.665,334.393H78.058c-5.711,0-10.194-4.895-9.695-10.583l6.303-71.779
					c0.441-5.025,4.65-8.881,9.695-8.881l0,0c5.045,0,9.254,3.855,9.695,8.881l6.303,71.779
					C100.859,329.498,96.376,334.393,90.665,334.393z"/>
			</g>
			<g>
				<rect x="411.93" y="318.953" style="fill:#F0F0F0;" width="6.345" height="63.844"/>
				<path style="fill:#EBEBEB;" d="M421.942,334.393h-12.607c-5.711,0-10.194-4.895-9.695-10.583l6.303-71.779
					c0.441-5.025,4.65-8.881,9.695-8.881l0,0c5.045,0,9.254,3.855,9.695,8.881l6.303,71.779
					C432.137,329.498,427.653,334.393,421.942,334.393z"/>
			</g>
		</g>
		<path style="fill:#F0F0F0;" d="M87.662,132.85c9.577,0.029,36.431,4.427,36.431-11.851c0-13.831-13.124-12.813-13.124-12.813
			s0.379-11.983-11.314-13.577c-11.993-1.634-13.803,11.314-13.803,11.314s-20.818-8.245-17.65,12.445c0,0-11.54-2.3-11.54,7.015
			C56.662,135.792,78.385,132.822,87.662,132.85z"/>
		<g>
			<path style="fill:#F5F5F5;" d="M363.303,147.199c12.681,0.038,48.235,5.861,48.235-15.691c0-18.313-17.377-16.965-17.377-16.965
				s0.502-15.866-14.98-17.976c-15.879-2.164-18.275,14.98-18.275,14.98s-27.563-10.917-23.369,16.478
				c0,0-15.279-3.045-15.279,9.288C322.259,151.094,351.02,147.163,363.303,147.199z"/>
			<path style="fill:#EBEBEB;" d="M401.263,152.851c-7.015,0.021-26.684,3.242-26.684-8.681c0-10.131,9.613-9.385,9.613-9.385
				s-0.278-8.777,8.287-9.944c8.784-1.197,10.11,8.287,10.11,8.287s15.248-6.039,12.928,9.116c0,0,8.453-1.685,8.453,5.138
				C423.969,155.005,408.058,152.831,401.263,152.851z"/>
		</g>
	</g>
</g>
<g id="Background_Simple" style="display:none;">
	<g style="display:inline;">
		<path style="fill:#407BFF;" d="M169.517,169.721c-39.434,11.571-68.276,41.833-70.636,74.113
			c-0.765,10.471,0.992,21.186-2.544,31.318c-4.245,12.165-15.592,22.042-22.951,33.303c-11.896,18.204-12.82,40.407-2.461,59.154
			c10.359,18.747,31.815,33.702,57.165,39.844c29.585,7.168,61.773,2.528,91.504-4.278c29.73-6.806,59.083-15.795,90.049-17.337
			c21.17-1.054,42.815,1.398,63.412-2.492c39.004-7.366,66.285-37.714,68.172-68.434c1.887-30.72-18.265-60.571-47.356-81.78
			c-25.728-18.757-119.104-62.481-172.343-68.097C204.07,163.192,186.004,164.883,169.517,169.721z"/>
		<path style="opacity:0.9;fill:#FFFFFF;" d="M169.517,169.721c-39.434,11.571-68.276,41.833-70.636,74.113
			c-0.765,10.471,0.992,21.186-2.544,31.318c-4.245,12.165-15.592,22.042-22.951,33.303c-11.896,18.204-12.82,40.407-2.461,59.154
			c10.359,18.747,31.815,33.702,57.165,39.844c29.585,7.168,61.773,2.528,91.504-4.278c29.73-6.806,59.083-15.795,90.049-17.337
			c21.17-1.054,42.815,1.398,63.412-2.492c39.004-7.366,66.285-37.714,68.172-68.434c1.887-30.72-18.265-60.571-47.356-81.78
			c-25.728-18.757-119.104-62.481-172.343-68.097C204.07,163.192,186.004,164.883,169.517,169.721z"/>
	</g>
</g>
<g id="Shadow">
	<ellipse id="_x3C_Path_x3E__1_" style="fill:#F5F5F5;" cx="250" cy="412.391" rx="193.889" ry="11.323"/>
</g>
<g id="Limousine">
	<g>
		<g>
			<g>
				<path style="fill:#407BFF;" d="M450.428,395.298l-360.017,2.444c-13.324,0.09-26.537-2.412-38.905-7.368l-4.336-1.737
					c-2.687-1.077-4.467-2.449-5.234-5.271c-0.56-2.06-0.309-4.258,0.512-6.229l6.939-16.663
					c8.759-16.549,17.147-17.952,31.035-17.952l288.742,2.637l58.556,3.365c7.066,0.406,13.485,4.25,17.18,10.287l8.389,13.709
					L450.428,395.298z"/>
				<path style="opacity:0.1;" d="M453.292,372.52l-2.86,22.78l-360.02,2.44c-13.32,0.09-26.54-2.41-38.91-7.37l-4.33-1.73
					c-0.68-0.27-1.3-0.56-1.86-0.89c-1-0.59-1.82-1.29-2.42-2.23c-0.06-0.08-0.11-0.16-0.16-0.25c-0.29-0.48-0.53-1.02-0.71-1.62
					c0.12-0.42,0.26-0.83,0.43-1.24l6.93-16.66c8.76-16.55,17.15-17.95,31.04-17.95l292.34,2.64l58.56,3.36
					c5.83,0.34,11.22,3.02,15,7.34l6.28,10.26L453.292,372.52z"/>
				<path style="opacity:0.1;" d="M453.292,372.52l-2.86,22.78l-360.02,2.44c-13.32,0.09-26.54-2.41-38.91-7.37l-4.33-1.73
					c-0.68-0.27-1.3-0.56-1.86-0.89l-2.42-2.23l-0.2-0.18c0.01-0.02,0.03-0.05,0.04-0.07c8.74-16.49,17.13-19.88,31-19.88
					l315.22,2.64l63.56,3.36c0.03,0,0.06,0,0.09,0.01L453.292,372.52z"/>
				<path style="opacity:0.5;fill:#FFFFFF;" d="M446.322,361.14c-3.78-4.32-9.17-7-15-7.34l-58.56-3.36l-292.34-2.64
					c-13.89,0-22.28,1.4-31.04,17.95l-6.93,16.66c-0.17,0.41-0.31,0.82-0.43,1.24c-0.04-0.09-0.06-0.19-0.09-0.28
					c-0.56-2.06-0.3-4.26,0.52-6.23l6.93-16.67c8.76-16.55,17.15-17.95,31.04-17.95l288.74,2.64l58.56,3.36
					c7.06,0.41,13.48,4.25,17.18,10.29L446.322,361.14z"/>
				<g>
					<path style="fill:#407BFF;" d="M80.421,342.522c0,0,15.232-3.266,49.967-17.671c12.766-5.294,26.104-9.106,39.904-9.842
						l42.103-2.248c13.569-0.725,27.169-0.632,40.726,0.277l28.47,1.909c12.017,0.806,23.819,3.586,34.933,8.227l52.639,21.984
						L80.421,342.522z"/>
					<path style="opacity:0.3;" d="M80.421,342.522c0,0,15.232-3.266,49.967-17.671c12.766-5.294,26.104-9.106,39.904-9.842
						l42.103-2.248c13.569-0.725,27.169-0.632,40.726,0.277l28.47,1.909c12.017,0.806,23.819,3.586,34.933,8.227l52.639,21.984
						L80.421,342.522z"/>
				</g>
			</g>
			<g>
				<g>
					<path style="fill:#FFFFFF;" d="M366.094,367.283H51.207c-1.694,0-3.068,0.483-3.068,1.078l0,0c0,0.596,1.374,1.078,3.068,1.078
						h314.888c1.695,0,3.068-0.483,3.068-1.078l0,0C369.163,367.765,367.789,367.283,366.094,367.283z"/>
					<path d="M97.187,397.701v-6.909c0-6.732,2.626-13.199,7.32-18.025l1.833-1.885c4.867-5.004,11.551-7.827,18.532-7.827h4.684
						c8.165,0,15.849,3.857,20.728,10.403l0,0c3.327,4.464,5.124,9.882,5.124,15.449v8.794H97.187z"/>
					<g>
						<g>
							
								<ellipse transform="matrix(0.7071 -0.7071 0.7071 0.7071 -237.1943 203.8778)" style="fill:#263238;" cx="127.505" cy="388.258" rx="23.203" ry="23.203"/>
						</g>
						<g>
							<g>
								
									<ellipse transform="matrix(0.9732 -0.2298 0.2298 0.9732 -85.7926 39.6966)" style="opacity:0.5;fill:#FFFFFF;" cx="127.572" cy="388.265" rx="14.96" ry="14.96"/>
								<path style="opacity:0.3;fill:#FFFFFF;" d="M141.055,388.256c0,0.642-0.044,1.267-0.134,1.882
									c-0.312,2.284-1.204,4.389-2.516,6.164c-0.758,1.035-1.668,1.954-2.685,2.721c-1.757,1.347-3.845,2.266-6.119,2.614
									c-0.687,0.116-1.383,0.17-2.096,0.17c-0.616,0-1.222-0.045-1.82-0.125c-2.284-0.303-4.389-1.178-6.164-2.48
									c-1.088-0.785-2.052-1.74-2.846-2.81c-1.329-1.766-2.239-3.854-2.569-6.137c-0.098-0.651-0.152-1.32-0.152-1.998
									c0-0.687,0.054-1.356,0.152-2.016c0.339-2.284,1.249-4.371,2.578-6.138c0.803-1.07,1.766-2.016,2.846-2.801
									c1.775-1.293,3.881-2.168,6.164-2.471c0.589-0.08,1.195-0.125,1.811-0.125c0.705,0,1.401,0.053,2.088,0.161
									c2.283,0.348,4.371,1.276,6.128,2.614c1.017,0.776,1.918,1.686,2.676,2.712c1.312,1.775,2.204,3.881,2.525,6.164
									C141.011,386.98,141.055,387.614,141.055,388.256z"/>
								
									<ellipse transform="matrix(0.2298 -0.9732 0.9732 0.2298 -279.7977 423.2194)" style="opacity:0.4;fill:#FFFFFF;" cx="127.482" cy="388.38" rx="10.605" ry="10.605"/>
								<g>
									<circle style="opacity:0.2;" cx="127.482" cy="388.494" r="6.783"/>
								</g>
								<path style="fill:#FFFFFF;" d="M130.715,388.401c0,1.829-1.483,3.313-3.312,3.313s-3.312-1.483-3.312-3.313
									s1.483-3.312,3.312-3.312S130.715,386.572,130.715,388.401z"/>
							</g>
							<g>
								<path style="fill:#263238;" d="M129.592,374.866c-0.33,0.74-1.07,1.249-1.936,1.249c-0.874,0-1.632-0.526-1.962-1.285
									c0.589-0.08,1.195-0.125,1.811-0.125C128.209,374.705,128.905,374.759,129.592,374.866z"/>
								<path style="fill:#263238;" d="M129.601,401.637c-0.687,0.116-1.383,0.17-2.096,0.17c-0.616,0-1.222-0.045-1.82-0.125
									c0.321-0.767,1.089-1.302,1.971-1.302C128.522,400.379,129.271,400.897,129.601,401.637z"/>
							</g>
							<g>
								<path style="fill:#263238;" d="M119.074,379.665c-0.642,0.651-1.597,0.794-2.391,0.437c0.803-1.07,1.766-2.016,2.846-2.801
									C119.868,378.086,119.717,379.032,119.074,379.665z"/>
								<path style="fill:#263238;" d="M138.406,396.302c-0.758,1.035-1.668,1.954-2.685,2.721c-0.249-0.749-0.08-1.606,0.518-2.194
									C136.827,396.24,137.665,396.062,138.406,396.302z"/>
							</g>
							<g>
								<path style="fill:#263238;" d="M115.524,388.247c0,0.919-0.589,1.713-1.418,2.007c-0.098-0.651-0.152-1.32-0.152-1.998
									c0-0.687,0.054-1.356,0.152-2.016C114.935,386.534,115.524,387.328,115.524,388.247z"/>
								<path style="fill:#263238;" d="M141.055,388.256c0,0.642-0.044,1.267-0.134,1.882c-0.678-0.357-1.133-1.07-1.133-1.891
									c0-0.821,0.455-1.534,1.133-1.891C141.011,386.98,141.055,387.614,141.055,388.256z"/>
							</g>
							<g>
								<path style="fill:#263238;" d="M119.521,399.202c-1.088-0.785-2.052-1.74-2.846-2.81c0.794-0.357,1.757-0.214,2.4,0.437
									C119.717,397.462,119.868,398.417,119.521,399.202z"/>
								<path style="fill:#263238;" d="M138.397,380.192c-0.731,0.241-1.579,0.063-2.159-0.526
									c-0.589-0.589-0.767-1.436-0.518-2.186C136.738,378.256,137.639,379.166,138.397,380.192z"/>
							</g>
						</g>
					</g>
				</g>
				<g>
					<path d="M374.702,395.41v-6.909c0-6.732,2.626-13.199,7.32-18.025l1.833-1.885c4.867-5.004,11.551-7.827,18.532-7.827h4.685
						c8.164,0,15.849,3.857,20.728,10.403l0,0c3.327,4.464,5.124,9.882,5.124,15.449v8.794H374.702z"/>
					<g>
						<g>
							<circle style="fill:#263238;" cx="405.02" cy="385.966" r="23.203"/>
						</g>
						<g>
							<g>
								
									<ellipse transform="matrix(0.7071 -0.7071 0.7071 0.7071 -154.2774 399.4888)" style="opacity:0.5;fill:#FFFFFF;" cx="405.087" cy="385.974" rx="14.96" ry="14.96"/>
								<path style="opacity:0.3;fill:#FFFFFF;" d="M418.57,385.965c0,0.642-0.045,1.267-0.134,1.882
									c-0.312,2.284-1.204,4.389-2.516,6.164c-0.758,1.035-1.668,1.954-2.685,2.721c-1.757,1.347-3.845,2.266-6.119,2.614
									c-0.687,0.116-1.383,0.169-2.096,0.169c-0.616,0-1.222-0.045-1.82-0.125c-2.284-0.303-4.389-1.178-6.164-2.48
									c-1.088-0.785-2.052-1.74-2.846-2.81c-1.329-1.766-2.239-3.854-2.569-6.138c-0.098-0.651-0.152-1.32-0.152-1.998
									c0-0.687,0.054-1.356,0.152-2.016c0.339-2.284,1.249-4.371,2.578-6.137c0.803-1.07,1.766-2.016,2.846-2.801
									c1.775-1.293,3.881-2.168,6.164-2.471c0.589-0.08,1.195-0.125,1.811-0.125c0.705,0,1.4,0.053,2.087,0.16
									c2.284,0.348,4.371,1.276,6.128,2.614c1.017,0.776,1.918,1.686,2.676,2.712c1.312,1.775,2.204,3.88,2.525,6.164
									C418.526,384.689,418.57,385.322,418.57,385.965z"/>
								
									<ellipse transform="matrix(0.2298 -0.9732 0.9732 0.2298 -63.8126 691.5458)" style="opacity:0.4;fill:#FFFFFF;" cx="404.997" cy="386.088" rx="10.605" ry="10.605"/>
								<g>
									<path style="opacity:0.2;" d="M411.78,386.202c0,3.746-3.037,6.783-6.783,6.783c-3.746,0-6.783-3.037-6.783-6.783
										c0-3.746,3.037-6.783,6.783-6.783C408.743,379.419,411.78,382.456,411.78,386.202z"/>
								</g>
								<path style="fill:#FFFFFF;" d="M408.23,386.11c0,1.829-1.483,3.313-3.313,3.313s-3.312-1.483-3.312-3.313
									c0-1.829,1.483-3.312,3.312-3.312S408.23,384.28,408.23,386.11z"/>
							</g>
							<g>
								<path style="fill:#263238;" d="M407.107,372.574c-0.33,0.741-1.07,1.249-1.936,1.249c-0.874,0-1.632-0.526-1.962-1.284
									c0.589-0.08,1.195-0.125,1.811-0.125C405.724,372.414,406.42,372.467,407.107,372.574z"/>
								<path style="fill:#263238;" d="M407.116,399.346c-0.687,0.116-1.383,0.169-2.096,0.169c-0.616,0-1.222-0.045-1.82-0.125
									c0.321-0.767,1.089-1.302,1.971-1.302C406.037,398.088,406.786,398.605,407.116,399.346z"/>
							</g>
							<g>
								<path style="fill:#263238;" d="M396.59,377.374c-0.642,0.651-1.597,0.794-2.391,0.437c0.803-1.07,1.766-2.016,2.846-2.801
									C397.384,375.795,397.232,376.741,396.59,377.374z"/>
								<path style="fill:#263238;" d="M415.921,394.011c-0.758,1.035-1.668,1.954-2.685,2.721c-0.249-0.749-0.08-1.606,0.518-2.194
									C414.342,393.949,415.181,393.77,415.921,394.011z"/>
							</g>
							<g>
								<path style="fill:#263238;" d="M393.039,385.956c0,0.919-0.589,1.713-1.418,2.007c-0.098-0.651-0.152-1.32-0.152-1.998
									c0-0.687,0.054-1.356,0.152-2.016C392.451,384.243,393.039,385.037,393.039,385.956z"/>
								<path style="fill:#263238;" d="M418.57,385.965c0,0.642-0.045,1.267-0.134,1.882c-0.678-0.357-1.133-1.07-1.133-1.891
									s0.455-1.534,1.133-1.891C418.526,384.689,418.57,385.322,418.57,385.965z"/>
							</g>
							<g>
								<path style="fill:#263238;" d="M397.036,396.91c-1.088-0.785-2.052-1.74-2.846-2.81c0.794-0.357,1.757-0.214,2.4,0.437
									C397.232,395.171,397.384,396.125,397.036,396.91z"/>
								<path style="fill:#263238;" d="M415.912,377.9c-0.731,0.241-1.579,0.063-2.159-0.526c-0.589-0.589-0.767-1.436-0.518-2.186
									C414.253,375.964,415.154,376.874,415.912,377.9z"/>
							</g>
						</g>
					</g>
				</g>
			</g>
		</g>
		<g>
			<path style="fill:#407BFF;" d="M427.801,371.167h24.469c1.611,0,2.918,1.397,2.918,3.12v4.117c0,1.712-1.29,3.104-2.891,3.12
				l-19.315,0.187l0,0c-0.765-3.369-2.203-6.522-4.216-9.24L427.801,371.167z"/>
		</g>
		<polygon style="fill:#407BFF;" points="432.925,391 450.858,391 451.505,395.41 432.925,395.41 		"/>
		<path d="M148.69,338.902c0,0,14.258-17.618,32.317-19.91c14.281-1.812,41.747-3,66.371-2.48c6.899,0.146,54.543,0,65.141,9.145
			l32.023,15.844L148.69,338.902z"/>
		<g style="opacity:0.3;">
			<path d="M217.89,392.529c-28.069,0-50.072-0.079-53.079-0.317c-9.127-0.724-15.877-47.868-16.617-53.241l-0.033-0.24l0.168-0.175
				c18.02-18.752,32.051-20.017,32.64-20.062c24.679-5.242,109.424-0.945,121.312,2.064c3.076,0.779,24.783,11.614,42.452,20.566
				c5.918,3.014,9.555,8.99,9.555,15.628v31.663c0,2.094-1.703,3.803-3.795,3.811C331.82,392.297,265.961,392.529,217.89,392.529z
				 M149.219,339.074c2.02,14.552,8.665,51.586,15.672,52.142c8.117,0.641,156.029,0.122,185.598,0.011
				c1.543-0.006,2.799-1.267,2.799-2.811v-31.663c0-6.26-3.428-11.895-8.947-14.706c-24.972-12.652-39.976-19.929-42.306-20.52
				c-11.843-2.998-96.271-7.278-120.924-2.045C180.906,319.503,166.866,320.796,149.219,339.074z"/>
		</g>
		<g style="opacity:0.3;">
			<g>
				<rect x="223.284" y="317.897" width="1" height="73.817"/>
			</g>
			<g>
				<rect x="271.98" y="317.897" width="1" height="73.817"/>
			</g>
		</g>
		<g>
			<path style="opacity:0.3;fill:#FFFFFF;" d="M290.634,350.31c0,0.39-0.232,0.77-0.65,1.1c-1.192,0.98-3.908,1.66-7.073,1.66
				c-3.165,0-5.881-0.68-7.073-1.66c-0.418-0.33-0.65-0.71-0.65-1.1c0-0.41,0.248-0.79,0.697-1.14c1.215-0.95,3.908-1.61,7.027-1.61
				c3.118,0,5.811,0.66,7.027,1.61C290.386,349.52,290.634,349.9,290.634,350.31z"/>
			<path style="fill:#FFFFFF;" d="M290.634,350.31c0,0.39-0.232,0.77-0.65,1.1h-14.146c-0.418-0.33-0.65-0.71-0.65-1.1
				c0-0.41,0.248-0.79,0.697-1.14h14.053C290.386,349.52,290.634,349.9,290.634,350.31z"/>
		</g>
		<g>
			<path style="opacity:0.3;fill:#FFFFFF;" d="M171.371,349.71c0,0.39-0.232,0.77-0.65,1.1c-1.192,0.98-3.908,1.66-7.073,1.66
				c-3.165,0-5.881-0.68-7.073-1.66c-0.418-0.33-0.65-0.71-0.65-1.1c0-0.41,0.248-0.79,0.697-1.14c1.215-0.95,3.908-1.61,7.027-1.61
				c3.118,0,5.811,0.66,7.027,1.61C171.124,348.92,171.371,349.3,171.371,349.71z"/>
			<path style="fill:#FFFFFF;" d="M171.371,349.71c0,0.39-0.232,0.77-0.65,1.1h-14.146c-0.418-0.33-0.65-0.71-0.65-1.1
				c0-0.41,0.248-0.79,0.697-1.14h14.053C171.124,348.92,171.371,349.3,171.371,349.71z"/>
		</g>
		<g>
			<g>
				<path style="fill:#407BFF;" d="M331.22,340.71v0.872c0,1.123,0.911,2.034,2.034,2.034l0,0c1.123,0,2.034-0.911,2.034-2.034
					v-1.737L331.22,340.71z"/>
				<path style="opacity:0.1;" d="M331.22,340.71v0.872c0,1.123,0.911,2.034,2.034,2.034l0,0c1.123,0,2.034-0.911,2.034-2.034
					v-1.737L331.22,340.71z"/>
			</g>
			<path style="fill:#407BFF;" d="M333.981,341.302h-6.735v-8.783l2.938,1.611c2.183,1.197,3.927,3.059,4.979,5.315l0,0
				C335.568,340.31,334.936,341.302,333.981,341.302z"/>
		</g>
		<path style="fill:#407BFF;" d="M48.139,368.361"/>
		<path style="opacity:0.7;fill:#FFFFFF;" d="M74.051,347.81l-0.23,0.18l-25.45,20.19l-0.23,0.18c0,0,3.92-19.19,13.19-20.55
			C70.591,346.45,74.051,347.81,74.051,347.81z"/>
		<g>
			<path style="opacity:0.8;fill:#FFFFFF;" d="M441.815,364.845c-3.958-6.594-5.792-7.642-10.2-9.809l-1.824-0.896l1.13,0.06
				c5.83,0.34,11.22,3.02,15,7.34l5.67,9.26C451.702,371.29,443.753,368.075,441.815,364.845z"/>
			<path style="fill:#FFFFFF;" d="M445.922,361.54c0,0-5.393,1.052-3.707,3.85c1.686,2.798,8.338,3.713,8.338,3.713L445.922,361.54z
				"/>
		</g>
	</g>
</g>
<g id="Character">
	<g>
		<g>
			<polygon style="fill:#DD8C6A;" points="257.879,399.902 258.711,407.692 262.805,407.692 262.548,398.754 			"/>
			<polygon style="opacity:0.2;" points="262.593,400.315 257.996,400.871 258.318,404.013 262.682,403.417 			"/>
			<g>
				<path style="fill:#263238;" d="M263.288,406.662h-4.848c-0.182,0-0.334,0.126-0.367,0.303l-0.738,3.946
					c-0.076,0.409,0.248,0.797,0.667,0.79c1.748-0.03,4.272-0.132,6.47-0.132c2.57,0,2.583,0.14,5.597,0.14
					c1.823,0,2.263-1.843,1.495-2.01c-3.5-0.76-4.126-0.841-7.193-2.692C264.037,406.807,263.672,406.662,263.288,406.662z"/>
				<path style="fill:#407BFF;" d="M265.128,407.404c0.569,0,1.117-0.078,1.292-0.334c0.061-0.09,0.107-0.242-0.025-0.46
					c-0.074-0.122-0.189-0.205-0.342-0.246c-0.745-0.201-2.266,0.683-2.331,0.721c-0.037,0.022-0.056,0.065-0.048,0.108
					c0.009,0.043,0.043,0.078,0.086,0.086C264.046,407.336,264.596,407.404,265.128,407.404z M265.801,406.543
					c0.074,0,0.143,0.007,0.204,0.024c0.098,0.026,0.167,0.074,0.211,0.147c0.079,0.131,0.054,0.195,0.029,0.233
					c-0.196,0.287-1.319,0.293-2.148,0.177C264.501,406.913,265.282,406.543,265.801,406.543z"/>
				<path style="fill:#407BFF;" d="M263.782,407.281c0.015,0,0.029-0.003,0.043-0.009c0.527-0.241,1.555-1.201,1.456-1.703
					c-0.023-0.118-0.112-0.265-0.402-0.294c-0.215-0.022-0.409,0.039-0.577,0.18c-0.548,0.464-0.626,1.66-0.629,1.71
					c-0.002,0.037,0.016,0.074,0.047,0.095C263.738,407.275,263.76,407.281,263.782,407.281z M264.801,405.482
					c0.021,0,0.042,0.001,0.063,0.003c0.19,0.019,0.204,0.094,0.209,0.118c0.059,0.301-0.636,1.056-1.171,1.384
					c0.045-0.349,0.178-1.065,0.538-1.369C264.55,405.527,264.668,405.482,264.801,405.482z"/>
			</g>
		</g>
		<g>
			<g>
				<g>
					<path style="fill:#263238;" d="M263.856,402.004l-6.755,0.718l-4.123-39.487l-5.736-27.856l-2.722-13.21l-1.197-5.789
						l3.138-2.074l1.729-1.144l4.85-0.789l2.615,4.229c0.142,1.197,0.399,2.864,0.736,4.929c1.436,8.724,4.335,24.363,5.745,39.523
						C264.06,381.799,263.856,402.004,263.856,402.004z"/>
				</g>
			</g>
		</g>
		<polygon style="opacity:0.2;" points="250.665,351.185 244.363,321.425 248.195,323.78 		"/>
		<g>
			<polygon style="fill:#DD8C6A;" points="237.06,399.394 237.243,407.226 241.518,407.136 241.807,398.637 			"/>
			<g>
				<path style="fill:#407BFF;" d="M242.193,407.247c-0.042-0.009-0.074-0.043-0.082-0.085c-0.007-0.042,0.013-0.085,0.051-0.106
					c0.067-0.038,1.582-0.884,2.301-0.678c0.134,0.036,0.249,0.123,0.32,0.243c0.096,0.133,0.097,0.311,0.004,0.445
					c-0.18,0.229-0.736,0.322-1.273,0.317C243.07,407.376,242.628,407.331,242.193,407.247z M242.525,407.113
					c0.803,0.107,1.893,0.111,2.096-0.168c0.029-0.035,0.057-0.096-0.018-0.224c-0.041-0.076-0.114-0.13-0.199-0.145
					c-0.063-0.019-0.129-0.028-0.195-0.027C243.617,406.629,243.046,406.821,242.525,407.113z"/>
				<path style="fill:#407BFF;" d="M242.138,407.241c-0.031-0.021-0.048-0.056-0.045-0.093c0.006-0.054,0.133-1.218,0.687-1.665
					c0.16-0.132,0.366-0.193,0.571-0.169c0.282,0.031,0.368,0.174,0.378,0.292c0.087,0.487-0.96,1.413-1.479,1.638
					c-0.013,0.007-0.028,0.008-0.043,0.003C242.185,407.253,242.16,407.251,242.138,407.241z M243.282,405.507
					c-0.13-0.003-0.256,0.042-0.355,0.125c-0.326,0.369-0.531,0.83-0.587,1.319c0.539-0.312,1.226-1.038,1.203-1.331
					c-0.007-0.026-0.019-0.1-0.203-0.118L243.282,405.507L243.282,405.507z"/>
				<path style="fill:#263238;" d="M241.757,406.638l-4.715-0.045c-0.178-0.002-0.333,0.12-0.374,0.293l-0.889,3.828
					c-0.081,0.339,0.128,0.68,0.467,0.761c0.043,0.01,0.088,0.016,0.133,0.017c1.7-0.013,3.213-0.092,5.329-0.068
					c2.497,0.025,1.861,0.318,4.797,0.388c1.769,0.04,2.112-1.967,1.363-2.074c-3.429-0.465-3.776-1.505-5.088-2.747
					C242.493,406.752,242.129,406.627,241.757,406.638z"/>
			</g>
			<polygon style="opacity:0.2;" points="241.702,401.483 237.116,401.813 237.171,404.124 241.623,404.069 			"/>
		</g>
		<g>
			<g>
				<path style="fill:#263238;" d="M248.191,318.703c-0.027,0.541-0.053,1.17-0.089,1.897c-0.177,3.351-0.479,8.564-0.86,14.779
					c-1.551,25.48-4.344,67.822-4.344,67.822h-6.401l0.044-81.164v-5.559l5.115-2.403h4.717l0.089,0.23L248.191,318.703z"/>
			</g>
		</g>
		<g>
			<path style="fill:#263238;" d="M243.626,305.408c0,0,3.484-0.935,4.434-1.424c0.95-0.49,1.788-1.221,1.788-1.221l1.552,0.701
				c0,0,2.398,2.183,0.936,3.576c-1.462,1.393-8.316,0.742-8.316,0.742L243.626,305.408z"/>
			<g>
				<path style="fill:#407BFF;" d="M241.398,305.079c0,0,1.895-0.609,2.975-0.318c0,0-0.328,1.859,0.639,3.381l-3.003,0.327
					L241.398,305.079z"/>
				<path style="opacity:0.8;fill:#FFFFFF;" d="M241.398,305.079c0,0,1.895-0.609,2.975-0.318c0,0-0.328,1.859,0.639,3.381
					l-3.003,0.327L241.398,305.079z"/>
			</g>
			<path style="fill:#263238;" d="M232.412,283.232c0,0-5.171,1.782-4.873,17.241c0.061,3.142-0.493,10.267,8.184,9.544l8.609-1.386
				c0,0-1.2-2.165-0.763-4.112c0,0-6.695-0.458-10.145-0.943c0,0,0.243-10.857,1.73-12.185
				C235.154,291.391,235.003,285.901,232.412,283.232z"/>
			<path style="opacity:0.2;" d="M233.579,297.656l-0.819-6.68c0,0-0.029,12.339-0.797,13.105s1.462-0.505,1.462-0.505
				L233.579,297.656z"/>
		</g>
		<path style="opacity:0.2;" d="M256.391,321.531c-0.816,0.133-1.995,0.266-3.653,0.39c-2.065,0.142-3.36-0.434-4.149-1.082
			c-0.142-0.115-0.31-0.195-0.488-0.239c-0.434-0.115-0.904,0-1.215,0.363c-0.523,0.603-1.365,0.984-2.367,1.206
			c-2.509,0.567-6.02,0.177-7.979-0.133v-5.559l5.115-2.403h4.717l0.089,0.23l1.729-1.144l4.85-0.789l2.615,4.229
			C255.798,317.798,256.055,319.465,256.391,321.531z"/>
		<path style="fill:#263238;" d="M256.756,312.657c-0.233-1.744-0.411-3.451-0.336-5.082c0.745-16.187,0.055-20.71-0.191-23.544
			c-0.044-0.508-0.393-0.94-0.881-1.086c-11.307-3.379-19.812-0.87-22.544,0.087c-0.549,0.192-0.894,0.731-0.833,1.309
			c0.502,4.768,2.733,20.556,3.086,28.315c0.052,1.137,0.03,5.125,0.013,6.641c-0.007,0.617,0.435,1.143,1.043,1.246
			c2.525,0.426,8.846,1.23,10.778-1.003c0.431-0.498,1.188-0.539,1.698-0.122c0.79,0.646,2.085,1.225,4.145,1.08
			c1.961-0.138,3.251-0.306,4.076-0.45c0.717-0.125,1.17-0.837,0.988-1.542C257.438,317.112,256.89,313.661,256.756,312.657z"/>
		<g>
			<path style="fill:#FFFFFF;" d="M247.791,306.949c0,0.4-0.324,0.724-0.724,0.724s-0.724-0.324-0.724-0.724
				c0-0.4,0.324-0.724,0.724-0.724S247.791,306.549,247.791,306.949z"/>
			<path style="fill:#FFFFFF;" d="M248.238,313.002c0,0.4-0.324,0.724-0.724,0.724c-0.4,0-0.724-0.324-0.724-0.724
				c0-0.4,0.324-0.724,0.724-0.724C247.914,312.278,248.238,312.602,248.238,313.002z"/>
		</g>
		<path style="fill:#DD8C6A;" d="M246.154,281.55l-1.133-6.718l-4.853-1.502v8.278l2.269,1.986l2.559-0.112l1.73-1.884
			C246.535,281.581,246.342,281.562,246.154,281.55z"/>
		<g>
			<g>
				<path style="fill:#FFFFFF;" d="M247.678,281.39c-0.018,0.346-0.363,9.247-1.099,21.889h-0.009l-7.385-21.792l0.363-0.08
					l4.176,2.075h1.268l2.358-2.154l0.036,0.009L247.678,281.39z"/>
				<polygon style="fill:#407BFF;" points="242.998,285.071 243.903,286.496 245.076,286.496 245.82,284.871 244.371,283.495 				
					"/>
				<path style="fill:#407BFF;" d="M244.571,297.38c-0.184-0.267-0.668-10.884-0.668-10.884h1.173l1.872,10.184l-0.377,6.599
					L244.571,297.38z"/>
				<g>
					<polygon style="fill:#407BFF;" points="240.159,281.273 244.571,283.495 242.721,285.943 239.188,281.49 					"/>
					<polygon style="opacity:0.7;fill:#FFFFFF;" points="240.159,281.273 244.571,283.495 242.721,285.943 239.188,281.49 					"/>
				</g>
				<g>
					<polygon style="fill:#407BFF;" points="247.678,281.381 247.678,281.39 246.215,285.947 244.469,283.633 244.363,283.491 
						244.434,283.42 246.783,281.239 247.35,281.328 247.386,281.337 					"/>
					<polygon style="opacity:0.7;fill:#FFFFFF;" points="247.678,281.381 247.678,281.39 246.215,285.947 244.469,283.633 
						244.363,283.491 244.434,283.42 246.783,281.239 247.35,281.328 247.386,281.337 					"/>
				</g>
			</g>
		</g>
		<path style="opacity:0.1;" d="M240.168,275.27c0.875,1.333,2.469,2.687,5.37,3.183l-0.517-3.622l-4.853-1.502V275.27z"/>
		<g>
			<path style="fill:#263238;" d="M274.884,303.381c0,0,1.931-0.893,4.297,0.012c0,0,1.533-0.321,2.813,0.069l0.607,2.496
				c0,0-2.766,1.941-5.104,0.605l-3.018-1.033L274.884,303.381z"/>
			<g>
				<path style="fill:#407BFF;" d="M273.671,301.983l2.019,0.187c0,0,0.828,1.721-0.35,4.155l-2.164-0.82L273.671,301.983z"/>
				<path style="opacity:0.8;fill:#FFFFFF;" d="M273.671,301.983l2.019,0.187c0,0,0.828,1.721-0.35,4.155l-2.164-0.82
					L273.671,301.983z"/>
			</g>
			<path style="fill:#263238;" d="M275.08,302.015c-7.06-0.868-13.528-4.146-13.528-4.146s-3.927-12.038-5.176-14.106
				c-0.402-0.666-1.346-0.714-1.81-0.09l-2.456,3.306c-0.196,0.264-0.264,0.597-0.182,0.916c0.507,1.974,3.38,11.597,5.911,14.21
				c2.331,2.406,12.992,3.696,16.806,4.044C275.291,304.253,275.166,302.633,275.08,302.015z"/>
		</g>
		<g>
			<path style="fill:#DD8C6A;" d="M237.876,269.114c0.398,3.702,0.491,5.272,2.454,7.087c2.953,2.734,7.411,1.43,8.127-2.312
				c0.638-3.372-0.125-8.877-3.829-10.162c-2.639-0.946-5.545,0.426-6.49,3.065C237.871,267.535,237.782,268.331,237.876,269.114z"
				/>
			<path style="fill:#C13B37;" d="M246.218,270.306c0.405,0.622,0.893,1.185,1.45,1.674c-0.263,0.279-0.635,0.431-1.018,0.415
				L246.218,270.306z"/>
			<path style="fill:#263238;" d="M242.393,269.138c0.077,0.014,0.153-0.024,0.188-0.094c0.33-0.482,0.847-0.805,1.426-0.89
				c0.098-0.013,0.167-0.103,0.155-0.202c-0.013-0.096-0.1-0.163-0.196-0.151c-0.002,0-0.004,0.001-0.007,0.001
				c-0.696,0.097-1.315,0.493-1.696,1.084c-0.043,0.087-0.008,0.191,0.078,0.235c0,0,0,0,0,0
				C242.356,269.132,242.374,269.138,242.393,269.138z"/>
			<path style="fill:#263238;" d="M248.21,268.176c0.064,0.01,0.128-0.014,0.17-0.064c0.062-0.076,0.051-0.188-0.024-0.251
				c-0.435-0.385-1.033-0.527-1.594-0.381c-0.09,0.025-0.143,0.118-0.119,0.208c0.001,0.004,0.003,0.009,0.004,0.013
				c0.029,0.092,0.126,0.144,0.219,0.115c0.001,0,0.002-0.001,0.003-0.001l0,0c0.442-0.099,0.904,0.019,1.245,0.317
				C248.14,268.157,248.174,268.172,248.21,268.176z"/>
			<g>
				<path style="fill:#263238;" d="M246.743,273.273c-0.195,0.622-0.321,1.757-0.321,1.757c-0.105,0.007-0.21,0.014-0.315,0.016
					c-1.425,0.061-2.106-0.382-2.429-0.891c-0.175-0.279-0.241-0.582-0.261-0.83c-0.027-0.287,0.02-0.498,0.02-0.498
					c0.775,0.419,2.107,0.465,2.82,0.459C246.555,273.288,246.743,273.273,246.743,273.273z"/>
				<path style="fill:#FFFFFF;" d="M246.257,273.287l-0.108,0.516c-1.342,0.054-2.294-0.088-2.731-0.477
					c-0.027-0.287,0.02-0.498,0.02-0.498C244.212,273.247,245.544,273.292,246.257,273.287z"/>
				<path style="fill:#DE5753;" d="M246.107,275.046c-1.425,0.061-2.106-0.382-2.429-0.891c0.486-0.002,1.073,0.05,1.595,0.246
					C245.674,274.55,245.932,274.795,246.107,275.046z"/>
			</g>
		</g>
		<path style="fill:#263238;" d="M248.24,269.612c0.107-0.064,0.209-0.138,0.305-0.221c0.032-0.025,0.04-0.075,0.018-0.111
			c0-0.001-0.001-0.002-0.001-0.002c-0.026-0.034-0.071-0.039-0.103-0.012c-0.487,0.431-1.127,0.577-1.724,0.393
			c-0.038-0.015-0.079,0.007-0.092,0.049c-0.013,0.042,0.006,0.089,0.044,0.104C247.205,269.983,247.766,269.911,248.24,269.612z"/>
		<path style="fill:#263238;" d="M244.602,270.233c0.126-0.05,0.248-0.112,0.364-0.183c0.039-0.021,0.053-0.07,0.032-0.108
			c0-0.001-0.001-0.002-0.001-0.003c-0.026-0.037-0.076-0.047-0.114-0.024c-0.59,0.368-1.321,0.435-1.968,0.179
			c-0.04-0.02-0.089-0.003-0.108,0.037c-0.02,0.04-0.003,0.089,0.037,0.108C243.406,270.475,244.04,270.472,244.602,270.233z"/>
		<path style="fill:#263238;" d="M238.788,274.117c0,0,2.591-5.008,1.38-6.272c-1.211-1.265,0.045-1.568,0.045-1.568
			c7.956-0.241,7.567-2.794,6.51-4.397c-0.61-0.925-1.616-1.54-2.721-1.618c-0.015-0.001-0.029-0.002-0.044-0.003
			c-0.872-0.053-1.623,0.617-1.716,1.486l-0.003,0.03c0,0-8.514-0.714-6.062,7.306C236.582,270.405,238.788,274.117,238.788,274.117
			z"/>
		<path style="fill:#DD8C6A;" d="M236.999,272.016c0.264,0.654,0.776,1.177,1.423,1.455c0.866,0.357,1.414-0.389,1.27-1.271
			c-0.137-0.792-0.748-1.932-1.661-1.931c-0.663,0.021-1.184,0.577-1.162,1.24C236.874,271.685,236.919,271.858,236.999,272.016z"/>
		<g>
			<g>
				<path style="fill:#263238;" d="M247.286,264.998c-4.33-0.021-8.211-0.332-11.371,2.628c-0.985-0.509-1.1-0.986-1.012-2.091
					c0.067-0.842,0.216-1.7,0.815-2.297c0.598-0.597,1.378-0.97,2.141-1.332c1.726-0.819,3.451-1.638,5.177-2.457
					c0.901-0.428,1.871-0.867,2.857-0.718c0.842,0.127,1.601,0.71,1.941,1.49C248.173,261.002,247.768,264.296,247.286,264.998z"/>
				<path style="fill:#263238;" d="M239.188,265.233c0,0,4.981,1.656,6.633,1.371c1.652-0.286,1.901-3.609,1.901-3.609
					S243.679,261.346,239.188,265.233"/>
				<path style="opacity:0.3;fill:#FFFFFF;" d="M247.745,263.53c-0.13,0.66-0.29,1.23-0.46,1.47c-2.32-1-5.041-0.245-8.527,0.795
					l0.52-0.51c4.49-3.88,8.547-2.312,8.547-2.312S247.745,263.21,247.745,263.53z"/>
			</g>
			<path style="fill:#FFFFFF;" d="M238.757,266.037c0,0.253-0.205,0.459-0.459,0.459c-0.253,0-0.459-0.206-0.459-0.459
				c0-0.253,0.205-0.459,0.459-0.459C238.552,265.578,238.757,265.784,238.757,266.037z"/>
		</g>
	</g>
</g>
</svg>
