<?xml version="1.0" encoding="utf-8"?>
<!-- Generator: Adobe Illustrator 27.5.0, SVG Export Plug-In . SVG Version: 6.00 Build 0)  -->
<svg version="1.1" id="Layer_2" xmlns="http://www.w3.org/2000/svg" xmlns:xlink="http://www.w3.org/1999/xlink" x="0px" y="0px"
	 viewBox="0 0 2400 2000" style="enable-background:new 0 0 2400 2000;" xml:space="preserve">
<g>
	<rect x="0" style="fill:#FFFFFF;" width="2400" height="2000"/>
	<g>
		<radialGradient id="SVGID_1_" cx="1199.9994" cy="1100" r="801.5615" gradientUnits="userSpaceOnUse">
			<stop  offset="0" style="stop-color:#296DC5"/>
			<stop  offset="0.0608" style="stop-color:#2D76CC"/>
			<stop  offset="0.2616" style="stop-color:#398EDF"/>
			<stop  offset="0.4754" style="stop-color:#429FEC"/>
			<stop  offset="0.709" style="stop-color:#47A9F4"/>
			<stop  offset="1" style="stop-color:#49ACF6"/>
		</radialGradient>
		<path style="fill:url(#SVGID_1_);" d="M1772.086,376.226c-231.149-73.867-785.266-1.148-1286.664,339.645
			c-501.398,340.798,526.258,936.504,863.64,1100.199c337.387,163.696,485.18-301.671,609.532-610.879
			C2157.258,711.199,2003.239,450.094,1772.086,376.226z"/>
	</g>
	<g>
		
			<radialGradient id="SVGID_00000108996617697152775000000014051027472098682778_" cx="1320.0005" cy="860.0003" r="789.5886" gradientUnits="userSpaceOnUse">
			<stop  offset="0" style="stop-color:#A04973"/>
			<stop  offset="0.1457" style="stop-color:#B9587A"/>
			<stop  offset="0.3283" style="stop-color:#D06680"/>
			<stop  offset="0.5227" style="stop-color:#E17184"/>
			<stop  offset="0.7353" style="stop-color:#EB7786"/>
			<stop  offset="1" style="stop-color:#EE7987"/>
		</radialGradient>
		<path style="fill:url(#SVGID_00000108996617697152775000000014051027472098682778_);" d="M2096.836,375.848
			c-125.602-215.789-362.461-272.059-532.129-158.523c-107.996,72.266-286.777,142.105-550.731,50.645
			c-283.328-98.168-664.805,32.93-539.418,483.34c135.684,487.414,467.906,686.883,642.308,758.704
			c382.234,157.402,787.325-83.055,955.524-357.664C2223.34,905.899,2226.25,598.18,2096.836,375.848z"/>
	</g>
	<g>
		<g>
			
				<radialGradient id="SVGID_00000097463216309908635110000016369911671664067971_" cx="1080.0002" cy="1079.9994" r="797.6525" gradientUnits="userSpaceOnUse">
				<stop  offset="0" style="stop-color:#F1995F"/>
				<stop  offset="0.1133" style="stop-color:#F4AB6C"/>
				<stop  offset="0.3027" style="stop-color:#F7C37E"/>
				<stop  offset="0.5046" style="stop-color:#F9D48B"/>
				<stop  offset="0.7253" style="stop-color:#FADE92"/>
				<stop  offset="1" style="stop-color:#FBE195"/>
			</radialGradient>
			<path style="fill:url(#SVGID_00000097463216309908635110000016369911671664067971_);" d="M234.926,891.754
				c-21.945-124.328-22.324-296.703,16.743-420.449c39.066-123.742,176.156-158.848,345.187-77.188
				c178.031,86.008,315,119.59,640.121,172.359c327.641,53.18,542.855,64.621,640.52,174.301
				c97.66,109.684,96.984,250.664-119.024,368.938c-206.168,112.883-367.04,264.121-459.347,430.43
				c-114.774,206.773-201.973,337.343-441.945,233.285C617.207,1669.375,327.008,1413.449,234.926,891.754z"/>
		</g>
	</g>
	<rect x="0" style="opacity:0.43;fill:#EEB5F3;" width="2400" height="2000"/>
</g>
<g>
	<g>
		<g>
			<g>
				<g>
					<path style="fill:#585E8C;" d="M1522.745,1588.695c138.584,117.799-42.405,67.757-189.415,110.531
						c-189.081,55.015-267.595-22.212-363.448,0.264c-54.693,12.825-196.108-71.114-120.334-111.814
						c33.989-18.256,129.384-17.724,321.928-17.724S1481.493,1553.63,1522.745,1588.695z"/>
				</g>
			</g>
		</g>
	</g>
	<g>
		<path style="fill:#FFFFFF;" d="M960.634,364.448c8.904-7.905,31.672-29.603,26.42-39.311c-5.252-9.708-31.831-35.173-62.707-7.958
			c-34.312,30.244-9.867,61.274-5.57,67.163C923.073,390.23,952.112,372.013,960.634,364.448z"/>
		<path style="fill:#FFFFFF;" d="M950.766,808.379c-4.186-2.159-3.024-5.143-7.48-9.6c-4.456-4.456-13.051-16.711-12.573-38.197
			c0.477-21.486,38.674-118.888,43.767-131.939c5.093-13.051,13.687-31.831,13.846-38.993c0.159-7.162-2.865-19.735-2.069-27.056
			c0.796-7.321,6.207-16.234,14.801-25.783c8.594-9.549,14.005-12.255,19.417-8.913c5.411,3.342,7.799,9.231,11.618,12.891
			c3.82,3.661,9.231,6.048,11.3,9.549c2.069,3.501,2.547,7.321,5.57,14.165c3.024,6.844,5.093,9.072,4.934,14.642
			c-0.159,5.57-0.242,9.953-7.712,20.386c-4.069,5.683-9.477,25.769-17.594,54.576c-8.117,28.807-12.414,46.155-14.165,55.386
			c-1.751,9.231,1.751,1.273,4.456,4.615c2.706,3.342,6.844,9.967,8.276,27.027c1.432,17.059-41.221,68.466-57.455,69.103
			C953.472,810.875,953.949,810.021,950.766,808.379z"/>
		<path style="fill:#FFFFFF;" d="M948.534,1639.273c-0.004-12.414,4.027-19.452,13.055-24.51s26.101-5.57,35.332-9.708
			c9.231-4.138,68.914-26.738,70.505-31.035c1.592-4.297-0.955-23.873-1.432-25.465c-0.478-1.591-10.484-1.06-11.847-11.034
			c-1.363-9.974-14.368-77.256-18.87-143.346s-4.329-63.025-3.024-64.139c1.305-1.114,33.86,4.496,48.184,5.451
			c14.324,0.955,48.224,0.477,50.372,3.223s1.432,39.868,2.268,57.892c0.836,18.024,5.371,81.169,9.788,104.803
			s6.565,39.51,4.655,42.972c-1.91,3.462-9.496,2.387-8.926,5.61s1.048,19.695,3.316,22.083c2.268,2.387,6.207,3.462,7.401,9.072
			c1.194,5.61-4.058,15.637-67.083,33.303s-95.174,25.624-110.453,25.624S948.534,1639.273,948.534,1639.273z"/>
		<path style="fill:#FFFFFF;" d="M1235.652,1640.069c-0.796-2.387-0.955-15.915,7.48-20.849s21.486-4.897,35.81-10.804
			c14.324-5.907,59.564-29.78,61.931-35.35c2.367-5.57,2.248-29.125,0-31.513c-2.248-2.387-11.638,0.637-15.299-3.342
			c-3.661-3.979-25.863-69.152-31.353-83.954c-5.491-14.801-34.855-115.042-37.003-124.366c41.127-6.22,71.093-15.531,72.908-20.544
			c1.815-5.013-16.528-103.132-18.935-116.74c-2.407-13.608-8.853-75.519-10.285-80.612c-1.432-5.093-17.189,5.57-21.486-7.958
			c-4.297-13.528-7.321-41.83,0.478-61.911c7.799-20.081,9.528-37.183,8-49.703c-1.528-12.52-5.727-73.832-5.033-77.477
			c0.694-3.645,21.065-12.717,22.02-8.897s4.615,70.187,6.207,66.367s12.732-44.881,14.96-53.794
			c2.228-8.913,7.799-27.534,7.958-37.56c0.159-10.027,2.387-20.855,0.637-24.274c-1.751-3.419-5.73-13.292-0.637-18.382
			c5.093-5.09,18.621-19.925,31.99-23.728c13.369-3.803,30.08-2.404,34.855,0c4.775,2.404,5.73,36.304,5.73,53.015
			c0,16.711-1.751,41.38-10.823,69.55s-38.356,108.862-47.11,125.732c-8.753,16.87-19.068,38.675-18.526,42.653
			c0.542,3.979,12.001,66.049,16.457,88.649c4.456,22.6,18.542,108.504,21.048,121.753s35.133,173.16,37.998,186.847
			s5.07,18.144,2.217,21.008c-2.854,2.865-6.355,3.342-5.718,5.73c0.637,2.387,8.276,31.353,9.39,35.81
			c1.114,4.456,7.48,9.231,8.435,16.074c0.955,6.844-150.878,58.41-163.452,58.569
			C1243.928,1640.228,1235.652,1640.069,1235.652,1640.069z"/>
		<path style="fill:#FFFFFF;" d="M1046.896,1329.891c-8.754-1.923-35.173-3.197-36.446-7.971
			c-1.273-4.775-7.003-102.578-4.775-151.238c2.228-48.66,15.279-160.386,24.191-198.583c8.913-38.197,22.441-93.821,23.555-95.652
			c1.114-1.83,5.968,2.228,17.348,7.401c11.38,5.172,54.67,19.656,111.726,21.565c57.057,1.91,105.36-12.414,119.366-19.735
			c14.006-7.321,8.594,14.431,6.684,16.685c-1.91,2.254-19.735,7.825-26.42,9.894c-6.684,2.069-47.225,1.273-44.78,13.21
			c2.445,11.937,3.161,74.962,5.668,107.907c2.507,32.945,28.13,127.936,3.302,137.099c-24.828,9.164-118.411,19.349-159.154,19.668
			C1046.418,1190.458,1046.896,1329.891,1046.896,1329.891z"/>
		<path style="fill:#FFFFFF;" d="M1303.313,879.63c0.497-6.231-2.407-82.362-1.213-87.376c5.511,5.013,26.693,40.727,30.177,43.64
			c3.484,2.913,21.525-18.653,32.717-20.893c11.191-2.24,31.405,0.41,29.495-5.558c-1.91-5.968-15.279-50.85-24.589-65.412
			s-33.396-60.232-44.882-79.02c-11.485-18.788-27.454-35.094-50.85-42.255c-23.396-7.162-53.476-14.801-55.863-18.144
			c-2.387-3.342-7.634-16.472-7.756-21.486c-0.122-5.013-0.361-11.38,1.788-12.573c2.149-1.194,27.613-7.162,39.232-25.783
			c13.608-4.218,30.956-8.992,36.685-23.794c5.73-14.801-4.775-25.385-6.923-26.977c2.069-5.172,15.159-40.266,17.666-46.831
			c11.101-2.268,37.56-5.053,52.839-18.581c15.279-13.528,14.679-32.149,10.443-39.47c-4.236-7.321-12.99-14.483-15.059-19.894
			c-2.069-5.411,0.477-17.189-4.615-23.873s-21.167-17.825-43.29-23.555c-22.122-5.729-23.236-2.228-30.717-8.753
			c-7.48-6.525-13.305-27.137-44.881-28.648c-31.577-1.511-36.756,1.175-54.113,9.39c-17.356,8.215-22.282,1.592-32.149,9.072
			c-9.868,7.48-18.122,19.679-17.348,37.56s7.94,27.693,15.747,36.924c7.807,9.231,14.014,14.125,14.014,17.487
			c0,3.362-7.162,16.094-10.186,24.53c-3.024,8.435-7.162,28.17-7.958,32.467c-0.796,4.297-18.533,24.584-17.03,48.383
			c1.503,23.799,10.982,55.545,54.59,69.232c0.159,3.661-1.751,16.87-2.706,18.939c-0.955,2.069-5.098,1.751-7.005,13.051
			c-1.908,11.3-5.25-3.82-40.423,12.891s-36.324,32.127-65.245,60.001c-28.921,27.874-34.533,34.074-33.331,39.152
			c1.203,5.078,7.698,21.645,7.062,31.831s-4.456,44.086-11.459,56.022c6.048,1.91,13.846-4.138,24.669-13.369
			c10.822-9.231,41.539-41.38,43.927-44.722c-4.138,20.213-8.435,42.653-12.255,61.911c-3.82,19.258-11.141,59.904-11.937,70.855
			c5.411,9.677,50.356,24.049,94.161,27.462C1210.427,907.8,1301.69,899.951,1303.313,879.63z"/>
		<path style="fill:#ED7372;" d="M1015.865,1206.511c0-3.919-0.098-7.843,0.016-11.759c0.607-20.767,1.016-41.544,1.993-62.293
			c0.683-14.467,2.105-28.903,3.321-43.342c0.82-9.757,1.618-19.527,2.836-29.24c4.144-33.052,9.63-65.895,17.247-98.324
			c4.924-20.961,10.748-41.711,16.219-62.542c0.595-2.266,1.393-4.499,2.328-6.648c0.688-1.584,2.136-2.207,3.85-1.681
			c1.117,0.343,2.185,0.855,3.261,1.324c29.008,12.664,59.482,19.036,90.873,22.19c15.277,1.535,30.519,2.137,45.78,1.602
			c34.67-1.217,68.606-6.345,100.496-21.032c0.711-0.328,1.51-0.487,2.179-0.878c0.88-0.515,1.604-0.504,1.97,0.391
			c0.269,0.658,0.53,1.566,0.284,2.148c-2.097,4.967-5.93,8.188-10.808,10.219c-3.252,1.354-6.492,2.833-9.873,3.756
			c-4.252,1.16-5.452,4-5.335,7.903c0.331,10.973,0.243,21.979,1.111,32.91c1.208,15.224,2.799,30.436,4.867,45.567
			c1.433,10.493,0.574,21.188,3.217,31.548c1.067,4.184-0.976,7.625-3.276,10.894c-4.467,6.347-5.778,13.59-6.126,21.143
			c-0.171,3.696,0.438,6.813,3.585,9.382c4.513,3.685,5.297,8.332,2.705,13.695c-1.699,3.517-2.965,7.249-4.33,10.919
			c-1.489,4.005,0.085,6.85,4.303,7.716c1.514,0.311,3.102,0.262,4.656,0.377c5.419,0.399,7.019,1.351,7.961,6.415
			c1.861,10.012,3.581,20.064,4.876,30.161c1.694,13.202,3.186,26.441,4.292,39.704c2.021,24.266,6.886,48.044,11.361,71.917
			c2.519,13.444,5.574,26.848,6.109,40.629c0.134,3.474,1.319,6.9,1.949,10.362c1.175,6.453-0.358,9.314-6.396,12.086
			c-0.356,0.163-0.729,0.296-1.105,0.404c-14.647,4.241-29.022,9.5-44.285,11.393c-15.932,1.975-31.811,4.4-47.766,6.148
			c-19.462,2.132-38.995,3.646-58.473,5.646c-18.354,1.885-36.752,2.693-55.181,2.3c-27.098-0.578-53.854-4.158-80.302-10.035
			c-3.049-0.678-6.079-1.594-8.982-2.743c-5.893-2.334-6.512-0.723-7.185-9.891c-2.413-32.867-2.841-65.784-3.392-98.705
			c-0.066-3.916-0.372-7.827-0.567-11.74C1016.038,1206.507,1015.951,1206.509,1015.865,1206.511z M1099.885,1170.653
			c3.133,0,6.268,0.072,9.399-0.013c9.021-0.246,18.004-0.866,26.624-3.844c4.343-1.499,5.646-3.386,5.294-7.903
			c-0.575-7.41-1.818-14.797-1.922-22.207c-0.281-19.973,0.109-39.955-0.18-59.927c-0.268-18.493,1.511-36.754,5.18-54.834
			c1.484-7.313,3.051-14.542,2.182-22.076c-0.176-1.521,0.196-3.118,0.408-4.668c0.374-2.734,2.036-4.181,4.749-4.08
			c5.479,0.205,10.995,0.227,16.418,0.925c16.896,2.175,33.583-0.543,50.334-1.779c3.112-0.23,6.199-0.828,9.285-1.335
			c1.531-0.252,3.164-0.419,4.517-1.095c1.83-0.914,3.069-2.648,2.511-4.771c-0.383-1.454-1.402-2.936-3.171-3.111
			c-1.929-0.192-3.973-0.482-5.818-0.069c-11.154,2.498-22.572,2.377-33.86,3.359c-11.674,1.015-23.462,1.431-35.128-0.774
			c-1.908-0.36-3.938-0.448-4.88-2.56c-3.095-6.942-9.07-7.846-15.656-7.55c-3.13,0.141-6.318-0.143-9.388,0.338
			c-11.797,1.85-23.39,0.283-34.857-2.145c-11.169-2.365-22.296-3.83-33.73-2.543c-3.169,0.357-5.123,1.58-5.978,4.555
			c-0.648,2.255-1.347,4.513-1.754,6.818c-4.557,25.808-9.421,51.571-13.418,77.467c-1.785,11.564-1.946,23.394-2.545,35.118
			c-0.269,5.286,0.971,10.758,6.201,13.02c6.199,2.68,7.317,7.432,7.845,13.135c1.19,12.852,2.572,25.687,3.856,38.531
			c0.689,6.877,1.323,7.703,7.966,9.775c1.489,0.465,3.035,0.746,4.54,1.161C1076.379,1170.723,1088.138,1170.675,1099.885,1170.653
			z"/>
		<path style="fill:#F9DC88;" d="M1153.592,1622.868c0,1.96-0.135,3.929,0.026,5.875c0.521,6.355-1.303,10.298-10.214,11.603
			c-5.368,0.786-11.097,0.912-16.397-0.085c-8.587-1.615-17.163-1.347-25.759-1.508c-8.621-0.161-17.248-0.066-25.871-0.078
			c-5.093-0.007-10.146-0.001-15.185,1.228c-2.997,0.73-6.218,0.715-9.341,0.732c-30.175,0.175-60.351,0.291-90.527,0.4
			c-1.557,0.005-3.142-0.078-4.669-0.36c-2.743-0.505-4.25-4.117-2.784-6.478c2.601-4.189,6.505-6.819,10.989-8.435
			c5.883-2.121,11.836-4.109,17.875-5.72c28.072-7.489,55.359-17.01,80.876-31.093c4.656-2.57,8.974-3.336,14.448-2.513
			c9.241,1.391,18.697,1.757,28.038,2.289c8.072,0.46,16.296-1.503,24.432-2.542c3.093-0.395,6.137-1.191,9.199-1.819
			c9.473-1.94,10.063-1.551,11.937,8.119c0.222,1.15,0.395,2.333,0.391,3.5C1151.033,1605.017,1154.027,1613.785,1153.592,1622.868z
			"/>
		<path style="fill:#F9DC88;" d="M1417.648,1576.034c4.796,4.186,4.741,10.136,5.865,15.259c2.688,12.247,3.386,24.8,3.34,37.348
			c-0.025,6.818-1.774,8.626-8.667,10.289c-4.599,1.109-9.231,1.586-13.96,1.592c-48.598,0.054-97.196,0.159-145.793,0.249
			c-1.175,0.002-2.358,0.074-3.526-0.026c-4.157-0.354-9.789,0.487-10.787-4.574c-0.919-4.668,4.037-7.167,7.695-9.385
			c5.759-3.492,12.349-4.957,18.736-6.657c11.008-2.93,21.587-6.98,32.061-11.316c12.741-5.274,24.4-12.496,35.144-21.1
			c4.83-3.867,9.759-5.811,16.154-5.321c8.181,0.626,16.448,0.094,24.676,0.156c11.851,0.09,23.344-2.005,34.643-5.412
			C1414.704,1576.691,1416.221,1576.387,1417.648,1576.034z"/>
		<path style="fill:#F9DC88;" d="M954.569,808.366c6.093-4.524,11.687-8.092,16.591-12.438
			c12.521-11.094,21.122-24.944,27.081-40.495c1.954-5.1,3.932-10.192,5.824-15.314c1.251-3.387,3.002-6.48,6.125-8.343
			c3.607-2.153,6.615-7.42,10.754-6.051c4.864,1.609,2.423,7.468,3.101,11.477c2.381,14.049,0.791,27.965-2.389,41.636
			c-2.747,11.814-7.28,23.06-14.013,33.276c-4.765,7.229-6.081,7.779-14.36,5.487c-2.685-0.743-5.325-1.375-8.061-0.955
			C974.161,818.343,964.408,815.1,954.569,808.366z"/>
		<path style="fill:#F9DC88;" d="M1393.022,820.031c12.618-0.055,12.723-0.04,15.678,11.03c1.411,5.29,2.875,10.519,5.094,15.563
			c1.617,3.674-0.238,5.909-4.478,5.871c-2.342-0.021-4.754-0.011-7.009-0.544c-17.667-4.167-34.912-1.867-52.013,3.116
			c-1.871,0.545-3.711,1.232-5.612,1.621c-2.583,0.529-4.48-1.071-4.568-3.915c-0.084-2.732-0.036-5.486,0.212-8.207
			c0.455-4.996,2.926-8.446,7.349-11.211C1362.035,824.375,1377.741,820.569,1393.022,820.031z"/>
		<path style="fill:#303030;" d="M1425.119,1640.927c2.263-1.22,3.594-2.106,4.967-3.476c0.11-0.11,0.744-0.862,0.817-0.905
			c0.155-0.235,0.307-0.469,0.462-0.707c0.068-0.119,0.126-0.243,0.188-0.365c0.019-0.057,0.037-0.114,0.07-0.209
			c0.034-0.118,0.056-0.24,0.084-0.359c0.002-0.052,0.003-0.087,0.007-0.162c0.006-0.191,0.059-0.352,0.081-0.532
			c-0.146-0.482-0.252-1.002-0.233-1.642c0.377-12.689-2.58-24.938-5.212-37.187c-2.054-9.563-4.335-19.131-9.921-27.504
			c-1.271-1.903-2.002-4.258-2.591-6.507c-2.391-9.1-4.563-18.257-6.965-27.353c-0.667-2.524-0.718-4.75,1.671-6.177
			c4.136-2.47,4.419-6.239,3.574-10.262c-1.288-6.133-2.979-12.183-4.262-18.318c-8.507-40.675-17.03-81.346-25.383-122.053
			c-4.964-24.193-10.614-48.303-14.218-72.706c-7.336-49.67-16.768-98.949-25.836-148.302c-2.764-15.036-5.779-30.027-8.871-44.999
			c-0.832-4.025-0.738-7.657,1.26-11.337c10.693-19.692,18.324-40.747,27.14-61.276c13.318-31.008,25.486-62.46,34.842-94.899
			c6.844-23.727,13.429-47.593,13.1-72.648c-0.043-3.329,1.131-5.795,3.447-8.317c5.152-5.608,6.355-12.318,4.093-19.69
			c-2.624-8.551-5.183-17.125-7.512-25.759c-0.891-3.305-2.247-6.206-5.74-6.622c-5.256-0.625-7.09-4.089-8.527-8.384
			c-1.243-3.716-2.839-7.311-4.152-11.004c-7.365-20.726-15.911-40.938-26.514-60.227c-9.067-16.495-18.305-32.896-27.561-49.286
			c-3.855-6.826-7.612-13.747-12.002-20.226c-13.992-20.647-31.571-36.63-56.098-44.301c-13.489-4.219-27.027-8.131-40.787-11.223
			c-6.763-1.52-10.985-3.724-11.959-11.775c-0.631-5.223-3.012-10.33-2.741-15.939c0.196-4.037,1.793-6.458,5.682-7.807
			c13.202-4.583,24.694-11.92,34.189-22.209c2.544-2.757,5.55-3.973,9.115-4.819c10.306-2.445,18.675-8.004,24.72-16.788
			c7.001-10.174,7.012-19.169-0.5-29.073c-2.284-3.012-2.269-5.356-1.012-8.547c3.302-8.385,6.335-16.876,9.483-25.321
			c1.637-4.391,2.319-9.615,5.194-12.94c3.379-3.908,9.494-2.672,14.421-3.603c8.518-1.61,16.822-3.994,24.739-7.412
			c13.84-5.974,22.66-16.802,26.819-31.007c3.515-12.005-0.588-22.535-9.211-31.14c-5.557-5.546-8.756-11.591-8.939-19.677
			c-0.239-10.551-5.826-18.608-14.409-24.36c-4.53-3.037-9.495-5.518-14.484-7.761c-11.513-5.177-23.607-8.486-36.122-10.129
			c-6.973-0.915-12.714-3.757-16.826-9.598c-0.903-1.281-1.943-2.464-2.908-3.701c-8.615-11.038-20.063-17.105-33.647-19.921
			c-19.132-3.965-37.483-1.712-55.124,6.305c-8.981,4.081-17.866,7.89-27.99,8.186c-6.55,0.191-11.943,3.61-16.424,8.275
			c-4.405,4.588-7.723,9.92-9.606,16.009c-6.851,22.146-2.16,41.79,13.097,59.04c3.374,3.815,6.948,7.454,10.361,11.235
			c2.62,2.903,3.182,5.842,1.045,9.576c-7.636,13.344-12.26,27.977-17.543,42.319c-0.809,2.196-1.978,4.53-1.86,6.741
			c0.273,5.133-2.41,8.929-4.633,13.069c-7.214,13.441-11.073,27.759-9.256,43.046c3.314,27.873,17.987,47.948,42.932,60.607
			c2.792,1.417,5.748,2.509,8.544,3.918c1.446,0.728,2.431,2.082,2.322,3.784c-0.249,3.882,0.53,8.328-2.093,11.35
			c-3.497,4.031-5.599,8.369-6.471,13.524c-0.37,2.186-2.099,3.188-4.21,3.429c-2.339,0.267-4.689,0.421-7.029,0.677
			c-16.018,1.758-30.155,7.95-42.925,17.711c-8.79,6.719-16.312,14.671-23.805,22.713c-18.467,19.821-36.997,39.586-55.547,59.33
			c-1.502,1.598-2.701,3.873-5.487,3.631c-0.097-0.767-0.435-1.583-0.25-2.255c7.9-28.725,16.21-57.341,22.767-86.42
			c0.17-0.753,0.544-1.462,0.828-2.189c0.664-1.696,2.641-2.198,3.609-0.834c1.356,1.915,2.573,3.929,3.847,5.901
			c1.171,1.813,2.868,2.79,4.965,2.344c2.93-0.624,3.144-3.188,3.237-5.524c0.174-4.443-1.167-8.657-3.412-12.326
			c-2.982-4.868-3.15-9.102-0.142-14.149c3.337-5.598,3.976-11.985,1.285-18.134c-2.978-6.804-5.854-13.598-7.952-20.755
			c-0.716-2.439-2.756-4.92-4.87-6.435c-5.539-3.969-9.495-9.176-13.405-14.601c-3.901-5.414-9.101-8.647-16.209-6.879
			c-3.176,0.79-5.268-0.552-6.781-3.214c-1.163-2.045-2.351-4.076-3.529-6.114c-22.951-39.739-45.904-79.475-68.849-119.218
			c-1.37-2.376-2.757-4.75-3.967-7.209c-1.065-2.164-0.101-3.732,1.915-4.736c0.698-0.348,1.467-0.55,2.191-0.849
			c17.374-7.172,31.782-18.488,44.546-32.052c4.039-4.292,7.705-8.908,10.35-14.228c4.129-8.306,3.36-13.462-2.945-20.298
			c-16.109-17.466-42.676-18.948-61.704-3.443c-21.878,17.829-25.844,50.329-8.951,73.023c2.569,3.45,5.237,6.876,7.363,10.597
			c24.321,42.569,48.573,85.177,72.767,127.817c4.594,8.093,6.013,8.367-1.688,16.023c-7.799,7.753-10.52,17.207-9.261,27.972
			c0.228,1.947,0.169,3.964,0.659,5.839c2.283,8.741,0.555,17.103-2.063,25.433c-4.474,14.232-9.964,28.083-15.815,41.786
			c-9.705,22.73-18.531,45.798-26.584,69.151c-3.445,9.991-6.301,20.208-8.952,30.445c-3.081,11.893-3.399,23.903-1.429,36.153
			c1.905,11.848,8.902,20.69,15.528,29.881c0.662,0.919,1.753,1.556,2.715,2.225c7.837,5.459,18.367,3.736,26.078,9.825
			c1.642,1.297,4.473,1.151,6.779,1.522c1.148,0.185,2.35,0.001,3.525,0.04c3.132,0.102,6.328-0.123,9.383,0.428
			c6.131,1.106,10.74-1.072,14.445-5.744c2.728-3.439,6.244-5.803,9.949-8.105c4.983-3.095,9.737-6.594,14.376-10.195
			c13.669-10.613,26.154-22.505,37.788-35.313c2.258-2.486,4.226-5.475,7.549-6.896c2.03,3.199,0.54,5.852,0.053,8.388
			c-3.99,20.789-8.298,41.519-12.173,62.329c-2.512,13.485-4.456,27.076-6.66,40.619c-0.527,3.242-1.131,6.312-5.705,5.524
			c-1.794-0.309-2.798,0.896-3.11,2.678c-0.538,3.074-0.857,6.222-1.748,9.195c-5.298,17.659-9.582,35.572-13.958,53.473
			c-17.001,69.541-27.526,140.034-30.831,211.534c-2.502,54.133-1.666,108.249,3.041,162.273
			c1.409,16.177-1.002,13.339,14.517,17.665c6.747,1.88,6.85,1.972,7.278,8.631c0.954,14.875,1.71,29.762,2.729,44.632
			c0.966,14.087,1.791,28.199,3.352,42.224c2.473,22.21,5.364,44.377,8.354,66.524c2.204,16.318,4.945,32.553,8.71,48.606
			c0.971,4.143,2.498,7.393,6.939,8.481c3.049,0.747,4.533,2.894,5.138,5.783c0.643,3.071,1.391,6.134,1.792,9.239
			c0.854,6.612-1.041,10.05-7.13,13.345c-1.375,0.744-2.841,1.327-4.286,1.935c-17.699,7.462-35.383,14.954-53.112,22.345
			c-5.786,2.412-11.683,4.418-17.92,5.587c-9.29,1.741-18.114,5.027-26.42,9.626c-5.448,3.017-9.055,7.358-10.278,13.581
			c-0.27,1.374-0.128,2.908-0.513,4.259c0.459,0.543,0.824,1.167,0.922,1.77c0.293,1.807,0.622,3.62,1.243,5.346
			c0.196,0.396,0.421,0.777,0.666,1.146c0.26,0.289,0.544,0.554,0.825,0.822c67.435,0,134.871,0,202.306,0
			c0.001-0.001,0.009-0.006,0.009-0.007c0.308-0.258,0.61-0.523,0.904-0.797c0.624-0.579,1.215-1.194,1.765-1.845
			c0.02-0.024,0.052-0.057,0.077-0.085c0.041-0.057,0.083-0.113,0.124-0.17c0.216-0.304,0.423-0.614,0.621-0.93
			c0.414-0.663,0.78-1.356,1.11-2.065c0.183-0.535,0.24-0.665,0.228-0.599c0.108-0.303,0.215-0.606,0.31-0.913
			c0.26-0.848,0.471-1.711,0.641-2.582c0.016-0.083,0.027-0.167,0.043-0.251c-0.005-0.325-0.014-0.637-0.002-1.01
			c0.481-15.012-2.579-29.635-4.658-44.365c-0.666-4.722-2.2-9.079-5.59-12.689c-5.623-5.985-4.109-13.986-5.587-21.124
			c-0.321-1.548,1.359-2.805,2.899-3.253c5.387-1.565,5.888-5.377,5.259-10.157c-1.74-13.21-2.952-26.496-4.933-39.668
			c-4.085-27.158-6.53-54.47-8.52-81.838c-1.593-21.905-2.403-43.841-2.58-65.802c-0.019-2.352-0.094-4.706-0.035-7.056
			c0.069-2.828,1.678-4.221,4.427-4.354c9.788-0.477,19.573-1.085,29.368-1.371c26.67-0.779,53.235-2.635,79.576-7.083
			c1.155-0.196,2.334-0.284,3.505-0.336c2.179-0.095,3.789,0.779,4.464,2.95c0.816,2.616,1.641,5.233,2.349,7.879
			c12.142,45.443,26.343,90.256,41.651,134.714c6.505,18.888,13.801,37.501,20.443,56.343c1.793,5.085,4.406,8.116,10.046,7.899
			c1.555-0.059,3.137,0.146,4.684,0.376c2.127,0.316,3.702,1.633,4.145,3.65c1.258,5.739,2.191,11.54,1.93,17.459
			c-0.227,5.161-2.894,8.865-7.109,11.511c-7.633,4.792-15.258,9.603-23.021,14.178c-9.797,5.773-19.875,11.038-30.355,15.474
			c-6.509,2.754-13.257,4.758-20.216,6.11c-3.449,0.671-6.871,1.636-10.19,2.797c-8.286,2.896-14.028,8.133-16.142,17.1
			c-0.391,1.659-0.709,2.835-1.081,3.715c0.318,1.959,0.838,3.88,1.567,5.726c0.399,0.86,0.865,1.683,1.396,2.468
			c61.806,0,123.611,0,185.417,0C1422.492,1642.292,1423.375,1641.867,1425.119,1640.927z M915.833,370.267
			c-0.993,0.653-2.121,0.809-2.897-0.453c-0.407-0.662-0.898-1.315-1.118-2.042c-7.267-24.108,7.082-51.178,30.83-58.082
			c12.537-3.644,23.982-1.267,34.267,6.687c0.797,0.616,1.132,1.83,1.766,2.91c-1.152,0.751-2.04,1.567-3.087,1.979
			c-24.4,9.6-43.939,25.185-58.293,47.191C916.873,369.108,916.453,369.86,915.833,370.267z M921.899,378.102
			c-1.935-2.085-1.015-4.387,0.113-6.487c1.112-2.065,2.237-4.165,3.666-6.01c12.21-15.762,27.309-27.979,45.303-36.592
			c3.561-1.705,7.235-3.057,11.292-2.574c1.764,0.21,2.711,1.323,2.964,3.56c-0.327,1.061-0.516,2.708-1.294,4
			c-2.016,3.346-4.025,6.758-6.512,9.748c-10.645,12.804-23.356,23.156-38.089,30.927c-3.44,1.815-7.151,3.175-10.846,4.421
			C926.28,379.843,923.741,380.089,921.899,378.102z M1407.669,1559.233c0.701,3.167-0.688,4.961-4.011,6.072
			c-7.104,2.372-26.955,5.078-39.456,5.447c-2.349,0-4.698,0.034-7.046-0.006c-10.296-0.181-10.894-0.633-10.852-10.422
			c0.015-3.472-1.022-6.946-1.551-10.423c-0.898-5.897-0.105-7.265,5.568-7.621c7.84-0.49,15.612-1.383,23.22-3.252
			c7.212-1.773,14.311-4.007,21.474-5.981c4.472-1.232,6.068-0.643,7.15,3.383
			C1404.198,1543.978,1405.978,1551.599,1407.669,1559.233z M1411.28,842.315c1.224,1.597,2.05,3.451,1.368,5.43
			c-0.853,2.472-2.986,1.878-4.843,1.52c-20.624-3.975-41.106-2.759-61.514,1.604c-3.205,0.685-6.409,2.39-9.767,0.735
			c0.225-2.277,1.833-2.895,3.17-3.482c12.906-5.66,26.22-9.944,40.254-11.796c8.27-1.091,16.348-0.019,24.321,2.038
			C1406.881,839.04,1409.516,840.017,1411.28,842.315z M1402.135,823.925c1.316,0.517,2.551,1.763,3.315,2.992
			c0.517,0.834,0.352,2.271,0.08,3.332c-0.115,0.445-1.282,0.663-2,0.892c-0.353,0.113-0.779,0.054-1.162,0.004
			c-19.444-2.505-38.031,0.807-56.037,8.181c-0.585,0.24-1.426-0.144-2.178-0.24c-0.281-1.823,1.041-2.63,2.274-3.351
			c12.973-7.591,27.013-12.003,41.907-13.63C1393.009,821.595,1397.722,822.193,1402.135,823.925z M1357.36,824.9
			c0.087-0.038,0.173-0.079,0.258-0.108c-0.087-2.35,0.959-3.365,3.185-2.953c-1.106,1.103-2.211,2.206-3.317,3.309
			C1357.45,825.047,1357.402,824.984,1357.36,824.9z M1392.518,815.716c-6.943,0.941-11.904,1.338-16.722,2.607
			c-4.785,1.261-9.38,3.732-14.558,3.328c0.098-2.341,2.14-2.818,3.779-3.502C1373.161,814.75,1381.599,813.663,1392.518,815.716z
			 M1217.411,608.411c6.81,1.828,13.601,3.767,20.486,5.264c13.462,2.927,26.289,7.759,39.135,12.557
			c9.312,3.478,17.405,8.856,24.558,15.764c9.361,9.04,17.741,18.856,24.109,30.242c13.198,23.597,26.519,47.133,39.333,70.938
			c10.239,19.021,17.609,39.316,24.766,59.656c1.416,4.023,0.737,5.03-3.114,5.59c-0.774,0.113-1.562,0.143-2.345,0.172
			c-18.12,0.665-33.206,8.292-46.436,20.202c-1.146,1.031-2.434,1.905-4.04,3.148c-1.442-1.302-2.18-1.721-2.569-2.354
			c-14.96-24.381-29.869-48.794-44.83-73.175c-6.785-11.058-12.441-22.664-17.155-34.738c-0.997-2.555-1.795-5.209-3.865-7.166
			c-0.208-0.196-0.808-0.228-1.066-0.071c-0.606,0.367-1.621,0.951-1.576,1.347c0.214,1.899,0.536,3.83,1.161,5.633
			c5.155,14.877,12.233,28.828,20.341,42.299c4.44,7.377,10.084,14.491,12.442,22.527c2.238,7.631,0.869,16.311,1.14,24.528
			c0.675,20.374,1.385,40.748,2.071,61.122c0.093,2.742,0.224,5.489,0.153,8.229c-0.055,2.089-1.095,3.82-3.048,4.64
			c-4.33,1.819-8.657,3.687-13.107,5.168c-19.839,6.601-40.372,9.928-61.114,11.32c-35.721,2.397-71.336,1.196-106.474-6.444
			c-17.015-3.699-15.685-1.276-14.138-18.699c2.425-27.322,5.372-54.6,8.403-81.863c2.946-26.502,8.13-52.649,13.139-78.82
			c4.566-23.853,8.896-47.751,13.337-71.628c0.285-1.539,0.629-3.067,0.931-4.603c0.912-4.637,3.34-7.741,8.192-8.866
			c5.722-1.327,11.345-3.077,17.066-4.412c5.134-1.198,8.294-3.919,9.031-9.383c1.797-13.31,10.454-19.448,22.898-21.506
			c1.933-0.319,3.84-0.788,5.768-1.141c8.185-1.498,12.354-1.226,11.708,8.73C1212.483,605.976,1214.526,607.637,1217.411,608.411z
			 M1308.693,881.592c-2.311-2.153-2.693-4.614-2.871-7.342c-0.51-7.809-1.155-15.614-1.415-23.432
			c-0.482-14.473-0.728-28.953-1.068-43.431c-0.019-0.782-0.031-1.566-0.024-2.348c0.014-1.539-0.136-3.377,1.345-4.16
			c1.874-0.99,2.808,0.943,3.571,2.092c4.112,6.192,8.153,12.434,12.055,18.76c2.257,3.658,4.313,7.452,6.247,11.292
			c0.858,1.701,1.844,3.74,1.649,5.502c-0.876,7.956,1.94,15.297,3.437,22.837c0.778,3.927,0.806,7.787,0.396,11.662
			c-2.772,26.183-9.661,51.461-17.07,76.615c-0.288,0.977-1.298,1.741-3.29,4.291c-1.263-15.077-2.342-27.923-3.412-40.769
			c-0.362-4.34,0.335-8.142,2.604-12.242C1314.429,894.441,1314.802,887.283,1308.693,881.592z M1306.608,981.213
			c-3.249,10.859-6.55,21.703-9.94,32.519c-0.434,1.383-1.121,2.998-3.785,2.868c-0.767-6.763-1.749-13.629-2.292-20.528
			c-1.78-22.612-3.663-45.223-4.993-67.863c-0.912-15.53-2.162-13.222,12.86-18.751c0.676-0.249,1.523-0.032,2.834-0.032
			c2.083,6.141,1.921,12.808,2.602,19.269c1.436,13.609,2.22,27.286,3.503,40.913
			C1307.77,973.578,1307.739,977.429,1306.608,981.213z M1137.782,376.555c-12.206-14.717-17.749-31.153-12.592-50.26
			c1.343-4.977,3.467-9.55,6.488-13.726c4.091-5.66,9.331-9.693,16.453-10.151c10.795-0.694,20.507-4.484,30.158-9.013
			c11.225-5.267,20.292-6.903,33.048-7.1c7.476-0.054,14.818,0.712,22.097,2.635c10.211,2.697,19.294,7.494,25.191,16.186
			c7.492,11.043,17.641,15.74,30.469,17.232c12.53,1.458,24.224,6.235,35.499,11.867c10.883,5.437,18.286,13.382,18.751,26.258
			c0.283,7.822,3.109,14.42,9.02,19.701c1.733,1.55,3.129,3.507,4.547,5.378c5.664,7.477,6.805,15.77,3.607,24.451
			c-3.187,8.653-8.355,16.189-16.292,21.007c-11.902,7.225-25.153,10.679-38.988,11.741c-3.778,0.29-5.595-1.387-6.809-5.107
			c-0.566-1.737-0.04-3.189,1.399-4.005c2.378-1.349,4.954-2.342,7.385-3.601c2.068-1.07,4.108-2.22,6.029-3.528
			c0.445-0.303,0.646-1.497,0.43-2.09c-0.198-0.546-1.13-1.212-1.697-1.175c-4.433,0.289-8.026,2.922-11.997,4.512
			c-7.033,2.818-10.116,1.916-14.817-4.503c-0.827-1.128-0.709-2.391,0.043-3.249c1.536-1.75,3.192-3.461,5.056-4.841
			c6.927-5.128,14.023-10.031,20.924-15.194c3.113-2.329,6.018-4.967,8.815-7.675c1.2-1.162,0.985-2.85-0.01-4.279
			c-0.821-1.178-2.085-1.195-3.134-0.739c-2.868,1.245-5.758,2.509-8.445,4.092c-9.806,5.776-19.364,11.968-27.668,19.806
			c-5.554,5.243-6.2,4.377-12.108,1.04c-4.768-2.692-9.778-4.95-14.655-7.453c-4.596-2.361-4.892-3.561-1.714-8.134
			c4.247-6.113,8.754-12.049,12.889-18.236c2.602-3.895,4.811-8.065,7.019-12.205c0.707-1.327,1.134-2.955,1.14-4.447
			c0.003-0.93-0.875-2.03-1.65-2.726c-0.395-0.353-1.692-0.278-2.148,0.112c-2.361,2.019-4.799,4.016-6.814,6.36
			c-7.69,8.942-14.463,18.526-19.643,29.174c-0.862,1.773-1.918,3.37-4.195,3.59c-3.341,0.323-6.251-2.28-6.021-5.479
			c0.028-0.39,0.196-0.786,0.152-1.161c-0.457-3.885,3.885-7.961-0.459-11.688c-4.514,2.007-2.938,6.766-4.495,10.114
			c-1.521,3.27-2.624,4.106-6.33,3.405c-3.812-0.721-5.137-1.88-4.935-5.263c0.302-5.078,0.922-10.14,1.507-15.198
			c0.812-7.018,1.442-14.044,0.66-21.096c-0.176-1.585-1.254-3.028-3.1-2.677c-0.974,0.186-2.258,1.077-2.591,1.957
			c-3.067,8.108-4.699,16.53-5.462,25.172c-0.372,4.214,1.169,9.219-1.953,12.459c-3.396,3.523-8.182,0.285-12.349,0.535
			c-3.124,0.188-6.273,0.105-9.404-0.034c-4.277-0.191-5.498-1.016-6.628-5.23c-2.536-9.455-4.774-18.991-7.306-28.447
			c-0.804-3-1.992-5.932-3.35-8.726c-0.368-0.756-2.092-1.358-3.036-1.183c-0.935,0.173-2.224,1.307-2.404,2.21
			c-1.084,5.455-0.499,10.941,0.447,16.35c1.354,7.749,3.779,15.186,7.058,22.349c1.014,2.216,0.224,3.724-2.211,4.236
			c-1.915,0.403-3.964,0.461-5.739,1.194c-6.227,2.574-10.201,0.412-13.712-5.048
			C1144.702,383.117,1140.779,380.168,1137.782,376.555z M1135.923,437.625c3.691-11.6,8.268-22.832,14.225-33.464
			c2.246-4.008,5.73-6.076,10.333-6.907c19.165-3.46,38.271-3.32,57.225,1.053c15.327,3.536,30.032,8.987,43.973,16.325
			c10.477,5.514,19.973,12.392,28.07,21.106c4.919,5.293,6.932,10.897,3.828,18.171c-3.686,8.634-6.47,17.649-9.788,26.445
			c-0.947,2.51-2.388,4.833-3.985,8.001c-3.913-5.336-6.291-10.684-10.088-15.131c-16.966-19.876-38.57-31.659-63.782-37.348
			c-14.694-3.316-29.595-3.201-44.489-2.225c-7.888,0.517-15.286,3.28-22.577,6.234
			C1137.306,440.52,1135.472,439.047,1135.923,437.625z M1119.615,515.388c-6.64-27.607,2.401-50.932,23.34-69.825
			c3.692-3.332,8.251-4.548,12.896-5.182c7.373-1.007,14.808-1.544,20.005-2.06c23.313,0.598,43.454,4.796,61.902,15.499
			c1.694,0.983,3.354,2.026,5.003,3.081c2.586,1.654,3.936,3.827,2.563,6.92c-2.185,4.918-3.091,9.719,0.734,14.338
			c1.088,1.313,0.963,2.859,0.494,4.438c-0.668,2.25-1.484,4.499-1.792,6.807c-0.983,7.352,5.14,12.906,12.435,11.311
			c2.281-0.499,4.448-1.493,6.703-2.137c1.503-0.429,3.056-0.806,4.608-0.92c6.529-0.481,12.639,0.47,16.664,6.363
			c3.823,5.596,2.459,11.393-0.514,16.699c-6.197,11.062-15.978,16.913-28.486,18.265c-2.324,0.252-4.709-0.064-7.038,0.156
			c-1.161,0.11-2.448,1.274-1.961,2.371c1.936,4.361-0.982,6.553-3.631,8.869c-6.857,5.994-14.616,10.518-23.063,13.875
			c-2.183,0.867-4.406,1.629-6.607,2.45c-2.854,1.064-4.348,3.317-4.9,6.132c-0.373,1.905-0.437,3.903-0.391,5.854
			c0.179,7.624-0.811,8.946-8.219,9.855c-7.037,0.863-13.867,2.57-20.128,6.077c-2.531,1.418-4.24,0.513-5.965-1.616
			c-3.113-3.845-4.898-7.835-3.692-12.949c1.328-5.635,2.431-6.634,7.984-5.86c1.547,0.216,3.123,0.325,4.686,0.319
			c1.53-0.005,3.039-0.188,4.026-1.681c0.816-1.234-0.817-2.861-3.667-3.436c-3.458-0.698-7-1.049-10.398-1.956
			C1145.657,560.085,1126.378,543.508,1119.615,515.388z M937.576,785.475c-2.88-6.901-3.464-14.441-3.309-22.136
			c-0.36-8.936,1.591-17.733,3.94-26.443c7.257-26.899,17.675-52.685,27.872-78.543c6.176-15.66,12.488-31.265,18.739-46.895
			c5.486-13.713,8.238-27.641,4.86-42.473c-1.944-8.531,0.546-16.349,6.536-22.822c4.251-4.595,8.399-9.36,13.142-13.406
			c5.438-4.639,9.53-4.052,14.305,1.103c1.324,1.429,2.651,2.963,3.517,4.681c2.001,3.971,4.845,6.946,8.635,9.3
			c4.521,2.808,7.359,6.864,7.907,12.406c0.352,3.564,2.107,6.684,3.924,9.733c4.432,7.439,4.934,15.306-0.436,22.058
			c-8.669,10.901-11.148,23.825-14.368,36.744c-5.68,22.789-11.905,45.442-17.988,68.129c-1.726,6.436-4.208,12.571-7.29,18.533
			c-4.851,9.387-9.152,19.056-13.794,28.553c-5.677,11.616-11.544,23.135-19.038,33.729c-4.334,6.127-9.14,11.931-15.831,15.491
			C946.128,800.013,942.858,798.132,937.576,785.475z M999.734,749.48c-0.327,0.549-0.741,1.047-1.132,1.557
			c-0.474-0.845-0.544-1.634,0.599-2.21C999.262,748.796,999.788,749.391,999.734,749.48z M953.224,805.852
			c-0.571-0.323-1.172-1.17-1.168-1.77c0.004-0.622,0.599-1.417,1.162-1.82c0.945-0.674,2.035-1.183,3.122-1.613
			c9.087-3.595,15.724-10.131,21.459-17.77c6.382-8.503,11.372-17.834,16.37-27.175c0.933-1.744,1.368-4.484,4.286-4.302
			c-3.806,21.039-13.499,38.904-29.077,53.524C964.74,809.279,959.565,809.436,953.224,805.852z M995.328,807.241
			c-4.119,7.876-12.36,10.414-20.779,6.35c-1.556-0.751-2.208-2.303-1.333-3.873c0.746-1.339,1.856-2.521,2.97-3.603
			c12.986-12.62,20.528-28.387,26.238-45.223c1.096-3.231,2.217-6.453,3.327-9.679c0.583,0.141,1.166,0.281,1.749,0.422
			c0.141,1.14,0.499,2.303,0.388,3.418c-1.592,16.001-4.644,31.697-10.122,46.858C997.106,803.743,996.232,805.511,995.328,807.241z
			 M1004.949,811.182c-1.1,1.543-2.709,2.731-4.125,4.037c-0.26,0.239-0.982,0.441-1.06,0.337c-0.414-0.55-0.921-1.192-0.953-1.824
			c-0.036-0.719,0.307-1.504,0.635-2.188c10.164-21.176,12.96-44.004,15.024-66.992c0.557-6.216,0.969-12.445,1.516-18.663
			c0.132-1.509,0.511-3.004,2.47-3.983c3.861,4.709,4.677,10.671,5.336,16.286C1026.923,764.876,1020.576,789.279,1004.949,811.182z
			 M1064.079,871.148c1.688-10.845,3.058-21.749,5.099-32.526c4.813-25.414,9.343-50.905,15.101-76.11
			c6.634-29.037,15.263-57.57,24.631-85.859c0.984-2.973,2.056-5.93,2.795-8.965c0.232-0.956-0.181-2.779-0.838-3.1
			c-1.66-0.812-2.993,0.341-3.536,1.94c-4.784,14.099-9.575,28.197-14.215,42.343c-1.585,4.836-3.004,9.756-4.054,14.731
			c-1.921,9.104-6.456,16.69-12.479,23.613c-15.224,17.499-31.505,33.9-49.723,48.3c-1.665,1.317-3.135,3.654-5.952,2.493
			c-1.05-2.495,0.675-4.493,1.271-6.649c1.67-6.037,3.674-11.982,5.324-18.025c4.813-17.627,3.696-35.057-3.078-51.893
			c-2.272-5.648-1.456-9.26,2.626-13.459c10.112-10.403,19.789-21.228,29.695-31.831c10.444-11.177,20.995-22.254,31.414-33.454
			c6.165-6.628,12.794-12.691,20.099-18.053c12.273-9.009,25.692-14.971,41.049-16.08c2.735-0.198,5.457-0.6,8.179-0.949
			c2.59-0.332,4.358-1.672,4.823-4.337c0.269-1.541,0.243-3.136,0.545-4.669c0.441-2.247,0.687-5.124,3.765-4.94
			c2.676,0.16,3.426,2.866,4.352,5.018c0.64,1.49,0.772,2.991,0.172,4.543c-0.707,1.829-1.521,3.638-2.005,5.528
			c-3.182,12.433-1.004,10.661-15.214,14.167c-4.559,1.125-9.08,2.446-13.54,3.916c-3.156,1.04-5.266,3.237-5.949,6.674
			c-0.457,2.3-1.273,4.529-1.718,6.83c-6.613,34.25-13.329,68.481-19.733,102.77c-4.968,26.598-8.892,53.355-11.188,80.338
			c-1.563,18.36-3.348,36.703-5.099,55.047c-0.294,3.083-0.333,6.271-2.677,10.112c-9.307-1.437-17.418-5.389-25.696-8.897
			C1064.318,878.015,1063.477,875.015,1064.079,871.148z M1146.909,1584.152c3.231,14.941,5.652,30.05,5.219,45.414
			c-0.173,6.125-1.65,7.418-7.985,7.475c-16.461,0.151-32.925,0.08-49.387,0.089c-14.11,0.007-28.221,0.001-42.331,0.001
			c-28.613,0-57.226,0.001-85.839-0.001c-2.352-0.001-4.706-0.09-7.056-0.014c-7.898,0.255-9.271-3.317-5.917-10.585
			c1.386-3.004,4.043-4.764,6.82-6.243c6.244-3.325,12.727-6.301,19.678-7.576c10.899-1.998,21.103-5.862,31.189-10.219
			c2.514-1.086,5.101-2.006,7.668-2.968c2.083-0.779,3.828-0.382,4.969,1.661c1.323,2.369,2.09,5.135,4.519,6.712
			c0.557,0.362,1.605,0.487,2.15,0.199c0.52-0.276,1.086-1.358,0.928-1.869c-0.799-2.596-2.074-5.062-2.697-7.688
			c-0.538-2.272,1.197-3.52,3.135-4.252c1.628-0.614,3.023-0.278,4.034,1.269c1.697,2.594,2.427,5.862,5.213,7.683
			c0.594,0.389,1.551,0.717,2.148,0.51c1.224-0.422,1.573-1.653,1.216-2.804c-1.015-3.275-4.806-6.025-3.266-9.634
			c1.652-3.871,6.311-4.111,9.782-5.721c6.027-2.793,11.823-6.981,18.135-8.006c6.31-1.025,13.115,1.4,19.733,1.8
			c15.655,0.946,31.297,1.602,46.789-2.154C1142.327,1575.639,1145.467,1577.484,1146.909,1584.152z M1069.939,1551.415
			c3.761-1.676,6.479-0.693,9.095-0.307c17.099,2.519,34.244,2.71,51.449,1.543c5.292-0.359,6.106,0.413,6.997,5.455
			c2.252,12.753,2.129,12.92-10.438,15.123c-16.746,2.936-33.468,2.201-50.159-0.404c-4.658-0.728-5.165-1.422-5.604-5.996
			C1070.796,1561.797,1070.399,1556.757,1069.939,1551.415z M1141.831,1518.921c0.966,6.95,1.833,13.915,2.609,20.888
			c0.381,3.429-1.935,4.648-4.791,5.507c-5.313,1.601-10.784,1.774-16.24,1.956c-5.459,0.183-10.93,0.04-16.398,0.04
			c-13.703,0.33-27.28-1.271-40.865-2.809c-5.259-0.596-8.69-2.797-9.38-8.542c-0.602-5.022-1.83-9.964-2.581-14.973
			c-0.255-1.697,0.747-3.027,2.647-3.034c1.943-0.008,3.912,0.063,5.822,0.38c23.797,3.951,47.498,2.078,71.179-1.105
			c1.542-0.208,3.056-0.707,4.599-0.795C1140.124,1516.34,1141.589,1517.19,1141.831,1518.921z M1139.038,1494.112
			c0.491,3.488,0.904,6.996,1.153,10.508c0.311,4.394-0.667,5.864-4.761,6.575c-5.781,1.003-11.594,1.95-17.434,2.456
			c-7.799,0.675-15.637,0.904-24.472,1.378c-11.126-0.205-23.243-0.265-35.268-2.475c-4.604-0.847-6.721-3.22-7.345-7.594
			c-1.822-12.787-3.775-25.556-5.575-38.347c-5.078-36.087-7.487-72.421-9.998-108.746c-0.459-6.64-1.232-13.26-1.597-19.904
			c-0.275-4.999,1.209-6.099,6.416-5.308c9.284,1.41,18.557,2.891,27.844,4.282c16.692,2.499,33.575,2.481,50.363,3.741
			c2.338,0.176,4.687,0.263,7.014,0.529c1.734,0.198,2.795,1.31,2.998,3.048c0.225,1.94,0.391,3.893,0.45,5.845
			c0.373,12.134,0.725,24.269,1.056,36.404C1130.861,1422.551,1134.013,1458.41,1139.038,1494.112z M1315.331,1505.361
			c-4.5-12.123-8.943-24.272-13.1-36.516c-14.236-41.945-27.327-84.249-39.322-126.889c-0.53-1.885-1.115-3.761-1.514-5.675
			c-0.888-4.271-0.039-5.622,4.468-6.335c17.831-2.822,35.495-6.355,52.71-11.89c2.985-0.959,6.02-1.803,8.925-2.965
			c6.29-2.515,7.239-4.139,6.198-10.672c-1.419-8.904-2.931-17.792-4.486-26.674c-5.606-32.043-11.66-64.016-16.731-96.143
			c-3.421-21.671-5.476-43.558-8.136-65.349c-0.286-2.335-0.123-4.818-0.875-6.988c-2.617-7.557-0.885-14.675,1.607-21.794
			c2.202-6.289,4.394-12.581,6.552-18.885c0.502-1.466,0.988-2.965,1.193-4.488c0.078-0.573-0.524-1.548-1.07-1.81
			c-0.541-0.259-1.628-0.093-2.074,0.319c-0.834,0.773-1.616,1.772-2.006,2.829c-3.799,10.29-8.001,20.437-10.762,31.097
			c-0.812,3.139-0.836,5.855,0.217,9.057c1.452,4.414,2.185,9.163,2.545,13.822c2.867,37.186,8.514,73.976,15.259,110.625
			c4.257,23.13,8.309,46.297,12.437,69.451c0.274,1.542,0.377,3.113,0.606,4.664c0.478,3.244-1.042,5.291-3.967,6.302
			c-11.495,3.973-23.177,7.368-35.09,9.776c-61.416,12.41-123.459,17.153-186.032,14.256c-25.48-1.18-50.76-4.491-75.766-9.658
			c-2.304-0.477-4.608-0.973-6.882-1.569c-6.202-1.626-7.078-2.632-7.701-8.583c-0.041-0.39-0.061-0.782-0.084-1.174
			c-2.1-36.017-4.945-72.005-4.521-108.126c0.605-51.411,3.64-102.632,10.663-153.625c7.45-54.084,19.594-107.144,33.312-159.898
			c0.979-3.764,1.726-7.625,3.954-10.81c2.254-0.446,3.98,0.573,5.709,1.454c21.924,11.192,45.525,16.922,69.604,20.682
			c22.882,3.574,45.967,5.462,69.161,4.747c27.104-0.835,54.027-3.314,80.136-11.222c7.486-2.267,14.735-5.312,22.121-7.916
			c2.858-1.008,4.354,0.223,4.54,3.266c0.235,3.848-0.696,7.066-4.495,8.736c-6.095,2.679-12.245,5.231-18.353,7.879
			c-4.411,1.913-4.5,2.199-4.314,6.992c1.37,35.275,3.925,70.468,7.646,105.567c0.934,8.824,0.376,17.101-4.002,25.002
			c-1.307,2.359-1.912,5.131-2.669,7.763c-2.083,7.232-2.257,14.021,4.892,18.876c2.013,1.367,1.875,3.188,1.183,5.169
			c-1.677,4.812-3.455,9.594-4.956,14.461c-0.68,2.206-0.89,4.578-1.098,6.893c-0.048,0.538,0.67,1.455,1.229,1.654
			c0.587,0.209,1.652-0.004,2.071-0.447c0.774-0.818,1.444-1.871,1.785-2.944c4.261-13.465,9.457-26.577,14.716-39.673
			c2.397-5.968,2.119-9.795,0.028-9.331c-3.95,0.877-3.233,4.893-4.636,7.452c-1.5,2.732-2.466,5.756-3.688,8.642
			c-0.678,1.597-2.167,2.792-3.595,2.23c-1.221-0.48-2.473-2.157-2.741-3.499c-0.446-2.24-0.541-4.735-0.016-6.939
			c0.811-3.409,2.006-6.787,3.497-9.963c9.875-21.029,16.534-43.175,22.685-65.474c6.359-23.044,12.492-46.154,18.423-69.312
			c3.895-15.208,6.739-30.615,6.899-46.424c0.056-5.586,1.212-7.097,6.407-8.241c17.698-3.898,35.535-6.297,53.668-3.34
			c5.136,0.838,5.711,1.458,6.141,6.854c1.32,16.558-0.486,32.822-4.031,49.038c-8.573,39.231-22.085,76.81-37.592,113.714
			c-10.626,25.29-20.579,50.891-33.404,75.211c-1.093,2.073-1.972,4.273-2.796,6.471c-0.707,1.883-0.908,3.853,0.564,5.526
			c2.179,2.479,2.842,5.526,3.405,8.627c9.307,51.289,19.648,102.418,27.65,153.911c8.8,56.615,21.249,112.439,32.925,168.45
			c2.56,12.278,5.169,24.546,7.663,36.838c0.544,2.677,0.791,5.427,0.984,8.157c0.119,1.655-0.692,3.001-2.236,3.789
			c-1.046,0.535-2.066,1.141-3.159,1.561c-19.446,7.465-39.449,12.995-59.883,16.954c-3.833,0.742-7.79,0.924-11.703,1.146
			C1317.849,1510.28,1317,1509.859,1315.331,1505.361z M1321.903,1522.956c-0.536-1.441-0.844-2.978-1.136-4.493
			c-0.265-1.371,0.718-2.211,1.752-2.649c1.05-0.445,2.271-0.526,3.429-0.674c22.952-2.931,45.136-8.893,66.802-16.906
			c1.097-0.406,2.183-0.854,3.3-1.193c3.662-1.115,5.445-0.429,6.252,2.868c1.483,6.059,2.723,12.178,4.029,18.28
			c0.56,2.616-0.308,4.567-2.844,5.668c-1.072,0.465-2.092,1.069-3.19,1.46c-18.826,6.72-37.977,11.902-53.877,12.153
			C1324.9,1537.526,1327.819,1538.891,1321.903,1522.956z M1250.361,1637.128c-1.569,0-3.139,0.033-4.705-0.04
			c-6.264-0.29-7.597-2.376-5.539-8.076c1.282-3.552,3.512-6.148,6.9-7.578c2.504-1.056,5.175-1.758,7.819-2.431
			c16.788-4.274,32.884-10.281,48.064-18.714c6.019-3.343,6.121-3.174,10.55,2.017c0.507,0.594,0.824,1.365,1.379,1.899
			c1.108,1.063,2.448,2.716,3.936,1.891c2.371-1.314,1.005-3.225-0.006-4.905c-1.004-1.668-2.06-3.327-2.846-5.099
			c-0.796-1.794,0.489-3.08,1.811-3.817c0.871-0.485,2.428-0.598,3.243-0.127c1.299,0.748,2.223,2.136,3.326,3.233
			c1.935,1.923,3.814,3.909,5.861,5.705c0.95,0.833,2.284,0.77,3.071-0.36c0.352-0.506,0.467-1.594,0.156-2.068
			c-1.068-1.629-2.353-3.118-3.591-4.632c-1.487-1.818-3.055-3.582-3.515-6.44c5.263-3.773,10.617-7.622,15.987-11.45
			c1.706-1.216,3.665-1.246,5.636-0.999c19.341,2.429,38.283-0.113,57.094-4.482c4.96-1.152,6.49-0.592,8.652,3.592
			c1.608,3.11,2.907,6.421,3.982,9.76c4.341,13.487,6.439,27.452,8.426,41.422c0.323,2.267,0.1,4.703-0.354,6.964
			c-0.486,2.426-2.043,4.252-4.776,4.432c-2.734,0.179-5.478,0.291-8.218,0.292
			C1358.589,1637.134,1304.475,1637.13,1250.361,1637.128z"/>
		<path style="fill:#303030;" d="M1235.877,1010.912c0.308,27.476,1.841,54.862,6.18,82.035
			c2.304,14.433,1.296,15.979-12.672,19.677c-21.307,5.643-42.958,8.971-64.984,9.989c-6.259,0.289-12.495,1.123-18.736,1.757
			c-2.788,0.284-4.097,2.029-4.109,4.719c-0.043,9.807-0.189,19.617-0.007,29.421c0.231,12.453,0.047,13.063-12.588,15.094
			c-21.85,3.513-43.756,3.498-65.428-1.819c-2.66-0.652-5.275-1.521-7.86-2.435c-4.887-1.728-7.568-4.746-7.676-10.437
			c-0.255-13.329-1.321-26.643-1.573-39.972c-0.102-5.394-1.424-9.097-7.045-10.447c-6.138-1.474-7.368-5.981-7.509-11.619
			c-0.354-14.167,0.829-28.259,2.323-42.281c2.614-24.557,5.492-49.11,11.515-73.146c0.667-2.662,1.3-5.336,2.073-7.968
			c1.692-5.763,1.724-5.852,8.051-5.881c1.979-0.009,4.142,0.458,5.609-0.947c3.651-3.499,7.678-2.579,12.08-2.089
			c24.162,2.689,48.356,5.099,72.55,7.504c4.367,0.434,8.535,0.799,11.567,4.641c2.238,2.835,5.688,2.193,8.77,2.267
			c18.847,0.453,37.67-0.115,56.417-2.08c12.679-1.328,13.454-1.734,13.143,11.653c-0.09,3.922-0.072,7.847-0.087,11.771
			C1235.866,1003.85,1235.877,1007.381,1235.877,1010.912z M1147.752,978.037c-0.479-0.281-0.802-0.619-1.159-0.658
			c-24.134-2.655-48.261-5.38-72.414-7.866c-7.996-0.823-9.749,0.467-11.797,7.984c-1.233,4.523-2.124,9.182-2.699,13.837
			c-1.729,14.005-3.35,28.026-4.795,42.063c-3.786,36.76-3.215,73.616-2.109,110.472c0.141,4.692,1.042,9.358,1.235,14.051
			c0.197,4.774,2.762,7.025,7.117,7.906c1.534,0.31,3.005,0.92,4.537,1.237c19.79,4.1,39.674,4.385,59.645,1.477
			c9.232-1.344,10.601-0.893,10.252-11.629c-1.099-33.747,1.209-67.427,1.993-101.135c0.355-15.276,1.659-30.542,4.1-45.647
			C1143.397,999.366,1145.708,988.695,1147.752,978.037z M1141.583,1072.889c0,12.128-0.012,24.258,0.012,36.387
			c0.003,1.948,0.081,3.907,0.283,5.844c0.179,1.734,1.279,2.874,3.013,2.989c2.33,0.155,4.69,0.217,7.017,0.044
			c10.924-0.818,21.854-1.601,32.759-2.639c15.622-1.486,30.859-5.038,45.997-9.038c1.5-0.396,3.006-0.918,4.37-1.643
			c1.409-0.748,2.471-1.974,2.293-3.742c-0.312-3.111-0.652-6.224-1.104-9.318c-4.767-32.61-6.518-65.377-5.166-98.308
			c0.032-0.782,0.078-1.564,0.087-2.347c0.112-9.26-0.233-9.468-8.924-8.74c-8.18,0.686-16.382,1.305-24.584,1.475
			c-12.908,0.266-25.824,0.094-38.735,0.183c-6.141,0.042-6.683,0.471-8.154,6.094c-0.791,3.023-1.436,6.092-2.008,9.166
			C1144.216,1023.617,1143.658,1048.293,1141.583,1072.889z M1037.814,1081.04c0,5.49-0.084,10.983,0.055,16.47
			c0.039,1.489,0.498,3.104,1.229,4.4c0.783,1.391,2.342,1.933,4.019,1.909c2.036-0.029,2.574-1.46,2.797-3.045
			c0.217-1.547,0.276-3.122,0.301-4.686c0.651-39.652,3.604-79.097,10.617-118.178c0.134-0.753,0.159-1.607-0.069-2.317
			c-0.213-0.666-0.714-1.522-1.291-1.729c-1.226-0.439-2.325,0.268-2.779,1.392c-0.582,1.442-0.871,3.005-1.262,4.522
			c-3.535,13.687-5.83,27.613-7.62,41.608C1041.276,1041.213,1038.199,1060.993,1037.814,1081.04z"/>
		<path style="fill:#303030;" d="M1311.191,1103.586c0.895-2.861,1.814-6.229,2.997-9.501c2.904-8.026,5.89-16.023,8.944-23.993
			c0.531-1.386,1.458-2.67,2.429-3.808c0.302-0.354,1.366-0.16,2.049-0.041c0.291,0.051,0.715,0.56,0.71,0.857
			c-0.016,1.141,0.036,2.354-0.323,3.408c-3.885,11.378-7.822,22.739-11.818,34.08c-0.369,1.048-1.2,1.95-1.911,2.846
			c-0.171,0.216-0.797,0.297-1.072,0.159c-0.598-0.3-1.314-0.674-1.593-1.217
			C1311.274,1105.734,1311.355,1104.882,1311.191,1103.586z"/>
		<path style="fill:#303030;" d="M1147.902,784.419c3.264-0.039,6.135,1.142,8.711,3.018c5.082,3.702,5.526,10.969,0.831,15.319
			c-4.711,4.364-10.294,5.484-16.327,3.367c-4.376-1.537-7.418-4.701-7.709-9.425c-0.26-4.198,2.09-7.456,5.626-9.667
			C1141.717,785.352,1144.646,784.268,1147.902,784.419z"/>
		<path style="fill:#303030;" d="M1142.86,850.984c1.53,0.391,3.495,0.674,5.288,1.389c6.896,2.751,8.725,10.691,3.859,16.355
			c-4.328,5.037-13.594,6.528-19.37,3.117c-5.372-3.173-6.583-10.255-2.595-15.216
			C1133.232,852.662,1137.636,851.383,1142.86,850.984z"/>
		<path style="fill:#303030;" d="M1158.475,662.429c-5.056,0.013-9.326-2.905-10.726-7.328c-1.166-3.683,0.617-8.276,4.339-11.174
			c4.612-3.592,10.59-4.025,15.165-1.099c3.339,2.136,5.174,6.424,4.271,9.982C1170.129,658.316,1164.571,662.414,1158.475,662.429z
			"/>
		<path style="fill:#303030;" d="M1151.683,717.965c6.693-0.232,11.47,4.008,11.594,10.292c0.126,6.427-5.086,11.596-11.883,11.781
			c-6.431,0.175-11.582-4.416-11.675-10.407C1139.62,723.24,1144.784,718.204,1151.683,717.965z"/>
		<path style="fill:#303030;" d="M1177.704,548.876c-10.666,0.922-18.148-5.773-25.015-13.557c-1.116-1.264-1.178-3.029-0.136-4.283
			c1.369-1.649,3.402-1.892,5.285-0.913c0.95,0.494,2.059,1.431,2.317,2.38c1.51,5.532,5.615,8.147,10.561,9.969
			c4.959,1.826,9.915,1.697,14.89,0.121c4.125-1.307,8.089-2.812,10.57-6.762c0.583-0.929,1.583-1.751,2.579-2.235
			c2.119-1.029,3.736,0.083,4.947,1.76c1.099,1.522,0.623,3.187-0.674,4.133C1195.708,544.821,1187.975,549.204,1177.704,548.876z"
			/>
		<path style="fill:#303030;" d="M1165.8,502.595c0.407-1.618,0.778-4.793,1.995-7.602c3.568-8.225,7.44-16.319,11.287-24.42
			c0.462-0.971,1.369-2.086,2.776-1.462c1.782,0.79,1.804,2.307,1.14,3.836c-1.557,3.579-3.223,7.111-4.799,10.682
			c-1.731,3.927-3.631,7.799-5.07,11.833c-2.653,7.443-2.562,14.579,3.315,20.74c0.803,0.842,1.588,1.779,2.074,2.817
			c0.263,0.559,0.064,1.524-0.259,2.13c-0.668,1.255-1.911,1.16-3.033,0.747c-0.709-0.261-1.386-0.729-1.946-1.248
			C1168.472,516.182,1165.786,510.751,1165.8,502.595z"/>
		<path style="fill:#303030;" d="M1270.889,506.625c0.651,0.113,1.851,0.166,2.922,0.566c0.61,0.228,1.266,0.955,1.429,1.581
			c0.153,0.586-0.187,1.848-0.529,1.933c-5.182,1.291-5.932,4.701-5.959,9.6c-0.034,6.266-4.558,9.594-10.332,11.177
			c-2.153,0.59-4.811-0.551-4.861-1.985c-0.072-2.029,1.543-2.434,2.861-3.142c1.709-0.918,3.723-1.512,5.068-2.805
			c1.705-1.639,2.634-3.885,1.579-6.421c-1.073-2.578-2.894-3.488-5.602-2.69c-0.732,0.215-1.574,0.388-2.289,0.231
			c-0.654-0.143-1.535-0.642-1.729-1.191c-0.407-1.147,0.06-2.267,1.166-2.912C1258.433,508.336,1265.046,506.708,1270.889,506.625z
			"/>
		<path style="fill:#303030;" d="M1210.556,491.814c-0.06-3.293,0.262-5.565,1.357-7.743c1.449-2.883,3.855-4.356,6.517-3.829
			c2.759,0.547,3.759,2.643,4.26,5c0.861,4.061-0.187,7.782-2.66,11.039c-1.217,1.603-2.896,2.611-5.087,2.14
			c-1.684-0.362-2.719-1.588-3.352-3.001C1210.964,494.023,1210.729,492.451,1210.556,491.814z"/>
		<path style="fill:#303030;" d="M1153.323,483.313c-0.259,3.154-1.273,5.592-3.271,7.612c-2.628,2.658-7.114,1.488-8.438-2.076
			c-1.336-3.6-0.535-6.887,1.164-10.035c1.165-2.16,2.992-3.589,5.651-3.221c2.648,0.366,3.964,2.232,4.586,4.612
			C1153.303,481.311,1153.25,482.505,1153.323,483.313z"/>
		<path style="fill:#303030;" d="M1147.538,459.631c3.614,0.03,6.569,0.838,8.838,3.263c0.435,0.465,0.679,1.44,0.514,2.043
			c-0.172,0.625-0.954,1.536-1.459,1.529c-1.521-0.02-3.046-0.372-4.549-0.69c-4.562-0.964-8.388,0.576-11.965,3.272
			c-0.921,0.693-2.21,0.925-3.052-0.323c-1.009-1.497-0.628-2.906,0.548-4.136C1139.544,461.315,1143.533,460.004,1147.538,459.631z
			"/>
		<path style="fill:#303030;" d="M1230.703,471.515c-0.622,1.148-2.025,1.958-2.785,1.356c-4.131-3.272-8.435-5.29-13.842-3.613
			c-0.429,0.133-1.677-0.77-1.678-1.192c-0.002-1.037,0.179-2.634,0.854-3.024c6.05-3.503,13.395-1.627,17.149,4.263
			C1230.769,469.879,1230.617,470.783,1230.703,471.515z"/>
	</g>
</g>
</svg>
