<?xml version="1.0" encoding="utf-8"?>
<!-- Generator: Adobe Illustrator 27.5.0, SVG Export Plug-In . SVG Version: 6.00 Build 0)  -->
<svg version="1.1" xmlns="http://www.w3.org/2000/svg" xmlns:xlink="http://www.w3.org/1999/xlink" x="0px" y="0px"
	 viewBox="0 0 3710 3710" style="enable-background:new 0 0 3710 3710;" xml:space="preserve">
<g id="Background">
	<g>
		<g>
			<rect style="fill:#FFFFFF;" width="3710" height="3710"/>
		</g>
	</g>
</g>
<g id="Illustration">
	<g>
		<linearGradient id="SVGID_1_" gradientUnits="userSpaceOnUse" x1="3528.3276" y1="3918.6379" x2="1139.9768" y2="952.4561">
			<stop  offset="0" style="stop-color:#DAE3FE"/>
			<stop  offset="1" style="stop-color:#E9EFFD"/>
		</linearGradient>
		<path style="fill:url(#SVGID_1_);" d="M2968.846,2600.104c-56.211,59.676-272.116,301.792-314.138,332.197
			c-493.957,357.406-995.748,287.794-1119.967,262.351c-183.432-37.57-557.746-259.636-814.094-563.637
			c-387.834-459.927-307.699-1035.084-6.869-1513.404c55.026-87.493,345.693-573.099,936.47-650.974
			c357.532-47.13,774.3,47.925,1076.111,302.914C3359.888,1304.795,3394.815,2147.879,2968.846,2600.104z"/>
		<path style="fill:#91B3FA;" d="M665.295,2533.777c503.549,1017.241,1910.349,763.79,2345.501,48.517
			c9.416-15.477,2.386-35.748-14.608-42.026c-506.905-187.276-1637.008-224.453-2309.272-53.46
			C666.418,2492.022,655.911,2514.821,665.295,2533.777z"/>
		<g>
			
				<linearGradient id="SVGID_00000074417216279539810690000008122892336244186528_" gradientUnits="userSpaceOnUse" x1="1845.9846" y1="275.8281" x2="1392.0331" y2="6056.082">
				<stop  offset="0" style="stop-color:#09005D"/>
				<stop  offset="1" style="stop-color:#1A0F91"/>
			</linearGradient>
			<path style="fill:url(#SVGID_00000074417216279539810690000008122892336244186528_);" d="M2830.633,1057.121
				c-4.731-73.117-48.886-137.888-115.071-169.321l-857.496-407.257c-54.915-26.081-118.647-26.081-173.563,0L827.008,887.8
				c-66.185,31.434-110.341,96.205-115.071,169.321c-80.433,1243.297,716.754,1696.304,978.08,1810.736
				c51.827,22.695,110.71,22.695,162.536,0C2113.879,2753.425,2911.066,2300.418,2830.633,1057.121z"/>
			<path style="fill:#7D97F4;" d="M2623.273,1105.648c-0.947-18.536-11.981-35.081-28.747-43.044l-801.613-380.717
				c-13.687-6.5-29.571-6.5-43.258,0l-801.611,380.717c-16.766,7.963-27.8,24.508-28.748,43.044
				c-23.705,463.787,83.421,850.758,318.629,1150.684c179.323,228.666,389.097,351.207,512.023,408.378
				c13.543,6.298,29.128,6.298,42.671,0c122.923-57.169,332.699-179.712,512.023-408.378
				C2539.851,1956.406,2646.978,1569.432,2623.273,1105.648z"/>
		</g>
		<g>
			<g>
				<g>
					
						<ellipse transform="matrix(0.7071 -0.7071 0.7071 0.7071 -595.1988 1709.2161)" style="fill:#FFFFFF;" cx="1765.607" cy="1573.077" rx="661.878" ry="661.878"/>
					
						<linearGradient id="SVGID_00000045603030207012156030000004534231793688223369_" gradientUnits="userSpaceOnUse" x1="2179.0759" y1="-35.638" x2="1578.9487" y2="2299.3174">
						<stop  offset="0" style="stop-color:#FF928E"/>
						<stop  offset="1" style="stop-color:#FE7062"/>
					</linearGradient>
					
						<circle style="fill:url(#SVGID_00000045603030207012156030000004534231793688223369_);" cx="1765.606" cy="1573.077" r="639.869"/>
					<path style="opacity:0.7;fill:#FFFFFF;" d="M2293.241,1314.031c1.023,0,2.064-0.231,3.041-0.727
						c3.334-1.684,4.671-5.75,2.987-9.078c-102.303-202.678-306.789-328.585-533.663-328.585c-36.18,0-72.441,3.261-107.77,9.705
						c-3.673,0.666-6.109,4.185-5.439,7.861c0.667,3.677,4.176,6.133,7.864,5.433c34.532-6.291,69.973-9.479,105.346-9.479
						c221.74,0,421.603,123.062,521.596,321.151C2288.389,1312.671,2290.769,1314.031,2293.241,1314.031z"/>
					
						<ellipse transform="matrix(0.7071 -0.7071 0.7071 0.7071 -609.1401 1703.4414)" style="fill:#FFFFFF;" cx="1751.666" cy="1587.018" rx="541.571" ry="541.571"/>
				</g>
			</g>
			<g>
				<g>
					
						<linearGradient id="SVGID_00000165920196404743856030000000369797326070431382_" gradientUnits="userSpaceOnUse" x1="708.3281" y1="2253.6169" x2="837.5342" y2="2571.9966" gradientTransform="matrix(0.4888 -0.8724 0.8724 0.4888 -553.5784 1264.0083)">
						<stop  offset="0" style="stop-color:#09005D"/>
						<stop  offset="1" style="stop-color:#1A0F91"/>
					</linearGradient>
					<path style="fill:url(#SVGID_00000165920196404743856030000000369797326070431382_);" d="M1784.201,1734.898
						c0,0,48.744-13.416,62.381-2.297c13.638,11.119,64.212,49.393,65.816,48.304s71.063-5.379,52.732,0.74
						c-18.33,6.12-37.752,23.052-53.87,11.04c-16.117-12.012-67.888-45.492-67.888-45.492l-41.226,6.204L1784.201,1734.898z"/>
					
						<linearGradient id="SVGID_00000093166440933298745990000008831124784064093828_" gradientUnits="userSpaceOnUse" x1="-587.6543" y1="324.334" x2="-458.4475" y2="642.7151" gradientTransform="matrix(-0.1644 -0.9864 0.9864 -0.1644 1277.0663 1202.6442)">
						<stop  offset="0" style="stop-color:#09005D"/>
						<stop  offset="1" style="stop-color:#1A0F91"/>
					</linearGradient>
					<path style="fill:url(#SVGID_00000093166440933298745990000008831124784064093828_);" d="M1705.527,1703.11
						c0,0,29.633-40.961,47.229-40.819c17.595,0.142,80.995-1.64,81.565-3.492c0.57-1.852,52.073-48.655,41.601-32.413
						s-15.03,41.602-35.119,42.314c-20.089,0.713-81.422,6.982-81.422,6.982l-28.28,30.632L1705.527,1703.11z"/>
					
						<linearGradient id="SVGID_00000019642849132885127690000014311184324512161724_" gradientUnits="userSpaceOnUse" x1="759.7965" y1="-3309.5544" x2="868.1683" y2="-3042.5132" gradientTransform="matrix(0.5074 -0.8617 -0.8617 -0.5074 -1639.5916 658.6335)">
						<stop  offset="0" style="stop-color:#09005D"/>
						<stop  offset="1" style="stop-color:#1A0F91"/>
					</linearGradient>
					<path style="fill:url(#SVGID_00000019642849132885127690000014311184324512161724_);" d="M1596.221,1659.338
						c0,0-10.87-40.986-24.688-46.171c-13.818-5.185-62.915-25.662-62.803-27.283c0.111-1.621-26.121-53.763-22.812-37.896
						c3.309,15.867-0.755,37.092,14.757,43.697c15.512,6.604,61.641,29.973,61.641,29.973l12.92,32.492L1596.221,1659.338z"/>
					
						<linearGradient id="SVGID_00000078743895268655308610000011097882536008791209_" gradientUnits="userSpaceOnUse" x1="4899.436" y1="2265.686" x2="5028.6436" y2="2584.0693" gradientTransform="matrix(-0.4888 0.8724 0.8724 0.4888 2094.593 -3460.5339)">
						<stop  offset="0" style="stop-color:#09005D"/>
						<stop  offset="1" style="stop-color:#1A0F91"/>
					</linearGradient>
					<path style="fill:url(#SVGID_00000078743895268655308610000011097882536008791209_);" d="M1678.793,1949.586
						c0,0,14.005,48.578,30.608,54.404c16.603,5.827,75.65,28.98,75.559,30.916c-0.091,1.936,32.511,63.418,28.161,44.589
						c-4.35-18.829-0.048-44.234-18.708-51.709c-18.659-7.476-74.243-34.152-74.243-34.152l-16.231-38.401L1678.793,1949.586z"/>
					
						<linearGradient id="SVGID_00000080910708366415328010000005624110380061656714_" gradientUnits="userSpaceOnUse" x1="2689.0527" y1="2885.2815" x2="2818.2654" y2="3203.677" gradientTransform="matrix(-0.9271 0.3747 0.3747 0.9271 2997.0039 -1867.4086)">
						<stop  offset="0" style="stop-color:#09005D"/>
						<stop  offset="1" style="stop-color:#1A0F91"/>
					</linearGradient>
					<path style="fill:url(#SVGID_00000080910708366415328010000005624110380061656714_);" d="M1569.251,1838.805
						c0,0-19.465,46.659-10.158,61.592c9.307,14.933,40.886,69.937,39.604,71.39s-14.312,69.814-5.926,52.403
						s27.636-34.538,17.756-52.044c-9.88-17.505-36.553-73.091-36.553-73.091l11.362-40.112L1569.251,1838.805z"/>
					
						<linearGradient id="SVGID_00000146480862553129448490000008542950458600467390_" gradientUnits="userSpaceOnUse" x1="4904.4282" y1="-3204.3674" x2="5012.7949" y2="-2937.3389" gradientTransform="matrix(-0.47 0.8827 -0.8827 -0.47 1010.301 -4069.7341)">
						<stop  offset="0" style="stop-color:#09005D"/>
						<stop  offset="1" style="stop-color:#1A0F91"/>
					</linearGradient>
					<path style="fill:url(#SVGID_00000146480862553129448490000008542950458600467390_);" d="M1512.567,1776.592
						c0,0-40.632,12.126-52.268,3.048c-11.635-9.078-54.733-40.263-56.057-39.322c-1.325,0.942-59.492,5.789-44.232,0.328
						c15.261-5.461,31.242-20.009,44.973-10.226c13.731,9.782,57.745,36.926,57.745,36.926l34.458-5.944L1512.567,1776.592z"/>
				</g>
				
					<linearGradient id="SVGID_00000088818279707997020760000010152553325607149483_" gradientUnits="userSpaceOnUse" x1="-5362.9004" y1="3110.1409" x2="-5139.3105" y2="4230.3491" gradientTransform="matrix(-0.4719 0.8816 0.8816 0.4719 -4082.3625 4650.6714)">
					<stop  offset="0" style="stop-color:#E1473D"/>
					<stop  offset="1" style="stop-color:#E9605A"/>
				</linearGradient>
				<path style="fill:url(#SVGID_00000088818279707997020760000010152553325607149483_);" d="M1678.467,1957.365
					c106.823,64.121,218.693,62.892,249.869-2.745c31.176-65.637-30.149-170.826-136.973-234.947
					c-106.823-64.121-218.693-62.892-249.869,2.745C1510.319,1788.056,1571.644,1893.245,1678.467,1957.365z"/>
				
					<linearGradient id="SVGID_00000141443221853691254370000000496041861120691616_" gradientUnits="userSpaceOnUse" x1="-5402.9482" y1="2941.9253" x2="-5145.8979" y2="4229.7739" gradientTransform="matrix(-0.5164 0.8563 0.8563 0.5164 -4166.1709 4455.4658)">
					<stop  offset="0" style="stop-color:#E1473D"/>
					<stop  offset="1" style="stop-color:#E9605A"/>
				</linearGradient>
				<path style="fill:url(#SVGID_00000141443221853691254370000000496041861120691616_);" d="M1506.13,1788.323
					c32.762,19.757,78.29,4.319,101.688-34.481c23.398-38.801,15.807-86.271-16.955-106.028
					c-32.762-19.757-78.29-4.319-101.688,34.481S1473.367,1768.566,1506.13,1788.323z"/>
				
					<linearGradient id="SVGID_00000003816176118356385840000004041431043611406736_" gradientUnits="userSpaceOnUse" x1="36.4384" y1="3967.6736" x2="-126.731" y2="4785.1699" gradientTransform="matrix(0.4719 -0.8816 0.8816 0.4719 -1673.0238 149.5184)">
					<stop  offset="0" style="stop-color:#FF928E"/>
					<stop  offset="1" style="stop-color:#FE7062"/>
				</linearGradient>
				<path style="fill:url(#SVGID_00000003816176118356385840000004041431043611406736_);" d="M1552.047,1727.047
					c-41.989,85.708,192.545,328.254,355.47,238.557L1552.047,1727.047z"/>
				
					<linearGradient id="SVGID_00000149379591359837988110000002485349420793738933_" gradientUnits="userSpaceOnUse" x1="428.5588" y1="3879.0427" x2="269.4049" y2="4676.4214" gradientTransform="matrix(-0.4719 0.8816 0.8816 0.4719 -1385.8951 -386.815)">
					<stop  offset="0" style="stop-color:#FF928E"/>
					<stop  offset="1" style="stop-color:#FE7062"/>
				</linearGradient>
				<path style="fill:url(#SVGID_00000149379591359837988110000002485349420793738933_);" d="M1552.047,1727.047
					c39.997-86.904,349-1.147,373.332,200.951L1552.047,1727.047z"/>
				<g>
					
						<linearGradient id="SVGID_00000164500172109808935060000006844535689790668981_" gradientUnits="userSpaceOnUse" x1="1528.9674" y1="1780.6273" x2="1817.7817" y2="2018.2592">
						<stop  offset="0" style="stop-color:#09005D"/>
						<stop  offset="1" style="stop-color:#1A0F91"/>
					</linearGradient>
					<path style="fill:url(#SVGID_00000164500172109808935060000006844535689790668981_);" d="M1545.796,1770.758
						c0,0,0.758,1.274,2.18,3.664c1.402,2.399,3.549,5.876,6.11,10.384c2.489,4.557,5.927,9.83,9.683,15.923
						c1.908,3.036,3.855,6.301,6.045,9.661c2.246,3.328,4.607,6.828,7.069,10.481c4.725,7.426,10.701,14.861,16.526,23.025
						c2.975,4.04,6.406,7.9,9.696,11.998c1.658,2.037,3.333,4.098,5.027,6.178c1.721,2.052,3.595,4.007,5.408,6.042
						c3.707,3.998,7.279,8.238,11.236,12.201c4.035,3.887,8.094,7.838,12.113,11.888c4.055,4.016,8.573,7.59,12.868,11.439
						c2.203,1.863,4.298,3.863,6.593,5.621l6.931,5.227c8.944,7.381,18.784,13.51,28.237,19.894
						c10.005,5.465,19.369,11.766,29.331,16.225c4.909,2.356,9.63,4.919,14.454,6.994c4.837,2.059,9.571,4.072,14.181,6.032
						c2.315,0.955,4.561,2.013,6.853,2.847c2.298,0.806,4.564,1.601,6.793,2.382c4.452,1.611,8.754,3.165,12.884,4.659
						c4.098,1.634,8.222,2.54,12.047,3.761c3.848,1.164,7.499,2.267,10.931,3.305c6.839,2.226,12.973,3.487,17.977,4.795
						c10.034,2.504,15.783,4.098,15.783,4.098s-5.9-0.428-16.253-1.464c-5.165-0.594-11.525-0.921-18.624-2.403
						c-7.119-1.368-15.294-2.449-23.972-4.664c-4.341-1.13-8.862-2.305-13.544-3.521c-2.338-0.632-4.715-1.276-7.128-1.927
						c-2.403-0.699-4.771-1.624-7.214-2.443c-4.869-1.701-9.873-3.446-14.989-5.23c-2.594-0.808-5.07-1.991-7.601-3.111
						c-2.528-1.126-5.083-2.264-7.657-3.41c-5.152-2.3-10.451-4.52-15.504-7.409c-5.139-2.717-10.323-5.515-15.498-8.42
						c-9.929-6.501-20.279-12.756-29.692-20.342l-7.148-5.549c-2.367-1.865-4.528-3.973-6.793-5.943
						c-4.426-4.065-9.072-7.859-13.232-12.086c-4.17-4.221-8.235-8.478-12.227-12.695c-3.934-4.272-7.467-8.803-11.124-13.086
						c-1.79-2.177-3.638-4.273-5.329-6.46c-1.625-2.238-3.234-4.454-4.827-6.646c-3.109-4.436-6.353-8.624-9.128-12.961
						c-5.503-8.704-10.845-16.826-14.933-24.813c-2.134-3.932-4.177-7.7-6.12-11.283c-1.816-3.656-3.405-7.201-4.965-10.481
						c-3.132-6.564-5.726-12.313-7.555-17.164c-1.957-4.8-3.356-8.64-4.37-11.228
						C1546.328,1772.142,1545.796,1770.758,1545.796,1770.758z"/>
					
						<linearGradient id="SVGID_00000011718168242521684310000005857292161144727957_" gradientUnits="userSpaceOnUse" x1="1549.8225" y1="1753.6256" x2="1851.6594" y2="2001.9722">
						<stop  offset="0" style="stop-color:#09005D"/>
						<stop  offset="1" style="stop-color:#1A0F91"/>
					</linearGradient>
					<path style="fill:url(#SVGID_00000011718168242521684310000005857292161144727957_);" d="M1554.888,1758.053
						c0,0,0.965,1.169,2.781,3.359c1.796,2.202,4.508,5.375,7.808,9.524c3.221,4.224,7.611,8.923,12.349,14.5
						c4.669,5.623,10.408,11.597,16.506,18.223c1.527,1.651,3.086,3.338,4.676,5.056c1.661,1.65,3.356,3.329,5.079,5.038
						c3.408,3.441,6.935,6.999,10.559,10.655c3.71,3.566,7.641,7.11,11.584,10.794c1.97,1.844,3.96,3.707,5.969,5.59
						c2.078,1.807,4.173,3.633,6.288,5.474c4.259,3.648,8.478,7.475,12.933,11.127c4.528,3.574,9.092,7.207,13.626,10.945
						c4.482,3.805,9.407,7.127,14.129,10.743l7.168,5.334c2.397,1.77,4.922,3.37,7.378,5.066c4.925,3.372,9.765,6.874,14.723,10.161
						c5.03,3.177,10.037,6.34,15.009,9.479c2.476,1.588,4.955,3.146,7.509,4.548c2.515,1.476,5.014,2.947,7.499,4.406
						c4.994,2.876,9.811,5.946,14.825,8.455c4.948,2.64,9.857,5.147,14.585,7.767c4.725,2.63,9.568,4.75,14.171,7.063
						c4.646,2.216,9.102,4.538,13.537,6.488c4.433,1.977,8.718,3.886,12.828,5.718c8.186,3.801,15.935,6.675,22.721,9.492
						c3.408,1.381,6.6,2.673,9.548,3.866c2.991,1.09,5.739,2.09,8.218,2.993c9.932,3.63,15.6,5.866,15.6,5.866
						s-5.95-1.097-16.355-3.3c-2.6-0.555-5.483-1.169-8.622-1.839c-3.119-0.739-6.432-1.74-10.011-2.702
						c-7.128-2.013-15.294-4.011-23.864-7.166c-4.331-1.479-8.839-3.019-13.505-4.612c-4.676-1.588-9.312-3.715-14.191-5.638
						c-4.827-2.044-9.909-3.891-14.89-6.25c-5.014-2.284-10.06-4.786-15.238-7.24c-5.224-2.369-10.261-5.301-15.485-8.041
						c-5.181-2.82-10.547-5.482-15.6-8.76c-5.132-3.149-10.303-6.324-15.498-9.51c-5.119-3.306-10.139-6.807-15.212-10.226
						c-2.495-1.77-5.057-3.446-7.493-5.291l-7.279-5.559c-4.787-3.768-9.781-7.238-14.326-11.195
						c-4.636-3.843-9.174-7.731-13.639-11.586c-4.413-3.916-8.583-8-12.779-11.896c-2.085-1.965-4.154-3.912-6.202-5.841
						c-1.947-2.032-3.878-4.043-5.785-6.035c-3.782-4.016-7.542-7.879-11.082-11.751c-6.82-7.987-13.528-15.284-18.942-22.682
						c-2.778-3.627-5.444-7.102-7.975-10.409c-2.535-3.295-4.64-6.687-6.774-9.724c-4.193-6.138-7.844-11.466-10.458-16.076
						c-2.745-4.533-4.777-8.181-6.219-10.63C1555.646,1759.366,1554.888,1758.053,1554.888,1758.053z"/>
					
						<linearGradient id="SVGID_00000021119730523023342420000014825924810626043781_" gradientUnits="userSpaceOnUse" x1="1560.2971" y1="1728.0479" x2="1864.2303" y2="1978.1193">
						<stop  offset="0" style="stop-color:#09005D"/>
						<stop  offset="1" style="stop-color:#1A0F91"/>
					</linearGradient>
					<path style="fill:url(#SVGID_00000021119730523023342420000014825924810626043781_);" d="M1562.302,1736.193
						c0,0,1.028,1.118,2.948,3.214c1.904,2.11,4.777,5.142,8.281,9.121c3.444,4.045,8.018,8.566,13.022,13.915
						c4.938,5.401,10.921,11.134,17.304,17.492c1.599,1.584,3.231,3.203,4.892,4.851c1.734,1.578,3.497,3.185,5.293,4.82
						c3.549,3.298,7.22,6.708,10.993,10.213c7.874,6.654,15.931,13.907,24.757,20.843c8.566,7.242,18.092,13.874,27.4,21.068
						c9.647,6.752,19.329,13.769,29.489,20.116c4.971,3.326,9.945,6.654,15.071,9.709c5.093,3.109,10.113,6.289,15.186,9.295
						c10.303,5.754,20.15,11.942,30.135,17.159c9.844,5.46,19.487,10.531,28.655,15.327c4.547,2.463,9.072,4.664,13.429,6.841
						c4.347,2.208,8.547,4.341,12.576,6.39c8.13,3.991,15.58,7.652,22.183,10.894c6.636,3.214,12.418,6.015,17.182,8.323
						c9.548,4.597,14.959,7.378,14.959,7.378s-5.828-1.683-15.951-4.894c-5.05-1.63-11.243-3.479-18.171-6.056
						c-6.951-2.518-14.874-5.181-23.322-8.583c-8.435-3.434-17.717-6.859-27.21-11.233c-4.774-2.128-9.683-4.313-14.697-6.547
						c-5.047-2.177-9.978-4.864-15.12-7.345c-10.274-4.983-20.689-10.573-31.173-16.427c-5.204-2.993-10.366-6.165-15.593-9.266
						c-5.26-3.052-10.395-6.362-15.501-9.721c-10.277-6.611-20.095-13.912-29.856-20.942c-9.499-7.403-18.758-14.792-27.289-22.46
						c-8.806-7.34-16.486-15.375-24.044-22.636c-3.589-3.828-7.082-7.552-10.458-11.152c-1.668-1.817-3.306-3.605-4.915-5.359
						c-1.533-1.821-3.04-3.607-4.515-5.355c-2.932-3.505-5.743-6.862-8.419-10.056c-2.663-3.193-4.935-6.47-7.201-9.407
						c-4.479-5.932-8.34-11.105-11.196-15.57c-2.972-4.39-5.188-7.931-6.751-10.305
						C1563.129,1737.466,1562.302,1736.193,1562.302,1736.193z"/>
					
						<linearGradient id="SVGID_00000166634956623399359910000003288814054607320743_" gradientUnits="userSpaceOnUse" x1="1587.1967" y1="1695.1895" x2="1929.8451" y2="1821.9132">
						<stop  offset="0" style="stop-color:#09005D"/>
						<stop  offset="1" style="stop-color:#1A0F91"/>
					</linearGradient>
					<path style="fill:url(#SVGID_00000166634956623399359910000003288814054607320743_);" d="M1595.455,1692.241
						c0,0,1.455-0.179,4.18-0.514c2.729-0.315,6.721-0.875,11.814-1.396c5.07-0.693,11.321-0.85,18.509-1.174
						c7.21-0.509,15.294-0.136,24.159,0.105c4.446-0.002,9.026,0.625,13.8,1.003c2.384,0.236,4.807,0.478,7.269,0.722
						c1.231,0.128,2.472,0.258,3.723,0.387c1.238,0.209,2.486,0.419,3.74,0.63c5.033,0.859,10.202,1.74,15.485,2.643
						c5.27,0.995,10.53,2.576,15.954,3.896c2.686,0.745,5.467,1.281,8.143,2.215c2.692,0.896,5.401,1.799,8.126,2.709
						c5.447,1.839,11.052,3.503,16.365,6.023c5.365,2.371,10.871,4.572,16.227,7.138c5.267,2.747,10.556,5.503,15.846,8.261
						c2.676,1.323,5.149,2.996,7.667,4.585l7.526,4.784c2.502,1.594,4.997,3.187,7.486,4.772c2.371,1.755,4.735,3.503,7.089,5.245
						c4.682,3.512,9.45,6.849,13.817,10.559c4.305,3.776,8.56,7.504,12.743,11.172c4.265,3.574,8.104,7.462,11.811,11.315
						c3.72,3.825,7.361,7.568,10.904,11.211c6.685,7.647,12.845,15,18.446,21.822c5.293,7.081,10.021,13.648,14.194,19.459
						c2.141,2.865,3.957,5.68,5.572,8.332c1.635,2.628,3.139,5.043,4.498,7.225c5.411,8.722,8.356,13.771,8.356,13.771
						s-3.92-4.393-10.517-12.193c-1.645-1.95-3.467-4.109-5.451-6.458c-1.986-2.343-4.042-4.945-6.514-7.504
						c-4.813-5.217-10.225-11.093-15.987-17.588c-6.15-6.153-12.835-12.766-19.773-19.844c-3.687-3.31-7.476-6.71-11.348-10.185
						c-3.891-3.443-7.663-7.179-11.968-10.431c-4.19-3.38-8.445-6.816-12.756-10.295c-2.101-1.807-4.502-3.239-6.754-4.889
						c-2.269-1.632-4.548-3.272-6.833-4.917c-2.285-1.648-4.58-3.302-6.882-4.96c-2.41-1.489-4.83-2.981-7.253-4.477l-7.276-4.492
						c-2.43-1.499-4.83-3.057-7.397-4.309c-5.024-2.709-10.051-5.416-15.058-8.113c-5.093-2.523-10.33-4.689-15.439-7.035
						c-5.073-2.441-10.363-4.211-15.501-6.214c-2.581-0.979-5.142-1.95-7.69-2.917c-2.531-1.006-5.175-1.617-7.726-2.436
						c-5.148-1.504-10.179-3.132-15.166-4.492c-5.037-1.21-9.962-2.395-14.759-3.548c-4.777-1.315-9.581-1.745-14.145-2.704
						c-4.587-0.795-9-1.832-13.311-2.226c-8.599-0.952-16.499-2.292-23.532-2.638c-7.036-0.448-13.189-1.261-18.325-1.289
						c-5.116-0.149-9.141-0.42-11.883-0.537C1596.919,1692.315,1595.455,1692.241,1595.455,1692.241z"/>
					
						<linearGradient id="SVGID_00000133492203540843247010000002171954774947710371_" gradientUnits="userSpaceOnUse" x1="1575.5054" y1="1728.0052" x2="1934.8456" y2="1860.9021">
						<stop  offset="0" style="stop-color:#09005D"/>
						<stop  offset="1" style="stop-color:#1A0F91"/>
					</linearGradient>
					<path style="fill:url(#SVGID_00000133492203540843247010000002171954774947710371_);" d="M1590.273,1707.457
						c0,0,1.504,0.097,4.318,0.279c2.814,0.2,6.954,0.399,12.198,0.842c5.25,0.256,11.591,1.372,18.909,2.379
						c7.381,0.87,15.445,2.804,24.36,4.641c4.485,0.834,8.99,2.277,13.751,3.464c2.364,0.648,4.771,1.308,7.214,1.978
						c2.453,0.652,4.919,1.377,7.378,2.241c4.948,1.647,10.034,3.338,15.232,5.066c5.227,1.676,10.323,4.006,15.636,6.055
						c2.643,1.062,5.309,2.133,7.992,3.211c2.66,1.134,5.286,2.394,7.959,3.597c5.316,2.463,10.776,4.817,16.079,7.575
						c5.283,2.806,10.609,5.631,15.951,8.47c5.385,2.776,10.487,6.081,15.757,9.105l7.785,4.728
						c2.568,1.615,5.047,3.359,7.568,5.029c5.007,3.39,10.051,6.687,14.946,10.106c9.614,7.095,19.077,14.078,27.709,21.482
						c4.334,3.676,8.754,7.097,12.782,10.794c4.003,3.723,7.913,7.368,11.725,10.914c7.785,6.9,14.313,14.304,20.656,20.763
						c6.373,6.439,11.531,12.997,16.384,18.507c4.899,5.477,8.714,10.646,11.922,14.833c6.409,8.383,9.929,13.254,9.929,13.254
						s-4.426-4.121-11.925-11.472c-3.74-3.684-8.241-8.181-13.662-13.076c-2.676-2.472-5.526-5.104-8.53-7.879
						c-2.978-2.791-6.071-5.762-9.509-8.639c-3.379-2.932-6.899-5.987-10.54-9.149c-1.809-1.587-3.648-3.203-5.516-4.843
						c-1.927-1.571-3.884-3.167-5.868-4.784c-3.963-3.231-8.031-6.55-12.191-9.942c-4.252-3.267-8.596-6.605-13.012-10
						c-8.671-6.997-18.397-13.18-27.784-20.114c-4.83-3.275-9.798-6.427-14.729-9.675c-2.482-1.597-4.925-3.27-7.45-4.812
						l-7.644-4.524c-5.099-3.011-10.037-6.311-15.248-9.08c-5.175-2.835-10.33-5.659-15.445-8.46
						c-5.162-2.709-10.389-5.183-15.465-7.816c-2.558-1.276-5.073-2.607-7.621-3.815c-2.574-1.152-5.129-2.297-7.664-3.433
						c-5.089-2.226-10.024-4.602-14.976-6.621c-4.961-2.018-9.814-3.991-14.536-5.912c-4.695-2.031-9.473-3.385-13.961-5.111
						c-4.534-1.576-8.842-3.403-13.134-4.607c-4.265-1.327-8.353-2.597-12.241-3.806c-3.871-1.328-7.588-2.325-11.098-3.228
						c-3.51-0.946-6.793-1.831-9.834-2.65c-1.52-0.422-2.981-0.827-4.377-1.215c-1.422-0.315-2.774-0.614-4.058-0.898
						c-5.142-1.108-9.161-2.128-11.909-2.756C1591.738,1707.803,1590.273,1707.457,1590.273,1707.457z"/>
					
						<linearGradient id="SVGID_00000148637665227412370830000003359320096248135328_" gradientUnits="userSpaceOnUse" x1="1560.9397" y1="1750.2549" x2="1923.0392" y2="1884.1722">
						<stop  offset="0" style="stop-color:#09005D"/>
						<stop  offset="1" style="stop-color:#1A0F91"/>
					</linearGradient>
					<path style="fill:url(#SVGID_00000148637665227412370830000003359320096248135328_);" d="M1577.199,1725.682
						c0,0,1.494,0.184,4.301,0.529c2.801,0.364,6.928,0.803,12.145,1.55c5.234,0.581,11.522,1.957,18.781,3.37
						c7.319,1.271,15.314,3.531,24.133,5.818c4.439,1.054,8.885,2.688,13.593,4.091c4.666,1.522,9.558,2.95,14.401,4.891
						c4.882,1.852,9.903,3.756,15.032,5.7c5.099,2.021,10.156,4.443,15.38,6.726c5.25,2.238,10.422,4.845,15.662,7.478
						c5.234,2.641,10.632,5.157,15.764,8.227c5.201,2.957,10.441,5.937,15.705,8.928c5.142,3.183,10.307,6.378,15.468,9.573
						c5.188,3.165,10.074,6.769,15.081,10.148c4.974,3.426,9.969,6.788,14.72,10.395c4.813,3.521,9.552,7.068,14.191,10.62
						c4.548,3.663,9.039,7.281,13.459,10.84c8.957,6.971,16.988,14.447,24.842,21.234c7.778,6.874,14.818,13.72,21.401,19.926
						c6.518,6.281,12.287,12.249,17.445,17.481c5.221,5.168,9.446,10.005,13.048,13.856c7.135,7.773,11.095,12.321,11.095,12.321
						s-4.777-3.705-12.93-10.374c-4.094-3.311-8.967-7.439-14.693-12.011c-5.677-4.61-12.083-9.811-19.073-15.485
						c-7.043-5.578-14.67-11.625-22.738-18.018c-8.209-6.201-16.66-12.988-25.689-19.6c-4.492-3.334-9.059-6.724-13.685-10.156
						c-4.731-3.274-9.486-6.634-14.234-10.077c-4.718-3.49-9.663-6.721-14.592-10.021c-4.955-3.255-9.808-6.715-14.91-9.77
						c-5.014-3.195-10.031-6.39-15.025-9.573c-5.106-2.991-10.192-5.971-15.238-8.928c-5.014-3.024-10.179-5.654-15.179-8.461
						c-5.017-2.773-9.972-5.524-15.002-7.903c-4.994-2.469-9.906-4.896-14.713-7.271c-4.882-2.225-9.656-4.401-14.306-6.519
						c-4.61-2.239-9.318-3.847-13.741-5.757c-4.469-1.783-8.698-3.791-12.937-5.208c-8.432-2.931-16.066-6.102-23.023-8.166
						c-6.948-2.133-12.914-4.424-18.036-5.721c-5.079-1.404-9.036-2.656-11.748-3.444
						C1578.644,1726.112,1577.199,1725.682,1577.199,1725.682z"/>
				</g>
			</g>
			<g>
				<g>
					
						<linearGradient id="SVGID_00000160173016238158326480000003349683294884713856_" gradientUnits="userSpaceOnUse" x1="2085.4832" y1="988.631" x2="935.6556" y2="2274.6206">
						<stop  offset="0" style="stop-color:#4F52FF"/>
						<stop  offset="1" style="stop-color:#4042E2"/>
					</linearGradient>
					<path style="fill:url(#SVGID_00000160173016238158326480000003349683294884713856_);" d="M2048.174,1419.678
						c11.695,31.627,23.804,79.581-7.11,83.919c-39.15,5.491-92.649-6.011-135.698-8.757
						c-42.995-2.746-119.649,13.749-139.801,13.529c-59.802-0.652-117.541,9.855-177.218,10.066
						c-62.221,0.22-123.878-14.403-186.083-12.958c-23.376,0.543-46.711,3.357-70.078,2.516
						c-34.251-1.232-67.683-10.269-100.759-19.25c-2.635-0.716-5.502-1.593-7.003-3.874c-3.847-5.847,4.574-12.006,11.352-13.748
						c25.121-6.455,51.896-8.792,74.401-21.685c16.841-9.648,30.267-24.7,47.714-33.201c19.354-9.43,41.689-9.9,63.216-10.188
						c72.649-0.97,143.864,0.543,215.042-11.881c72.853-12.716,146.319-21.599,219.812-29.658
						c10.049,1.813,99.945-7.411,99.012-27.509c-0.933-20.152,34.328-117.204,52.613-121.762
						c18.339-4.558,15.139,24.13,11.24,27.535c-3.898,3.405-32.673,122.176-16.913,111.907
						c15.76-10.322,47.749-174.942,62.796-145.455c15.154,29.541,8.588,18.448-7.885,58.917
						c-16.473,40.523-28.168,107.075-12.355,131.785C2047.761,1405.088,2045.101,1411.276,2048.174,1419.678z"/>
				</g>
				<g>
					<path style="fill:#91B3FA;" d="M1865.432,1345.745c-4.316,19.047-14.493,35.887-31.795,46.239
						c-13.09,0-36.855,16.027-50.833,19.821c-18.208,4.942-36.402,9.21-54.247,15.273c-38.214,12.984-80.023,18.8-119.695,27.158
						c-50.172,10.571-108.099,25.9-158.574,9.264c-43.826-14.445-80.909-52.228-92.866-98.863
						c-2.579-10.06-4.09-20.646-2.286-30.887c3.326-18.891,17.101-33.55,29.303-47.945c47.27-55.764,78.867-123.887,106.495-192.495
						c9.847-24.453,19.375-49.302,33.674-71.238c14.299-21.936,34.041-41.06,58.327-48.984c10.87-3.546,22.766-4.727,33.618-1.122
						c12.632,4.196,22.518,14.29,31.898,24.054c50.434,52.501,108.301,101.179,152.34,159.545
						c12.063,15.988,23.627,33.753,25.386,54.008c0.745,8.578-0.222,17.716,3.61,25.347c2.355,4.69,6.28,8.262,9.854,12.024
						C1862.142,1270.627,1873.145,1311.708,1865.432,1345.745z"/>
					<path style="fill:#7D97F4;" d="M1687.601,1398.922c-22.718,11.468-48.378,15.343-74.538,22.512
						c-77.926,21.357-172.523,35.341-223.36-46.999c25.217-17.842,58.691-11.077,89.146-9.771
						c69.603,2.985,136.792-26.534,197.233-62.625c25.46-15.203,50.576-31.978,70.112-54.792
						c19.537-22.815,33.136-52.542,31.775-83.087c26.393,33.544,27.922,83.234,11.744,123.201
						c-16.233,40.102-45.741,62.202-74.393,91.445C1706.769,1387.535,1697.462,1393.944,1687.601,1398.922z"/>
					<path style="fill:#7D97F4;" d="M1663.406,1236.476c22.966-13.182,46.246-26.971,63.75-47.314s28.527-48.7,22.359-75.255
						c-9.526-4.147-20.206,1.126-29.271,6.276c-65.439,37.174-131.242,74.597-189.662,122.824
						c-20.41,16.849-40.383,35.296-64.728,44.921c-10.312,4.077-73.746,15.885-61.534,36.724
						c8.271,14.116,72.148-5.504,85.276-9.086C1551.016,1298.804,1608.071,1268.237,1663.406,1236.476z"/>
					<path style="fill:#7D97F4;" d="M1623.946,1119.922c13.248-10.236,26.642-20.88,35.904-35.099
						c9.263-14.219,13.837-32.865,7.841-48.875c-6.274-1.747-12.504,2.479-17.737,6.486
						c-37.779,28.927-75.764,58.042-108.272,93.241c-11.357,12.297-22.313,25.553-36.708,33.693
						c-6.098,3.448-44.681,16.388-35.381,28.303c6.299,8.071,44.526-9.776,52.418-13.164
						C1558.94,1168.657,1592.027,1144.586,1623.946,1119.922z"/>
				</g>
			</g>
			
				<linearGradient id="SVGID_00000049190756380464733170000006288425632796975746_" gradientUnits="userSpaceOnUse" x1="2182.2756" y1="-34.8198" x2="1582.1493" y2="2300.1318">
				<stop  offset="0" style="stop-color:#FF928E"/>
				<stop  offset="1" style="stop-color:#FE7062"/>
			</linearGradient>
			<polygon style="fill:url(#SVGID_00000049190756380464733170000006288425632796975746_);" points="2099.866,2068.736 
				2174.663,2008.439 1442.349,1073.08 1367.161,1122.964 			"/>
		</g>
		<g>
			
				<linearGradient id="SVGID_00000011025200496165018260000011120220188615182485_" gradientUnits="userSpaceOnUse" x1="-2866.7214" y1="3079.1887" x2="-3511.554" y2="3780.5862" gradientTransform="matrix(-1 0 0 1 -235.2028 0)">
				<stop  offset="0" style="stop-color:#09005D"/>
				<stop  offset="1" style="stop-color:#1A0F91"/>
			</linearGradient>
			<path style="fill:url(#SVGID_00000011025200496165018260000011120220188615182485_);" d="M2835.351,3131.438
				c0,0,6.678,37.805,9.952,75.229c1.28,14.626-9.996,27.326-24.665,27.937c-49.837,2.076-156.44,6.112-194.693,4.405
				c-5.75-0.257-9.51-6.143-7.382-11.492c1.783-4.482,5.223-8.105,9.606-10.119l176.089-80.93L2835.351,3131.438z"/>
			
				<linearGradient id="SVGID_00000181074215460045490770000005113844678108983223_" gradientUnits="userSpaceOnUse" x1="-2387.6465" y1="853.8864" x2="-3303.365" y2="3193.2649" gradientTransform="matrix(-1 0 0 1 -235.2028 0)">
				<stop  offset="0" style="stop-color:#4F52FF"/>
				<stop  offset="1" style="stop-color:#4042E2"/>
			</linearGradient>
			<path style="fill:url(#SVGID_00000181074215460045490770000005113844678108983223_);" d="M2836.788,2259.595
				c2.318,12.246,12.44,611.103-49.289,879.471c-1.007,4.379,1.134,8.892,5.152,10.595c9.469,4.011,28.029,9.82,50.273,10.595
				c6.889,0.24,13.065-4.404,15.008-11.26c17.646-62.266,102.198-374.234,113.228-672.248c12.325-333.001,0-11.339,0-11.339
				l-7.229-205.841L2836.788,2259.595z"/>
			
				<linearGradient id="SVGID_00000064312691057435524140000018379238497140458682_" gradientUnits="userSpaceOnUse" x1="-3011.3792" y1="2946.1978" x2="-3656.2104" y2="3647.594" gradientTransform="matrix(-1 0 0 1 -235.2028 0)">
				<stop  offset="0" style="stop-color:#09005D"/>
				<stop  offset="1" style="stop-color:#1A0F91"/>
			</linearGradient>
			<path style="fill:url(#SVGID_00000064312691057435524140000018379238497140458682_);" d="M3037.911,3151.162
				c0,0,10.63,19.086,20.921,69.801c1.859,9.159-4.541,17.925-13.842,18.839c-16.456,1.618-41.79,3.698-62.083,3.559
				c-9.355-0.064-16.656-8.21-15.528-17.497c2.248-18.512,9.25-48.883,30.883-72.554L3037.911,3151.162z"/>
			
				<linearGradient id="SVGID_00000111187648642184844210000017961639245486171829_" gradientUnits="userSpaceOnUse" x1="-2526.4038" y1="799.5656" x2="-3442.1218" y2="3138.9421" gradientTransform="matrix(-1 0 0 1 -235.2028 0)">
				<stop  offset="0" style="stop-color:#4F52FF"/>
				<stop  offset="1" style="stop-color:#4042E2"/>
			</linearGradient>
			<path style="fill:url(#SVGID_00000111187648642184844210000017961639245486171829_);" d="M3089.454,2274.225
				c50.486,315.962-19.291,784.673-40.011,875.678c-1.269,5.571-5.605,9.84-11.05,10.776c-9.249,1.59-24.477,2.887-39.489-1.634
				c-5.172-1.558-8.806-6.396-9.017-11.977c-2.78-73.575,2.224-525.251-44.818-703.756c-2.384-9.047-7.712-16.936-15.082-22.369
				l-91.304-67.312l-7-108.803L3089.454,2274.225z"/>
			<g>
				
					<linearGradient id="SVGID_00000023996733133111554710000010928105719234769541_" gradientUnits="userSpaceOnUse" x1="-3035.123" y1="1698.1593" x2="-3185.3508" y2="2846.3286" gradientTransform="matrix(-1 0 0 1 -235.2028 0)">
					<stop  offset="0" style="stop-color:#FF928E"/>
					<stop  offset="1" style="stop-color:#FE7062"/>
				</linearGradient>
				<path style="fill:url(#SVGID_00000023996733133111554710000010928105719234769541_);" d="M2759.415,1699.465
					c151.298-2.5,318.238,39.726,318.238,39.726c45.098,263.15,7.436,553.582,7.436,553.582
					c-128.742,16.365-253.119-19.639-253.119-19.639c-19.468-109.99-105.993-405.589-105.993-405.589
					c-73.924-9.175-134.821-30.502-184.97-58.7c38.253-44.341,56.286-100.762,64.119-134.114
					C2658.62,1691.356,2712.75,1700.236,2759.415,1699.465z"/>
				
					<linearGradient id="SVGID_00000031928558816765754280000004027281410505793208_" gradientUnits="userSpaceOnUse" x1="2391.2981" y1="1353.1617" x2="2545.9607" y2="1875.4276">
					<stop  offset="0" style="stop-color:#A22B25"/>
					<stop  offset="1" style="stop-color:#C0423C"/>
				</linearGradient>
				<path style="fill:url(#SVGID_00000031928558816765754280000004027281410505793208_);" d="M2312.508,1476.611
					c14.863-17.951,33.673-9.459,33.673-9.459c22.265,94.049,139.008,170.305,258.945,207.58
					c-7.833,33.352-25.866,89.773-64.119,134.114C2341.961,1696.93,2312.508,1476.611,2312.508,1476.611z"/>
			</g>
			<g>
				
					<linearGradient id="SVGID_00000024710190269092855680000007139531510545481140_" gradientUnits="userSpaceOnUse" x1="13060.6748" y1="1587.9454" x2="13257.0293" y2="2034.6957" gradientTransform="matrix(1 0 0 1 -10682.9805 0)">
					<stop  offset="0" style="stop-color:#A22B25"/>
					<stop  offset="1" style="stop-color:#C0423C"/>
				</linearGradient>
				<path style="fill:url(#SVGID_00000024710190269092855680000007139531510545481140_);" d="M2316.116,1481.176
					c-1.555,4.943,16.454,12.472,27.057-7.749c0.371-9.691,6.264-51.208,0.474-59.103c-30.841-42.047-90.636-94.755-90.636-94.755
					c-10.105,9.971-1.78,19.767-1.78,19.767l29.007,30.218c-6.067,10.964-13.468,20.218-16.936,33.481
					c-2.627,10.043-1.02,20.776,4.053,29.916c5.092,9.173,12.038,21.098,18.605,30.429
					C2298.391,1481.043,2316.116,1481.176,2316.116,1481.176z"/>
				
					<linearGradient id="SVGID_00000062161736953560906420000003960969736802566050_" gradientUnits="userSpaceOnUse" x1="-2549.1157" y1="1439.1615" x2="-2467.1853" y2="1313.1936" gradientTransform="matrix(-1 0 0 1 -235.2028 0)">
					<stop  offset="0" style="stop-color:#A22B25"/>
					<stop  offset="1" style="stop-color:#C0423C"/>
				</linearGradient>
				<path style="fill:url(#SVGID_00000062161736953560906420000003960969736802566050_);" d="M2292.926,1389.161l26.433,22.408
					l8.299,22.311l-23.568,26.145c0,0-7.924-44.267-13.814-53.849C2284.386,1396.595,2287.441,1391.963,2292.926,1389.161z"/>
			</g>
			
				<linearGradient id="SVGID_00000108286531380464638130000010654270768996705674_" gradientUnits="userSpaceOnUse" x1="-3335.8022" y1="1689.6057" x2="-3486.0303" y2="2837.7759" gradientTransform="matrix(-1 0 0 1 -235.2028 0)">
				<stop  offset="0" style="stop-color:#FF928E"/>
				<stop  offset="1" style="stop-color:#FE7062"/>
			</linearGradient>
			<path style="fill:url(#SVGID_00000108286531380464638130000010654270768996705674_);" d="M3019.621,1885.691l58.032-146.5
				c0,0,141.32,96.021,164.561,217.766c-26.702,1.966-75.292,8.912-122.852,32.926
				C3108.911,1932.398,3019.621,1885.691,3019.621,1885.691z"/>
			
				<linearGradient id="SVGID_00000135687805390786861650000005099551053339055493_" gradientUnits="userSpaceOnUse" x1="2842.1479" y1="1289.0928" x2="2918.3582" y2="1885.3276">
				<stop  offset="0" style="stop-color:#A22B25"/>
				<stop  offset="1" style="stop-color:#C0423C"/>
			</linearGradient>
			<path style="fill:url(#SVGID_00000135687805390786861650000005099551053339055493_);" d="M2912.668,1576.635l48.141,139.219
				c0.797,2.306-0.151,4.86-2.287,6.041c-13.123,7.255-60.401,28.227-117.375-7.896c-5.936-3.763-9.976-9.9-10.877-16.87
				l-15.59-120.494H2912.668z"/>
			<g>
				
					<linearGradient id="SVGID_00000049926980910842932360000013704056635819251116_" gradientUnits="userSpaceOnUse" x1="-7649.2202" y1="-3656.8232" x2="-7703.9316" y2="-3837.2742" gradientTransform="matrix(-0.746 -0.6659 -0.6659 0.746 -5361.5381 -803.1727)">
					<stop  offset="0" style="stop-color:#A22B25"/>
					<stop  offset="1" style="stop-color:#C0423C"/>
				</linearGradient>
				<path style="fill:url(#SVGID_00000049926980910842932360000013704056635819251116_);" d="M2807.92,1447.713
					c0,0-52.864,99.509-46.087,139.706c6.776,40.197,72.292,37.311,129.503,4.664l39.978-107.449L2807.92,1447.713z"/>
				
					<linearGradient id="SVGID_00000091711204065505095550000002542382225989345714_" gradientUnits="userSpaceOnUse" x1="-7698.5806" y1="-3971.2317" x2="-7652.8145" y2="-3710.1982" gradientTransform="matrix(-0.746 -0.6659 -0.6659 0.746 -5361.5381 -803.1727)">
					<stop  offset="0" style="stop-color:#09005D"/>
					<stop  offset="1" style="stop-color:#1A0F91"/>
				</linearGradient>
				<path style="fill:url(#SVGID_00000091711204065505095550000002542382225989345714_);" d="M2888.807,1539.316
					c-2.325-1.029-3.183-3.874-1.79-6.003c4.235-6.47,12.174-19.67,14.707-31.226c0,0,9.504-6.086-24.188-14.15
					c-33.69-8.064-83.933-20.581-94.493-49.258c-10.296-27.96,16.756-98.273,59.916-42.249c1.642,2.132,4.859,2.179,6.499,0.045
					c7.075-9.209,25.677-28.323,51.502-16.735c24.167,10.844,26.89,28.553,26.558,37.479c-0.098,2.626,2.25,4.667,4.831,4.175
					c12.22-2.33,41.541-4.332,55.228,25.748c11.273,24.776,3.946,38.801-2.727,45.66c-2.162,2.222-1.215,5.881,1.75,6.789
					c8.031,2.458,18.401,9.267,17.363,28.082c-1.436,26.009-30.516,23.718-38.796,22.533c-1.356-0.194-2.723,0.271-3.641,1.288
					c-7.1,7.856-39.085,41.215-73.703,45.236c-2.998,0.348-5.321-2.613-4.339-5.466l14.981-43.549
					c0.696-2.023-0.272-4.241-2.227-5.108L2888.807,1539.316z"/>
				
					<linearGradient id="SVGID_00000157270126289197458110000014668252799517385857_" gradientUnits="userSpaceOnUse" x1="-7705.1479" y1="-3657.6624" x2="-7754.373" y2="-3820.0186" gradientTransform="matrix(-0.746 -0.6659 -0.6659 0.746 -5361.5381 -803.1727)">
					<stop  offset="0" style="stop-color:#A22B25"/>
					<stop  offset="1" style="stop-color:#C0423C"/>
				</linearGradient>
				<path style="fill:url(#SVGID_00000157270126289197458110000014668252799517385857_);" d="M2882.785,1545.498
					c0,0,37.639-25.824,40.389-4.077c2.75,21.747-33.895,31.5-52.045,23.392L2882.785,1545.498z"/>
			</g>
			
				<linearGradient id="SVGID_00000077303638080139936940000012834885112931261855_" gradientUnits="userSpaceOnUse" x1="2717.8801" y1="1584.8463" x2="3640.7092" y2="946.3781">
				<stop  offset="0" style="stop-color:#FF928E"/>
				<stop  offset="1" style="stop-color:#FE7062"/>
			</linearGradient>
			<path style="fill:url(#SVGID_00000077303638080139936940000012834885112931261855_);" d="M3092.893,1576.361
				c-13.986,24.087-113.624-7.659-222.549-70.906c-108.924-63.247-185.887-134.045-171.901-158.132
				c13.986-24.087,113.625,7.659,222.549,70.906C3029.916,1481.477,3106.879,1552.275,3092.893,1576.361z"/>
			
				<linearGradient id="SVGID_00000136396804618485307730000016764879085794050732_" gradientUnits="userSpaceOnUse" x1="3099.1936" y1="1187.5115" x2="2739.7202" y2="1648.9248">
				<stop  offset="0" style="stop-color:#FF928E"/>
				<stop  offset="1" style="stop-color:#FE7062"/>
			</linearGradient>
			<path style="fill:url(#SVGID_00000136396804618485307730000016764879085794050732_);" d="M2798.906,1417.248
				c-7.187-6.149-7.567-17.25-0.828-24.486l71.437-76.688c4.799-4.339,11.552-5.533,17.024-3.01l117.55,54.201
				c6.165,2.842,9.745,9.181,9.125,16.156l-21.75,123.74C2912.461,1490.195,2857.599,1467.465,2798.906,1417.248z"/>
			
				<linearGradient id="SVGID_00000131363187911599491360000003469240609477414789_" gradientUnits="userSpaceOnUse" x1="2935.0959" y1="1737.9093" x2="3021.7087" y2="1881.4286">
				<stop  offset="0" style="stop-color:#4F52FF"/>
				<stop  offset="1" style="stop-color:#4042E2"/>
			</linearGradient>
			<path style="fill:url(#SVGID_00000131363187911599491360000003469240609477414789_);" d="M2940.926,1908.161
				c7.378-41.233,23.655-154.207,28.328-186.865c0.715-4.999,5.268-8.508,10.287-7.951l38.684,4.298
				c5.827,0.647,9.628,6.436,7.906,12.04l-55.184,179.598c-0.938,3.054-3.372,5.418-6.452,6.268l-11.879,3.277
				C2945.976,1920.658,2939.712,1914.942,2940.926,1908.161z"/>
			
				<linearGradient id="SVGID_00000173120477666714891900000016988657980176562833_" gradientUnits="userSpaceOnUse" x1="2720.9524" y1="1694.7612" x2="2832.3823" y2="1879.4037">
				<stop  offset="0" style="stop-color:#4F52FF"/>
				<stop  offset="1" style="stop-color:#4042E2"/>
			</linearGradient>
			<path style="fill:url(#SVGID_00000173120477666714891900000016988657980176562833_);" d="M2770.04,1885.92l-46.955-183.909
				c-1.724-6.752,3.635-13.224,10.59-12.789l47.338,2.959c4.888,0.305,8.88,4.02,9.536,8.874l24.535,181.558
				c0.846,6.262-4.11,11.795-10.427,11.641l-24.917-0.608C2775.141,1893.533,2771.178,1890.377,2770.04,1885.92z"/>
			
				<linearGradient id="SVGID_00000006678943583430272250000009332799583886338213_" gradientUnits="userSpaceOnUse" x1="2779.5215" y1="1860.1665" x2="3028.9148" y2="2273.4175">
				<stop  offset="0" style="stop-color:#4F52FF"/>
				<stop  offset="1" style="stop-color:#4042E2"/>
			</linearGradient>
			<path style="fill:url(#SVGID_00000006678943583430272250000009332799583886338213_);" d="M2838.97,2268.324l-84.716-384.086
				c-1.542-6.993,3.841-13.596,11.001-13.495l198.239,2.819c10.203,0.145,18.651,7.967,19.58,18.129l35.461,387.989
				L2838.97,2268.324z"/>
			
				<linearGradient id="SVGID_00000134950431048770471210000001597401396606212541_" gradientUnits="userSpaceOnUse" x1="2914.6428" y1="2172.981" x2="3018.0471" y2="2344.3245">
				<stop  offset="0" style="stop-color:#4F52FF"/>
				<stop  offset="1" style="stop-color:#4042E2"/>
			</linearGradient>
			<path style="fill:url(#SVGID_00000134950431048770471210000001597401396606212541_);" d="M2822.963,2228.701
				c65.057,10.055,156.351,11.164,271.43,4.163c0.878-0.053,1.586,0.621,1.558,1.5l-1.769,56.046
				c-0.254,8.062-6.86,14.448-14.926,14.489c-95.915,0.487-177.488-6.003-236.298-23.561c-9.13-2.726-15.875-10.441-17.214-19.875
				l-4.419-31.121C2821.188,2229.375,2821.997,2228.552,2822.963,2228.701z"/>
			
				<linearGradient id="SVGID_00000005251897453173302190000016317593370253445822_" gradientUnits="userSpaceOnUse" x1="3160.9944" y1="1888.0801" x2="2847.1853" y2="2385.6912">
				<stop  offset="0" style="stop-color:#A22B25"/>
				<stop  offset="1" style="stop-color:#C0423C"/>
			</linearGradient>
			<path style="fill:url(#SVGID_00000005251897453173302190000016317593370253445822_);" d="M2896.123,2023.544
				c0,0,158.667,89.671,212.204,13.103c11.116-15.899,13.773-31.699,11.035-46.763c47.56-24.015,96.15-30.96,122.852-32.926
				c7.008,36.701,3.303,75.736-18.263,115.188c-93.779,171.547-348.826-9.48-348.826-9.48L2896.123,2023.544z"/>
			<g>
				<path style="fill:#BDD0FB;" d="M2915.188,2136.987l-86.595-302.408c-0.983-3.433-3.912-5.937-7.458-6.35
					c-15.689-1.831-61.151-6.97-113.642-11.41c-63.226-5.348-136.651-9.682-180.527-5.995c-6.238,0.524-10.007,7.122-7.233,12.733
					c24.95,50.479,127.582,255.813,178.976,323.077c1.702,2.229,4.336,3.532,7.14,3.506l200.914-1.87
					C2912.609,2148.217,2916.797,2142.608,2915.188,2136.987z"/>
				
					<linearGradient id="SVGID_00000052086871910530923690000017871883026566712980_" gradientUnits="userSpaceOnUse" x1="-2870.8098" y1="1654.4673" x2="-2914.1755" y2="1844.8994" gradientTransform="matrix(-1 0 0 1 -235.2028 0)">
					<stop  offset="0" style="stop-color:#4F52FF"/>
					<stop  offset="1" style="stop-color:#4042E2"/>
				</linearGradient>
				<path style="fill:url(#SVGID_00000052086871910530923690000017871883026566712980_);" d="M2698.51,1790.602l-62.783-10.461
					c-3.344-0.557-6.082,2.638-5.02,5.856l6.215,18.833c0.542,1.64,1.971,2.826,3.683,3.054l60.416,8.07
					c3.126,0.418,5.702-2.423,4.984-5.493l-3.847-16.442C2701.743,1792.249,2700.304,1790.901,2698.51,1790.602z"/>
				
					<linearGradient id="SVGID_00000039815784015652366030000012089046161173201583_" gradientUnits="userSpaceOnUse" x1="-2893.5054" y1="1734.3475" x2="-2914.2456" y2="1858.7887" gradientTransform="matrix(-1 0 0 1 -235.2028 0)">
					<stop  offset="0" style="stop-color:#4F52FF"/>
					<stop  offset="1" style="stop-color:#4042E2"/>
				</linearGradient>
				<path style="fill:url(#SVGID_00000039815784015652366030000012089046161173201583_);" d="M2745.52,1843.753l-5.172-26.94
					c-0.519-2.702-2.75-4.744-5.487-5.022l-126.807-12.868c-4.268-0.434-7.686,3.478-6.684,7.649l8.062,33.57
					c0.646,2.686,2.983,4.626,5.742,4.765l123.916,6.238C2743.125,1851.349,2746.281,1847.719,2745.52,1843.753z"/>
				
					<linearGradient id="SVGID_00000126280971780284707470000008503145906919007886_" gradientUnits="userSpaceOnUse" x1="-3137.8218" y1="2012.6539" x2="-3022.4548" y2="2012.6539" gradientTransform="matrix(-1 0 0 1 -235.2028 0)">
					<stop  offset="0" style="stop-color:#A22B25"/>
					<stop  offset="1" style="stop-color:#C0423C"/>
				</linearGradient>
				<path style="fill:url(#SVGID_00000126280971780284707470000008503145906919007886_);" d="M2894.265,2063.925
					c0,0,12.063-49.601,7.197-67.199c-4.865-17.598-14.293-40.224-45.717-35.196c-31.425,5.028-68.493,18.266-68.493,18.266
					s1.872,22.922,25.755,15.527l-14.81,11.459c0,0,2.117,18.353,22.29,8.548l-13.775,15.198c0,0,8.664,15.073,23.506,5.405
					C2845.061,2026.266,2852.175,2069.898,2894.265,2063.925z"/>
			</g>
		</g>
		<g>
			
				<linearGradient id="SVGID_00000121960884511820977500000004436226604255942786_" gradientUnits="userSpaceOnUse" x1="1315.9177" y1="2026.2888" x2="922.6836" y2="2538.6855">
				<stop  offset="0" style="stop-color:#4F52FF"/>
				<stop  offset="1" style="stop-color:#4042E2"/>
			</linearGradient>
			<path style="fill:url(#SVGID_00000121960884511820977500000004436226604255942786_);" d="M960.258,2698.813
				c0.014,6.044-4.875,10.956-10.92,10.97l0,0c-6.045,0.014-10.957-4.875-10.97-10.92l-0.886-388.549
				c-0.014-6.045,4.875-10.956,10.921-10.97l0,0c6.044-0.013,10.956,4.876,10.969,10.92L960.258,2698.813z"/>
			
				<linearGradient id="SVGID_00000072252506822074638720000017717911875163857289_" gradientUnits="userSpaceOnUse" x1="880.5399" y1="1883.6156" x2="373.9135" y2="3168.4592">
				<stop  offset="0" style="stop-color:#4F52FF"/>
				<stop  offset="1" style="stop-color:#4042E2"/>
			</linearGradient>
			<path style="fill:url(#SVGID_00000072252506822074638720000017717911875163857289_);" d="M944.527,2503.575
				c-17.101,9.473-74.403-49.281-113.544-113.028c-25.464-41.47-14.725-45.239-35.277-74.371
				c-48.042-68.096-105.169-59.29-126.645-113.875c-15.517-39.439,11.053-52.303-4.591-87.813
				c-28.548-64.796-130.636-52.871-140.451-96.845c-6.465-28.964,30.293-67.855,67.296-84.516
				c103.264-46.493,283.127,53.508,323.403,182.449c21.647,69.304-14.677,90.474,2.921,224.156
				C930.741,2439.259,959.774,2495.127,944.527,2503.575z"/>
			
				<linearGradient id="SVGID_00000062155127914795641540000015579055534987771294_" gradientUnits="userSpaceOnUse" x1="1135.2352" y1="2044.2385" x2="988.9932" y2="2697.1069">
				<stop  offset="0" style="stop-color:#4F52FF"/>
				<stop  offset="1" style="stop-color:#4042E2"/>
			</linearGradient>
			<path style="fill:url(#SVGID_00000062155127914795641540000015579055534987771294_);" d="M937.749,2307.928
				c0,0,59.786-296.198,228.649-222.232c168.863,73.966,29.528,172.691-57.014,175.599c-86.542,2.909-57.571,6.568-96.786,41.041
				C973.384,2336.809,911.239,2394.437,937.749,2307.928z"/>
			<path style="opacity:0.42;fill:#FFFFFF;" d="M589.638,1988.647c25.092-3.681,50.703-4.843,76.202-2.149l9.542,1.207
				c3.178,0.44,6.304,1.221,9.463,1.819c6.353,1.074,12.503,3.04,18.719,4.802c12.218,4.106,24.281,9.174,35.231,16.2l4.177,2.518
				c1.382,0.857,2.646,1.881,3.976,2.816l7.887,5.743l7.352,6.401c1.208,1.082,2.469,2.116,3.641,3.239l3.398,3.484
				c2.249,2.338,4.567,4.616,6.757,7.008l6.252,7.439c1.028,1.249,2.111,2.463,3.096,3.743l2.866,3.91l5.723,7.83
				c14.437,21.444,25.614,44.705,35.297,68.351c18.893,47.557,32.204,96.768,44.116,146.093
				c12.014,49.333,22.242,99.008,32.171,148.764c-7.01-24.388-13.341-48.943-20.104-73.383l-19.687-73.419
				c-6.751-24.404-13.396-48.821-20.968-72.918c-7.43-24.132-15.393-48.084-24.872-71.355
				c-9.335-23.307-20.223-45.988-33.855-66.818l-5.359-7.618l-2.679-3.812c-0.923-1.246-1.934-2.418-2.899-3.632l-5.844-7.228
				c-2.046-2.32-4.213-4.523-6.314-6.793l-3.175-3.385c-1.093-1.09-2.272-2.088-3.405-3.137l-6.846-6.244l-7.319-5.674
				c-1.234-0.924-2.407-1.945-3.694-2.796l-3.891-2.508c-10.185-7.048-21.585-12.106-33.156-16.591
				c-5.904-1.942-11.761-4.111-17.881-5.411c-3.041-0.708-6.045-1.604-9.121-2.164l-9.259-1.609l-4.633-0.836l-4.682-0.525
				l-9.377-1.056c-6.268-0.575-12.579-0.719-18.883-1.102l-18.965,0.033L589.638,1988.647z"/>
			<path style="opacity:0.42;fill:#FFFFFF;" d="M960.259,2299.343c8.202-24.33,17.655-48.275,29.613-71.226
				c11.948-22.857,26.599-44.998,46.457-62.648c9.985-8.673,21.198-16.13,33.406-21.485c12.234-5.243,25.296-8.625,38.465-9.527
				c26.432-2.126,52.348,4.06,76.09,13.551c-25.01-5.506-50.512-9.176-75.25-5.725c-24.695,3.254-47.626,14.243-66.046,30.748
				c-9.384,8.072-17.625,17.52-25.223,27.487c-7.687,9.923-14.464,20.597-21.057,31.427
				C983.703,2253.731,972.296,2276.653,960.259,2299.343z"/>
		</g>
		<g>
			
				<linearGradient id="SVGID_00000144309703373086925640000001326268081009751725_" gradientUnits="userSpaceOnUse" x1="1700.6924" y1="2911.115" x2="1581.6477" y2="3442.5662" gradientTransform="matrix(0.9811 -0.1933 0.1933 0.9811 -604.7609 -5.3996)">
				<stop  offset="0" style="stop-color:#4F52FF"/>
				<stop  offset="1" style="stop-color:#4042E2"/>
			</linearGradient>
			<path style="fill:url(#SVGID_00000144309703373086925640000001326268081009751725_);" d="M1510.273,2763.618
				c0,0,1.152-245.968,147.654-213.458c146.501,32.509,50.75,133.277-17.911,149.214c-68.66,15.937-44.947,14.302-70.843,48.003
				C1543.276,2781.078,1502.709,2836.88,1510.273,2763.618z"/>
			<path style="opacity:0.42;fill:#FFFFFF;" d="M1526.9,2753.221c2.344-20.804,5.93-41.473,11.751-61.773
				c5.822-20.224,14.033-40.322,27.2-57.687c6.672-8.552,14.526-16.337,23.529-22.567c9.052-6.125,19.047-10.906,29.518-13.636
				c20.955-5.764,42.708-4.68,63.121-0.448c-20.886-0.077-41.745,1.226-60.783,7.966c-19.027,6.59-35.372,18.86-47.383,34.817
				c-6.193,7.849-11.262,16.632-15.767,25.731c-4.604,9.07-8.343,18.622-11.981,28.259
				C1539.026,2713.242,1533.322,2733.286,1526.9,2753.221z"/>
			
				<linearGradient id="SVGID_00000050657811345405840320000004388315503671144113_" gradientUnits="userSpaceOnUse" x1="1569.3342" y1="2339.2078" x2="1457.1543" y2="2840.0127" gradientTransform="matrix(0.9789 0.2044 -0.2044 0.9789 635.7354 136.3477)">
				<stop  offset="0" style="stop-color:#4F52FF"/>
				<stop  offset="1" style="stop-color:#4042E2"/>
			</linearGradient>
			<path style="fill:url(#SVGID_00000050657811345405840320000004388315503671144113_);" d="M1518.676,2918.879
				c0,0,79.944-226.066,180.763-139.025c100.819,87.04-4.298,142.517-61.57,130.432c-57.272-12.085-38.735-4.348-69.238,16.594
				C1538.13,2947.823,1489.38,2983.399,1518.676,2918.879z"/>
			<path style="opacity:0.42;fill:#FFFFFF;" d="M1534.646,2915.785c7.414-16.952,15.898-33.396,25.946-49.076
				c10.037-15.631,21.805-30.641,37.07-42.479c7.696-5.757,16.279-10.668,25.66-13.672c9.42-2.794,19.444-3.796,29.071-2.446
				c9.65,1.192,18.785,4.429,27.17,8.68c8.353,4.361,16.072,9.645,23.083,15.692c-16.358-8.46-33.445-15.739-50.956-16.531
				c-8.685-0.313-17.294,0.75-25.365,3.671c-8.074,2.876-15.639,7.258-22.557,12.626c-7.033,5.232-13.419,11.474-19.464,18.087
				c-6.134,6.555-11.696,13.7-17.291,20.873C1555.988,2885.693,1545.675,2900.918,1534.646,2915.785z"/>
			
				<linearGradient id="SVGID_00000099621015356735809800000018170520584599934866_" gradientUnits="userSpaceOnUse" x1="1393.5647" y1="3371.2808" x2="1559.2371" y2="2686.2012">
				<stop  offset="0" style="stop-color:#4F52FF"/>
				<stop  offset="1" style="stop-color:#4042E2"/>
			</linearGradient>
			<path style="fill:url(#SVGID_00000099621015356735809800000018170520584599934866_);" d="M1521.882,3037.122
				c0.011,4.92-3.969,8.918-8.889,8.929l0,0c-4.92,0.011-8.919-3.968-8.929-8.889l-0.721-316.283
				c-0.011-4.921,3.969-8.918,8.89-8.93l0,0c4.92-0.011,8.918,3.969,8.929,8.889L1521.882,3037.122z"/>
			
				<linearGradient id="SVGID_00000083769990801099829670000013720651506747389370_" gradientUnits="userSpaceOnUse" x1="1470.4243" y1="2448.1709" x2="1058.0253" y2="3494.0469">
				<stop  offset="0" style="stop-color:#4F52FF"/>
				<stop  offset="1" style="stop-color:#4042E2"/>
			</linearGradient>
			<path style="fill:url(#SVGID_00000083769990801099829670000013720651506747389370_);" d="M1522.51,2952.824
				c-13.92,7.711-60.565-40.115-92.426-92.006c-20.728-33.758-11.986-36.825-28.716-60.539
				c-39.107-55.431-85.608-48.263-103.09-92.695c-12.631-32.104,8.997-42.575-3.737-71.48
				c-23.238-52.745-106.339-43.038-114.329-78.833c-5.263-23.577,24.659-55.235,54.78-68.797
				c84.058-37.846,230.469,43.556,263.253,148.515c17.621,56.415-11.948,73.646,2.378,182.465
				C1511.289,2900.47,1534.922,2945.948,1522.51,2952.824z"/>
			<path style="opacity:0.42;fill:#FFFFFF;" d="M1233.627,2533.667c20.403-3.18,41.273-4.395,62.09-2.207l7.795,0.95
				c2.597,0.346,5.152,0.972,7.736,1.448c5.194,0.852,10.228,2.435,15.314,3.853c10.008,3.306,19.888,7.432,28.871,13.15
				c4.689,2.558,8.783,5.984,13.163,9.024l6.028,5.226c0.995,0.885,2.026,1.73,2.988,2.646l2.788,2.845
				c7.683,7.388,14.043,15.9,20.252,24.442c11.824,17.514,20.948,36.503,28.865,55.782c15.393,38.794,26.195,78.889,35.75,119.09
				c9.584,40.219,17.885,80.659,25.479,121.278c-11.676-39.641-22.117-79.595-33.1-119.317c-5.579-19.837-11-39.7-17.208-59.284
				c-6.068-19.617-12.553-39.089-20.265-57.989c-7.565-18.94-16.404-37.347-27.423-54.247c-5.73-8.254-11.584-16.501-18.653-23.595
				l-2.564-2.747c-0.883-0.883-1.835-1.693-2.748-2.545l-5.529-5.066c-3.993-2.979-7.716-6.378-12.024-8.927
				c-16.627-11.19-36.108-17.832-56.179-21.139C1274.949,2532.855,1254.244,2532.693,1233.627,2533.667z"/>
		</g>
	</g>
</g>
</svg>
