<?xml version="1.0" encoding="utf-8"?>
<!-- Generator: Adobe Illustrator 27.5.0, SVG Export Plug-In . SVG Version: 6.00 Build 0)  -->
<svg version="1.1" xmlns="http://www.w3.org/2000/svg" xmlns:xlink="http://www.w3.org/1999/xlink" x="0px" y="0px"
	 viewBox="0 0 500 500" style="enable-background:new 0 0 500 500;" xml:space="preserve">
<g id="Background_Complete">
	<g>
		<g>
			<g>
				<g>
					<path style="fill:#EBEBEB;" d="M423.466,198.68c0.661-4.799-6.112-8.747-11.202-9.157c-2.427-0.196-4.948,0.175-7.247-0.626
						c-4.981-1.736-6.971-8.172-11.832-10.222c-3.634-1.533-7.818-0.168-11.341,1.605c-3.523,1.773-7.005,4.005-10.941,4.257
						c-3.424,0.219-7.141-1.051-10.137,0.622c-2.232,1.246-3.401,3.818-5.459,5.335c-2.013,1.484-4.638,1.799-7.135,1.935
						c-2.497,0.136-5.083,0.161-7.357,1.202c-2.274,1.041-4.155,3.446-3.683,5.902L423.466,198.68z"/>
				</g>
			</g>
		</g>
	</g>
	<g>
		<g>
			<g>
				<g>
					<path style="fill:#F5F5F5;" d="M430.988,60c0.605-4.394-5.596-8.008-10.255-8.383c-2.222-0.179-4.53,0.161-6.635-0.573
						c-4.56-1.589-6.382-7.481-10.832-9.358c-3.327-1.403-7.157-0.154-10.382,1.469c-3.225,1.623-6.412,3.666-10.016,3.897
						c-3.134,0.201-6.538-0.962-9.28,0.569c-2.043,1.141-3.114,3.495-4.997,4.885c-1.842,1.359-4.246,1.647-6.532,1.771
						c-2.286,0.124-4.653,0.148-6.735,1.101c-2.082,0.953-3.804,3.154-3.372,5.403L430.988,60z"/>
				</g>
			</g>
		</g>
	</g>
	<g>
		<g>
			<g>
				<g>
					<path style="fill:#F5F5F5;" d="M193.585,56.196c0.605-4.393-5.596-8.008-10.255-8.383c-2.222-0.179-4.53,0.161-6.635-0.573
						c-4.56-1.589-6.382-7.481-10.832-9.358c-3.327-1.403-7.157-0.154-10.382,1.469c-3.225,1.623-6.412,3.666-10.016,3.897
						c-3.134,0.201-6.538-0.962-9.28,0.569c-2.043,1.141-3.114,3.495-4.997,4.884c-1.842,1.359-4.246,1.647-6.532,1.771
						c-2.286,0.124-4.653,0.148-6.735,1.101c-2.082,0.953-3.804,3.154-3.372,5.403L193.585,56.196z"/>
				</g>
			</g>
		</g>
	</g>
	<g>
		<g>
			<g>
				<g>
					<path style="fill:#F5F5F5;" d="M299.166,149.214c0.833-6.05-7.706-11.028-14.123-11.545c-3.06-0.247-6.238,0.221-9.137-0.789
						c-6.281-2.189-8.789-10.303-14.918-12.888c-4.581-1.932-9.856-0.212-14.298,2.023c-4.442,2.235-8.831,5.049-13.793,5.366
						c-4.316,0.276-9.004-1.325-12.78,0.784c-2.814,1.571-4.288,4.814-6.882,6.727c-2.537,1.872-5.848,2.268-8.996,2.439
						c-3.148,0.171-6.408,0.203-9.275,1.516c-2.867,1.313-5.239,4.344-4.644,7.441L299.166,149.214z"/>
				</g>
			</g>
		</g>
	</g>
	<g>
		<g>
			<g>
				<g>
					<path style="fill:#F5F5F5;" d="M373.147,114.72c0.438-3.178-4.048-5.793-7.419-6.064c-1.607-0.13-3.277,0.116-4.8-0.415
						c-3.299-1.15-4.617-5.412-7.836-6.77c-2.407-1.015-5.177-0.111-7.511,1.063c-2.333,1.174-4.639,2.652-7.246,2.819
						c-2.267,0.145-4.73-0.696-6.713,0.412c-1.478,0.825-2.253,2.529-3.615,3.534c-1.333,0.983-3.072,1.191-4.726,1.281
						c-1.654,0.09-3.366,0.107-4.872,0.796c-1.506,0.69-2.752,2.282-2.439,3.909L373.147,114.72z"/>
				</g>
			</g>
		</g>
	</g>
	<g>
		<rect x="14.889" y="421.42" style="fill:#EBEBEB;" width="475.295" height="62.099"/>
	</g>
	<g>
		<g>
			<g>
				<rect x="53.285" y="454.581" style="fill:#E0E0E0;" width="41.969" height="11.103"/>
			</g>
		</g>
		<g>
			<g>
				<g>
					<path style="fill:#E0E0E0;" d="M77.508,477.379c-0.004-0.004-0.009-0.072-0.013-0.202c-0.004-0.149-0.008-0.336-0.014-0.569
						c-0.007-0.523-0.018-1.251-0.031-2.185c-0.017-1.917-0.041-4.672-0.072-8.147l0.13,0.13c-9.583,0.019-24.823,0.05-41.967,0.084
						c0.095-0.095-0.216,0.213,0.211-0.214v0.003v0.006v0.011v0.022v0.045v0.089v0.179l0,0.357v0.712c0,0.474,0,0.946,0,1.416
						c0,0.941-0.001,1.875-0.001,2.802c-0.001,1.853-0.002,3.676-0.004,5.461l-0.209-0.209c11.951,0.038,22.408,0.071,29.909,0.095
						c3.736,0.025,6.734,0.045,8.828,0.06c1.019,0.012,1.816,0.021,2.387,0.027c0.257,0.006,0.462,0.01,0.624,0.013
						C77.429,477.369,77.503,477.374,77.508,477.379c0.005,0.004-0.061,0.009-0.194,0.013c-0.155,0.004-0.352,0.008-0.599,0.013
						c-0.56,0.007-1.343,0.016-2.342,0.027c-2.083,0.014-5.064,0.034-8.78,0.06c-7.537,0.024-18.045,0.057-30.054,0.095
						l-0.209,0.001l0-0.21c-0.001-1.785-0.002-3.608-0.004-5.461c0-0.927-0.001-1.861-0.001-2.802c0-0.47,0-0.943,0-1.416l0-0.712
						v-0.357v-0.179v-0.089v-0.045v-0.022v-0.011v-0.006v-0.003c0.428-0.428,0.12-0.119,0.216-0.214
						c17.144,0.034,32.384,0.065,41.967,0.084l0.131,0l-0.001,0.13c-0.031,3.507-0.055,6.289-0.072,8.224
						c-0.014,0.922-0.024,1.64-0.032,2.156c-0.005,0.224-0.01,0.404-0.014,0.547C77.516,477.323,77.512,477.383,77.508,477.379z"/>
				</g>
			</g>
		</g>
	</g>
	<g>
		<g>
			<g>
				<rect x="384.826" y="452.097" style="fill:#E0E0E0;" width="41.969" height="11.103"/>
			</g>
		</g>
		<g>
			<g>
				<g>
					<path style="fill:#E0E0E0;" d="M409.049,474.894c-0.004-0.004-0.009-0.072-0.013-0.202c-0.004-0.149-0.008-0.336-0.014-0.57
						c-0.007-0.522-0.018-1.251-0.031-2.185c-0.017-1.917-0.041-4.672-0.072-8.146l0.13,0.13c-9.583,0.019-24.823,0.05-41.967,0.084
						c0.094-0.095-0.216,0.213,0.211-0.214v0.003v0.006v0.011v0.022v0.045v0.089v0.179l0,0.357v0.712c0,0.474,0,0.946,0,1.416
						c0,0.941-0.001,1.875-0.001,2.802c-0.001,1.853-0.002,3.676-0.003,5.461l-0.209-0.209c11.951,0.038,22.408,0.071,29.909,0.095
						c3.736,0.025,6.734,0.045,8.828,0.06c1.018,0.012,1.816,0.021,2.387,0.027c0.257,0.006,0.462,0.01,0.624,0.014
						C408.97,474.885,409.045,474.889,409.049,474.894c0.004,0.005-0.061,0.009-0.194,0.014c-0.155,0.003-0.352,0.008-0.599,0.013
						c-0.56,0.007-1.343,0.016-2.342,0.027c-2.083,0.014-5.064,0.034-8.78,0.06c-7.537,0.024-18.045,0.057-30.054,0.095
						l-0.209,0.001l0-0.21c-0.001-1.785-0.002-3.608-0.004-5.461c0-0.927-0.001-1.861-0.001-2.802c0-0.47,0-0.943,0-1.416l0-0.712
						v-0.357v-0.179v-0.089v-0.045v-0.022V463.8v-0.006v-0.003c0.428-0.428,0.12-0.119,0.217-0.214
						c17.144,0.034,32.384,0.065,41.967,0.084l0.131,0l-0.001,0.13c-0.031,3.507-0.055,6.289-0.072,8.224
						c-0.014,0.922-0.024,1.64-0.032,2.156c-0.005,0.224-0.01,0.404-0.014,0.547C409.058,474.839,409.053,474.898,409.049,474.894z"
						/>
				</g>
			</g>
		</g>
	</g>
	<g>
		<g>
			<g>
				<g>
					<path style="fill:#E0E0E0;" d="M243.345,474.937c-0.004-0.004-0.009-0.072-0.013-0.202c-0.003-0.149-0.008-0.336-0.014-0.57
						c-0.008-0.522-0.018-1.251-0.032-2.185c-0.017-1.917-0.041-4.672-0.072-8.146l0.13,0.13
						c-9.583,0.019-24.823,0.049-41.967,0.084c0.095-0.095-0.216,0.213,0.211-0.214v0.003v0.006v0.011v0.022v0.045v0.089l0,0.179
						v0.357v0.712c0,0.474,0,0.946,0,1.416c0,0.941-0.001,1.875-0.001,2.802c-0.001,1.853-0.002,3.676-0.003,5.461l-0.209-0.209
						c11.951,0.038,22.408,0.071,29.909,0.095c3.736,0.025,6.734,0.045,8.828,0.06c1.019,0.012,1.816,0.021,2.387,0.027
						c0.257,0.005,0.462,0.01,0.624,0.013C243.266,474.928,243.34,474.932,243.345,474.937c0.005,0.005-0.061,0.009-0.194,0.014
						c-0.155,0.003-0.352,0.008-0.599,0.013c-0.56,0.007-1.343,0.016-2.342,0.027c-2.083,0.014-5.064,0.034-8.78,0.06
						c-7.537,0.024-18.045,0.057-30.054,0.095l-0.209,0.001l0-0.21c-0.001-1.785-0.002-3.608-0.004-5.461
						c0-0.927,0-1.861-0.001-2.802c0-0.47,0-0.943,0-1.416l0-0.712v-0.357v-0.179v-0.089v-0.045v-0.022v-0.011v-0.006v-0.003
						c0.428-0.428,0.12-0.119,0.216-0.214c17.144,0.034,32.384,0.065,41.967,0.084l0.131,0l-0.001,0.13
						c-0.031,3.507-0.055,6.289-0.072,8.224c-0.014,0.922-0.024,1.64-0.032,2.156c-0.006,0.224-0.01,0.404-0.014,0.547
						C243.353,474.882,243.349,474.941,243.345,474.937z"/>
				</g>
			</g>
		</g>
		<g>
			<g>
				<g>
					<path style="fill:#E0E0E0;" d="M249.035,463.834c-0.005-0.005-0.011-0.077-0.016-0.211c-0.005-0.159-0.01-0.352-0.017-0.588
						c-0.009-0.546-0.022-1.289-0.038-2.226c-0.02-1.947-0.048-4.696-0.083-8.077l0.154,0.154c-6.533,0.016-15.42,0.037-25.215,0.06
						c-0.192,0.191,0.258-0.261,0.212-0.213v0.003v0.006v0.011v0.023v0.046v0.091v0.183v0.364l0,0.726c0,0.483,0,0.963-0.001,1.44
						c-0.001,0.954-0.001,1.897-0.002,2.826c-0.003,1.857-0.005,3.658-0.008,5.383l-0.203-0.203
						c7.279,0.039,13.547,0.073,18.038,0.097c2.215,0.024,3.991,0.043,5.255,0.056c0.59,0.011,1.06,0.019,1.417,0.026
						C248.854,463.817,249.027,463.826,249.035,463.834c0.008,0.008-0.148,0.017-0.458,0.025c-0.346,0.006-0.802,0.015-1.375,0.026
						c-1.253,0.013-3.012,0.032-5.208,0.056c-4.526,0.024-10.841,0.058-18.176,0.097l-0.203,0.001l0-0.205
						c-0.002-1.725-0.005-3.526-0.008-5.383c-0.001-0.929-0.001-1.872-0.002-2.826c0-0.477,0-0.957-0.001-1.44l0-0.726v-0.364
						v-0.183v-0.091v-0.046v-0.023v-0.011v-0.006v-0.003c-0.047,0.045,0.406-0.406,0.216-0.215
						c9.795,0.023,18.682,0.045,25.215,0.06l0.155,0l-0.002,0.153c-0.035,3.42-0.063,6.201-0.083,8.171
						c-0.016,0.923-0.029,1.654-0.038,2.192C249.056,463.59,249.046,463.845,249.035,463.834z"/>
				</g>
			</g>
		</g>
	</g>
</g>
<g id="Background_Simple" style="display:none;">
	<g style="display:inline;">
		<path style="fill:#F5F5F5;" d="M467.919,64.926l-1.248-2.057c-10.523-17.341-29.55-27.795-49.609-26.526
			c-2.579,0.163-5.146,0.512-7.679,1.054c-18.239,3.904-34.108,17.696-40.686,35.36c-3.869,10.388-4.949,22.349-12.291,30.595
			c-9.554,10.731-25.775,11.069-40.037,10.624c-14.262-0.445-30.493-0.065-40.001,10.708c-5.955,6.747-7.847,16.343-7.367,25.379
			c1.271,23.924,17.942,45.315,39.142,55.948c21.201,10.633,46.162,11.585,69.365,6.908c32.504-6.552,63.416-24.546,81.996-52.339
			C478.083,132.787,482.785,94.923,467.919,64.926z"/>
	</g>
</g>
<g id="Birds">
	<g>
		<g>
			<g>
				<g>
					<g>
						<path style="fill:#263238;" d="M414.802,138.186c-0.011,0.032-0.559-0.193-1.593-0.423c-1.029-0.226-2.573-0.426-4.446-0.171
							c-1.859,0.249-4.063,0.996-5.991,2.584c-1.924,1.558-3.571,3.917-4.229,6.715c-0.007,0.025-0.013,0.051-0.019,0.074
							l-0.123,0.48l-0.184-0.455c-1.077-2.658-2.989-4.771-5.063-6.114c-2.08-1.368-4.317-1.934-6.183-2.062
							c-1.878-0.131-3.402,0.139-4.418,0.404c-1.02,0.269-1.559,0.506-1.57,0.475c-0.004-0.01,0.128-0.074,0.384-0.185
							c0.256-0.113,0.642-0.261,1.153-0.411c1.015-0.305,2.553-0.615,4.466-0.511c1.899,0.1,4.193,0.654,6.33,2.039
							c2.13,1.36,4.097,3.515,5.202,6.243l-0.307,0.025c0.006-0.024,0.013-0.05,0.02-0.077c0.677-2.877,2.374-5.289,4.356-6.873
							c1.987-1.615,4.253-2.356,6.149-2.579c1.911-0.23,3.474,0.009,4.504,0.275c0.518,0.13,0.912,0.265,1.172,0.371
							C414.672,138.117,414.806,138.176,414.802,138.186z"/>
					</g>
				</g>
			</g>
		</g>
		<g>
			<g>
				<g>
					<g>
						<path style="fill:#263238;" d="M444.254,147.993c-0.01,0.027-0.314-0.088-0.883-0.205c-0.565-0.115-1.411-0.216-2.432-0.071
							c-1.015,0.143-2.212,0.555-3.26,1.422c-1.046,0.851-1.94,2.137-2.297,3.658l-0.01,0.04l-0.123,0.48l-0.184-0.455
							c-0.586-1.446-1.625-2.599-2.754-3.334c-1.131-0.748-2.349-1.062-3.368-1.139c-1.026-0.078-1.86,0.061-2.419,0.198
							c-0.561,0.139-0.861,0.26-0.871,0.234c-0.004-0.01,0.066-0.05,0.206-0.116c0.139-0.067,0.351-0.152,0.632-0.24
							c0.558-0.177,1.408-0.356,2.467-0.305c1.052,0.049,2.326,0.351,3.515,1.117c1.184,0.752,2.278,1.947,2.892,3.463l-0.307,0.025
							l0.011-0.042c0.376-1.6,1.322-2.939,2.425-3.816c1.106-0.894,2.367-1.3,3.418-1.417c1.06-0.121,1.923,0.02,2.491,0.175
							c0.285,0.076,0.501,0.155,0.643,0.218C444.185,147.945,444.258,147.983,444.254,147.993z"/>
					</g>
				</g>
			</g>
		</g>
		<g>
			<g>
				<g>
					<g>
						<path style="fill:#263238;" d="M427.856,98.515c0.02,0.02-0.304,0.349-0.855,0.969c-0.551,0.62-1.302,1.561-2.086,2.816
							c-1.576,2.479-3.152,6.43-3.098,10.963c0,0.047-0.001,0.095-0.001,0.138l-0.321,0.026c-0.335-2.212-1.073-4.241-2.004-5.937
							c-0.929-1.701-2.021-3.083-3.052-4.123c-1.03-1.043-1.969-1.779-2.646-2.243c-0.675-0.467-1.066-0.702-1.052-0.727
							c0.005-0.01,0.108,0.04,0.299,0.143c0.188,0.109,0.479,0.248,0.822,0.48c0.702,0.436,1.673,1.151,2.737,2.187
							c1.065,1.032,2.192,2.419,3.151,4.14c0.961,1.715,1.722,3.779,2.064,6.034l-0.321,0.026c0-0.044,0.001-0.092,0.001-0.14
							c-0.055-4.612,1.585-8.615,3.228-11.089c0.817-1.254,1.603-2.182,2.186-2.779c0.281-0.309,0.531-0.518,0.689-0.67
							C427.759,98.581,427.848,98.507,427.856,98.515z"/>
					</g>
				</g>
			</g>
		</g>
	</g>
</g>
<g id="Sun">
	<g>
		<g>
			<g>
				<circle style="fill-rule:evenodd;clip-rule:evenodd;fill:#FF725E;" cx="247.673" cy="72.272" r="28.76"/>
			</g>
			<g style="opacity:0.9;">
				<circle style="fill-rule:evenodd;clip-rule:evenodd;fill:#FFFFFF;" cx="247.673" cy="72.272" r="28.76"/>
			</g>
		</g>
		<g>
			<g>
				<circle style="fill-rule:evenodd;clip-rule:evenodd;fill:#FF725E;" cx="247.673" cy="72.272" r="25.649"/>
			</g>
			<g style="opacity:0.6;">
				<circle style="fill-rule:evenodd;clip-rule:evenodd;fill:#FFFFFF;" cx="247.673" cy="72.272" r="25.649"/>
			</g>
		</g>
		<g>
			<g>
				<circle style="fill-rule:evenodd;clip-rule:evenodd;fill:#FF725E;" cx="247.673" cy="72.272" r="21.343"/>
			</g>
			<g style="opacity:0.3;">
				<circle style="fill-rule:evenodd;clip-rule:evenodd;fill:#FFFFFF;" cx="247.673" cy="72.272" r="21.343"/>
			</g>
		</g>
		<g>
			<circle style="fill-rule:evenodd;clip-rule:evenodd;fill:#FF725E;" cx="247.673" cy="72.272" r="17.089"/>
		</g>
	</g>
</g>
<g id="Roof">
	<g>
		<g>
			<polygon style="fill:#AE7461;" points="14.889,405.84 15.376,346.573 490.184,346.573 490.184,405.792 			"/>
			<path style="fill:#263238;" d="M14.889,405.866h-0.025l0-0.025l0.486-59.292H490.21v59.27h-0.025L14.889,405.866z
				 M15.401,346.599l-0.486,59.216l475.244-0.048v-59.168H15.401z"/>
		</g>
		<g style="opacity:0.2;">
			<rect x="14.889" y="400.219" width="475.295" height="5.574"/>
		</g>
		<g>
			<g>
				<path style="fill:#263238;" d="M490.184,405.792c0,0.144-106.407,0.26-237.636,0.26c-131.275,0-237.659-0.116-237.659-0.26
					c0-0.144,106.384-0.26,237.659-0.26C383.777,405.532,490.184,405.648,490.184,405.792z"/>
			</g>
		</g>
		<g>
			<g>
				<path style="fill:#263238;" d="M490.184,400.219c0,0.144-106.407,0.26-237.636,0.26c-131.275,0-237.659-0.117-237.659-0.26
					s106.384-0.26,237.659-0.26C383.777,399.958,490.184,400.075,490.184,400.219z"/>
			</g>
		</g>
		<g>
			<g>
				<path style="fill:#263238;" d="M206.728,346.573c0.015,0.01-0.102,0.223-0.339,0.621c-0.269,0.439-0.62,1.012-1.056,1.726
					c-0.969,1.537-2.316,3.675-3.966,6.295c-3.42,5.333-8.091,12.616-13.251,20.662c-6.646,10.292-12.526,19.311-15.91,24.418
					l0.023-0.076c-0.028,1.728-0.05,3.108-0.066,4.117c-0.015,0.438-0.027,0.796-0.036,1.085c-0.012,0.246-0.025,0.372-0.038,0.372
					s-0.026-0.127-0.038-0.372c-0.01-0.289-0.022-0.646-0.036-1.085c-0.016-1.008-0.038-2.388-0.066-4.117l-0.001-0.04l0.023-0.037
					c3.262-5.185,9.063-14.256,15.709-24.548c5.21-8.014,9.926-15.268,13.379-20.579c1.709-2.582,3.103-4.69,4.105-6.205
					c0.471-0.692,0.849-1.247,1.138-1.673C206.566,346.758,206.713,346.563,206.728,346.573z"/>
			</g>
		</g>
		<g>
			<g>
				<path style="fill:#263238;" d="M65.289,346.573c0.015,0.01-0.102,0.223-0.339,0.621c-0.269,0.439-0.619,1.012-1.056,1.726
					c-0.969,1.537-2.316,3.675-3.966,6.295c-3.42,5.333-8.091,12.616-13.251,20.662c-6.646,10.292-12.526,19.311-15.91,24.418
					l0.022-0.076c-0.028,1.728-0.05,3.108-0.066,4.117c-0.015,0.438-0.027,0.796-0.036,1.085c-0.013,0.246-0.025,0.372-0.038,0.372
					c-0.013,0-0.026-0.127-0.038-0.372c-0.01-0.289-0.022-0.646-0.036-1.085c-0.016-1.008-0.038-2.388-0.066-4.117l-0.001-0.04
					l0.023-0.037c3.262-5.185,9.063-14.256,15.709-24.548c5.21-8.014,9.926-15.268,13.379-20.579
					c1.709-2.582,3.103-4.69,4.105-6.205c0.471-0.692,0.849-1.247,1.138-1.673C65.128,346.758,65.274,346.563,65.289,346.573z"/>
			</g>
		</g>
		<g>
			<g>
				<path style="fill:#263238;" d="M467.415,346.573c0.016,0.008-0.067,0.221-0.241,0.619c-0.201,0.445-0.46,1.019-0.782,1.73
					c-0.727,1.551-1.732,3.696-2.963,6.322c-2.571,5.367-6.078,12.686-9.951,20.772c-4.89,10.121-9.242,19.024-11.851,24.265
					l0.014-0.063c-0.029,1.712-0.051,3.091-0.068,4.106c-0.015,0.439-0.028,0.798-0.038,1.091c-0.013,0.247-0.026,0.376-0.04,0.376
					c-0.014,0-0.027-0.128-0.04-0.376c-0.01-0.293-0.023-0.652-0.038-1.091c-0.017-1.015-0.04-2.394-0.068-4.106l0-0.031
					l0.015-0.032c2.484-5.301,6.754-14.243,11.644-24.365c3.927-8.06,7.482-15.356,10.089-20.706
					c1.293-2.596,2.349-4.717,3.112-6.25c0.358-0.694,0.646-1.254,0.87-1.688C467.284,346.763,467.399,346.565,467.415,346.573z"/>
			</g>
		</g>
		<g>
			<g>
				<path style="fill:#263238;" d="M335.458,346.573c0.016,0.008-0.067,0.221-0.241,0.619c-0.201,0.445-0.46,1.019-0.782,1.73
					c-0.727,1.551-1.732,3.696-2.963,6.322c-2.571,5.367-6.078,12.686-9.951,20.772c-4.89,10.121-9.242,19.024-11.851,24.265
					l0.014-0.063c-0.028,1.712-0.051,3.091-0.068,4.106c-0.015,0.439-0.028,0.798-0.038,1.091c-0.013,0.247-0.026,0.376-0.04,0.376
					c-0.014,0-0.027-0.128-0.04-0.376c-0.01-0.293-0.023-0.652-0.038-1.091c-0.017-1.015-0.04-2.394-0.068-4.106l0-0.031
					l0.015-0.032c2.484-5.301,6.754-14.243,11.644-24.365c3.927-8.06,7.482-15.356,10.089-20.706
					c1.293-2.596,2.349-4.717,3.112-6.25c0.358-0.694,0.646-1.254,0.87-1.688C335.327,346.763,335.442,346.565,335.458,346.573z"/>
			</g>
		</g>
		<g>
			<polygon style="fill:#AE7461;" points="14.889,349.302 15.376,290.035 490.184,290.035 490.184,349.254 			"/>
			<path style="fill:#263238;" d="M14.889,349.327h-0.025l0-0.025l0.486-59.292H490.21v59.271h-0.025L14.889,349.327z
				 M15.401,290.06l-0.486,59.216l475.244-0.047V290.06H15.401z"/>
		</g>
		<g style="opacity:0.2;">
			<rect x="14.889" y="343.68" width="475.295" height="5.574"/>
		</g>
		<g>
			<g>
				<path style="fill:#263238;" d="M490.184,349.254c0,0.144-106.407,0.26-237.636,0.26c-131.275,0-237.659-0.116-237.659-0.26
					c0-0.144,106.384-0.26,237.659-0.26C383.777,348.993,490.184,349.11,490.184,349.254z"/>
			</g>
		</g>
		<g>
			<g>
				<path style="fill:#263238;" d="M490.184,343.68c0,0.144-106.407,0.26-237.636,0.26c-131.275,0-237.659-0.117-237.659-0.26
					c0-0.144,106.384-0.26,237.659-0.26C383.777,343.42,490.184,343.536,490.184,343.68z"/>
			</g>
		</g>
		<g>
			<g>
				<path style="fill:#263238;" d="M206.728,290.035c0.015,0.01-0.102,0.223-0.339,0.621c-0.269,0.439-0.62,1.012-1.056,1.726
					c-0.969,1.538-2.316,3.675-3.966,6.295c-3.42,5.333-8.091,12.616-13.251,20.662c-6.646,10.292-12.526,19.311-15.91,24.418
					l0.023-0.076c-0.028,1.728-0.05,3.108-0.066,4.117c-0.015,0.438-0.027,0.796-0.036,1.085c-0.012,0.245-0.025,0.372-0.038,0.372
					s-0.026-0.127-0.038-0.372c-0.01-0.289-0.022-0.646-0.036-1.085c-0.016-1.008-0.038-2.388-0.066-4.117l-0.001-0.04l0.023-0.037
					c3.262-5.185,9.063-14.256,15.709-24.548c5.21-8.014,9.926-15.268,13.379-20.579c1.709-2.582,3.103-4.69,4.105-6.205
					c0.471-0.692,0.849-1.247,1.138-1.673C206.566,290.22,206.713,290.025,206.728,290.035z"/>
			</g>
		</g>
		<g>
			<g>
				<path style="fill:#263238;" d="M65.289,290.035c0.015,0.01-0.102,0.223-0.339,0.621c-0.269,0.439-0.619,1.012-1.056,1.726
					c-0.969,1.538-2.316,3.675-3.966,6.295c-3.42,5.333-8.091,12.616-13.251,20.662c-6.646,10.292-12.526,19.311-15.91,24.418
					l0.022-0.076c-0.028,1.728-0.05,3.108-0.066,4.117c-0.015,0.438-0.027,0.796-0.036,1.085c-0.013,0.245-0.025,0.372-0.038,0.372
					c-0.013,0-0.026-0.127-0.038-0.372c-0.01-0.289-0.022-0.646-0.036-1.085c-0.016-1.008-0.038-2.388-0.066-4.117l-0.001-0.04
					l0.023-0.037c3.262-5.185,9.063-14.256,15.709-24.548c5.21-8.014,9.926-15.268,13.379-20.579
					c1.709-2.582,3.103-4.69,4.105-6.205c0.471-0.692,0.849-1.247,1.138-1.673C65.128,290.22,65.274,290.025,65.289,290.035z"/>
			</g>
		</g>
		<g>
			<g>
				<path style="fill:#263238;" d="M467.415,290.035c0.016,0.008-0.067,0.221-0.241,0.619c-0.201,0.445-0.46,1.019-0.782,1.73
					c-0.727,1.551-1.732,3.696-2.963,6.322c-2.571,5.367-6.078,12.686-9.951,20.772c-4.89,10.121-9.242,19.024-11.851,24.265
					l0.014-0.063c-0.029,1.712-0.051,3.091-0.068,4.106c-0.015,0.439-0.028,0.798-0.038,1.091c-0.013,0.247-0.026,0.376-0.04,0.376
					c-0.014,0-0.027-0.129-0.04-0.376c-0.01-0.293-0.023-0.652-0.038-1.091c-0.017-1.015-0.04-2.394-0.068-4.106l0-0.031
					l0.015-0.032c2.484-5.301,6.754-14.243,11.644-24.365c3.927-8.06,7.482-15.356,10.089-20.706
					c1.293-2.596,2.349-4.717,3.112-6.25c0.358-0.694,0.646-1.254,0.87-1.688C467.284,290.225,467.399,290.027,467.415,290.035z"/>
			</g>
		</g>
		<g>
			<g>
				<path style="fill:#263238;" d="M335.458,290.035c0.016,0.008-0.067,0.221-0.241,0.619c-0.201,0.445-0.46,1.019-0.782,1.73
					c-0.727,1.551-1.732,3.696-2.963,6.322c-2.571,5.367-6.078,12.686-9.951,20.772c-4.89,10.121-9.242,19.024-11.851,24.265
					l0.014-0.063c-0.028,1.712-0.051,3.091-0.068,4.106c-0.015,0.439-0.028,0.798-0.038,1.091c-0.013,0.247-0.026,0.376-0.04,0.376
					c-0.014,0-0.027-0.129-0.04-0.376c-0.01-0.293-0.023-0.652-0.038-1.091c-0.017-1.015-0.04-2.394-0.068-4.106l0-0.031
					l0.015-0.032c2.484-5.301,6.754-14.243,11.644-24.365c3.927-8.06,7.482-15.356,10.089-20.706
					c1.293-2.596,2.349-4.717,3.112-6.25c0.358-0.694,0.646-1.254,0.87-1.688C335.327,290.225,335.442,290.027,335.458,290.035z"/>
			</g>
		</g>
		<g>
			<rect x="15.626" y="228.199" style="fill:#6F4439;" width="472.891" height="10.532"/>
			<path style="fill:#263238;" d="M488.543,238.756H15.602v-10.582h472.941V238.756z M15.651,238.706h472.84v-10.482H15.651V238.706
				z"/>
		</g>
		<g>
			<polygon style="fill:#AE7461;" points="14.889,298.328 15.376,239.061 490.184,239.061 490.184,298.28 			"/>
			<path style="fill:#263238;" d="M14.889,298.354h-0.025l0-0.025l0.486-59.292H490.21v59.27h-0.025L14.889,298.354z
				 M15.401,239.086l-0.486,59.217l475.244-0.048v-59.169H15.401z"/>
		</g>
		<g style="opacity:0.2;">
			<rect x="14.889" y="292.707" width="475.295" height="5.574"/>
		</g>
		<g>
			<g>
				<path style="fill:#263238;" d="M490.184,227.869c0,0.144-106.407,0.26-237.636,0.26c-131.275,0-237.659-0.117-237.659-0.26
					c0-0.144,106.384-0.26,237.659-0.26C383.777,227.609,490.184,227.725,490.184,227.869z"/>
			</g>
		</g>
		<g>
			<g>
				<path style="fill:#263238;" d="M490.184,239.061c0,0.144-106.407,0.26-237.636,0.26c-131.275,0-237.659-0.117-237.659-0.26
					s106.384-0.26,237.659-0.26C383.777,238.801,490.184,238.917,490.184,239.061z"/>
			</g>
		</g>
		<g>
			<g>
				<path style="fill:#263238;" d="M490.184,298.28c0,0.144-106.407,0.26-237.636,0.26c-131.275,0-237.659-0.117-237.659-0.26
					s106.384-0.26,237.659-0.26C383.777,298.02,490.184,298.136,490.184,298.28z"/>
			</g>
		</g>
		<g>
			<g>
				<path style="fill:#263238;" d="M490.184,292.707c0,0.144-106.407,0.26-237.636,0.26c-131.275,0-237.659-0.117-237.659-0.26
					c0-0.144,106.384-0.26,237.659-0.26C383.777,292.446,490.184,292.563,490.184,292.707z"/>
			</g>
		</g>
		<g>
			<g>
				<path style="fill:#263238;" d="M206.728,239.061c0.015,0.01-0.102,0.223-0.339,0.621c-0.269,0.439-0.62,1.012-1.056,1.726
					c-0.969,1.537-2.316,3.675-3.966,6.295c-3.42,5.333-8.091,12.615-13.251,20.662c-6.646,10.292-12.526,19.311-15.91,24.418
					l0.023-0.076c-0.028,1.728-0.05,3.108-0.066,4.117c-0.015,0.438-0.027,0.796-0.036,1.085c-0.012,0.245-0.025,0.372-0.038,0.372
					s-0.026-0.127-0.038-0.372c-0.01-0.289-0.022-0.646-0.036-1.085c-0.016-1.008-0.038-2.388-0.066-4.117l-0.001-0.04l0.023-0.037
					c3.262-5.185,9.063-14.256,15.709-24.548c5.21-8.014,9.926-15.268,13.379-20.579c1.709-2.582,3.103-4.69,4.105-6.205
					c0.471-0.692,0.849-1.247,1.138-1.673C206.566,239.246,206.713,239.051,206.728,239.061z"/>
			</g>
		</g>
		<g>
			<g>
				<path style="fill:#263238;" d="M467.415,239.061c0.016,0.008-0.067,0.221-0.241,0.619c-0.201,0.445-0.46,1.019-0.782,1.73
					c-0.727,1.551-1.732,3.696-2.963,6.322c-2.571,5.367-6.078,12.686-9.951,20.772c-4.89,10.121-9.242,19.024-11.851,24.265
					l0.014-0.063c-0.029,1.712-0.051,3.091-0.068,4.106c-0.015,0.439-0.028,0.798-0.038,1.091c-0.013,0.248-0.026,0.376-0.04,0.376
					c-0.014,0-0.027-0.128-0.04-0.376c-0.01-0.293-0.023-0.652-0.038-1.091c-0.017-1.015-0.04-2.394-0.068-4.106l0-0.031
					l0.015-0.032c2.484-5.301,6.754-14.243,11.644-24.365c3.927-8.06,7.482-15.356,10.089-20.706
					c1.293-2.596,2.349-4.717,3.112-6.25c0.358-0.694,0.646-1.254,0.87-1.688C467.284,239.251,467.399,239.053,467.415,239.061z"/>
			</g>
		</g>
		<g>
			<g>
				<path style="fill:#263238;" d="M335.458,239.061c0.016,0.008-0.067,0.221-0.241,0.619c-0.201,0.445-0.46,1.019-0.782,1.73
					c-0.727,1.551-1.732,3.696-2.963,6.322c-2.571,5.367-6.078,12.686-9.951,20.772c-4.89,10.121-9.242,19.024-11.851,24.265
					l0.014-0.063c-0.028,1.712-0.051,3.091-0.068,4.106c-0.015,0.439-0.028,0.798-0.038,1.091c-0.013,0.248-0.026,0.376-0.04,0.376
					c-0.014,0-0.027-0.128-0.04-0.376c-0.01-0.293-0.023-0.652-0.038-1.091c-0.017-1.015-0.04-2.394-0.068-4.106l0-0.031
					l0.015-0.032c2.484-5.301,6.754-14.243,11.644-24.365c3.927-8.06,7.482-15.356,10.089-20.706
					c1.293-2.596,2.349-4.717,3.112-6.25c0.358-0.694,0.646-1.254,0.87-1.688C335.327,239.251,335.442,239.053,335.458,239.061z"/>
			</g>
		</g>
		<g>
			<rect x="14.889" y="405.84" style="fill:#6F4439;" width="475.295" height="37.444"/>
			<path style="fill:#263238;" d="M490.21,443.309H14.864v-37.494H490.21V443.309z M14.914,443.258h475.245v-37.393H14.914V443.258z
				"/>
		</g>
		<g style="opacity:0.2;">
			<rect x="14.889" y="405.84" width="475.295" height="4.17"/>
		</g>
		<g>
			<g>
				<ellipse style="fill:#263238;" cx="49.544" cy="389.044" rx="1.574" ry="0.506"/>
			</g>
			<g>
				<path style="fill:#263238;" d="M69.036,358.219c0,0.279-0.705,0.506-1.574,0.506c-0.87,0-1.575-0.227-1.575-0.506
					c0-0.279,0.705-0.506,1.575-0.506C68.331,357.713,69.036,357.939,69.036,358.219z"/>
			</g>
		</g>
		<g>
			<g>
				<path style="fill:#263238;" d="M49.544,336.78c0,0.279-0.705,0.506-1.574,0.506c-0.87,0-1.575-0.226-1.575-0.506
					c0-0.279,0.705-0.506,1.575-0.506C48.839,336.275,49.544,336.501,49.544,336.78z"/>
			</g>
			<g>
				<path style="fill:#263238;" d="M67.462,305.955c0,0.279-0.705,0.506-1.575,0.506c-0.87,0-1.574-0.227-1.574-0.506
					c0-0.279,0.705-0.506,1.574-0.506C66.757,305.45,67.462,305.676,67.462,305.955z"/>
			</g>
		</g>
		<g>
			<g>
				<path style="fill:#263238;" d="M191.959,333.386c0,0.279-0.705,0.506-1.575,0.506c-0.87,0-1.574-0.227-1.574-0.506
					c0-0.279,0.705-0.506,1.574-0.506C191.254,332.88,191.959,333.107,191.959,333.386z"/>
			</g>
			<g>
				<path style="fill:#263238;" d="M209.877,302.561c0,0.279-0.705,0.506-1.574,0.506s-1.575-0.227-1.575-0.506
					c0-0.279,0.705-0.506,1.575-0.506S209.877,302.281,209.877,302.561z"/>
			</g>
		</g>
		<g>
			<g>
				<path style="fill:#263238;" d="M195.061,278.14c0,0.279-0.705,0.506-1.575,0.506c-0.87,0-1.574-0.227-1.574-0.506
					c0-0.279,0.705-0.506,1.574-0.506C194.356,277.634,195.061,277.86,195.061,278.14z"/>
			</g>
			<g>
				<path style="fill:#263238;" d="M212.979,247.315c0,0.279-0.705,0.506-1.574,0.506c-0.87,0-1.574-0.227-1.574-0.506
					c0-0.279,0.705-0.506,1.574-0.506C212.274,246.809,212.979,247.035,212.979,247.315z"/>
			</g>
		</g>
		<g>
			<g>
				<path style="fill:#263238;" d="M429.873,278.14c0,0.279-0.705,0.506-1.574,0.506c-0.87,0-1.575-0.227-1.575-0.506
					c0-0.279,0.705-0.506,1.575-0.506C429.168,277.634,429.873,277.86,429.873,278.14z"/>
			</g>
			<g>
				<path style="fill:#263238;" d="M447.791,247.315c0,0.279-0.705,0.506-1.574,0.506c-0.87,0-1.575-0.227-1.575-0.506
					c0-0.279,0.705-0.506,1.575-0.506C447.086,246.809,447.791,247.035,447.791,247.315z"/>
			</g>
		</g>
		<g>
			<g>
				<path style="fill:#263238;" d="M434.112,335.081c0,0.279-0.705,0.506-1.574,0.506c-0.87,0-1.574-0.227-1.574-0.506
					c0-0.279,0.705-0.506,1.574-0.506C433.407,334.575,434.112,334.801,434.112,335.081z"/>
			</g>
			<g>
				<path style="fill:#263238;" d="M452.03,304.256c0,0.279-0.705,0.506-1.574,0.506c-0.87,0-1.574-0.227-1.574-0.506
					c0-0.279,0.705-0.506,1.574-0.506C451.325,303.75,452.03,303.976,452.03,304.256z"/>
			</g>
		</g>
		<g>
			<g>
				<ellipse style="fill:#263238;" cx="435.664" cy="390.03" rx="1.574" ry="0.506"/>
			</g>
			<g>
				<path style="fill:#263238;" d="M455.156,359.205c0,0.279-0.705,0.506-1.575,0.506c-0.869,0-1.574-0.227-1.574-0.506
					c0-0.279,0.705-0.506,1.574-0.506C454.451,358.699,455.156,358.926,455.156,359.205z"/>
			</g>
		</g>
		<g>
			<g>
				<g>
					<polygon style="fill:#E0E0E0;" points="170.723,246.308 147.018,282.298 39.795,282.298 39.795,88.493 169.89,88.493 					"/>
				</g>
				<g>
					<g>
						<path style="fill:#263238;" d="M170.723,246.308c0,0-0.013-0.25-0.021-0.737c-0.006-0.494-0.016-1.217-0.028-2.169
							c-0.018-1.92-0.044-4.755-0.077-8.451c-0.053-7.405-0.132-18.252-0.231-32.058c-0.169-27.614-0.411-67.055-0.701-114.399
							l0.225,0.224c-38.356,0.01-82.709,0.022-130.094,0.034l0.259-0.259c0,8.947,0.001,18.468,0.001,28.091
							c-0.014,60.931-0.028,117.828-0.039,165.715l-0.222-0.221c44.654,0.038,81.578,0.07,107.223,0.092l-0.108,0.058
							c7.674-11.601,13.614-20.581,17.64-26.667c2.016-3.035,3.553-5.347,4.59-6.908
							C170.176,247.098,170.723,246.308,170.723,246.308s-0.502,0.803-1.517,2.364c-1.023,1.567-2.539,3.888-4.529,6.936
							c-4.006,6.108-9.916,15.119-17.551,26.761l-0.038,0.058l-0.07,0c-25.645,0.022-62.569,0.054-107.223,0.092l-0.222,0l0-0.222
							c-0.011-47.886-0.025-104.784-0.039-165.715c0-9.622,0.001-19.144,0.001-28.091v-0.259h0.259
							c47.386,0.013,91.738,0.024,130.094,0.034l0.224,0l0.001,0.224c0.21,47.367,0.385,86.828,0.508,114.456
							c0.046,13.798,0.083,24.64,0.107,32.04c0.005,3.689,0.009,6.518,0.012,8.434c-0.002,0.948-0.004,1.668-0.005,2.16
							C170.733,246.065,170.723,246.308,170.723,246.308z"/>
					</g>
				</g>
			</g>
			<g>
				<g>
					<path style="fill:#263238;" d="M146.829,88.554c0.144,0,0.261,43.122,0.261,96.303c0,53.199-0.117,96.312-0.261,96.312
						c-0.144,0-0.26-43.112-0.26-96.312C146.569,131.676,146.685,88.554,146.829,88.554z"/>
				</g>
			</g>
			<g>
				<rect x="28.383" y="77.855" style="fill:#455A64;" width="148.169" height="22.296"/>
			</g>
			<g style="opacity:0.3;">
				<rect x="151.361" y="77.855" width="25.191" height="22.296"/>
			</g>
			<g style="opacity:0.2;">
				<rect x="102.468" y="144.851" width="44.361" height="17.838"/>
			</g>
			<g style="opacity:0.2;">
				<rect x="80.479" y="166.839" width="44.361" height="17.838"/>
			</g>
			<g style="opacity:0.2;">
				<rect x="40.125" y="125.916" width="22.181" height="17.838"/>
			</g>
			<g style="opacity:0.2;">
				<rect x="40.125" y="229.477" width="22.181" height="17.838"/>
			</g>
		</g>
	</g>
</g>
<g id="Character_00000051384665778298725940000000872185699287101885_">
	<g>
		<g>
			<polygon style="fill:#455A64;" points="256.157,312.217 293.046,288.299 320.62,231.836 346.055,250.117 309.935,307.303 
				265.981,326.727 			"/>
		</g>
		<g>
			<g>
				<g>
					<g>
						<g>
							<g>
								<path style="fill:#455A64;" d="M266.658,218.725c-0.166-1.665-0.072-3.022,0.806-4.435
									c7.854-12.631,21.062-21.234,35.191-25.845c3.671-1.198,7.857-2.109,11.277-0.258l0.151,0.178
									c1.915,1.435,2.637,4.477,2.14,6.807c-0.496,2.33-1.908,4.345-3.417,6.176c-7.183,8.712-17.119,14.678-27.267,19.617
									c-2.381,1.159-4.805,2.278-7.384,2.892c-2.579,0.614-5.347,0.698-7.858-0.194
									C268.167,222.905,266.882,220.977,266.658,218.725z"/>
							</g>
						</g>
					</g>
				</g>
				<g style="opacity:0.3;">
					<g>
						<g>
							<g>
								<g>
									<path d="M266.658,218.725c-0.166-1.665-0.072-3.022,0.806-4.435c7.854-12.631,21.062-21.234,35.191-25.845
										c3.671-1.198,7.857-2.109,11.277-0.258l0.151,0.178c1.915,1.435,2.637,4.477,2.14,6.807
										c-0.496,2.33-1.908,4.345-3.417,6.176c-7.183,8.712-17.119,14.678-27.267,19.617c-2.381,1.159-4.805,2.278-7.384,2.892
										c-2.579,0.614-5.347,0.698-7.858-0.194C268.167,222.905,266.882,220.977,266.658,218.725z"/>
								</g>
							</g>
						</g>
					</g>
				</g>
			</g>
			<g>
				<g>
					<g>
						<g>
							<g>
								<g>
									<g>
										<g>
											<g>
												<g>
													<g>
														<g>
															<g>
																<g>
																	<g>
																		<g>
																			<g>
																				<path style="fill:#263238;" d="M317.93,210.239c-1.49-4.79-3.017-9.6-5.309-14.062
																					c-2.292-4.463-5.407-8.602-9.55-11.432c-0.628-0.429-5.235-3.028-5.81-2.53
																					c-0.411,0.356,3.303,3.194,3.351,3.736c0.459,5.168,2.994,9.979,6.321,13.959
																					C310.261,203.89,313.826,207.065,317.93,210.239"/>
																			</g>
																		</g>
																	</g>
																</g>
															</g>
														</g>
													</g>
												</g>
											</g>
										</g>
									</g>
									<g>
										<g>
											<g>
												<g>
													<path style="fill:#FFBF9D;" d="M272.485,217.183c-6.512-9.747-4.44-22.86,4.752-30.134l0.913-0.723
														c10.306-7.219,22.195-2.5,29.126,8.002l23.29,33.275l-17.917,25.708l-3.457-6.639c0,0-1.905-2.605-1.92-2.595
														c0,0-10.634,6.021-18.244-3.354C285.354,236.194,278.544,226.252,272.485,217.183z"/>
												</g>
											</g>
										</g>
									</g>
									<g>
										<g>
											<g>
												<g>
													<g>
														<g>
															<g>
																<g>
																	<g>
																		<g>
																			<g>
																				<g>
																					<g>
																						<path style="fill:#FF9A6C;" d="M307.273,244.078c0,0,6.245-4.372,9.444-13.399c0,0,2.598,9.37-7.524,15.994
																							L307.273,244.078z"/>
																					</g>
																				</g>
																			</g>
																		</g>
																	</g>
																</g>
															</g>
														</g>
													</g>
												</g>
											</g>
										</g>
									</g>
									<g>
										<g>
											<g>
												<g>
													<g>
														<g>
															<g>
																<g>
																	<g>
																		<g>
																			<g>
																				<g>
																					<g>
																						<g>
																							<g>
																								<g>
																									<g>
																										<g>
																											<g>
																												<path style="fill:#263238;" d="M282.002,223.523c0.54,0.734,1.606,0.882,2.383,0.332
																													c0.775-0.549,0.969-1.588,0.429-2.322c-0.539-0.734-1.606-0.883-2.382-0.334
																													C281.655,221.748,281.462,222.789,282.002,223.523z"/>
																											</g>
																										</g>
																									</g>
																								</g>
																							</g>
																						</g>
																					</g>
																				</g>
																			</g>
																		</g>
																	</g>
																</g>
															</g>
														</g>
													</g>
												</g>
											</g>
										</g>
									</g>
									<g>
										<g>
											<g>
												<g>
													<g>
														<g>
															<g>
																<g>
																	<g>
																		<g>
																			<g>
																				<g>
																					<g>
																						<g>
																							<g>
																								<g>
																									<g>
																										<g>
																											<g>
																												<g>
																													<path style="fill:#263238;" d="M277.618,219.511c0.307,0.044,0.731-1.525,2.19-2.672
																														c1.44-1.167,3.1-1.264,3.117-1.567c0.016-0.14-0.407-0.324-1.14-0.294
																														c-0.724,0.025-1.764,0.315-2.668,1.036c-0.902,0.722-1.401,1.659-1.569,2.347
																														C277.373,219.059,277.473,219.497,277.618,219.511z"/>
																												</g>
																											</g>
																										</g>
																									</g>
																								</g>
																							</g>
																						</g>
																					</g>
																				</g>
																			</g>
																		</g>
																	</g>
																</g>
															</g>
														</g>
													</g>
												</g>
											</g>
										</g>
									</g>
									<g>
										<g>
											<g>
												<g>
													<g>
														<g>
															<g>
																<g>
																	<g>
																		<g>
																			<g>
																				<g>
																					<g>
																						<g>
																							<g>
																								<g>
																									<g>
																										<g>
																											<g>
																												<path style="fill:#263238;" d="M295.18,213.751c0.54,0.734,1.606,0.882,2.383,0.332
																													c0.775-0.548,0.969-1.587,0.429-2.322c-0.54-0.734-1.607-0.883-2.383-0.334
																													C294.832,211.977,294.64,213.018,295.18,213.751z"/>
																											</g>
																										</g>
																									</g>
																								</g>
																							</g>
																						</g>
																					</g>
																				</g>
																			</g>
																		</g>
																	</g>
																</g>
															</g>
														</g>
													</g>
												</g>
											</g>
										</g>
									</g>
									<g>
										<g>
											<g>
												<g>
													<g>
														<g>
															<g>
																<g>
																	<g>
																		<g>
																			<g>
																				<g>
																					<g>
																						<g>
																							<g>
																								<g>
																									<g>
																										<g>
																											<g>
																												<g>
																													<path style="fill:#263238;" d="M292.336,208.822c0.307,0.044,0.733-1.526,2.19-2.673
																														c1.44-1.167,3.1-1.263,3.117-1.566c0.014-0.14-0.406-0.324-1.141-0.293
																														c-0.724,0.025-1.764,0.315-2.668,1.036c-0.902,0.722-1.401,1.659-1.569,2.347
																														C292.092,208.369,292.192,208.809,292.336,208.822z"/>
																												</g>
																											</g>
																										</g>
																									</g>
																								</g>
																							</g>
																						</g>
																					</g>
																				</g>
																			</g>
																		</g>
																	</g>
																</g>
															</g>
														</g>
													</g>
												</g>
											</g>
										</g>
									</g>
									<g>
										<g>
											<g>
												<g>
													<g>
														<g>
															<g>
																<g>
																	<g>
																		<g>
																			<g>
																				<g>
																					<g>
																						<g>
																							<g>
																								<g>
																									<g>
																										<g>
																											<g>
																												<path style="fill:#263238;" d="M295.964,224.133c-0.059-0.088-1.087,0.471-2.7,1.443
																													c-0.402,0.256-0.812,0.46-1.075,0.256c-0.299-0.199-0.461-0.723-0.623-1.298
																													c-0.362-1.176-0.742-2.407-1.14-3.698c-1.661-5.235-3.178-9.421-3.388-9.353
																													c-0.21,0.069,0.966,4.368,2.628,9.603c0.419,1.284,0.817,2.509,1.199,3.679
																													c0.194,0.533,0.331,1.204,0.961,1.611c0.32,0.199,0.752,0.184,1.041,0.06
																													c0.296-0.116,0.508-0.277,0.7-0.412C295.103,224.937,296.023,224.22,295.964,224.133z"/>
																											</g>
																										</g>
																									</g>
																								</g>
																							</g>
																						</g>
																					</g>
																				</g>
																			</g>
																		</g>
																	</g>
																</g>
															</g>
														</g>
													</g>
												</g>
											</g>
										</g>
									</g>
									<g>
										<g>
											<g>
												<g>
													<g>
														<g>
															<g>
																<g>
																	<g>
																		<g>
																			<g>
																				<g>
																					<g>
																						<g>
																							<g>
																								<g>
																									<g>
																										<g>
																											<g>
																												<path style="fill:#263238;" d="M301.042,221.751c-0.248,0.174,0.999,1.755,0.534,3.946
																													c-0.459,2.192-2.283,3.347-2.121,3.578c0.056,0.116,0.618,0.01,1.344-0.533
																													c0.716-0.528,1.557-1.557,1.841-2.897c0.28-1.34-0.091-2.537-0.549-3.228
																													C301.629,221.908,301.143,221.656,301.042,221.751z"/>
																											</g>
																										</g>
																									</g>
																								</g>
																							</g>
																						</g>
																					</g>
																				</g>
																			</g>
																		</g>
																	</g>
																</g>
															</g>
														</g>
													</g>
												</g>
											</g>
										</g>
									</g>
									<g>
										<g>
											<g>
												<g>
													<g>
														<g>
															<g>
																<g>
																	<g>
																		<g>
																			<g>
																				<g>
																					<g>
																						<g>
																							<g>
																								<path style="fill:#263238;" d="M287.744,202.855c0.457,0.282,1.761-1.055,3.631-2.2
																									c1.847-1.182,3.619-1.772,3.565-2.306c-0.034-0.25-0.568-0.432-1.427-0.375
																									c-0.854,0.054-2.022,0.387-3.137,1.084c-1.113,0.699-1.923,1.604-2.345,2.349
																									C287.604,202.155,287.534,202.716,287.744,202.855z"/>
																							</g>
																						</g>
																					</g>
																				</g>
																			</g>
																		</g>
																	</g>
																</g>
															</g>
														</g>
													</g>
												</g>
											</g>
										</g>
									</g>
									<g>
										<g>
											<g>
												<g>
													<g>
														<g>
															<g>
																<g>
																	<g>
																		<g>
																			<g>
																				<g>
																					<g>
																						<g>
																							<g>
																								<path style="fill:#263238;" d="M274.392,214.199c0.518,0.128,1.249-1.008,2.441-1.978
																									c1.158-1.011,2.401-1.539,2.363-2.071c-0.03-0.249-0.452-0.453-1.146-0.413
																									c-0.686,0.036-1.623,0.363-2.431,1.043c-0.807,0.682-1.288,1.549-1.44,2.219
																									C274.023,213.676,274.152,214.127,274.392,214.199z"/>
																							</g>
																						</g>
																					</g>
																				</g>
																			</g>
																		</g>
																	</g>
																</g>
															</g>
														</g>
													</g>
												</g>
											</g>
										</g>
									</g>
									<g>
										<g>
											<g>
												<g>
													<g>
														<g>
															<g>
																<g>
																	<g>
																		<g>
																			<g>
																				<path style="fill:#FFBF9D;" d="M312.051,201.951c0.106-0.198,4.983-7.072,9.898-0.436
																					c4.915,6.637-3.167,10.688-3.32,10.506C318.477,211.839,312.051,201.951,312.051,201.951z"/>
																			</g>
																		</g>
																	</g>
																</g>
															</g>
														</g>
													</g>
												</g>
											</g>
										</g>
									</g>
									<g>
										<g>
											<g>
												<g>
													<g>
														<g>
															<g>
																<g>
																	<g>
																		<g>
																			<g>
																				<g>
																					<path style="fill:#FF9A6C;" d="M319.2,207.52c0.013-0.043,0.176-0.005,0.437-0.06
																						c0.255-0.054,0.627-0.236,0.877-0.622c0.511-0.776,0.277-2.327-0.577-3.547
																						c-0.43-0.616-0.983-1.098-1.55-1.416c-0.562-0.335-1.127-0.442-1.527-0.243
																						c-0.411,0.179-0.505,0.575-0.448,0.822c0.048,0.251,0.189,0.352,0.162,0.39
																						c-0.006,0.031-0.225-0.006-0.374-0.32c-0.07-0.152-0.108-0.366-0.047-0.609
																						c0.063-0.247,0.249-0.487,0.514-0.642c0.538-0.344,1.347-0.214,1.97,0.134c0.652,0.33,1.288,0.86,1.771,1.553
																						c0.948,1.369,1.19,3.127,0.436,4.115c-0.377,0.468-0.871,0.615-1.188,0.608
																						C319.331,207.671,319.186,207.549,319.2,207.52z"/>
																				</g>
																			</g>
																		</g>
																	</g>
																</g>
															</g>
														</g>
													</g>
												</g>
											</g>
										</g>
									</g>
									<g>
										<g>
											<g>
												<g>
													<g>
														<g>
															<g>
																<g>
																	<g>
																		<g>
																			<g>
																				<path style="fill:#263238;" d="M268.762,202.975c-1.515,0.189-0.816-5.67,0.965-8.807
																					c2.691-4.741,8.006-10.32,12.471-11.962c5.376-1.977,10.691-2.452,15.878-0.022
																					c5.187,2.43,9.465,6.545,12.702,11.27c0.988,1.442,1.912,3.021,2.026,4.765
																					c0.141,2.155-0.973,4.387,0.586,6.367c0.57,0.724,0.904,1.63,0.789,2.544c-0.276,2.189-2.66,2.055-4.238,1.329
																					c-3.37-1.549-5.805-4.553-8.113-7.457c-1.641-2.064-3.309-4.177-4.196-6.66
																					c-0.483-1.351-0.723-2.785-1.279-4.107c-0.557-1.322-1.523-2.579-2.898-2.99
																					c-0.224-0.067-0.55-0.119-0.942-0.154c-3.097-0.283-6.106,1.146-7.867,3.709
																					c-2.794,4.066-7.773,10.723-10.378,10.667c-3.749-0.082-5.197-0.859-5.197-0.859L268.762,202.975z"/>
																			</g>
																		</g>
																	</g>
																</g>
															</g>
														</g>
													</g>
												</g>
											</g>
										</g>
									</g>
								</g>
							</g>
						</g>
					</g>
				</g>
			</g>
			<g>
				<g>
					<g>
						<g>
							<g>
								<path style="fill:#455A64;" d="M271.86,216.193c0,0,2.839-6.174,8.83-10.328c16.791-11.642,30.417-12.382,30.417-12.382
									l-3.258-4.981c0,0-27.778,12.52-27.953,12.634c-0.175,0.114-6.591,6.588-6.72,6.772c-0.129,0.184-3.964,3.989-3.964,3.989
									C269.96,213.546,270.817,215.02,271.86,216.193z"/>
							</g>
						</g>
					</g>
				</g>
				<g style="opacity:0.6;">
					<g>
						<g>
							<g>
								<path style="fill:#455A64;" d="M271.86,216.193c0,0,2.839-6.174,8.83-10.328c16.791-11.642,30.417-12.382,30.417-12.382
									l-3.258-4.981c0,0-27.778,12.52-27.953,12.634c-0.175,0.114-6.591,6.588-6.72,6.772c-0.129,0.184-3.964,3.989-3.964,3.989
									C269.96,213.546,270.817,215.02,271.86,216.193z"/>
							</g>
						</g>
					</g>
				</g>
				<g>
					<g>
						<g>
							<g>
								<path style="fill:#FF725E;" d="M267.097,220.707c0,0-0.902-10.338,20.183-21.547c22.121-11.76,28.606-8.247,28.606-8.247
									s-1.903-5.606-6.87-5.592c0,0-5.824-8.698-16.397-11.459c-3.781-0.987-9.024-0.453-10.26-0.558l-1.071-1.28
									c0,0-2.567-0.643-9.567,4.012c-7.233,4.81-7.119,8.032-7.119,8.032l0.687,1.332c0,0-7.461,12.716,1.482,27.513
									C266.768,212.912,264.689,218.186,267.097,220.707z"/>
							</g>
						</g>
					</g>
				</g>
				<g style="opacity:0.3;">
					<g>
						<g>
							<g>
								<g>
									<path d="M281.286,172.024c-0.201,2.146-0.554,5.851,0.454,8.071c1.008,2.22,2.367,4.295,3.716,6.353
										c-3.403-7.46-3.099-9.076-3.099-13.143L281.286,172.024z"/>
								</g>
							</g>
						</g>
					</g>
				</g>
				<g>
					<g>
						<g>
							<g>
								<g>
									<path style="fill:#263238;" d="M309.015,185.321c-0.004-0.019-0.184,0.008-0.522,0.076
										c-0.401,0.088-0.888,0.195-1.476,0.324c-0.643,0.138-1.423,0.329-2.313,0.61c-0.89,0.277-1.922,0.54-3.021,0.956
										c-4.431,1.538-10.434,4.103-16.551,7.853c-6.151,3.692-11.192,7.891-14.321,11.413c-0.748,0.909-1.429,1.731-1.969,2.495
										c-0.496,0.795-0.961,1.456-1.265,2.04c-0.248,0.551-0.454,1.008-0.623,1.384c-0.136,0.318-0.199,0.487-0.181,0.494
										c0.018,0.007,0.115-0.148,0.284-0.449c0.193-0.359,0.427-0.796,0.709-1.322c0.329-0.56,0.816-1.197,1.329-1.964
										c0.557-0.736,1.252-1.532,2.009-2.414c3.17-3.416,8.203-7.529,14.317-11.199c6.079-3.727,12.019-6.333,16.393-7.958
										c1.085-0.438,2.103-0.725,2.98-1.029c0.877-0.308,1.645-0.529,2.276-0.699c0.576-0.169,1.054-0.31,1.446-0.425
										C308.848,185.403,309.02,185.339,309.015,185.321z"/>
								</g>
							</g>
						</g>
					</g>
				</g>
				<g>
					<g>
						<g>
							<g>
								<g>
									<path style="fill:#263238;" d="M281.286,172.024c-0.076-0.006-0.229,0.835-0.416,2.208
										c-0.173,1.351-0.405,3.369,0.298,5.448c0.661,2.055,1.72,3.712,2.566,4.813c0.853,1.106,1.487,1.693,1.539,1.647
										c0.065-0.055-0.461-0.731-1.217-1.876c-0.751-1.142-1.722-2.782-2.356-4.755c-0.665-1.96-0.509-3.869-0.437-5.241
										C281.35,172.891,281.365,172.03,281.286,172.024z"/>
								</g>
							</g>
						</g>
					</g>
				</g>
				<g style="opacity:0.3;">
					<g>
						<g>
							<g>
								<g>
									<path style="fill:#FFFFFF;" d="M284.623,176.572c-0.212-0.296-0.434-0.625-0.416-0.978
										c0.018-0.351,0.284-0.634,0.595-0.766c0.312-0.132,0.666-0.14,1.012-0.139c7.307,0.021,14.754,3.609,19.702,9.445
										c0.242,0.285,0.076,0.706-0.278,0.734c-3.189,0.252-6.217,1.092-9.142,2.31c-0.959,0.399-2.117,1.298-3.077,0.676
										c-0.571-0.37-0.987-0.943-1.387-1.502C289.296,183.092,286.959,179.832,284.623,176.572z"/>
								</g>
							</g>
						</g>
					</g>
				</g>
			</g>
			<g>
				<g>
					<g>
						<g>
							<g>
								<path style="fill:#263238;" d="M270.715,192.635c0.119-0.104-1.226-1.816-2.849-3.944c-1.628-2.127-2.925-3.873-3.057-3.786
									c-0.126,0.082,0.972,1.981,2.613,4.125C269.059,191.176,270.603,192.735,270.715,192.635z"/>
							</g>
						</g>
					</g>
				</g>
			</g>
		</g>
		<g>
			<g>
				<g>
					<g>
						<g>
							<g>
								<g>
									<g>
										<g>
											<g>
												<g>
													<g>
														<g>
															<g>
																<g>
																	<g>
																		<g>
																			<g>
																				<path style="fill:#263238;" d="M388.131,354.701l24.169,5.845c0,0,1.647,27.858,5.998,29.396l14.026-48.989
																					l-37.251-10.736L388.131,354.701z"/>
																			</g>
																		</g>
																	</g>
																</g>
															</g>
														</g>
													</g>
												</g>
											</g>
										</g>
									</g>
								</g>
							</g>
						</g>
					</g>
					<g>
						<g>
							<g>
								<g>
									<g>
										<g>
											<g>
												<g>
													<g>
														<g>
															<g>
																<g>
																	<g>
																		<g>
																			<g>
																				<g>
																					<path style="fill:#E0E0E0;" d="M414.625,344.829c0.517-0.879,1.715-1.249,2.559-0.772
																						c0.845,0.476,1.176,1.735,0.673,2.623c-0.502,0.888-1.929,1.378-2.714,0.803
																						c-0.785-0.574-1.096-2.077-0.408-2.819"/>
																				</g>
																			</g>
																		</g>
																	</g>
																</g>
															</g>
														</g>
													</g>
												</g>
											</g>
										</g>
									</g>
								</g>
							</g>
						</g>
					</g>
					<g>
						<g>
							<g>
								<g>
									<g>
										<g>
											<g>
												<g>
													<g>
														<g>
															<g>
																<g>
																	<g>
																		<g>
																			<g>
																				<path style="fill:#455A64;" d="M432.324,340.953l-3.8-0.927l-12.026,47.316c0,0,0.275,2.435,1.801,2.599
																					L432.324,340.953z"/>
																			</g>
																		</g>
																	</g>
																</g>
															</g>
														</g>
													</g>
												</g>
											</g>
										</g>
									</g>
								</g>
							</g>
						</g>
					</g>
					<g>
						<g>
							<g>
								<g>
									<g>
										<g>
											<g>
												<g>
													<g>
														<g>
															<g>
																<g>
																	<g>
																		<g>
																			<g>
																				<g>
																					<path style="fill:#FFFFFF;" d="M411.836,361.273c0.229,0.056,0.674-1.111,1.74-2.082
																						c1.043-1,2.198-1.329,2.171-1.575c0.019-0.233-1.438-0.259-2.709,0.94
																						C411.757,359.743,411.613,361.266,411.836,361.273z"/>
																				</g>
																			</g>
																		</g>
																	</g>
																</g>
															</g>
														</g>
													</g>
												</g>
											</g>
										</g>
									</g>
								</g>
							</g>
						</g>
					</g>
					<g>
						<g>
							<g>
								<g>
									<g>
										<g>
											<g>
												<g>
													<g>
														<g>
															<g>
																<g>
																	<g>
																		<g>
																			<g>
																				<g>
																					<path style="fill:#FFFFFF;" d="M412.379,366.98c0.204,0.116,0.886-0.811,2.077-1.352
																						c1.177-0.578,2.272-0.49,2.331-0.731c0.1-0.214-1.18-0.755-2.65-0.052
																						C412.662,365.533,412.164,366.914,412.379,366.98z"/>
																				</g>
																			</g>
																		</g>
																	</g>
																</g>
															</g>
														</g>
													</g>
												</g>
											</g>
										</g>
									</g>
								</g>
							</g>
						</g>
					</g>
					<g>
						<g>
							<g>
								<g>
									<g>
										<g>
											<g>
												<g>
													<g>
														<g>
															<g>
																<g>
																	<g>
																		<g>
																			<g>
																				<g>
																					<path style="fill:#FFFFFF;" d="M417.37,371.543c0.11-0.204-0.927-0.856-2.344-0.592
																						c-1.419,0.253-2.232,1.243-2.072,1.397c0.148,0.188,1.021-0.35,2.188-0.548
																						C416.304,371.573,417.28,371.775,417.37,371.543z"/>
																				</g>
																			</g>
																		</g>
																	</g>
																</g>
															</g>
														</g>
													</g>
												</g>
											</g>
										</g>
									</g>
								</g>
							</g>
						</g>
					</g>
					<g>
						<g>
							<g>
								<g>
									<g>
										<g>
											<g>
												<g>
													<g>
														<g>
															<g>
																<g>
																	<g>
																		<g>
																			<g>
																				<g>
																					<path style="fill:#FFFFFF;" d="M406.489,359.297c0.236-0.042,0.237-1.228,0.711-2.555
																						c0.449-1.337,1.18-2.268,1.021-2.447c-0.124-0.185-1.257,0.606-1.795,2.177
																						C405.877,358.038,406.277,359.364,406.489,359.297z"/>
																				</g>
																			</g>
																		</g>
																	</g>
																</g>
															</g>
														</g>
													</g>
												</g>
											</g>
										</g>
									</g>
								</g>
							</g>
						</g>
					</g>
				</g>
			</g>
			<g>
				<path style="fill:#263238;" d="M352.926,313.064c0,0-43.785,33.277-43.085,42.384c0.701,9.107,4.203,17.164,10.509,19.966
					c6.305,2.802,83.367-16.814,83.367-16.814l-4.904-25.22c0,0,2.102-18.215,1.051-18.215
					C398.813,315.165,352.926,313.064,352.926,313.064z"/>
			</g>
			<g>
				<g>
					<path style="fill:#455A64;" d="M391.458,329.368c0.003,0.018-0.187,0.071-0.552,0.155c-0.422,0.091-0.951,0.205-1.599,0.344
						c-1.391,0.281-3.4,0.712-5.873,1.274c-4.948,1.12-11.739,2.868-19.096,5.269c-7.357,2.411-13.869,5.015-18.522,7.036
						c-2.327,1.008-4.202,1.847-5.49,2.443c-0.605,0.27-1.099,0.491-1.493,0.667c-0.344,0.147-0.528,0.217-0.536,0.201
						c-0.008-0.016,0.161-0.117,0.49-0.295c0.383-0.199,0.863-0.449,1.451-0.755c1.263-0.652,3.116-1.543,5.429-2.597
						c4.623-2.11,11.133-4.776,18.509-7.194c7.377-2.408,14.203-4.104,19.18-5.134c2.488-0.517,4.51-0.894,5.914-1.114
						c0.656-0.101,1.191-0.183,1.618-0.248C391.258,329.369,391.455,329.35,391.458,329.368z"/>
				</g>
			</g>
		</g>
		<g>
			<g>
				<path style="fill:#E0E0E0;" d="M277.898,351.643c0,0-13.124,13.924-14.244,16.005c-1.12,2.081-1.6,9.763-1.6,9.763
					s1.44,2.042,3.201,0.781c1.76-1.261,2.401-4.302,2.401-4.302s4.001,4.145,5.442,4.713c1.44,0.568,3.521,0.85,3.201-0.411
					c-0.32-1.261,3.201,1.286,4.961,0.893c1.761-0.393,1.44-2.634,1.44-2.634s0.8,4.071,3.041,2.676
					c2.241-1.395,2.881-1.715,2.081-3.796c-0.8-2.081-2.081-5.442-2.081-5.442l2.411-4.358c0,0,2.871-2.204,3.991-5.085
					c1.12-2.881,1.601-3.521,1.601-3.521l5.432-3.777l-16.408-10.818L277.898,351.643z"/>
			</g>
			<g>
				<g>
					<path style="fill:#263238;" d="M267.503,367.389c0.142,0.066-0.683,1.554-0.526,3.546c0.114,1.996,1.133,3.358,1.001,3.442
						c-0.048,0.04-0.377-0.242-0.737-0.835c-0.36-0.588-0.709-1.509-0.783-2.572c-0.07-1.063,0.151-2.023,0.429-2.654
						C267.162,367.68,267.45,367.356,267.503,367.389z"/>
				</g>
			</g>
			<g>
				<g>
					<path style="fill:#263238;" d="M273.151,368.17c0.085,0.029-0.162,0.599-0.331,1.508c-0.076,0.459-0.057,0.98,0.18,1.543
						c0.232,0.567,0.538,1.205,0.861,1.853c1.305,2.607,2.748,4.504,2.628,4.599c-0.099,0.092-1.756-1.696-3.093-4.364
						c-0.333-0.668-0.622-1.301-0.847-1.922c-0.241-0.629-0.227-1.303-0.09-1.782C272.741,368.635,273.102,368.151,273.151,368.17z"
						/>
				</g>
			</g>
			<g>
				<g>
					<path style="fill:#263238;" d="M281.469,370.552c0.152-0.013,0.38,1.606,0.939,3.526c0.548,1.924,1.214,3.417,1.079,3.487
						c-0.117,0.068-1.014-1.359-1.579-3.343C281.333,372.243,281.334,370.557,281.469,370.552z"/>
				</g>
			</g>
		</g>
		<g>
			<g>
				<path style="fill:#FF725E;" d="M442.405,283.807c0.347-1.04-22.88-24.613-47.839-41.252
					c-24.96-16.64-59.279-25.999-67.599-22.533c0,0-13.323,17.333-12.035,22.533c1.288,5.2,13.075,44.719,16.195,47.492
					c3.12,2.773,40.906,30.672,40.906,30.672s69.442-22.87,72.68-25.384C447.951,292.82,442.405,283.807,442.405,283.807z"/>
			</g>
			<g>
				<path style="fill:#E0E0E0;" d="M389.78,292.229c0,0,16.63-26.84,28.126-31.962l7.376,6.336c0,0-19.476,16.857-26.056,28.526
					L389.78,292.229z"/>
			</g>
			<g>
				<path style="fill:#E0E0E0;" d="M374.398,280.085c0,0,16.63-26.84,28.126-31.962l7.027,5.32c0,0-19.128,17.873-25.707,29.542
					L374.398,280.085z"/>
			</g>
		</g>
		<g>
			<g>
				<g>
					<path style="fill:#455A64;" d="M382.053,250.456c-1.004,6.728-6.571,19.601-34.522,19.193c0,0-11.765,34.85-15.626,44.502
						c-3.861,9.652-31.991,40.421-31.991,40.421l-18.362-12.467l23.441-32.938c0,0,7.209-33.898,7.485-35.552
						c0.276-1.655-1.162-22.074,2.511-31.268c3.673-9.194,3.839-10.48,11.296-13.513c7.003-2.849,41.815-0.59,53.866,14.541
						C381.741,245.371,382.43,247.931,382.053,250.456z"/>
				</g>
				<g>
					<g>
						<path style="fill:#263238;" d="M382.053,250.456c0,0,0-0.065,0.011-0.191c0.012-0.126,0.033-0.315,0.043-0.566
							c0.021-0.499,0.035-1.253-0.147-2.216c-0.175-0.959-0.558-2.135-1.341-3.337c-0.811-1.177-1.966-2.394-3.345-3.652
							c-2.794-2.494-6.765-4.925-11.732-6.926c-4.967-2.003-10.915-3.598-17.626-4.609c-3.355-0.508-6.907-0.853-10.62-0.966
							c-1.857-0.057-3.755-0.039-5.682,0.092c-0.962,0.07-1.932,0.167-2.898,0.332c-0.976,0.151-1.909,0.4-2.827,0.802
							c-1.839,0.784-3.745,1.596-5.305,2.923c-1.553,1.342-2.508,3.265-3.345,5.229c-0.427,0.984-0.823,1.993-1.229,3.008
							c-0.398,1.016-0.836,2.037-1.164,3.08c-0.686,2.085-1.123,4.296-1.407,6.55c-0.609,4.51-0.749,9.202-0.772,13.994
							c-0.009,2.398,0.038,4.823,0.08,7.28c0.011,0.615,0.017,1.23,0.007,1.858l-0.032,0.493l-0.093,0.456l-0.191,0.91
							c-0.255,1.215-0.511,2.436-0.769,3.663c-2.063,9.819-4.21,20.033-6.421,30.557l-0.011,0.052l-0.031,0.044
							c-4.925,6.922-10.091,14.182-15.348,21.572c-2.724,3.827-5.423,7.619-8.091,11.368l-0.066-0.365
							c6.248,4.245,12.38,8.41,18.359,12.471l-0.331,0.039c6.624-7.311,12.917-14.518,18.735-21.614
							c2.905-3.55,5.707-7.065,8.262-10.625c1.275-1.78,2.508-3.562,3.579-5.401l0.412-0.682l0.346-0.709
							c0.226-0.474,0.469-0.937,0.68-1.416c0.379-0.985,0.755-1.963,1.128-2.935c2.908-7.81,5.483-15.258,7.898-22.189
							c2.384-6.943,4.594-13.378,6.605-19.233l0.04-0.117l0.123,0.002c6.789,0.121,12.921-0.581,18.001-2.167
							c5.075-1.567,9.083-4.011,11.549-6.775c2.525-2.717,3.693-5.411,4.268-7.236c0.266-0.926,0.463-1.633,0.542-2.12
							C381.991,250.701,382.053,250.456,382.053,250.456s-0.03,0.249-0.112,0.736c-0.064,0.49-0.247,1.204-0.499,2.139
							c-0.548,1.842-1.696,4.57-4.223,7.332c-2.468,2.809-6.502,5.301-11.605,6.903c-5.109,1.621-11.27,2.35-18.085,2.252
							l0.163-0.115c-1.994,5.862-4.185,12.305-6.549,19.255c-2.399,6.94-4.957,14.392-7.856,22.217
							c-0.373,0.975-0.748,1.957-1.126,2.945c-0.214,0.487-0.462,0.966-0.693,1.451l-0.354,0.728l-0.415,0.691
							c-1.082,1.864-2.317,3.655-3.595,5.444c-2.56,3.578-5.361,7.101-8.266,10.659c-5.818,7.113-12.106,14.327-18.734,21.651
							l-0.148,0.164l-0.184-0.125c-5.981-4.059-12.114-8.221-18.364-12.464l-0.22-0.149l0.154-0.216
							c2.668-3.749,5.366-7.542,8.09-11.369c5.259-7.388,10.426-14.647,15.353-21.568l-0.042,0.095
							c2.218-10.516,4.37-20.723,6.44-30.534c0.259-1.226,0.516-2.447,0.773-3.66l0.192-0.909l0.093-0.453l0.027-0.432
							c0.01-0.606,0.005-1.222-0.005-1.835c-0.039-2.453-0.084-4.885-0.071-7.288c0.03-4.805,0.176-9.511,0.797-14.054
							c0.291-2.271,0.733-4.503,1.438-6.631c0.342-1.075,0.777-2.08,1.178-3.1c0.408-1.015,0.807-2.025,1.24-3.017
							c0.844-1.969,1.831-3.964,3.467-5.374c1.639-1.384,3.573-2.194,5.424-2.98c0.928-0.405,1.938-0.674,2.916-0.82
							c0.984-0.165,1.965-0.261,2.937-0.329c1.944-0.127,3.854-0.14,5.719-0.078c3.732,0.124,7.295,0.481,10.661,1.003
							c6.732,1.038,12.695,2.662,17.675,4.699c4.98,2.034,8.962,4.503,11.755,7.036c1.381,1.28,2.526,2.506,3.34,3.713
							c0.783,1.228,1.155,2.425,1.317,3.397c0.169,0.976,0.139,1.735,0.102,2.236C382.115,250.205,382.053,250.456,382.053,250.456z
							"/>
					</g>
				</g>
			</g>
			<g style="opacity:0.3;">
				<path d="M347.531,269.649l3.609-12.425C351.14,257.224,357.75,264.945,347.531,269.649z"/>
			</g>
		</g>
		<g style="opacity:0.3;">
			<path d="M382.364,363.856l4.582-1.105l-9.202-32.534c0,0,20.377,12.052,29.452,13.463c9.076,1.411,19.962-3.438,19.962-3.438
				l-24.707-20.672c0,0-36.959-4.896-35.926-5.331C367.559,313.805,382.364,363.856,382.364,363.856z"/>
		</g>
		<g>
			<g>
				<g>
					<g>
						<g>
							<g>
								<g>
									<g>
										<g>
											<g>
												<g>
													<g>
														<g>
															<g>
																<g>
																	<g>
																		<g>
																			<g>
																				<path style="fill:#263238;" d="M349.876,347.731l5.728,23.5c0,0-26.026,10.07-26.163,14.684l50.932-1.595
																					l-0.277-3.902l-5.163-34.532L349.876,347.731z"/>
																			</g>
																		</g>
																	</g>
																</g>
															</g>
														</g>
													</g>
												</g>
											</g>
										</g>
									</g>
								</g>
							</g>
						</g>
					</g>
					<g>
						<g>
							<g>
								<g>
									<g>
										<g>
											<g>
												<g>
													<g>
														<g>
															<g>
																<g>
																	<g>
																		<g>
																			<g>
																				<g>
																					<path style="fill:#E0E0E0;" d="M371.28,368.649c0.995,0.224,1.712,1.252,1.517,2.201
																						c-0.196,0.95-1.294,1.65-2.292,1.442c-0.999-0.207-1.9-1.416-1.593-2.339c0.307-0.923,1.643-1.678,2.56-1.249"
																						/>
																				</g>
																			</g>
																		</g>
																	</g>
																</g>
															</g>
														</g>
													</g>
												</g>
											</g>
										</g>
									</g>
								</g>
							</g>
						</g>
					</g>
					<g>
						<g>
							<g>
								<g>
									<g>
										<g>
											<g>
												<g>
													<g>
														<g>
															<g>
																<g>
																	<g>
																		<g>
																			<g>
																				<path style="fill:#455A64;" d="M380.373,384.32l-0.277-3.902l-48.729,2.988c0,0-2.235,1.005-1.926,2.508
																					L380.373,384.32z"/>
																			</g>
																		</g>
																	</g>
																</g>
															</g>
														</g>
													</g>
												</g>
											</g>
										</g>
									</g>
								</g>
							</g>
						</g>
					</g>
					<g>
						<g>
							<g>
								<g>
									<g>
										<g>
											<g>
												<g>
													<g>
														<g>
															<g>
																<g>
																	<g>
																		<g>
																			<g>
																				<g>
																					<path style="fill:#FFFFFF;" d="M354.77,371.012c0.016,0.235,1.264,0.303,2.514,1.021
																						c1.27,0.688,1.937,1.688,2.162,1.587c0.227-0.053-0.193-1.449-1.723-2.293
																						C356.203,370.469,354.709,370.797,354.77,371.012z"/>
																				</g>
																			</g>
																		</g>
																	</g>
																</g>
															</g>
														</g>
													</g>
												</g>
											</g>
										</g>
									</g>
								</g>
							</g>
						</g>
					</g>
					<g>
						<g>
							<g>
								<g>
									<g>
										<g>
											<g>
												<g>
													<g>
														<g>
															<g>
																<g>
																	<g>
																		<g>
																			<g>
																				<g>
																					<path style="fill:#FFFFFF;" d="M349.501,373.27c-0.049,0.23,1.042,0.596,1.922,1.565
																						c0.909,0.945,1.16,2.014,1.408,1.996c0.235,0.03,0.359-1.354-0.759-2.539
																						C350.965,373.098,349.499,373.045,349.501,373.27z"/>
																				</g>
																			</g>
																		</g>
																	</g>
																</g>
															</g>
														</g>
													</g>
												</g>
											</g>
										</g>
									</g>
								</g>
							</g>
						</g>
					</g>
					<g>
						<g>
							<g>
								<g>
									<g>
										<g>
											<g>
												<g>
													<g>
														<g>
															<g>
																<g>
																	<g>
																		<g>
																			<g>
																				<g>
																					<path style="fill:#FFFFFF;" d="M346.679,379.416c0.228,0.043,0.533-1.144-0.151-2.413
																						c-0.674-1.274-1.865-1.746-1.963-1.546c-0.134,0.198,0.645,0.866,1.19,1.916
																						C346.325,378.41,346.431,379.401,346.679,379.416z"/>
																				</g>
																			</g>
																		</g>
																	</g>
																</g>
															</g>
														</g>
													</g>
												</g>
											</g>
										</g>
									</g>
								</g>
							</g>
						</g>
					</g>
					<g>
						<g>
							<g>
								<g>
									<g>
										<g>
											<g>
												<g>
													<g>
														<g>
															<g>
																<g>
																	<g>
																		<g>
																			<g>
																				<g>
																					<path style="fill:#FFFFFF;" d="M355.02,365.316c0.112,0.211,1.241-0.149,2.65-0.103
																						c1.41,0.019,2.52,0.431,2.642,0.225c0.138-0.175-0.961-1.012-2.621-1.045
																						C356.032,364.349,354.892,365.135,355.02,365.316z"/>
																				</g>
																			</g>
																		</g>
																	</g>
																</g>
															</g>
														</g>
													</g>
												</g>
											</g>
										</g>
									</g>
								</g>
							</g>
						</g>
					</g>
				</g>
			</g>
			<g>
				<g>
					<path style="fill:#263238;" d="M405.673,289.738c0,0-52.008-16.181-58.18-17.648c-14.561-3.461-22.729,11.459-24.48,18.114
						c-1.751,6.655,26.158,77.36,26.158,77.36l33.475-2.713l-12.615-44.584l24.145,13.515c11.031,6.174,23.925,8.457,36.304,5.893
						c4.202-0.87,12.916-7.262,15.249-9.458c13.841-13.029-4.163-41.039-4.163-41.039L405.673,289.738z"/>
				</g>
				<g>
					<g>
						<path style="fill:#455A64;" d="M405.673,289.738c0,0,0.205-0.016,0.606-0.029c0.412-0.011,1.007-0.027,1.788-0.047
							c1.589-0.033,3.927-0.082,6.976-0.146c6.121-0.111,15.087-0.274,26.519-0.482l0.082-0.001l0.042,0.068
							c1.907,3.072,3.695,6.513,5.307,10.302c1.59,3.791,3.016,7.952,3.74,12.5c0.352,2.27,0.517,4.641,0.314,7.054
							c-0.202,2.406-0.791,4.863-1.952,7.124c-1.13,2.279-2.96,4.231-5.033,5.817c-2.055,1.622-4.228,3.166-6.525,4.615
							c-1.147,0.727-2.336,1.412-3.572,2.04c-1.23,0.617-2.548,1.2-3.955,1.433c-2.757,0.552-5.608,0.871-8.509,0.932
							c-5.8,0.134-11.798-0.726-17.627-2.631c-2.914-0.951-5.785-2.161-8.565-3.624c-2.77-1.48-5.504-3.058-8.305-4.609
							c-5.585-3.123-11.29-6.314-17.099-9.564l0.368-0.291c4.033,14.244,8.271,29.213,12.622,44.582l0.086,0.305l-0.316,0.025
							l-0.026,0.002c-11.458,0.928-22.702,1.837-33.45,2.708l-0.19,0.015l-0.07-0.177c-4.568-11.651-8.883-22.999-12.904-33.951
							c-4.002-10.958-7.772-21.501-10.839-31.673c-0.755-2.547-1.458-5.073-1.996-7.609c-0.256-1.271-0.519-2.533-0.433-3.875
							c0.218-1.308,0.707-2.468,1.178-3.641c1.977-4.621,4.865-8.742,8.595-11.653c0.48-0.343,0.922-0.736,1.427-1.032
							c0.504-0.298,1.006-0.594,1.505-0.889c0.512-0.272,1.057-0.472,1.58-0.71c0.517-0.257,1.07-0.409,1.621-0.554
							c0.554-0.129,1.084-0.359,1.649-0.403c0.56-0.072,1.116-0.143,1.67-0.214c0.553-0.087,1.112-0.005,1.663-0.016
							c0.55,0.033,1.107-0.03,1.642,0.098c2.178,0.275,4.211,0.899,6.199,1.47c1.985,0.588,3.925,1.162,5.817,1.722
							c15.118,4.556,27.199,8.339,35.517,10.931c4.148,1.305,7.359,2.315,9.545,3.003c1.078,0.345,1.902,0.609,2.468,0.791
							C405.392,289.634,405.673,289.738,405.673,289.738s-0.288-0.073-0.848-0.239c-0.569-0.171-1.397-0.42-2.482-0.746
							c-2.193-0.668-5.412-1.65-9.572-2.918c-8.335-2.537-20.432-6.27-35.56-10.782c-1.893-0.555-3.833-1.124-5.819-1.705
							c-1.99-0.566-4.018-1.18-6.144-1.442c-0.525-0.125-1.069-0.06-1.607-0.092c-0.539,0.012-1.086-0.069-1.626,0.019
							c-0.541,0.071-1.085,0.142-1.631,0.213c-0.552,0.043-1.069,0.271-1.61,0.397c-0.538,0.142-1.077,0.292-1.583,0.545
							c-0.511,0.234-1.043,0.43-1.543,0.697c-0.488,0.29-0.979,0.581-1.472,0.874c-0.495,0.29-0.927,0.679-1.397,1.016
							c-3.655,2.861-6.505,6.939-8.447,11.502c-0.459,1.138-0.95,2.341-1.143,3.534c-0.075,1.193,0.175,2.482,0.434,3.726
							c0.536,2.51,1.241,5.03,1.998,7.569c3.074,10.147,6.855,20.684,10.865,31.633c4.029,10.944,8.351,22.288,12.922,33.932
							l-0.26-0.162c10.748-0.872,21.991-1.784,33.449-2.714l0.026-0.002l-0.229,0.33c-4.347-15.37-8.581-30.34-12.609-44.585
							l-0.167-0.591l0.535,0.3c5.808,3.253,11.51,6.448,17.093,9.575c2.795,1.551,5.543,3.14,8.29,4.611
							c2.754,1.453,5.599,2.655,8.487,3.601c5.776,1.896,11.72,2.755,17.468,2.63c2.875-0.056,5.701-0.368,8.434-0.911
							c1.365-0.224,2.62-0.779,3.845-1.389c1.219-0.617,2.399-1.295,3.539-2.014c2.283-1.435,4.452-2.97,6.495-4.576
							c2.061-1.573,3.824-3.451,4.937-5.677c1.137-2.203,1.72-4.607,1.925-6.973c0.205-2.372,0.05-4.716-0.294-6.965
							c-0.705-4.506-2.11-8.65-3.682-12.428c-1.592-3.775-3.367-7.218-5.248-10.273l0.124,0.066
							c-11.441,0.149-20.414,0.266-26.539,0.346c-3.047,0.031-5.383,0.055-6.971,0.071c-0.779,0.004-1.373,0.007-1.784,0.008
							C405.874,289.748,405.673,289.738,405.673,289.738z"/>
					</g>
				</g>
			</g>
			<g>
				<g>
					<path style="fill:#455A64;" d="M358.867,301.495c0.025-0.025,0.279,0.188,0.718,0.598c0.443,0.406,1.049,1.029,1.765,1.828
						c1.435,1.596,3.255,3.962,4.89,6.811c1.63,2.853,2.75,5.62,3.4,7.665c0.327,1.023,0.558,1.861,0.684,2.448
						c0.131,0.586,0.187,0.913,0.152,0.922c-0.082,0.022-0.447-1.251-1.184-3.249c-0.735-1.998-1.894-4.708-3.504-7.527
						c-1.616-2.815-3.366-5.186-4.718-6.831C359.72,302.513,358.807,301.555,358.867,301.495z"/>
				</g>
			</g>
			<g>
				<g>
					<path style="fill:#455A64;" d="M419.524,295.755c-0.04,0.067-0.88-0.37-2.254-1.032c-1.373-0.665-3.293-1.529-5.452-2.399
						c-2.16-0.868-4.14-1.604-5.566-2.157c-1.427-0.551-2.301-0.921-2.277-0.99c0.023-0.067,0.939,0.179,2.399,0.642
						c1.459,0.465,3.465,1.147,5.639,2.021c2.173,0.875,4.087,1.801,5.427,2.555C418.782,295.147,419.558,295.699,419.524,295.755z"
						/>
				</g>
			</g>
		</g>
		<g style="opacity:0.3;">
			<polygon points="313.39,248.676 309.833,274.205 300.571,311.441 304.993,309.167 312.515,272.769 313.39,248.676 			"/>
		</g>
		<g>
			<g>
				<g>
					<path style="fill:#E0E0E0;" d="M260.013,309.717c-1.597-1.4-7.935,6.861-7.935,6.861l-11.057,7.272l-3.145,14.952
						c0,0,1.291,7.851,3.162,6.956c1.871-0.896,2.772-0.585,2.772-0.585s0.866,2.269,2.738,1.26c1.871-1.009,2.323-3.27,2.323-3.27
						s1.859,1.368,2.961,0.582c1.102-0.786,1.768-2.141,1.768-2.141s3.178,1.036,3.953-0.205c0.775-1.241,4.417-4.957,4.544-8.126
						c0.127-3.169-0.413-4.796-0.409-5.568c0.004-0.773,8.374-0.807,8.374-0.807L260.013,309.717z"/>
				</g>
				<g>
					<polygon style="fill:#FF725E;" points="224.398,321.298 224.378,325.034 221.956,326.379 221.882,340.302 223.076,342.685 
						223.058,346.081 221.844,347.32 221.821,351.508 222.858,352.589 222.807,362.154 225.563,365.026 227.896,365.039 
						228.13,321.319 					"/>
				</g>
				<g>
					<polygon style="fill:#FF725E;" points="231.862,321.339 231.842,325.074 234.25,326.445 234.175,340.368 232.955,342.738 
						232.937,346.134 234.137,347.386 234.115,351.574 233.066,352.643 233.015,362.208 230.229,365.051 227.896,365.039 
						228.13,321.319 					"/>
				</g>
				<g>
					<polygon style="fill:#FF725E;" points="230.299,326.311 264.655,326.495 264.588,338.946 237.875,338.803 234.137,347.386 
						230.186,347.364 					"/>
				</g>
				<g>
					<path style="fill:#FF725E;" d="M272.443,326.469l-0.364,28.138c0,0-6.369,0.419-7.571-0.493
						c-0.15-0.114-0.338-0.286-0.551-0.501c-2.752-2.766-4.24-6.606-4.219-10.569l0.022-4.123l0.067-12.451H272.443z"/>
				</g>
				<g>
					
						<rect x="225.552" y="365.039" transform="matrix(1 0.0053 -0.0053 1 1.9647 -1.2122)" style="fill:#FF725E;" width="4.793" height="4.435"/>
				</g>
			</g>
			<g style="opacity:0.3;">
				<g>
					<path d="M253.371,325.155c0.005,1.732-1,3.297-2.092,4.641c-1.093,1.344-2.265,2.457-3.962,2.805
						c-0.94,0.193-1.918,0.208-2.83,0.504c-0.09,0.029-0.185,0.065-0.244,0.14c-0.101,0.128-0.06,0.313-0.015,0.471
						c0.609,2.134,0.916,4.354,0.911,6.573l0.34-0.207c1.179-0.264,2.091-1.273,2.505-2.408c0.414-1.135,0.398-2.382,0.253-3.582
						c0.865-0.125,1.577-0.721,2.224-1.309c1.091-0.991,2.164-2.054,2.814-3.378C253.926,328.082,254.094,326.441,253.371,325.155z"
						/>
				</g>
			</g>
			<g>
				<path style="fill:#E0E0E0;" d="M241.778,323.457c-0.532,0.027-3.877,2.706-4.049,3.211c-0.172,0.505-0.13,1.055-0.067,1.584
					c0.431,3.613,1.762,7.049,3.082,10.44c0.455,1.17,1.104,2.509,2.341,2.728c0.729,0.13,1.488-0.203,2.005-0.734
					c0.517-0.531,0.819-1.236,1.012-1.952c0.432-1.606,0.35-3.346-0.231-4.905c-0.098-0.262-0.205-0.573-0.048-0.804
					c0.12-0.178,0.352-0.236,0.56-0.288c3.758-0.932,6.642-4.622,6.638-8.494L241.778,323.457z"/>
			</g>
			<g>
				<g>
					<path style="fill:#263238;" d="M231.993,324.997c0,0.144-1.733,0.26-3.871,0.26c-2.139,0-3.872-0.117-3.872-0.26
						s1.733-0.26,3.872-0.26C230.259,324.736,231.993,324.853,231.993,324.997z"/>
				</g>
			</g>
			<g>
				<g>
					<path style="fill:#263238;" d="M233.977,326.469c0,0.144-2.7,0.26-6.03,0.26c-3.331,0-6.031-0.116-6.031-0.26
						c0-0.144,2.699-0.26,6.031-0.26C231.277,326.208,233.977,326.325,233.977,326.469z"/>
				</g>
			</g>
			<g>
				<g>
					<path style="fill:#263238;" d="M233.977,340.184c0,0.144-2.7,0.26-6.03,0.26c-3.331,0-6.031-0.117-6.031-0.26
						s2.699-0.26,6.031-0.26C231.277,339.923,233.977,340.04,233.977,340.184z"/>
				</g>
			</g>
			<g>
				<g>
					<path style="fill:#263238;" d="M233.977,342.775c0,0.144-2.475,0.26-5.526,0.26c-3.053,0-5.527-0.117-5.527-0.26
						s2.474-0.26,5.527-0.26C231.502,342.514,233.977,342.631,233.977,342.775z"/>
				</g>
			</g>
			<g>
				<g>
					<path style="fill:#263238;" d="M233.977,346.085c0,0.144-2.475,0.26-5.526,0.26c-3.053,0-5.527-0.117-5.527-0.26
						s2.474-0.26,5.527-0.26C231.502,345.824,233.977,345.941,233.977,346.085z"/>
				</g>
			</g>
			<g>
				<g>
					<path style="fill:#263238;" d="M233.189,352.561c0,0.144-2.298,0.26-5.133,0.26c-2.835,0-5.133-0.117-5.133-0.26
						c0-0.144,2.298-0.26,5.133-0.26C230.891,352.301,233.189,352.417,233.189,352.561z"/>
				</g>
			</g>
			<g>
				<g>
					<path style="fill:#263238;" d="M233.189,362.154c0,0.144-2.298,0.26-5.133,0.26c-2.835,0-5.133-0.117-5.133-0.26
						c0-0.144,2.298-0.26,5.133-0.26C230.891,361.894,233.189,362.01,233.189,362.154z"/>
				</g>
			</g>
			<g>
				<g>
					<path style="fill:#263238;" d="M230.632,365.051c0,0.144-1.221,0.26-2.728,0.26c-1.507,0-2.728-0.117-2.728-0.26
						c0-0.144,1.221-0.26,2.728-0.26C229.41,364.791,230.632,364.908,230.632,365.051z"/>
				</g>
			</g>
			<g>
				<g>
					<path style="fill:#263238;" d="M234.166,351.41c-0.144,0-0.26-5.622-0.26-12.557c0-6.936,0.117-12.558,0.26-12.558
						c0.144,0,0.26,5.621,0.26,12.558C234.426,345.787,234.31,351.41,234.166,351.41z"/>
				</g>
			</g>
			<g>
				<rect x="227.368" y="369.474" style="fill:#E0E0E0;" width="1.057" height="12.663"/>
			</g>
			<g>
				<g>
					<path style="fill:#263238;" d="M269.586,354.703c-0.144,0-0.26-6.321-0.26-14.116c0-7.798,0.117-14.118,0.26-14.118
						c0.144,0,0.26,6.319,0.26,14.118C269.847,348.382,269.73,354.703,269.586,354.703z"/>
				</g>
			</g>
			<g>
				<g>
					<path style="fill:#263238;" d="M253.514,321.838c0.065,0.003,0.121,0.842,0.057,2.21c-0.076,1.343-0.312,3.335-1.515,5.138
						c-1.188,1.795-2.893,2.874-4.186,3.345c-1.308,0.485-2.184,0.455-2.185,0.402c-0.015-0.089,0.829-0.191,2.044-0.742
						c1.205-0.538,2.775-1.605,3.892-3.292c1.125-1.682,1.414-3.559,1.582-4.884C253.361,322.675,253.435,321.833,253.514,321.838z"
						/>
				</g>
			</g>
			<g>
				<path style="fill:#263238;" d="M229.582,382.138c0,0.299-0.755,0.542-1.686,0.542c-0.931,0-1.686-0.243-1.686-0.542
					c0-0.299,0.755-0.542,1.686-0.542C228.827,381.596,229.582,381.839,229.582,382.138z"/>
			</g>
		</g>
	</g>
</g>
</svg>
