<?xml version="1.0" encoding="utf-8"?>
<!-- Generator: Adobe Illustrator 27.5.0, SVG Export Plug-In . SVG Version: 6.00 Build 0)  -->
<svg version="1.1" xmlns="http://www.w3.org/2000/svg" xmlns:xlink="http://www.w3.org/1999/xlink" x="0px" y="0px"
	 viewBox="0 0 500 500" style="enable-background:new 0 0 500 500;" xml:space="preserve">
<g id="BACKGROUND">
	<rect style="fill:#E5F2F0;" width="500" height="500"/>
</g>
<g id="OBJECTS">
	<g>
		<defs>
			<rect id="SVGID_1_" width="500" height="500"/>
		</defs>
		<clipPath id="SVGID_00000031918394165321847270000005377288243374188728_">
			<use xlink:href="#SVGID_1_"  style="overflow:visible;"/>
		</clipPath>
		<path style="opacity:0.2;clip-path:url(#SVGID_00000031918394165321847270000005377288243374188728_);fill:#FFFFFF;" d="
			M312.333,91.671c-81.284-1.157-140.445-15.993-220.948-17.452c-92.361-1.674-135.988,26.499-135.988,26.499V393.67l623.299,0
			l5.323-310.269C507.11,79.93,393.617,92.828,312.333,91.671z"/>
		<g style="clip-path:url(#SVGID_00000031918394165321847270000005377288243374188728_);">
			<path style="opacity:0.32;fill:#FFFFFF;" d="M370.656,112.917c-146.168,6.646-262.803,4.263-383.614-22.41v33.813
				c69.578,13.18,246.627,41.733,391.273,25.707c36.882-4.087,84.299-7.966,133.959-11.458v-34.774
				C465.463,107.098,421.32,110.614,370.656,112.917z"/>
			<path style="opacity:0.32;fill:#FFFFFF;" d="M400.518,169.008c-98.792,3.903-221.325,2.691-324.415-11.285
				c-41.353-5.606-66.873-11.81-89.06-26.696v40.059c25.524,8.294,54.863,13.971,81.412,18.103
				c70.486,10.969,225.074,3.949,225.074,3.949c0.413,0.539-111.445,28.404-170.031,26.558
				c-45.719-1.441-92.381-8.848-136.455-18.864v28.401c95.035,6.88,194.396,7.593,279.819-4.11
				c77.003-10.549,159.972-23.394,245.413-20.468v-40.322C477.164,165.597,440.636,167.423,400.518,169.008z"/>
		</g>
		<g style="clip-path:url(#SVGID_00000031918394165321847270000005377288243374188728_);">
			<polygon style="fill:#CDE8F5;" points="467.819,252.951 467.819,244.909 471.176,247.097 474.015,241.253 428.953,211.875 
				396.787,232.846 365.011,213.428 340.466,228.427 340.466,220.944 342.699,220.944 342.699,215.348 324.77,215.348 
				324.77,220.944 327.032,220.944 327.032,236.637 312.826,245.318 303.852,245.318 303.852,251.325 319.486,251.325 
				319.486,263.159 269.397,263.159 253.3,296.244 253.227,296.244 253.227,300.866 255.595,300.866 255.595,388.526 
				253.227,388.526 253.227,399.397 506.043,399.397 506.043,252.951 			"/>
			<path style="fill:#C2DCE8;" d="M483.436,385.636v-6.089h-16.62v-8.908c3.616-0.779,6.291-3.975,6.291-13.244
				c0-8.619-2.309-19.918-5.544-24.405c-0.243-0.339-0.493-0.635-0.747-0.892v-40.213l8.947-1.985l-1.675-7.568l-13.987,3.104
				v-56.459l8.643-1.898l-1.675-7.568l-127.287,44.559l1.675,7.568l9.397-2.064v18.972h-72.391v-23.839l3.62,2.36l3.058-6.297
				l-13.905-9.066v-16.546h2.259v-4.622h-17.902v4.622h2.23v7.802l-21.235-13.844l-45.398,29.598v-6.725h2.388v-4.886h-18.925v4.886
				h2.358v12.133l-20.092-13.099l-6.275,4.091c-2.043-14.115-5.976-27.818-10.855-34.585c-1.986-2.764-4.136-4.373-6.376-4.373
				c-9.713,0-17.695,30.106-18.673,54.113c-0.055,1.506-0.088,2.982-0.093,4.432h-7.603v-43.809l4.265,2.781l3.603-7.418
				l-57.198-37.291L0.516,226.253l3.603,7.418l4.261-2.778v43.807H-4.055v119.318h242.398v-0.002h36.347v0.002H500v-8.382H483.436z"
				/>
		</g>
		<g style="clip-path:url(#SVGID_00000031918394165321847270000005377288243374188728_);">
			<path style="fill:#FFFFFF;" d="M162.032,129.549h147.106c0,0-11.209-5.82-19.185-6.251c-7.976-0.431-11.856,0-11.856,0
				s2.29-6.409-2.555-9.566c-3.195-2.082-10.324-3.934-15.122,3.53c0,0,2.322-13.87-8.838-18.97
				c-11.268-5.149-21.567-0.702-25.232,5.118c-3.665,5.82-2.55,9.821-2.55,9.821s-6.214-9.793-20.044-4.592
				c-13.05,4.908-10.899,15.521-10.899,15.521s-6.898-2.802-20.694,1.293C164.448,127.744,162.032,129.549,162.032,129.549z"/>
			<path style="fill:#FFFFFF;" d="M163.567,74.904H-51.549l32.768-4.626c0,0-2.699-8.481,3.084-12.336
				c5.783-3.855,13.107,0,13.107,0s-1.1-18.716,15.477-23.728c16.577-5.012,29.299,5.783,30.841,16.577
				c0,0,3.468-11.08,19.832-8.318c17.189,2.902,18.277,25.492,18.277,25.492s3.584-8.096,11.815-8.096
				c8.231,0,9.388,6.554,9.388,6.554s4.241-12.722,18.119-11.18c13.878,1.542,14.264,14.264,14.264,14.264L163.567,74.904z"/>
			<path style="fill:#FFFFFF;" d="M375.912,97.893l28.849-5.533c0,0,0.395-13.041,14.622-14.622
				c1.957-0.217,3.721-0.151,5.319,0.113c2.982-7.561,10.459-12.934,19.236-12.934c5.869,0,11.153,2.41,14.91,6.259
				c2.203-3.122,5.88-5.171,10.05-5.171c1.53,0,2.987,0.287,4.337,0.79c3.062-12.944,13.959-22.518,26.935-22.518
				c11.634,0,21.593,7.699,25.736,18.621c1.473,0.211,2.984,0.541,4.528,1.008c16.993,5.138,15.808,16.598,15.808,16.598
				s7.509-3.952,13.437,0c5.928,3.952,3.161,12.646,3.161,12.646l33.591,4.742H375.912z"/>
		</g>
		
			<linearGradient id="SVGID_00000174589421611388722130000000593349438287309740_" gradientUnits="userSpaceOnUse" x1="10.9866" y1="387.8445" x2="10.2052" y2="411.2872" gradientTransform="matrix(0.9999 0.0143 -0.0143 0.9999 206.6969 -3.7793)">
			<stop  offset="0" style="stop-color:#B7DE4E"/>
			<stop  offset="1" style="stop-color:#93B641"/>
		</linearGradient>
		
			<path style="clip-path:url(#SVGID_00000031918394165321847270000005377288243374188728_);fill:url(#SVGID_00000174589421611388722130000000593349438287309740_);" d="
			M212.045,392.584c-0.194-0.064-0.398-0.096-0.614-0.084C211.635,392.527,211.84,392.557,212.045,392.584z"/>
		<g style="clip-path:url(#SVGID_00000031918394165321847270000005377288243374188728_);">
			
				<rect x="407.584" y="305.696" transform="matrix(-1 -1.224647e-16 1.224647e-16 -1 1037.1292 617.0205)" style="fill:#8F6F43;" width="221.961" height="5.628"/>
			
				<rect x="407.584" y="345.657" transform="matrix(-1 -1.224647e-16 1.224647e-16 -1 1037.1292 696.9423)" style="fill:#8F6F43;" width="221.961" height="5.628"/>
			<polygon style="fill:#C5965D;" points="411.595,386.625 411.595,294.328 417.583,289.208 423.57,294.328 423.57,386.625 			"/>
			<polygon style="fill:#C1965E;" points="431.822,386.625 431.822,294.328 437.81,289.208 443.796,294.328 443.796,386.625 			"/>
			<polygon style="fill:#CCA365;" points="452.048,386.625 452.048,294.328 458.036,289.208 464.023,294.328 464.023,386.625 			"/>
			<polygon style="fill:#C1965E;" points="472.274,386.625 472.274,294.328 478.262,289.208 484.249,294.328 484.249,386.625 			"/>
			<polygon style="fill:#CCA365;" points="492.501,386.625 492.501,294.328 498.489,289.208 504.475,294.328 504.475,386.625 			"/>
			<polygon style="fill:#C5965D;" points="512.727,386.625 512.727,294.328 518.715,289.208 524.702,294.328 524.702,386.625 			"/>
			<polygon style="fill:#C1965E;" points="532.953,386.625 532.953,294.328 538.941,289.208 544.928,294.328 544.928,386.625 			"/>
			<polygon style="fill:#CCA365;" points="553.18,386.625 553.18,294.328 559.168,289.208 565.154,294.328 565.154,386.625 			"/>
			<polygon style="fill:#C5965D;" points="573.406,386.625 573.406,294.328 579.394,289.208 585.381,294.328 585.381,386.625 			"/>
			<polygon style="fill:#C5965D;" points="593.632,386.625 593.632,294.328 599.619,289.208 605.607,294.328 605.607,386.625 			"/>
			<polygon style="fill:#C5965D;" points="613.859,386.625 613.859,294.328 619.846,289.208 625.833,294.328 625.833,386.625 			"/>
		</g>
		<g style="clip-path:url(#SVGID_00000031918394165321847270000005377288243374188728_);">
			
				<rect x="-74.204" y="305.696" transform="matrix(-1 -1.224647e-16 1.224647e-16 -1 82.4021 617.0205)" style="fill:#8F6F43;" width="230.81" height="5.628"/>
			
				<rect x="-74.204" y="345.657" transform="matrix(-1 -1.224647e-16 1.224647e-16 -1 82.4021 696.9423)" style="fill:#8F6F43;" width="230.81" height="5.628"/>
			<polygon style="fill:#C5965D;" points="-65.768,386.625 -65.768,294.328 -59.78,289.208 -53.793,294.328 -53.793,386.625 			"/>
			<polygon style="fill:#C1965E;" points="-45.542,386.625 -45.542,294.328 -39.554,289.208 -33.567,294.328 -33.567,386.625 			"/>
			<polygon style="fill:#CCA365;" points="-25.316,386.625 -25.316,294.328 -19.328,289.208 -13.341,294.328 -13.341,386.625 			"/>
			<polygon style="fill:#C1965E;" points="-5.089,386.625 -5.089,294.328 0.899,289.208 6.886,294.328 6.886,386.625 			"/>
			<polygon style="fill:#CCA365;" points="15.137,386.625 15.137,294.328 21.125,289.208 27.112,294.328 27.112,386.625 			"/>
			<polygon style="fill:#C5965D;" points="35.363,386.625 35.363,294.328 41.351,289.208 47.338,294.328 47.338,386.625 			"/>
			<polygon style="fill:#C1965E;" points="55.59,386.625 55.59,294.328 61.578,289.208 67.565,294.328 67.565,386.625 			"/>
			<polygon style="fill:#CCA365;" points="75.816,386.625 75.816,294.328 81.804,289.208 87.791,294.328 87.791,386.625 			"/>
			<polygon style="fill:#C5965D;" points="96.042,386.625 96.042,294.328 102.03,289.208 108.017,294.328 108.017,386.625 			"/>
			<polygon style="fill:#C5965D;" points="116.269,386.625 116.269,294.328 122.256,289.208 128.244,294.328 128.244,386.625 			"/>
			<polygon style="fill:#C5965D;" points="136.495,386.625 136.495,294.328 142.482,289.208 148.47,294.328 148.47,386.625 			"/>
		</g>
		<path style="clip-path:url(#SVGID_00000031918394165321847270000005377288243374188728_);fill:#B6CB6B;" d="M459.712,381.183
			c-19.396-0.429-38.843-0.794-58.318-1.049c-19.649-0.257-39.325-0.323-59.001-0.456c-20.012-0.135-184.744,0.068-185.716,0.063
			c0.018-0.016,0.039-0.031,0.063-0.045c0.05-0.029,0.121-0.056,0.178-0.084c-36.933,0.262-73.843,0.65-110.701,1.183
			c-18.35,0.266-36.687,0.569-55.005,0.909v124.571h514.576V381.933C490.372,381.949,475.006,381.522,459.712,381.183z"/>
		<g style="clip-path:url(#SVGID_00000031918394165321847270000005377288243374188728_);">
			<path style="fill:#728F38;" d="M524.131,476.264c0.131-0.054,0.263-0.108,0.394-0.162
				C524.404,476.123,524.272,476.18,524.131,476.264z"/>
			<path style="fill:#9EB34F;" d="M526.87,485.735c-3.573,1.274-7.146,2.57-10.718,3.887c0.861-2.85,5.698-12.003,7.979-13.358
				c-6.916,2.827-14.071,6.074-19.23,14.072c0.197-2.374,0.644-4.672,1.316-6.761c-2.188,1.896-4.038,4.803-5.302,8.324
				c-2.142-8.48-5.9-15.91-10.584-20.886c2.278,4.228,2.89,10.121,3.404,15.655c-1.121-1.677-2.242-3.354-3.363-5.029
				c0.918,1.751,1.659,3.756,2.18,5.898c-1.781-1.909-3.796-3.174-5.866-3.724c0.275-1.992,0.711-3.127,0.711-3.127
				c-0.79,0.451-1.636,1.512-2.46,2.851c-0.624-0.043-1.248-0.04-1.868,0.052c0.413,0.262,0.869,0.551,1.335,0.858
				c-2.282,4.061-4.269,9.756-4.269,9.756c-1.306-3.732-0.326-6.153-0.326-6.153c-2.611,0.706-6.12,5.952-6.12,5.952
				c0.622-6.956,3.754-9.886,3.754-9.886c-1.303,0.41-2.55,1.935-3.665,3.889c0.438-3.483,1.049-6.874,1.812-9.844
				c-3.905,2.613-7.531,11.256-7.531,11.256s-2.231-14.122-3.36-21.211c-2.69,5.405-3.333,15.081-3.33,23.153
				c-2.562-3.767-5.859-7.643-9.508-9.554c1.626,3.396,4.88,10.159,4.88,10.159s-2.856-2.951-6.073-5.43
				c-1.578-4.897-3.674-9.374-3.674-9.374c0.421,1.618,0.302,4.333,0.016,6.965c-0.784-0.408-1.536-0.72-2.209-0.853
				c0.667,0.682,1.324,1.643,1.974,2.764c-0.406,2.971-0.915,5.425-0.915,5.425c-0.34-7.431-4.083-11.637-4.083-11.637
				c1.248,3.785-2.836,13.319-2.836,13.319c-0.907-5.047,0.907-12.455,0.907-12.455c-2.43,1.048-6.121,5.55-8.3,8.415
				c-1.425,0.042-3.312,0.067-3.479,0.218c0.393-3.991,0.192-9.677-3.049-12.106c0.747,4.949,0.066,7.866-1.973,11.906
				c-0.102-0.905-2.965-6.029-7.017-7.505c2.549,2.586,4.015,6.278,3.839,9.637c-0.967-1.748-2.352-3.267-3.944-4.435
				c-3.406-3.395-7.381-5.313-7.381-5.313c1.588,1.542,4.197,8.534,4.197,8.534c-3.062-5.907-8.507-6.852-8.507-6.852
				c0.562,1.579,0.639,4.379,0.556,6.982c-2.384-7.288-12.239-11.048-12.239-11.048s0.756,0.471,1.957,1.777
				c-3.13,2.362-6.946,13.306-6.946,13.306c-1.306-3.732-0.326-6.153-0.326-6.153c-2.611,0.706-6.12,5.952-6.12,5.952
				c0.622-6.956,3.754-9.886,3.754-9.886c-1.303,0.41-2.55,1.935-3.665,3.889c0.438-3.483,1.049-6.874,1.812-9.844
				c-3.905,2.613-7.531,11.256-7.531,11.256s-2.55-5.507-1.386-13.777c-2.69,5.405-1.749,7.578-1.746,15.649
				c-0.765-1.125-1.917-2.252-3.247-3.332c0.514-0.878,1.033-1.643,1.545-2.221c-1.006,0.359-2.012,0.732-3.018,1.095
				c-1.605-1.163-3.346-2.242-4.953-3.168c1.761-3.258,3.918-6.618,5.231-7.398c-4.705,1.923-9.52,4.041-13.743,7.718
				c-0.687-0.339-1.344-0.594-1.94-0.712c0.385,0.394,0.767,0.886,1.146,1.441c-1.684,1.576-3.266,3.415-4.692,5.626
				c0.197-2.374,0.644-4.672,1.316-6.761c-2.188,1.896-4.038,4.803-5.302,8.324c-2.142-8.48-5.9-15.91-10.584-20.886
				c2.278,4.228,2.89,10.121,3.404,15.655c-1.121-1.677-2.241-3.354-3.362-5.029c0.918,1.751,1.659,3.756,2.18,5.898
				c-1.781-1.909-3.796-3.174-5.866-3.724c0.275-1.992,0.712-3.127,0.712-3.127c-0.79,0.451-1.636,1.512-2.46,2.851
				c-0.624-0.042-1.248-0.04-1.868,0.052c0.413,0.262,0.869,0.551,1.335,0.858c-2.282,4.061-4.269,9.756-4.269,9.756
				c-1.306-3.732-0.326-6.153-0.326-6.153c-2.611,0.706-6.12,5.952-6.12,5.952c0.622-6.956,3.754-9.886,3.754-9.886
				c-1.303,0.41-2.55,1.935-3.665,3.889c0.438-3.483,1.049-6.874,1.812-9.844c-3.905,2.613-7.531,11.256-7.531,11.256
				s-2.231-14.122-3.36-21.211c-2.69,5.405-3.333,15.081-3.331,23.153c-2.562-3.767-5.859-7.643-9.508-9.554
				c1.626,3.396,4.88,10.159,4.88,10.159s-2.856-2.951-6.073-5.43c-1.578-4.897-3.674-9.374-3.674-9.374
				c0.421,1.618,0.301,4.333,0.016,6.965c-0.784-0.408-1.536-0.72-2.209-0.853c0.667,0.682,1.324,1.643,1.974,2.764
				c-0.406,2.971-0.915,5.425-0.915,5.425c-0.34-7.431-4.083-11.637-4.083-11.637c1.248,3.785-2.836,13.319-2.836,13.319
				c-0.907-5.047,0.907-12.455,0.907-12.455c-3.63,1.565-10.088,10.851-10.088,10.851c0.928-2.402,2.086-4.433,3.629-5.825
				c-0.315,0.234-4.816,0.322-5.085,0.651c0.501-5.359,0.453-12.963-2.733-16.081c0.616,6.595-0.145,10.527-2.3,16.02
				c-0.078-1.208-2.812-7.95-6.838-9.758c2.488,3.357,3.859,8.239,3.592,12.743c-1.691-4.215-4.787-7.406-8.098-8.389
				c1.049,1.475,1.917,3.043,2.657,4.677c-3.027-2.615-6.041-4.071-6.041-4.071c1.382,1.343,3.537,6.813,4.072,8.207
				c-0.022-0.002-0.044-0.004-0.066-0.006c-3.091-5.598-8.316-6.518-8.316-6.518c0.562,1.579,0.639,4.379,0.556,6.982
				c-2.384-7.288-12.239-11.048-12.239-11.048s2.042,1.262,4.764,5.46c0.821,1.266,1.321,3.26,1.62,5.425
				c-3.067-0.378-5.671,1.877-5.671,1.877c-1.224-6.758,0.49-11.197,0.49-11.197c-3.183,1.816-7.263,13.517-7.263,13.517
				c-1.306-3.732-0.326-6.153-0.326-6.153c-2.611,0.706-6.12,5.952-6.12,5.952c0.622-6.956,3.754-9.886,3.754-9.886
				c-1.303,0.41-2.55,1.935-3.666,3.889c0.438-3.483,1.049-6.874,1.812-9.844c-3.905,2.613-7.531,11.256-7.531,11.256
				s-2.55-5.507-1.386-13.777c-2.69,5.405-1.749,7.578-1.746,15.649c-0.765-1.125-1.917-2.252-3.247-3.332
				c0.514-0.878,1.033-1.643,1.545-2.221c-1.006,0.359-2.012,0.732-3.018,1.095c-1.605-1.163-3.346-2.242-4.953-3.168
				c1.761-3.258,3.918-6.618,5.231-7.398c-4.705,1.923-9.521,4.041-13.743,7.718c-0.687-0.339-1.344-0.594-1.94-0.712
				c0.385,0.394,0.767,0.886,1.146,1.441c-1.684,1.577-3.266,3.415-4.692,5.626c0.197-2.374,0.644-4.672,1.316-6.761
				c-2.188,1.896-4.038,4.803-5.302,8.324c-2.142-8.48-5.9-15.91-10.584-20.886c2.278,4.228,2.89,10.121,3.404,15.655
				c-1.12-1.677-2.242-3.354-3.363-5.029c0.919,1.751,1.659,3.756,2.18,5.898c-1.781-1.909-3.796-3.174-5.866-3.724
				c0.275-1.992,0.712-3.127,0.712-3.127c-0.79,0.451-1.636,1.512-2.46,2.851c-0.624-0.042-1.248-0.04-1.868,0.052
				c0.413,0.262,0.868,0.551,1.335,0.858c-2.282,4.061-4.269,9.756-4.269,9.756c-1.306-3.732-0.327-6.153-0.327-6.153
				c-2.611,0.706-6.12,5.952-6.12,5.952c0.622-6.956,3.754-9.886,3.754-9.886c-2.943,0.926-5.605,7.524-7.09,11.957
				c-1.912-4.491-2.483-9.316-1.234-13.249c-3.905,2.114-4.071,8.357-4.071,8.357s-3.614-3.746-2.377-11.5
				c-3.557,5.35-2.8,8.67-1.303,13.512c-2.562-3.047-5.859-6.182-9.508-7.727c1.626,2.747,4.88,8.216,4.88,8.216
				s-2.306-1.927-5.107-3.773c-1.479-5.994-4.64-12.751-4.64-12.751c0.59,2.268,0.12,6.685-0.383,10.014
				c-0.518-0.201-1.01-0.345-1.478-0.446c-1.185-4.454-3.356-6.904-3.356-6.904c1.248,3.786-2.836,13.319-2.836,13.319
				c-0.907-5.047,0.908-12.455,0.908-12.455c-2.442,1.053-6.157,5.593-8.332,8.456c-0.554,0.059-0.996,0.126-1.064,0.214
				c0.382-4.11,0.369-9.937-1.945-12.312c0.429,5.052-0.137,8.069-1.725,12.288c-0.053-0.925-2.027-6.08-4.958-7.448
				c1.804,2.561,2.79,6.297,2.581,9.75c-1.22-3.222-3.469-5.655-5.881-6.393c0.902,1.335,0.523,3.311,0.3,5.217
				c-3.41-5.64-10.282-8.955-10.282-8.955c1.588,1.542,1.482,14.211,1.482,14.211c-1.697-5.397-3.172-10.943-3.172-10.943
				c-0.423,3.618-2.056,8.613-2.139,11.216c-0.7-2.141-1.575-4.34-2.461-6.385c0.305-2.009,0.793-3.835,1.563-5.023
				c2.722-4.198,4.764-5.46,4.764-5.46s-4.894,1.87-8.619,5.525c-1.169-2.384-2.034-3.96-2.034-3.96s0.677,2.263,1.198,4.835
				c-1.199,1.343-2.209,2.892-2.784,4.648c-0.083-2.603-0.006-5.403,0.556-6.982c0,0-5.444,0.945-8.507,6.852
				c0,0,2.609-6.992,4.197-8.534c0,0-6.872,3.315-10.282,8.955c-0.223-1.906-0.602-3.882,0.3-5.217
				c-2.412,0.738-4.66,3.17-5.881,6.393c-0.209-3.453,0.777-7.189,2.582-9.75c-2.931,1.368-4.905,6.522-4.958,7.448
				c-1.588-4.219-2.155-7.236-1.725-12.288c-2.314,2.375-2.327,8.202-1.945,12.312c-0.068-0.088-0.51-0.155-1.064-0.214
				c-2.175-2.863-5.89-7.403-8.331-8.456c0,0,1.815,7.408,0.907,12.455c0,0-4.083-9.534-2.836-13.319c0,0-2.172,2.451-3.357,6.904
				c-0.468,0.1-0.96,0.245-1.478,0.446c-0.502-3.329-0.972-7.746-0.383-10.014c0,0-3.161,6.757-4.64,12.751
				c-2.8,1.845-5.107,3.773-5.107,3.773s3.254-5.47,4.88-8.216c-3.648,1.545-6.946,4.68-9.508,7.727
				c1.497-4.842,2.254-8.162-1.303-13.512c1.237,7.754-2.377,11.5-2.377,11.5s-0.165-6.243-4.071-8.357
				c1.249,3.933,0.678,8.758-1.234,13.249c-1.484-4.433-4.146-11.031-7.09-11.957c0,0,3.132,2.93,3.754,9.886
				c0,0-3.509-5.246-6.12-5.952c0,0,0.979,2.421-0.326,6.153c0,0-1.987-5.695-4.269-9.756c0.466-0.308,0.922-0.596,1.335-0.858
				c-0.62-0.092-1.244-0.094-1.868-0.052c-0.825-1.339-1.67-2.4-2.46-2.851c0,0,0.437,1.135,0.712,3.127
				c-2.069,0.551-4.085,1.815-5.866,3.724c0.52-2.142,1.261-4.147,2.18-5.898c-1.121,1.676-2.242,3.352-3.362,5.029
				c0.514-5.534,1.126-11.427,3.404-15.655c-4.684,4.977-8.442,12.406-10.584,20.886c-1.264-3.522-3.114-6.429-5.302-8.324
				c0.671,2.089,1.119,4.388,1.316,6.761c-1.426-2.211-3.008-4.049-4.692-5.626c0.379-0.555,0.761-1.047,1.146-1.441
				c-0.596,0.118-1.253,0.374-1.94,0.712c-4.223-3.677-9.038-5.795-13.743-7.718c1.313,0.78,3.47,4.14,5.231,7.398
				c-1.607,0.925-3.348,2.005-4.953,3.168c-1.006-0.362-2.012-0.736-3.018-1.095c0.513,0.578,1.031,1.343,1.545,2.221
				c-1.331,1.08-2.483,2.207-3.247,3.332c0.003-8.071,0.944-10.244-1.746-15.649c1.164,8.27-1.386,13.777-1.386,13.777
				s-3.626-8.642-7.531-11.256c0.763,2.97,1.374,6.361,1.812,9.844c-1.115-1.954-2.362-3.479-3.665-3.889
				c0,0,3.131,2.93,3.754,9.886c0,0-3.509-5.246-6.12-5.952c0,0,0.979,2.421-0.326,6.153c0,0-4.08-11.701-7.263-13.517
				c0,0,1.714,4.438,0.49,11.197c0,0-3.509-3.05-7.181-1.475c-2.316,0.994-4.724,4.597-6.189,7.126h-2.049v39.234H526.87v-39.234
				h-6.073C522.435,493.948,524.704,488.178,526.87,485.735z M489.402,490.115c0.04,0.113,0.068,0.205,0.094,0.296
				c-1.542,0.569-2.587,1.472-2.587,1.472c-0.406-2.241-0.485-4.219-0.415-5.873C487.689,487.057,488.78,488.371,489.402,490.115z
				 M426.33,497.534c0.007,0,0.014-0.001,0.021-0.002l-0.001,0.002H426.33z M394.688,481.096c0.743,0.83,1.639,1.962,2.626,3.485
				c0.817,1.26,1.315,3.239,1.616,5.391c-2.577,0.161-4.595,1.911-4.595,1.911C393.326,486.317,394.309,482.332,394.688,481.096z
				 M361.386,486.18c0.413,0.859,0.82,1.706,1.193,2.482c-0.452,0.165-0.905,0.326-1.357,0.492c-0.27-0.243-0.551-0.491-0.844-0.745
				C360.643,487.762,360.986,487.003,361.386,486.18z M333.181,490.115c0.04,0.113,0.068,0.205,0.094,0.296
				c-1.542,0.569-2.587,1.472-2.587,1.472c-0.406-2.241-0.485-4.219-0.415-5.873C331.468,487.057,332.559,488.371,333.181,490.115z
				 M270.186,497.435l-0.056,0.099h-1.289c-0.008-0.001-0.014-0.002-0.022-0.003C269.278,497.523,269.733,497.486,270.186,497.435z
				 M204.094,486.18c0.413,0.859,0.82,1.706,1.193,2.482c-0.452,0.165-0.904,0.326-1.357,0.492c-0.27-0.243-0.551-0.491-0.844-0.745
				C203.352,487.762,203.695,487.003,204.094,486.18z M175.889,490.115c0.04,0.113,0.068,0.205,0.094,0.296
				c-1.542,0.569-2.587,1.472-2.587,1.472c-0.406-2.241-0.485-4.219-0.415-5.873C174.176,487.057,175.267,488.371,175.889,490.115z
				 M132.903,488.406c-0.297,1.799-0.557,3.053-0.557,3.053c-0.075-1.641-0.321-3.114-0.651-4.43
				C132.101,487.419,132.504,487.883,132.903,488.406z M42.409,487.029c-0.33,1.316-0.576,2.789-0.651,4.43
				c0,0-0.26-1.254-0.557-3.053C41.601,487.883,42.003,487.419,42.409,487.029z M1.124,486.01c0.071,1.654-0.009,3.632-0.415,5.873
				c0,0-1.046-0.903-2.587-1.472c0.026-0.09,0.053-0.182,0.094-0.296C-1.163,488.371-0.072,487.057,1.124,486.01z M-29.99,486.18
				c0.399,0.823,0.743,1.582,1.008,2.228c-0.293,0.254-0.574,0.502-0.844,0.745c-0.452-0.166-0.905-0.327-1.357-0.492
				C-30.81,487.886-30.402,487.039-29.99,486.18z"/>
			<path style="fill:#728F38;" d="M367.91,476.264c0.131-0.054,0.263-0.108,0.394-0.162
				C368.183,476.123,368.051,476.18,367.91,476.264z"/>
			<path style="fill:#728F38;" d="M210.618,476.264c0.131-0.054,0.263-0.108,0.394-0.162
				C210.892,476.123,210.76,476.18,210.618,476.264z"/>
			<path style="fill:#728F38;" d="M-36.514,476.264c-0.141-0.084-0.274-0.141-0.394-0.162
				C-36.777,476.155-36.645,476.21-36.514,476.264z"/>
		</g>
	</g>
	<g>
		<path style="fill:#9EB34F;" d="M240.906,440.52c-33.616-1.988-67.539-3.503-101.448-3.996
			c-38.636-0.561-76.136,0.719-116.869,4.282c-1.977,0.173,6.022,2.961,17.648,3.946c25.254,2.139,60.019,1.919,105.693,2.311
			c26.135,0.224,64.924-2.152,83.053-2.659C259.099,443.562,272.147,443.804,240.906,440.52z"/>
		<path style="fill:#9B6C4F;" d="M234.038,438.086c-3.481-2.523-9.868-1.081-15.43-2.162c-5.562-1.081-2.781-3.604-10.012-7.208
			c-7.231-3.604-14.183,2.162-18.077,3.965c-3.893,1.802-4.551,3.769-10.667,2.675c-13.283-2.374-17.213,1.214-17.686,1.441
			c-2.556-1.345-8.319-4.473-11.114-3.662c-1.537,0.446-3.134,1.128-4.599,1.835c-1.993-0.626-3.874-1.477-5.436-2.649
			c-5.284-3.965-8.621,1.081-11.402-3.604c-2.781-4.685-10.012-10.092-15.852-8.29c-5.84,1.802-5.84,5.046-9.734,4.685
			c-3.894-0.36-11.124,6.127-11.124,6.127s-3.059,0.361-8.343-2.883c-5.284-3.244-18.355,1.442-24.195,5.046
			c-5.84,3.604-22.526,6.848-22.526,6.848l203.293,1.442C241.135,441.691,237.519,440.609,234.038,438.086z"/>
	</g>
	<g>
		<path style="fill:#9EB34F;" d="M451.87,400.844c-21.751-1.744-43.713-4.554-65.665-4.801c-25.012-0.281-50.022,0.765-74.728,3.951
			c-1.002,1.27,3.158,2.361,10.678,3.261c16.336,1.956,45.603,2.559,75.172,2.62c16.92,0.035,34.225-0.048,45.966-0.686
			C462.8,404.129,472.075,403.901,451.87,400.844z"/>
		<g>
			<path style="fill:#C2C0C2;" d="M402.558,400.716c11.729-15.219,18-41.697,15.455-68.654c-0.002-0.022-0.004-0.043-0.006-0.065
				c-0.338-3.557-3.37-6.251-6.943-6.251h-63.239c-3.573,0-6.605,2.694-6.943,6.251c-0.002,0.022-0.004,0.043-0.006,0.065
				c-2.545,26.957,3.726,53.435,15.455,68.654H402.558z"/>
			<rect x="374.028" y="172.192" style="fill:#EFBF86;" width="10.837" height="167.103"/>
			<g>
				<path style="fill:#C2C0C2;" d="M379.445,162.467c-11.571,0-21.03-11.703-21.535-26.644l-0.105-3.055h43.283l-0.105,3.055
					C400.475,150.763,391.013,162.467,379.445,162.467z M364.238,137.598c0,11.797,7.802,18.966,15.207,18.966
					c7.402,0,15.207-7.169,15.207-18.966H364.238z"/>
			</g>
			<path style="fill:#C2C0C2;" d="M402.716,128.068h-46.539c-1.674,0-3.032,1.357-3.032,3.032v3.466
				c0,1.674,1.357,3.032,3.032,3.032h46.539c1.674,0,3.032-1.357,3.032-3.032V131.1C405.748,129.426,404.39,128.068,402.716,128.068
				z"/>
			<path style="fill:#C2C0C2;" d="M384.855,158.501h-10.818c-0.867,0-1.569,0.702-1.569,1.569v22.325
				c0,0.867,0.703,1.569,1.569,1.569h10.818c0.867,0,1.569-0.703,1.569-1.569v-22.325
				C386.425,159.204,385.722,158.501,384.855,158.501z"/>
			<path style="fill:#9F9DA0;" d="M385.336,321.13h-11.779c-0.628,0-1.137,0.509-1.137,1.137v49.512
				c0,3.666,2.972,6.639,6.639,6.639h0.775c3.666,0,6.638-2.972,6.638-6.639v-49.512C386.472,321.639,385.964,321.13,385.336,321.13
				z"/>
			
				<line style="fill:none;stroke:#9F9DA0;stroke-width:1.0235;stroke-miterlimit:10;" x1="354.82" y1="137.598" x2="402.716" y2="137.598"/>
		</g>
		<path style="fill:#9B6C4F;" d="M324.661,401.964h121.343c0,0-14.252-2.713-16.189-4.382c-1.938-1.669-7.536-6.261-14.184-6.887
			c-6.648-0.626-9.622,6.052-11.371,5.635c-1.749-0.417-4.898-2.296-8.047-2.087c-3.149,0.209-5.248,2.066-5.248,2.066
			s-4.374-3.109-7.522-3.527c-3.149-0.417-5.248,1.878-6.473,1.669c-1.225-0.209-2.449-2.922-4.898-2.922
			c-2.449,0-4.199-0.083-5.773-0.876c-1.574-0.793-5.248-2.963-8.747,0c-3.499,2.963-3.149,4.332-5.598,4.9
			c-2.449,0.568-6.123,2.029-6.123,2.029s-5.248-0.626-9.972,0.417C331.134,399.043,324.661,401.964,324.661,401.964z"/>
	</g>
	<g>
		<path style="fill:#9EB34F;" d="M305.837,410.297c-29.214-1.382-61.502-2.248-90.485-3.334c-22.564,2.497-45.231,1.888-67.913,0.39
			c-39.673,2.02-80.47,3.401-119.45,7.992c-10.234,4.166,24.601,3.595,29.099,3.924c36.016,4.723,74.857,2.205,111.777,1.382
			c5.502,0.605,10.633,0.955,15.555,1.136c8.262,0.706,20.406,0.893,32.281,0.961c20.799,0.119,41.382-0.306,52.862-2.162
			c1.338-0.216,2.523-0.446,3.538-0.69c24.643-0.383,53.208-1.901,59.183-5.488C333.668,412.91,317.605,411.36,305.837,410.297z"/>
		<g>
			<g>
				<path style="fill:#FFFFFF;" d="M349.282,294.392c-0.726,0.263-1.442,0.126-1.599-0.307c-0.157-0.433,0.304-0.998,1.03-1.261
					c0.726-0.263,1.442-0.126,1.599,0.307C350.469,293.564,350.008,294.129,349.282,294.392z"/>
				<path style="fill:#FFFFFF;" d="M348.845,315.131c-1.367,0.419-2.595,0.37-2.742-0.109c-0.147-0.479,0.843-1.207,2.21-1.626
					c1.367-0.419,1.925-0.137,2.072,0.343C350.532,314.218,350.212,314.712,348.845,315.131z"/>
				<path style="fill:#FFFFFF;" d="M335.528,286.428c-0.8,1.186-2.489,1.961-2.904,1.681s-0.104-1.469,0.696-2.654
					c0.8-1.186,1.411-1.317,1.826-1.037C335.561,284.698,336.327,285.242,335.528,286.428z"/>
				<path style="fill:#FFFFFF;" d="M319.801,282.997c0.3-0.611,0.741-1.009,0.985-0.89c0.244,0.12,0.198,0.712-0.103,1.323
					c-0.3,0.611-1.03,1.593-1.274,1.473C319.167,284.784,319.501,283.608,319.801,282.997z"/>
				<path style="fill:#FFFFFF;" d="M330.951,324.654c-0.258-0.044-2.794-0.098-3.941,0.358c-0.36,0.143-1.289,0.386-1.402,0.84
					c-0.237,0.949,1.716,0.672,2.199,0.57C328.978,326.176,332.028,324.837,330.951,324.654z"/>
				<path style="fill:#FFFFFF;" d="M373.043,319.557c-7.471-0.505-11.023,0.572-8.512,1.299c2.512,0.727,8.278,0.07,9.371-0.323
					S374.623,319.664,373.043,319.557z"/>
				<path style="fill:#FFFFFF;" d="M379.992,313.846c-6.814,0.169-10.494,0.828-9.324,1.526c1.169,0.698,4.796-0.59,8.461-0.796
					S381.74,313.803,379.992,313.846z"/>
				<path style="fill:#FFFFFF;" d="M380.618,306.029c-5.812,1.263-12.311,3.257-10.588,3.503c1.723,0.246,10.406-2.796,11.63-3.234
					C382.885,305.859,382.348,305.653,380.618,306.029z"/>
				<path style="fill:#FFFFFF;" d="M389.182,306.53c-4.122,0.777-9.725,1.542-8.396,2.083c1.329,0.541,7.223-1.076,8.82-1.418
					C391.202,306.852,392.176,305.965,389.182,306.53z"/>
				<path style="fill:#FFFFFF;" d="M383.49,301.411c-2.923,0.851-5.703,1.745-4.202,1.616c1.502-0.129,3.864-0.671,5.156-1.37
					C385.736,300.958,384.799,301.03,383.49,301.411z"/>
				<path style="fill:#FFFFFF;" d="M388.302,295.467c-6.645,1.118-11.952,3.866-8.631,3.61c3.321-0.255,8.472-2.222,10.079-2.761
					C391.357,295.778,393.613,294.573,388.302,295.467z"/>
				<path style="fill:#FFFFFF;" d="M378.613,293.327c-6.94,1.301-10.16,3.231-8.366,3.507c1.794,0.276,6.392-1.237,8.289-1.82
					C380.432,294.431,383.159,292.474,378.613,293.327z"/>
				<path style="fill:#FFFFFF;" d="M361.962,296.021c-5.404,1.429-8.58,2.798-6.734,2.873c1.846,0.075,6.462-1.355,8.632-2.383
					C366.03,295.482,365.838,294.996,361.962,296.021z"/>
				<path style="fill:#FFFFFF;" d="M347.605,307.372c-2.848,1.721-3.646,2.903-1.939,2.747c1.707-0.155,3.125-0.266,3.935-1.407
					C350.411,307.571,349.738,306.082,347.605,307.372z"/>
				<path style="fill:#FFFFFF;" d="M335.677,308.219c-2.701,1.007-4.634,2.735-3.038,2.392c1.597-0.343,2.701-0.931,3.75-1.613
					C337.438,308.316,337.565,307.515,335.677,308.219z"/>
				<path style="fill:#FFFFFF;" d="M344.539,303.557c-2.453,0.454-4.545,1.925-3.108,1.739c1.437-0.185,3.017-0.77,3.961-1.202
					C346.338,303.664,346.332,303.225,344.539,303.557z"/>
				<path style="fill:#FFFFFF;" d="M357.705,307.149c-2.282,0.71-3.7,1.42-2.785,1.719c0.915,0.299,2.746-0.181,4.317-0.888
					C360.808,307.274,359.525,306.582,357.705,307.149z"/>
				<path style="fill:#FFFFFF;" d="M363.627,316.277c-2.204,0.505-4.152,1.251-3.169,1.902c0.984,0.65,3.506-0.049,4.515-1.039
					C365.983,316.149,364.991,315.965,363.627,316.277z"/>
				<path style="fill:#FFFFFF;" d="M389.063,316.383c-4.932,0.025-8.907,0.522-8.717,1.326c0.19,0.803,5.207,0.588,8.352,0.089
					C391.844,317.298,391.852,316.368,389.063,316.383z"/>
				<path style="fill:#FFFFFF;" d="M380.673,323.219c-4.263,0.045-8.193,0.678-5.948,0.899c2.245,0.222,5.847,0.259,7.936-0.146
					S382.871,323.195,380.673,323.219z"/>
				<path style="fill:#FFFFFF;" d="M370.495,305.453c-4.764,0.736-7.153,1.749-6.623,2.25c0.531,0.502,4.068-0.515,5.46-0.89
					C370.723,306.438,373.694,304.958,370.495,305.453z"/>
				<path style="fill:#FFFFFF;" d="M402.16,303.858c-4.255,0.806-8.09,1.668-7.065,1.986c1.025,0.318,4.899-0.898,6.891-1.312
					C403.978,304.117,404.769,303.363,402.16,303.858z"/>
				<path style="fill:#FFFFFF;" d="M389.835,311.492c-2.57-0.048-4.865,1.17-4.119,1.708
					C386.462,313.739,392.73,311.546,389.835,311.492z"/>
				<path style="fill:#FFFFFF;" d="M401.999,313.166c-3.148,0.006-9.428,1.648-8.164,1.82c1.264,0.172,5.599-0.226,7.831-0.528
					C403.899,314.155,404.963,313.16,401.999,313.166z"/>
				<path style="fill:#FFFFFF;" d="M357.975,310.668c-2.083,0.963-2.358,1.536-0.97,1.226c1.388-0.31,2.533-0.723,3.538-1.187
					C361.547,310.242,359.528,309.95,357.975,310.668z"/>
				<path style="fill:#FFFFFF;" d="M368.248,300.517c-3.134,0.905-9.545,3.298-7.527,2.933c2.018-0.365,7.075-2.075,8.934-2.571
					C371.514,300.384,370.131,299.973,368.248,300.517z"/>
				<path style="fill:#FFFFFF;" d="M393.254,289.02c-4.152,0.355-11.033,3.62-8.527,3.342c2.507-0.277,7.284-1.893,9.134-2.455
					C395.712,289.346,396.281,288.762,393.254,289.02z"/>
				<path style="fill:#FFFFFF;" d="M366.752,282.882c-3.048,0.822-6.847,3.429-5.71,3.645c1.137,0.216,3.38-1.322,5.348-2.238
					C368.357,283.373,369.233,282.214,366.752,282.882z"/>
				<path style="fill:#FFFFFF;" d="M347.053,287.962c-2.822,1.666-4.623,3.31-4.058,3.802s2.536-0.885,5.304-2.519
					C351.067,287.612,349.639,286.435,347.053,287.962z"/>
				<path style="fill:#FFFFFF;" d="M336.763,300.965c-4.314,2.159-7.027,4.925-5.653,4.817c1.374-0.107,3.891-2.108,5.548-3.165
					C338.315,301.561,340.37,299.16,336.763,300.965z"/>
				<path style="fill:#FFFFFF;" d="M332.225,296.231c-2.263,1.565-4.908,4.265-4.341,4.604c0.567,0.339,2.934-2.129,4.752-3.661
					C334.455,295.641,333.958,295.032,332.225,296.231z"/>
				<path style="fill:#FFFFFF;" d="M324.173,307.919c-4.8,2.447-9.635,7.827-7.696,7.019s5.599-3.81,7.294-5.46
					S326.077,306.948,324.173,307.919z"/>
				<path style="fill:#FFFFFF;" d="M326.507,312.445c-3.291,1.941-6.756,4.568-5.373,4.425c1.384-0.143,3.45-2.189,5.075-3.27
					C327.835,312.518,327.731,311.723,326.507,312.445z"/>
				<path style="fill:#FFFFFF;" d="M340.7,311.116c-2.647,0.682-9.053,4.077-7.943,4.247c1.11,0.171,3.979-1.404,6.728-2.52
					C342.235,311.728,343.956,310.278,340.7,311.116z"/>
				<path style="fill:#FFFFFF;" d="M343.63,324.413c-4.736,0.424-6.505,2.048-3.416,1.726
					C343.303,325.818,347.026,324.109,343.63,324.413z"/>
				<path style="fill:#FFFFFF;" d="M373.681,325.455c-8.789,0.667-18.547,1.551-14.979,1.85c3.568,0.299,13.154-0.347,16.99-0.873
					C379.528,325.907,376.008,325.278,373.681,325.455z"/>
				<path style="fill:#FFFFFF;" d="M352.349,326.62c-1.858,0.309-3.748,1.019-2.842,1.43c0.906,0.411,2.77,0.227,4.221-0.418
					C355.178,326.986,353.969,326.35,352.349,326.62z"/>
				<path style="fill:#FFFFFF;" d="M352.084,316.874c-3.571,0.604-5.419,2.479-2.851,1.748
					C351.801,317.891,354.637,316.442,352.084,316.874z"/>
				<path style="fill:#FFFFFF;" d="M397.02,319.692c-5.18,0.714-5.647,1.198-3.518,1.126
					C395.631,320.747,399.054,319.412,397.02,319.692z"/>
				<path style="fill:#FFFFFF;" d="M393.553,302.127c-3.205,0.466-5.511,1.484-3.194,1.337S395.741,301.809,393.553,302.127z"/>
				<path style="fill:#FFFFFF;" d="M377.082,274.775c-3.63,2.361-6.851,4.615-5.782,4.519c1.069-0.096,4.191-2.691,5.877-3.831
					S379.308,273.327,377.082,274.775z"/>
				<path style="fill:#FFFFFF;" d="M369.187,267.119c-2.788,1.648-4.534,3.466-2.447,2.449
					C368.828,268.552,371.091,265.994,369.187,267.119z"/>
				<path style="fill:#FFFFFF;" d="M376.248,267.443c-2.224,0.959-2.874,2.761-0.694,1.489
					C377.734,267.66,378.31,266.554,376.248,267.443z"/>
				<path style="fill:#FFFFFF;" d="M375.304,284.33c-2.421,0.043-3.706,1.463-1.207,1.114
					C376.597,285.095,377.549,284.29,375.304,284.33z"/>
				<path style="fill:#FFFFFF;" d="M391.959,298.871c-2.282,0.196-3.892,1.616-0.928,0.952
					C393.995,299.159,393.799,298.713,391.959,298.871z"/>
				<path style="fill:#FFFFFF;" d="M400.334,306.227c-2.907,0.329-4.305,1.993-1.719,1.469
					C401.201,307.172,403.318,305.889,400.334,306.227z"/>
				<path style="fill:#FFFFFF;" d="M367.256,275.537c-3.381,1.647-4.361,4.264-1.452,2.518
					C368.713,276.309,370.727,273.846,367.256,275.537z"/>
				<path style="fill:#FFFFFF;" d="M392.115,308.792c-2.238,0.17-3.252,2.091-0.134,1.554
					C395.098,309.809,396.022,308.495,392.115,308.792z"/>
				<path style="fill:#FFFFFF;" d="M328.698,262.842c1.909-3.887,3.521-7.472,2.652-6.842c-0.869,0.63-2.222,4.458-3.086,6.299
					C327.4,264.141,327.528,265.226,328.698,262.842z"/>
				<path style="fill:#FFFFFF;" d="M350.505,262.736c2.212-1.914,2.426-4.076,0.589-2.183
					C349.257,262.447,348.234,264.701,350.505,262.736z"/>
				<path style="fill:#FFFFFF;" d="M321.405,260.839c0.542-1.52-0.423-2.747-0.982-0.542
					C319.865,262.5,320.458,263.491,321.405,260.839z"/>
				<path style="fill:#FFFFFF;" d="M340.017,272.694c-2.978,4.056-5.982,8.96-4.752,8.151c1.23-0.809,5.032-7.6,5.563-8.564
					C341.359,271.317,340.904,271.487,340.017,272.694z"/>
				<path style="fill:#FFFFFF;" d="M345.727,268.216c-2.179,2.801-5.303,6.424-4.157,6.023c1.146-0.401,3.978-4.727,4.798-5.839
					C347.189,267.288,347.31,266.181,345.727,268.216z"/>
				<path style="fill:#FFFFFF;" d="M339.252,268.158c-1.377,2.176-2.639,4.301-1.759,3.378c0.88-0.923,2.074-2.59,2.502-3.756
					C340.422,266.613,339.868,267.183,339.252,268.158z"/>
				<path style="fill:#FFFFFF;" d="M330.345,267.296c-1.687,2.083-2.546,4.301-1.623,3.35c0.923-0.951,1.941-2.894,2.278-3.478
					C331.338,266.584,331.693,265.63,330.345,267.296z"/>
				<path style="fill:#FFFFFF;" d="M323.274,267.08c-1.429,3.258-1.54,5.146-0.916,4.478c0.625-0.668,1.3-3.012,1.596-3.967
					C324.25,266.636,324.21,264.945,323.274,267.08z"/>
				<path style="fill:#FFFFFF;" d="M340.494,257.883c-4.344,5.577-7.276,10.782-6.323,10.084c0.953-0.698,4.542-5.884,5.753-7.824
					C341.437,257.721,342.139,255.771,340.494,257.883z"/>
				<path style="fill:#FFFFFF;" d="M361.231,272.429c-3.632,3-6.834,5.833-5.691,5.598c1.144-0.235,4.198-3.426,5.878-4.865
					C363.1,271.722,363.459,270.589,361.231,272.429z"/>
				<path style="fill:#FFFFFF;" d="M346.584,253.083c-1.771,2.09-2.663,4.027-1.276,2.636
					C346.694,254.328,347.794,251.656,346.584,253.083z"/>
				<path style="fill:#FFFFFF;" d="M358.038,267.874c-1.512,1.383-1.531,3.003-0.141,1.382
					C359.286,267.635,359.439,266.592,358.038,267.874z"/>
				<path style="fill:#FFFFFF;" d="M343.199,261.804c-1.337,1.402-1.563,3.204-0.055,1.124
					C344.652,260.847,344.278,260.673,343.199,261.804z"/>
				<path style="fill:#FFFFFF;" d="M355.006,281.644c-2.912,1.284-3.824,3.464-1.309,2.082
					C356.212,282.344,357.995,280.326,355.006,281.644z"/>
				<path style="fill:#FFFFFF;" d="M349.853,270.297c-1.324,1.361-0.891,3.147,0.785,1.061
					C352.314,269.272,352.164,267.92,349.853,270.297z"/>
				<path style="fill:#FFFFFF;" d="M321.039,299.079c-5.331,3.014-6.107,7.621-3.183,4.931
					C320.78,301.32,323.65,297.603,321.039,299.079z"/>
				<path style="fill:#FFFFFF;" d="M322.096,289.073c-2.267,2.27-2.531,5.088-0.573,2.587
					C323.482,289.158,323.332,287.835,322.096,289.073z"/>
				<path style="fill:#FFFFFF;" d="M325.831,291.317c-2.422,1.882-3.648,5.507-0.759,2.945
					C327.96,291.7,327.826,289.766,325.831,291.317z"/>
				<path style="fill:#FFFFFF;" d="M331.604,279.415c-2.246,2.322-3.305,4.167-1.177,2.405
					C332.554,280.058,333.113,277.856,331.604,279.415z"/>
				<path style="fill:#FFFFFF;" d="M326.372,274.772c-2.511,2.675-3.378,6.567-1.574,4.801
					C326.602,277.807,328.381,272.632,326.372,274.772z"/>
				<path style="fill:#FFFFFF;" d="M332.876,272.955c-1.784,2.266-2.135,4.246,0.355,1.383
					C335.722,271.475,334.66,270.689,332.876,272.955z"/>
				<path style="fill:#FFFFFF;" d="M343.37,277.166c-2.011,2.157-0.859,2.926,1.418,0.172
					C347.066,274.584,345.647,274.723,343.37,277.166z"/>
				<path style="fill:#FFFFFF;" d="M349.127,278.833c-6.313,5.303-10.765,9.002-8.065,7.633c2.7-1.368,9.028-7.066,10.329-8.404
					C352.691,276.725,351.395,276.927,349.127,278.833z"/>
				<path style="fill:#FFFFFF;" d="M340.543,295.007c-1.639,1.163-3.339,2.863-1.551,2.107
					C340.78,296.358,341.882,294.057,340.543,295.007z"/>
				<path style="fill:#FFFFFF;" d="M354.041,303.01c-2.491,0.928-2.35,1.699,0.45,0.727
					C357.291,302.765,357.126,301.861,354.041,303.01z"/>
				<path style="fill:#FFFFFF;" d="M334.568,291.084c-1.732,1.272-1.416,2.723,0.643,0.917
					C337.27,290.196,336.824,289.427,334.568,291.084z"/>
				<path style="fill:#FFFFFF;" d="M319.784,275.207c-1.492,3.008-0.732,3.767,0.304,1.602
					C321.124,274.643,321.276,272.2,319.784,275.207z"/>
				<path style="fill:#FFFFFF;" d="M313.682,283.429c-2.214,4.241-2.697,7.681-2.739,9.083c-0.043,1.402,2.092-3.482,3.087-6.722
					C315.023,282.55,315.097,280.718,313.682,283.429z"/>
				<path style="fill:#FFFFFF;" d="M317.259,268.93c-1.124,2.197-2.224,6.155-0.959,3.722
					C317.564,270.22,318.383,266.733,317.259,268.93z"/>
				<path style="fill:#FFFFFF;" d="M311.038,297.531c-2.088,3.477-2.534,8.149-0.726,4.535
					C312.12,298.451,312.076,295.803,311.038,297.531z"/>
				<path style="fill:#FFFFFF;" d="M316.213,297.368c-1.614,1.836-1.373,3.264,0.345,1.413
					C318.277,296.929,317.551,295.845,316.213,297.368z"/>
				<path style="fill:#FFFFFF;" d="M313.997,320.132c-4.044,3.461-4.106,4.56-0.083,1.669
					C317.937,318.911,316.557,317.941,313.997,320.132z"/>
				<path style="fill:#FFFFFF;" d="M359.83,290.735c-7.85,4.646-17.398,10.335-12.524,7.89c4.874-2.445,12.269-7.088,14.072-8.256
					C363.18,289.201,361.414,289.797,359.83,290.735z"/>
				<path style="fill:#FFFFFF;" d="M339.552,314.668c-7.506,2.848-15.318,5.458-8.759,3.74c6.559-1.717,15.635-4.827,17.328-6.028
					C349.814,311.178,341.131,314.069,339.552,314.668z"/>
				<path style="fill:#FFFFFF;" d="M355.729,320.641c-17.282,2.832-22.763,3.281-19.212,3.253
					c3.551-0.028,18.594-1.399,22.296-2.081C362.516,321.132,360.328,319.887,355.729,320.641z"/>
				<path style="fill:#FFFFFF;" d="M385.718,320.228c-7.689,1.031-14.544,1.954-7.997,1.676c6.547-0.278,10.844-0.848,12.825-1.102
					C392.527,320.547,390.201,319.627,385.718,320.228z"/>
				<path style="fill:#FFFFFF;" d="M321.981,327.996c-5.823,0.671-8.885,1.527-4.757,1.159c4.128-0.367,5.787-0.553,7.803-1.056
					C327.044,327.597,323.699,327.798,321.981,327.996z"/>
				<path style="fill:#FFFFFF;" d="M323.823,320.849c-6.135,2.383-14.473,5.85-9.116,4.105c5.357-1.745,7.797-2.774,10.24-4.042
					C327.39,319.644,325.746,320.102,323.823,320.849z"/>
				<path style="fill:#FFFFFF;" d="M376.356,288.315c-5.043,1.006-12.735,4.674-8.56,3.709
					C371.971,291.058,380.951,287.398,376.356,288.315z"/>
				<path style="fill:#FFFFFF;" d="M353.267,301.529c-10.702,4.451-17.536,8.439-14.325,6.944
					c2.849-1.327,13.341-5.885,16.992-7.417C358.187,300.11,354.582,300.982,353.267,301.529z"/>
				<path style="fill:#FFFFFF;" d="M373.516,310.81c-9.882,0.61-22.794,4.416-19.845,4.026c2.95-0.39,12.315-1.898,15.66-2.688
					C372.676,311.358,375.89,310.664,373.516,310.81z"/>
				<path style="fill:#FFFFFF;" d="M315.56,309.147c-4.195,4.944-14.323,16.308-9.853,12.365c4.47-3.944,8.254-9.504,10.242-11.568
					C317.937,307.88,317.493,306.868,315.56,309.147z"/>
				<path style="fill:#FFFFFF;" d="M311.872,306.215c-2.094,3.221-6.01,9.794-3.169,5.931
					C311.544,308.283,313.542,303.645,311.872,306.215z"/>
				<path style="fill:#FFFFFF;" d="M316.402,289.591c-2,4.403-3.636,8.693-1.046,4.059
					C317.946,289.017,317.326,287.557,316.402,289.591z"/>
				<path style="fill:#FFFFFF;" d="M324.908,302.116c-3.87,3.992-9.477,10.339-6.838,8.374c2.639-1.965,5.711-5.199,6.83-6.589
					C326.019,302.512,326.2,300.784,324.908,302.116z"/>
				<path style="fill:#FFFFFF;" d="M338.766,319.032c-8.285,1.699-12.237,3.842-6.21,2.741
					C338.584,320.672,342.059,318.357,338.766,319.032z"/>
				<g>
					
						<line style="fill:none;stroke:#FFFFFF;stroke-width:0.4595;stroke-miterlimit:10;stroke-dasharray:2.4439,2.0773;" x1="319.567" y1="274.543" x2="304.2" y2="318.513"/>
					
						<line style="fill:none;stroke:#FFFFFF;stroke-width:0.4595;stroke-miterlimit:10;stroke-dasharray:2.4439,2.0773;" x1="325.596" y1="277.213" x2="305.024" y2="320.922"/>
					
						<line style="fill:none;stroke:#FFFFFF;stroke-width:0.4595;stroke-miterlimit:10;stroke-dasharray:2.4439,2.0773;" x1="331.078" y1="285.499" x2="303.424" y2="325.431"/>
					
						<line style="fill:none;stroke:#FFFFFF;stroke-width:0.4595;stroke-miterlimit:10;stroke-dasharray:2.4439,2.0773;" x1="340.638" y1="284.914" x2="304.273" y2="325.65"/>
					
						<line style="fill:none;stroke:#FFFFFF;stroke-width:0.4595;stroke-miterlimit:10;stroke-dasharray:2.4439,2.0773;" x1="359.944" y1="282.521" x2="305.673" y2="326.011"/>
					
						<line style="fill:none;stroke:#FFFFFF;stroke-width:0.4595;stroke-miterlimit:10;stroke-dasharray:2.4439,2.0773;" x1="356.69" y1="294.943" x2="306.62" y2="327.061"/>
					
						<line style="fill:none;stroke:#FFFFFF;stroke-width:0.4595;stroke-miterlimit:10;stroke-dasharray:2.4439,2.0773;" x1="373.18" y1="296.528" x2="307.494" y2="328.165"/>
					
						<line style="fill:none;stroke:#FFFFFF;stroke-width:0.4595;stroke-miterlimit:10;stroke-dasharray:2.4439,2.0773;" x1="376.264" y1="304.714" x2="308.201" y2="329.227"/>
					
						<line style="fill:none;stroke:#FFFFFF;stroke-width:0.4595;stroke-miterlimit:10;stroke-dasharray:2.4439,2.0773;" x1="377.168" y1="314.152" x2="308.269" y2="330.601"/>
					
						<line style="fill:none;stroke:#FFFFFF;stroke-width:0.4595;stroke-miterlimit:10;stroke-dasharray:2.4439,2.0773;" x1="383.144" y1="319.724" x2="308.657" y2="331.588"/>
				</g>
			</g>
			<g>
				<path style="fill:#FFFFFF;" d="M203.079,294.166c0.726,0.263,1.442,0.126,1.599-0.307c0.157-0.433-0.304-0.998-1.03-1.261
					c-0.726-0.263-1.442-0.126-1.599,0.307C201.892,293.338,202.353,293.903,203.079,294.166z"/>
				<path style="fill:#FFFFFF;" d="M203.516,314.905c1.367,0.419,2.595,0.37,2.742-0.109c0.147-0.479-0.843-1.207-2.21-1.626
					c-1.367-0.419-1.925-0.136-2.072,0.343C201.829,313.992,202.149,314.487,203.516,314.905z"/>
				<path style="fill:#FFFFFF;" d="M216.833,286.202c0.8,1.186,2.489,1.961,2.904,1.681c0.415-0.28,0.104-1.469-0.696-2.654
					s-1.411-1.317-1.826-1.037C216.8,284.472,216.033,285.016,216.833,286.202z"/>
				<path style="fill:#FFFFFF;" d="M232.56,282.771c-0.3-0.611-0.742-1.009-0.985-0.89c-0.244,0.12-0.198,0.712,0.103,1.323
					c0.3,0.611,1.03,1.593,1.274,1.473C233.194,284.558,232.86,283.382,232.56,282.771z"/>
				<path style="fill:#FFFFFF;" d="M221.41,324.429c0.258-0.044,2.794-0.098,3.941,0.358c0.36,0.143,1.289,0.386,1.402,0.84
					c0.237,0.949-1.715,0.672-2.199,0.57C223.383,325.951,220.333,324.612,221.41,324.429z"/>
				<path style="fill:#FFFFFF;" d="M203.35,329.978c0.318-0.279,0.837-0.315,1.168-0.064c0.462-0.011,0.924,0.152,1.229,0.497
					c0.47,0.531,0.429,1.467-0.145,1.883c-0.476,0.346-1.157,0.273-1.673-0.012c-0.407-0.224-0.755-0.581-0.894-1.025
					C202.898,330.815,203.001,330.285,203.35,329.978z"/>
				<path style="fill:#FFFFFF;" d="M193.106,330.055c0.081-0.047,0.165-0.088,0.25-0.125c0.941-0.407,2.013-0.367,3.028-0.221
					c0.544,0.078,3.965,0.811,2.717,1.841c-0.208,0.172-0.485,0.232-0.751,0.277c-1.211,0.204-4.995,0.687-5.719-0.71
					c-0.12-0.232-0.059-0.527,0.096-0.737C192.827,330.245,192.96,330.14,193.106,330.055z"/>
				<path style="fill:#FFFFFF;" d="M179.318,319.331c7.471-0.505,11.023,0.572,8.511,1.299c-2.512,0.727-8.278,0.069-9.371-0.323
					C177.364,319.914,177.738,319.438,179.318,319.331z"/>
				<path style="fill:#FFFFFF;" d="M172.368,313.62c6.814,0.169,10.494,0.828,9.324,1.526c-1.17,0.698-4.796-0.59-8.461-0.796
					C169.566,314.144,170.621,313.577,172.368,313.62z"/>
				<path style="fill:#FFFFFF;" d="M171.743,305.803c5.812,1.263,12.311,3.257,10.588,3.503c-1.723,0.246-10.405-2.796-11.63-3.234
					C169.476,305.634,170.013,305.427,171.743,305.803z"/>
				<path style="fill:#FFFFFF;" d="M163.179,306.304c4.122,0.777,9.725,1.542,8.396,2.083c-1.329,0.541-7.223-1.076-8.82-1.418
					C161.159,306.626,160.185,305.74,163.179,306.304z"/>
				<path style="fill:#FFFFFF;" d="M168.871,301.185c2.923,0.851,5.704,1.745,4.202,1.616c-1.502-0.129-3.864-0.671-5.156-1.37
					C166.625,300.732,167.562,300.804,168.871,301.185z"/>
				<path style="fill:#FFFFFF;" d="M164.059,295.241c6.645,1.118,11.952,3.866,8.631,3.61c-3.321-0.255-8.472-2.222-10.079-2.761
					C161.004,295.552,158.748,294.348,164.059,295.241z"/>
				<path style="fill:#FFFFFF;" d="M173.748,293.101c6.94,1.301,10.16,3.231,8.366,3.507c-1.794,0.277-6.392-1.238-8.289-1.82
					C171.929,294.205,169.202,292.248,173.748,293.101z"/>
				<path style="fill:#FFFFFF;" d="M190.399,295.795c5.404,1.429,8.58,2.798,6.734,2.873c-1.846,0.075-6.462-1.355-8.632-2.384
					C186.33,295.256,186.523,294.77,190.399,295.795z"/>
				<path style="fill:#FFFFFF;" d="M204.756,307.146c2.847,1.721,3.646,2.903,1.939,2.747c-1.707-0.155-3.125-0.266-3.935-1.407
					C201.95,307.346,202.623,305.857,204.756,307.146z"/>
				<path style="fill:#FFFFFF;" d="M216.684,307.994c2.701,1.007,4.634,2.735,3.038,2.392c-1.597-0.343-2.701-0.931-3.75-1.613
					C214.922,308.09,214.795,307.289,216.684,307.994z"/>
				<path style="fill:#FFFFFF;" d="M207.821,303.332c2.453,0.454,4.545,1.925,3.108,1.739s-3.017-0.77-3.962-1.202
					C206.023,303.438,206.029,303,207.821,303.332z"/>
				<path style="fill:#FFFFFF;" d="M194.656,306.923c2.282,0.71,3.7,1.42,2.785,1.719c-0.915,0.299-2.746-0.181-4.317-0.888
					C191.553,307.048,192.836,306.356,194.656,306.923z"/>
				<path style="fill:#FFFFFF;" d="M188.734,316.052c2.204,0.505,4.152,1.251,3.169,1.901c-0.984,0.65-3.506-0.049-4.515-1.039
					C186.378,315.924,187.37,315.739,188.734,316.052z"/>
				<path style="fill:#FFFFFF;" d="M163.298,316.157c4.932,0.025,8.907,0.523,8.717,1.326s-5.207,0.588-8.352,0.089
					C160.517,317.072,160.509,316.143,163.298,316.157z"/>
				<path style="fill:#FFFFFF;" d="M171.688,322.993c4.263,0.046,8.193,0.678,5.948,0.9s-5.847,0.259-7.937-0.146
					C167.61,323.341,169.49,322.97,171.688,322.993z"/>
				<path style="fill:#FFFFFF;" d="M181.866,305.227c4.764,0.736,7.153,1.749,6.623,2.25c-0.531,0.502-4.068-0.515-5.46-0.89
					C181.637,306.212,178.666,304.733,181.866,305.227z"/>
				<path style="fill:#FFFFFF;" d="M150.201,303.632c4.255,0.806,8.09,1.668,7.065,1.986c-1.025,0.318-4.899-0.898-6.891-1.312
					C148.383,303.892,147.592,303.138,150.201,303.632z"/>
				<path style="fill:#FFFFFF;" d="M162.526,311.267c2.57-0.048,4.865,1.17,4.119,1.708
					C165.899,313.514,159.631,311.32,162.526,311.267z"/>
				<path style="fill:#FFFFFF;" d="M150.362,312.94c3.148,0.006,9.428,1.648,8.164,1.82c-1.264,0.172-5.598-0.226-7.831-0.528
					C148.462,313.93,147.398,312.935,150.362,312.94z"/>
				<path style="fill:#FFFFFF;" d="M194.386,310.442c2.083,0.963,2.358,1.536,0.97,1.226c-1.388-0.31-2.533-0.723-3.538-1.187
					C190.813,310.016,192.833,309.724,194.386,310.442z"/>
				<path style="fill:#FFFFFF;" d="M184.113,300.291c3.134,0.905,9.545,3.298,7.527,2.933c-2.018-0.365-7.075-2.075-8.934-2.571
					C180.847,300.158,182.229,299.747,184.113,300.291z"/>
				<path style="fill:#FFFFFF;" d="M159.107,288.795c4.152,0.355,11.033,3.62,8.527,3.342c-2.507-0.277-7.284-1.893-9.134-2.455
					C156.649,289.12,156.08,288.536,159.107,288.795z"/>
				<path style="fill:#FFFFFF;" d="M185.608,282.657c3.048,0.822,6.847,3.429,5.71,3.645c-1.137,0.216-3.38-1.322-5.348-2.238
					S183.128,281.988,185.608,282.657z"/>
				<path style="fill:#FFFFFF;" d="M205.308,287.736c2.822,1.666,4.623,3.31,4.058,3.802c-0.566,0.492-2.537-0.885-5.305-2.519
					C201.293,287.386,202.722,286.21,205.308,287.736z"/>
				<path style="fill:#FFFFFF;" d="M215.598,300.74c4.314,2.159,7.027,4.925,5.653,4.817c-1.374-0.108-3.891-2.108-5.548-3.165
					C214.046,301.335,211.991,298.934,215.598,300.74z"/>
				<path style="fill:#FFFFFF;" d="M220.136,296.005c2.263,1.565,4.908,4.265,4.341,4.604c-0.567,0.338-2.934-2.129-4.753-3.661
					C217.906,295.416,218.403,294.807,220.136,296.005z"/>
				<path style="fill:#FFFFFF;" d="M228.188,307.693c4.8,2.447,9.635,7.827,7.696,7.019c-1.94-0.808-5.599-3.81-7.294-5.46
					C226.895,307.603,226.283,306.722,228.188,307.693z"/>
				<path style="fill:#FFFFFF;" d="M225.854,312.219c3.291,1.941,6.756,4.568,5.373,4.425c-1.384-0.144-3.45-2.189-5.075-3.27
					C224.526,312.292,224.63,311.498,225.854,312.219z"/>
				<path style="fill:#FFFFFF;" d="M211.661,310.891c2.647,0.682,9.053,4.077,7.943,4.247c-1.11,0.171-3.979-1.404-6.728-2.52
					C210.125,311.502,208.405,310.052,211.661,310.891z"/>
				<path style="fill:#FFFFFF;" d="M208.731,324.187c4.736,0.424,6.505,2.048,3.416,1.726
					C209.058,325.592,205.335,323.883,208.731,324.187z"/>
				<path style="fill:#FFFFFF;" d="M214.674,327.634c5.05,0.176,6.469,1.981,3.713,1.885
					C215.631,329.422,210.478,327.488,214.674,327.634z"/>
				<path style="fill:#FFFFFF;" d="M208.84,330.003c3.346,0.271,5.022,1.466,2.896,1.405
					C209.61,331.347,205.936,329.768,208.84,330.003z"/>
				<path style="fill:#FFFFFF;" d="M178.679,325.229c8.79,0.667,18.547,1.551,14.979,1.85c-3.568,0.299-13.154-0.347-16.99-0.873
					C172.833,325.681,176.353,325.053,178.679,325.229z"/>
				<path style="fill:#FFFFFF;" d="M200.012,326.394c1.858,0.309,3.748,1.019,2.842,1.43c-0.906,0.411-2.77,0.227-4.221-0.418
					C197.183,326.76,198.392,326.125,200.012,326.394z"/>
				<path style="fill:#FFFFFF;" d="M200.277,316.648c3.571,0.604,5.419,2.479,2.851,1.748
					C200.56,317.666,197.724,316.216,200.277,316.648z"/>
				<path style="fill:#FFFFFF;" d="M155.341,319.467c5.18,0.714,5.647,1.198,3.518,1.126
					C156.73,320.521,153.307,319.186,155.341,319.467z"/>
				<path style="fill:#FFFFFF;" d="M158.57,324.575c3.619-0.174,4.719,0.925,1.475,1.344
					C156.802,326.337,155.002,324.746,158.57,324.575z"/>
				<path style="fill:#FFFFFF;" d="M164.157,328.866c3.165-0.409,4.48,0.628,1.52,0.77
					C162.716,329.778,161.394,329.223,164.157,328.866z"/>
				<path style="fill:#FFFFFF;" d="M179.055,329.353c3.542,0.488,0.926,1.065-2.849,1.169
					C172.431,330.626,176.545,329.007,179.055,329.353z"/>
				<path style="fill:#FFFFFF;" d="M158.808,301.901c3.205,0.466,5.511,1.484,3.194,1.337
					C159.685,303.09,156.62,301.583,158.808,301.901z"/>
				<path style="fill:#FFFFFF;" d="M175.279,274.55c3.63,2.361,6.851,4.615,5.782,4.519c-1.069-0.095-4.191-2.691-5.877-3.831
					C173.499,274.099,173.053,273.102,175.279,274.55z"/>
				<path style="fill:#FFFFFF;" d="M183.173,266.893c2.788,1.648,4.535,3.466,2.447,2.45
					C183.533,268.326,181.27,265.768,183.173,266.893z"/>
				<path style="fill:#FFFFFF;" d="M176.113,267.217c2.224,0.959,2.874,2.76,0.694,1.489
					C174.627,267.434,174.051,266.328,176.113,267.217z"/>
				<path style="fill:#FFFFFF;" d="M177.056,284.104c2.422,0.043,3.707,1.463,1.207,1.114
					C175.764,284.869,174.812,284.065,177.056,284.104z"/>
				<path style="fill:#FFFFFF;" d="M160.402,298.645c2.282,0.196,3.892,1.616,0.928,0.952
					C158.366,298.934,158.561,298.487,160.402,298.645z"/>
				<path style="fill:#FFFFFF;" d="M152.027,306.002c2.907,0.329,4.305,1.993,1.719,1.469
					C151.16,306.946,149.043,305.663,152.027,306.002z"/>
				<path style="fill:#FFFFFF;" d="M185.105,275.311c3.381,1.648,4.361,4.264,1.452,2.518
					C183.648,276.083,181.634,273.62,185.105,275.311z"/>
				<path style="fill:#FFFFFF;" d="M160.246,308.566c2.238,0.17,3.252,2.09,0.134,1.554
					C157.263,309.584,156.339,308.269,160.246,308.566z"/>
				<path style="fill:#FFFFFF;" d="M223.662,262.617c-1.909-3.887-3.521-7.472-2.652-6.842c0.869,0.629,2.222,4.458,3.086,6.299
					C224.961,263.915,224.833,265,223.662,262.617z"/>
				<path style="fill:#FFFFFF;" d="M201.856,262.511c-2.212-1.914-2.426-4.076-0.589-2.183
					C203.104,262.221,204.127,264.475,201.856,262.511z"/>
				<path style="fill:#FFFFFF;" d="M230.956,260.613c-0.542-1.52,0.423-2.747,0.982-0.542
					C232.496,262.275,231.903,263.266,230.956,260.613z"/>
				<path style="fill:#FFFFFF;" d="M212.344,272.469c2.978,4.056,5.982,8.96,4.752,8.151c-1.23-0.809-5.032-7.6-5.563-8.564
					C211.002,271.092,211.457,271.261,212.344,272.469z"/>
				<path style="fill:#FFFFFF;" d="M206.634,267.99c2.179,2.801,5.303,6.424,4.157,6.023c-1.146-0.401-3.978-4.727-4.798-5.839
					C205.172,267.063,205.051,265.955,206.634,267.99z"/>
				<path style="fill:#FFFFFF;" d="M213.109,267.932c1.377,2.177,2.639,4.301,1.759,3.378c-0.88-0.923-2.074-2.59-2.502-3.756
					C211.939,266.387,212.493,266.958,213.109,267.932z"/>
				<path style="fill:#FFFFFF;" d="M222.016,267.07c1.687,2.083,2.546,4.301,1.623,3.35c-0.923-0.951-1.941-2.894-2.278-3.478
					C221.023,266.358,220.668,265.405,222.016,267.07z"/>
				<path style="fill:#FFFFFF;" d="M229.087,266.854c1.429,3.258,1.54,5.146,0.916,4.478c-0.624-0.668-1.3-3.012-1.596-3.966
					C228.111,266.41,228.151,264.72,229.087,266.854z"/>
				<path style="fill:#FFFFFF;" d="M211.867,257.658c4.344,5.577,7.276,10.782,6.323,10.084c-0.953-0.698-4.542-5.885-5.753-7.824
					C210.924,257.495,210.222,255.546,211.867,257.658z"/>
				<path style="fill:#FFFFFF;" d="M191.129,272.203c3.632,3,6.834,5.833,5.691,5.598c-1.144-0.235-4.198-3.426-5.878-4.865
					C189.261,271.496,188.902,270.363,191.129,272.203z"/>
				<path style="fill:#FFFFFF;" d="M205.777,252.857c1.771,2.09,2.663,4.028,1.276,2.636
					C205.667,254.102,204.567,251.43,205.777,252.857z"/>
				<path style="fill:#FFFFFF;" d="M194.323,267.648c1.511,1.383,1.531,3.003,0.141,1.382
					C193.075,267.41,192.922,266.366,194.323,267.648z"/>
				<path style="fill:#FFFFFF;" d="M209.162,261.579c1.337,1.402,1.563,3.204,0.055,1.124
					C207.709,260.622,208.083,260.448,209.162,261.579z"/>
				<path style="fill:#FFFFFF;" d="M197.355,281.418c2.912,1.284,3.824,3.464,1.309,2.082
					C196.149,282.118,194.366,280.101,197.355,281.418z"/>
				<path style="fill:#FFFFFF;" d="M202.508,270.071c1.324,1.361,0.891,3.147-0.785,1.061
					C200.047,269.046,200.197,267.695,202.508,270.071z"/>
				<path style="fill:#FFFFFF;" d="M231.321,298.853c5.331,3.013,6.107,7.621,3.183,4.931
					C231.581,301.095,228.711,297.377,231.321,298.853z"/>
				<path style="fill:#FFFFFF;" d="M230.265,288.847c2.267,2.27,2.531,5.088,0.573,2.587
					C228.879,288.933,229.029,287.609,230.265,288.847z"/>
				<path style="fill:#FFFFFF;" d="M226.53,291.091c2.422,1.882,3.648,5.507,0.759,2.945
					C224.401,291.474,224.535,289.541,226.53,291.091z"/>
				<path style="fill:#FFFFFF;" d="M220.757,279.19c2.246,2.322,3.304,4.167,1.177,2.405
					C219.807,279.833,219.248,277.63,220.757,279.19z"/>
				<path style="fill:#FFFFFF;" d="M225.989,274.546c2.511,2.675,3.378,6.567,1.574,4.801
					C225.759,277.582,223.979,272.406,225.989,274.546z"/>
				<path style="fill:#FFFFFF;" d="M219.485,272.729c1.784,2.266,2.135,4.246-0.355,1.383
					C216.639,271.249,217.701,270.464,219.485,272.729z"/>
				<path style="fill:#FFFFFF;" d="M208.991,276.94c2.011,2.157,0.859,2.926-1.418,0.172
					C205.295,274.359,206.714,274.497,208.991,276.94z"/>
				<path style="fill:#FFFFFF;" d="M203.234,278.608c6.313,5.303,10.765,9.002,8.065,7.633c-2.7-1.369-9.028-7.066-10.328-8.404
					C199.67,276.499,200.966,276.702,203.234,278.608z"/>
				<path style="fill:#FFFFFF;" d="M211.818,294.782c1.639,1.163,3.339,2.863,1.551,2.107
					C211.581,296.132,210.479,293.832,211.818,294.782z"/>
				<path style="fill:#FFFFFF;" d="M198.32,302.784c2.491,0.928,2.35,1.699-0.45,0.727
					C195.07,302.539,195.235,301.635,198.32,302.784z"/>
				<path style="fill:#FFFFFF;" d="M217.793,290.859c1.732,1.272,1.416,2.723-0.643,0.917
					C215.091,289.97,215.537,289.201,217.793,290.859z"/>
				<path style="fill:#FFFFFF;" d="M232.577,274.981c1.492,3.007,0.732,3.767-0.304,1.602
					C231.237,274.417,231.085,271.974,232.577,274.981z"/>
				<path style="fill:#FFFFFF;" d="M238.679,283.204c2.214,4.241,2.697,7.681,2.739,9.083c0.043,1.402-2.092-3.482-3.087-6.722
					C237.338,282.324,237.263,280.492,238.679,283.204z"/>
				<path style="fill:#FFFFFF;" d="M235.102,268.704c1.124,2.197,2.224,6.154,0.959,3.722
					C234.797,269.995,233.978,266.508,235.102,268.704z"/>
				<path style="fill:#FFFFFF;" d="M241.323,297.306c2.088,3.477,2.534,8.149,0.726,4.534
					C240.241,298.225,240.285,295.578,241.323,297.306z"/>
				<path style="fill:#FFFFFF;" d="M236.148,297.142c1.614,1.836,1.373,3.264-0.346,1.413
					C234.084,296.703,234.81,295.62,236.148,297.142z"/>
				<path style="fill:#FFFFFF;" d="M238.364,319.907c4.044,3.461,4.106,4.56,0.083,1.669
					C234.424,318.686,235.804,317.715,238.364,319.907z"/>
				<path style="fill:#FFFFFF;" d="M192.531,290.509c7.85,4.646,17.398,10.335,12.524,7.89c-4.874-2.445-12.269-7.088-14.072-8.256
					C189.181,288.975,190.947,289.571,192.531,290.509z"/>
				<path style="fill:#FFFFFF;" d="M212.809,314.442c7.506,2.848,15.318,5.458,8.759,3.74c-6.559-1.717-15.635-4.827-17.328-6.028
					C202.547,310.953,211.23,313.843,212.809,314.442z"/>
				<path style="fill:#FFFFFF;" d="M196.632,320.415c17.282,2.832,22.763,3.281,19.212,3.253
					c-3.551-0.028-18.594-1.399-22.296-2.081C189.845,320.906,192.033,319.661,196.632,320.415z"/>
				<path style="fill:#FFFFFF;" d="M166.643,320.002c7.689,1.031,14.544,1.954,7.997,1.676c-6.547-0.278-10.844-0.848-12.825-1.102
					C159.834,320.322,162.16,319.401,166.643,320.002z"/>
				<path style="fill:#FFFFFF;" d="M168.568,332.231c12.699,0.452,16.457,1.302,10.07,1.448c-6.387,0.145-14.659,0.08-17.241-0.302
					C158.814,332.994,164.746,332.095,168.568,332.231z"/>
				<path style="fill:#FFFFFF;" d="M191.512,333.904c4.231-0.302,4.177,0.396-0.807,0.774S188.587,334.112,191.512,333.904z"/>
				<path style="fill:#FFFFFF;" d="M230.38,327.77c5.823,0.671,8.885,1.527,4.757,1.16c-4.128-0.367-5.787-0.553-7.803-1.056
					C225.317,327.371,228.662,327.572,230.38,327.77z"/>
				<path style="fill:#FFFFFF;" d="M228.538,320.623c6.135,2.383,14.473,5.85,9.116,4.105c-5.357-1.745-7.797-2.774-10.24-4.042
					C224.971,319.418,226.615,319.876,228.538,320.623z"/>
				<path style="fill:#FFFFFF;" d="M176.005,288.089c5.042,1.006,12.735,4.674,8.56,3.709
					C180.39,290.832,171.41,287.172,176.005,288.089z"/>
				<path style="fill:#FFFFFF;" d="M199.094,301.303c10.702,4.451,17.536,8.439,14.325,6.944
					c-2.849-1.327-13.341-5.885-16.992-7.418C194.174,299.884,197.779,300.757,199.094,301.303z"/>
				<path style="fill:#FFFFFF;" d="M178.845,310.585c9.882,0.61,22.794,4.416,19.844,4.026c-2.95-0.39-12.315-1.898-15.66-2.688
					C179.685,311.133,176.471,310.438,178.845,310.585z"/>
				<path style="fill:#FFFFFF;" d="M236.801,308.921c4.195,4.944,14.323,16.308,9.853,12.365s-8.254-9.503-10.242-11.568
					C234.424,307.654,234.868,306.642,236.801,308.921z"/>
				<path style="fill:#FFFFFF;" d="M240.489,305.989c2.093,3.221,6.01,9.794,3.169,5.931
					C240.817,308.057,238.819,303.42,240.489,305.989z"/>
				<path style="fill:#FFFFFF;" d="M235.959,289.365c2,4.403,3.636,8.693,1.046,4.06
					C234.415,288.791,235.035,287.332,235.959,289.365z"/>
				<path style="fill:#FFFFFF;" d="M227.453,301.891c3.87,3.992,9.477,10.339,6.838,8.374c-2.639-1.965-5.711-5.199-6.83-6.589
					S226.161,300.558,227.453,301.891z"/>
				<path style="fill:#FFFFFF;" d="M213.595,318.807c8.285,1.699,12.238,3.842,6.21,2.741
					C213.777,320.447,210.302,318.132,213.595,318.807z"/>
				<g>
					
						<line style="fill:none;stroke:#FFFFFF;stroke-width:0.4595;stroke-miterlimit:10;stroke-dasharray:2.4439,2.0773;" x1="232.794" y1="274.317" x2="248.161" y2="318.287"/>
					
						<line style="fill:none;stroke:#FFFFFF;stroke-width:0.4595;stroke-miterlimit:10;stroke-dasharray:2.4439,2.0773;" x1="226.765" y1="276.988" x2="247.337" y2="320.697"/>
					
						<line style="fill:none;stroke:#FFFFFF;stroke-width:0.4595;stroke-miterlimit:10;stroke-dasharray:2.4439,2.0773;" x1="221.283" y1="285.273" x2="248.937" y2="325.206"/>
					
						<line style="fill:none;stroke:#FFFFFF;stroke-width:0.4595;stroke-miterlimit:10;stroke-dasharray:2.4439,2.0773;" x1="211.723" y1="284.688" x2="248.088" y2="325.424"/>
					
						<line style="fill:none;stroke:#FFFFFF;stroke-width:0.4595;stroke-miterlimit:10;stroke-dasharray:2.4439,2.0773;" x1="192.416" y1="282.295" x2="246.688" y2="325.785"/>
					
						<line style="fill:none;stroke:#FFFFFF;stroke-width:0.4595;stroke-miterlimit:10;stroke-dasharray:2.4439,2.0773;" x1="195.671" y1="294.717" x2="245.741" y2="326.835"/>
					
						<line style="fill:none;stroke:#FFFFFF;stroke-width:0.4595;stroke-miterlimit:10;stroke-dasharray:2.4439,2.0773;" x1="179.181" y1="296.302" x2="244.867" y2="327.94"/>
					
						<line style="fill:none;stroke:#FFFFFF;stroke-width:0.4595;stroke-miterlimit:10;stroke-dasharray:2.4439,2.0773;" x1="176.097" y1="304.489" x2="244.16" y2="329.001"/>
					
						<line style="fill:none;stroke:#FFFFFF;stroke-width:0.4595;stroke-miterlimit:10;stroke-dasharray:2.4439,2.0773;" x1="175.193" y1="313.927" x2="244.092" y2="330.375"/>
					
						<line style="fill:none;stroke:#FFFFFF;stroke-width:0.4595;stroke-miterlimit:10;stroke-dasharray:2.4439,2.0773;" x1="169.217" y1="319.499" x2="243.704" y2="331.363"/>
				</g>
			</g>
			<rect x="270.683" y="389.008" style="fill:#938B7A;" width="9.14" height="25.848"/>
			<rect x="270.683" y="389.008" style="fill:#555147;" width="9.14" height="13.049"/>
			<rect x="258.123" y="391.573" style="fill:#6F695C;" width="34.55" height="5.129"/>
			<path style="fill:#6F695C;" d="M282.502,393.981h-14.498c-0.947,0-1.715-0.768-1.715-1.715v-10.036h17.929v10.036
				C284.218,393.213,283.45,393.981,282.502,393.981z"/>
			<rect x="266.289" y="382.229" style="fill:#555147;" width="17.929" height="6.913"/>
			<rect x="268.046" y="351.231" style="fill:#938B7A;" width="14.414" height="21.51"/>
			<path style="fill:#E9B62B;" d="M284.567,385.662H265.94c-0.496,0-0.898-0.402-0.898-0.897v-12.391
				c0-0.496,0.402-0.897,0.898-0.897h18.627c0.496,0,0.897,0.402,0.897,0.897v12.391
				C285.465,385.26,285.063,385.662,284.567,385.662z"/>
			<rect x="267.777" y="332.886" style="fill:#7A7366;" width="15.053" height="20.062"/>
			<path style="fill:#6F695C;" d="M284.686,331.455H266.11c-1.754,0-3.177,1.422-3.177,3.177v11.139
				c0,1.754,1.422,3.177,3.177,3.177h18.576c1.754,0,3.177-1.422,3.177-3.177v-11.139
				C287.863,332.877,286.44,331.455,284.686,331.455z"/>
			<g>
				<polygon style="fill:#6F695C;" points="285.407,345.301 278.771,333.364 296.623,323.744 303.258,335.68 				"/>
				
					<rect x="291.171" y="328.57" transform="matrix(0.4859 0.874 -0.874 0.4859 442.3298 -90.392)" style="fill:#555147;" width="13.657" height="4.442"/>
				<path style="fill:#6F695C;" d="M309.566,332.036l-6.518-11.726c-0.331-0.595-1.081-0.809-1.676-0.478l-4.772,2.653
					c-0.595,0.331-0.809,1.081-0.478,1.676l6.518,11.726c0.331,0.595,1.081,0.809,1.676,0.478l4.772-2.653
					C309.683,333.381,309.897,332.631,309.566,332.036z"/>
			</g>
			<g>
				<polygon style="fill:#6F695C;" points="265.1,345.301 271.735,333.364 253.884,323.744 247.248,335.68 				"/>
				
					<rect x="245.679" y="328.57" transform="matrix(-0.4859 0.874 -0.874 -0.4859 664.315 270.8155)" style="fill:#555147;" width="13.657" height="4.442"/>
				<path style="fill:#6F695C;" d="M240.941,332.036l6.518-11.726c0.331-0.595,1.081-0.809,1.676-0.478l4.772,2.653
					c0.595,0.331,0.809,1.081,0.478,1.676l-6.519,11.726c-0.331,0.595-1.081,0.809-1.676,0.478l-4.772-2.653
					C240.824,333.381,240.61,332.631,240.941,332.036z"/>
			</g>
			<circle style="fill:#555147;" cx="274.331" cy="339.043" r="8.5"/>
			<polygon style="fill:#555147;" points="268.32,345.053 262.705,334.489 275.988,324.126 279.823,332.558 			"/>
			<circle style="fill:#938B7A;" cx="270.271" cy="330.417" r="8.5"/>
			<path style="fill:#555147;" d="M275.988,330.417c0,3.157-2.56,5.717-5.717,5.717s-5.717-2.559-5.717-5.717
				s2.559-5.717,5.717-5.717S275.988,327.259,275.988,330.417z"/>
			<rect x="242.507" y="410.357" style="fill:#6F695C;" width="65.783" height="5.129"/>
			<polygon style="fill:#6F695C;" points="308.29,410.357 292.673,391.573 292.673,396.702 303.932,410.357 			"/>
			<polygon style="fill:#6F695C;" points="242.507,410.357 258.123,391.573 258.123,396.702 246.865,410.357 			"/>
			<g>
				<path style="fill:#FFFFFF;" d="M254.705,283.187c0,0.772-0.374,1.399-0.834,1.399c-0.461,0-0.834-0.626-0.834-1.399
					c0-0.772,0.373-1.399,0.834-1.399C254.331,281.789,254.705,282.415,254.705,283.187z"/>
				<path style="fill:#FFFFFF;" d="M274.052,290.67c-0.073,1.428-0.537,2.565-1.038,2.54c-0.5-0.025-0.847-1.204-0.775-2.632
					c0.073-1.428,0.528-1.856,1.029-1.831C273.768,288.773,274.124,289.242,274.052,290.67z"/>
				<path style="fill:#FFFFFF;" d="M242.528,293.401c0.842,1.156,0.995,3.008,0.59,3.303c-0.405,0.295-1.416-0.403-2.258-1.559
					c-0.842-1.156-0.757-1.775-0.352-2.07C240.913,292.78,241.686,292.245,242.528,293.401z"/>
				<path style="fill:#FFFFFF;" d="M233.94,307.015c-0.472-0.491-0.696-1.041-0.5-1.23c0.196-0.188,0.737,0.057,1.209,0.548
					c0.472,0.491,1.146,1.512,0.951,1.7C235.403,308.221,234.412,307.506,233.94,307.015z"/>
				<path style="fill:#FFFFFF;" d="M276.902,310.739c-0.129,0.228-1.045,2.594-1.007,3.827c0.012,0.387-0.077,1.344,0.311,1.605
					c0.812,0.546,1.217-1.383,1.286-1.873C277.661,313.113,277.442,309.789,276.902,310.739z"/>
				<path style="fill:#FFFFFF;" d="M286.464,269.431c-3.022,6.851-3.221,10.558-1.681,8.444c1.54-2.113,2.888-7.758,2.892-8.92
					C287.678,267.794,287.103,267.983,286.464,269.431z"/>
				<path style="fill:#FFFFFF;" d="M283.465,260.951c-2.165,6.464-2.8,10.147-1.745,9.286c1.055-0.861,1.081-4.71,2.137-8.226
					C284.913,258.496,284.02,259.293,283.465,260.951z"/>
				<path style="fill:#FFFFFF;" d="M276.33,257.698c-0.795,5.894-1.136,12.684-0.318,11.148c0.818-1.536,0.92-10.735,0.926-12.036
					C276.943,255.509,276.566,255.943,276.33,257.698z"/>
				<path style="fill:#FFFFFF;" d="M279.72,249.818c-0.675,4.14-1.867,9.668-0.905,8.603c0.962-1.065,1.452-7.157,1.674-8.775
					C280.713,248.028,280.211,246.81,279.72,249.818z"/>
				<path style="fill:#FFFFFF;" d="M272.968,253.423c-0.197,3.038-0.305,5.957,0.086,4.501c0.391-1.456,0.687-3.862,0.47-5.314
					C273.307,251.157,273.056,252.063,272.968,253.423z"/>
				<path style="fill:#FFFFFF;" d="M269.021,246.872c-1.215,6.628-0.441,12.553,0.451,9.345c0.892-3.209,0.8-8.722,0.842-10.416
					C270.355,244.106,269.992,241.575,269.021,246.872z"/>
				<path style="fill:#FFFFFF;" d="M263.705,255.251c-1.143,6.967-0.428,10.653,0.444,9.061c0.872-1.592,1.016-6.431,1.115-8.413
					C265.363,253.917,264.454,250.687,263.705,255.251z"/>
				<path style="fill:#FFFFFF;" d="M260.56,271.823c-0.499,5.567-0.296,9.02,0.404,7.31c0.7-1.71,0.93-6.537,0.703-8.928
					C261.44,267.814,260.918,267.829,260.56,271.823z"/>
				<path style="fill:#FFFFFF;" d="M266.335,289.19c0.647,3.264,1.486,4.417,1.922,2.759c0.436-1.658,0.815-3.028,0.019-4.179
					C267.479,286.62,265.85,286.745,266.335,289.19z"/>
				<path style="fill:#FFFFFF;" d="M263.064,300.692c0.026,2.883,0.991,5.289,1.213,3.672c0.222-1.618,0.046-2.857-0.238-4.075
					C263.756,299.069,263.046,298.677,263.064,300.692z"/>
				<path style="fill:#FFFFFF;" d="M259.147,292.732c0.158,2.49,1.367,4.742,1.355,3.293c-0.012-1.449-0.404-3.087-0.719-4.077
					C259.468,290.959,259.032,290.913,259.147,292.732z"/>
				<path style="fill:#FFFFFF;" d="M269.569,279.62c-0.11,2.387,0.073,3.963,0.667,3.204c0.594-0.758,0.766-2.643,0.638-4.361
					C270.745,276.745,269.657,277.715,269.569,279.62z"/>
				<path style="fill:#FFFFFF;" d="M280.17,277.165c-0.277,2.244-0.24,4.33,0.707,3.627c0.947-0.703,1.149-3.312,0.562-4.599
					C280.853,274.907,280.341,275.776,280.17,277.165z"/>
				<path style="fill:#FFFFFF;" d="M288.943,253.289c-1.659,4.645-2.546,8.551-1.726,8.646c0.82,0.095,2.328-4.694,2.932-7.822
					C290.751,250.987,289.88,250.663,288.943,253.289z"/>
				<path style="fill:#FFFFFF;" d="M292.508,263.508c-1.411,4.023-2.156,7.933-1.183,5.898c0.974-2.035,2.238-5.409,2.569-7.511
					C294.226,259.793,293.235,261.434,292.508,263.508z"/>
				<path style="fill:#FFFFFF;" d="M272.336,267.017c-0.932,4.73-0.795,7.321-0.143,6.993c0.653-0.328,0.903-4,1.025-5.436
					C273.34,267.138,272.962,263.841,272.336,267.017z"/>
				<path style="fill:#FFFFFF;" d="M281.634,236.707c-0.693,4.275-1.19,8.174-0.542,7.318s0.826-4.912,1.116-6.926
					C282.498,235.086,282.059,234.085,281.634,236.707z"/>
				<path style="fill:#FFFFFF;" d="M284.609,250.896c-0.921,2.4-0.559,4.973,0.201,4.455
					C285.571,254.833,285.647,248.193,284.609,250.896z"/>
				<path style="fill:#FFFFFF;" d="M290.33,240.031c-1.068,2.962-1.665,9.425-1.073,8.295c0.592-1.129,1.696-5.34,2.174-7.542
					C291.908,238.583,291.335,237.243,290.33,240.031z"/>
				<path style="fill:#FFFFFF;" d="M272.969,280.565c0.195,2.286,0.64,2.741,0.822,1.33c0.182-1.411,0.184-2.628,0.09-3.731
					C273.787,277.062,272.824,278.861,272.969,280.565z"/>
				<path style="fill:#FFFFFF;" d="M266.93,267.447c-0.218,3.255-0.154,10.098,0.191,8.077c0.345-2.021,0.462-7.359,0.63-9.275
					C267.918,264.331,267.061,265.49,266.93,267.447z"/>
				<path style="fill:#FFFFFF;" d="M264.649,240.019c-1.082,4.024-0.359,11.606,0.234,9.155c0.594-2.451,0.704-7.493,0.807-9.424
					C265.793,237.82,265.438,237.085,264.649,240.019z"/>
				<path style="fill:#FFFFFF;" d="M249.842,262.839c-0.267,3.145,0.889,7.606,1.48,6.611c0.591-0.995-0.09-3.628-0.28-5.79
					C250.851,261.498,250.06,260.279,249.842,262.839z"/>
				<path style="fill:#FFFFFF;" d="M247.9,283.09c0.603,3.221,1.535,5.475,2.19,5.111c0.656-0.364,0.033-2.686-0.559-5.845
					C248.939,279.197,247.347,280.138,247.9,283.09z"/>
				<path style="fill:#FFFFFF;" d="M256.615,297.197c0.559,4.792,2.233,8.285,2.601,6.957c0.368-1.329-0.655-4.376-1.083-6.295
					C257.704,295.941,256.148,293.191,256.615,297.197z"/>
				<path style="fill:#FFFFFF;" d="M250.617,299.849c0.7,2.661,2.336,6.068,2.848,5.651s-1.001-3.484-1.821-5.716
					C250.823,297.552,250.081,297.811,250.617,299.849z"/>
				<path style="fill:#FFFFFF;" d="M258.859,311.404c0.664,5.347,4.073,11.727,3.975,9.628c-0.098-2.099-1.673-6.563-2.646-8.718
					C259.215,310.158,258.595,309.283,258.859,311.404z"/>
				<path style="fill:#FFFFFF;" d="M263.91,310.753c0.702,3.756,1.991,7.909,2.328,6.559c0.337-1.35-0.881-3.989-1.344-5.886
					C264.431,309.53,263.648,309.356,263.91,310.753z"/>
				<path style="fill:#FFFFFF;" d="M267.501,296.958c-0.262,2.721,0.745,9.901,1.284,8.915c0.539-0.985,0.037-4.219-0.075-7.184
					S267.822,293.611,267.501,296.958z"/>
				<path style="fill:#FFFFFF;" d="M283.651,299.888c-1.738,4.426-1.077,6.734,0.017,3.827
					C284.762,300.809,284.897,296.715,283.651,299.888z"/>
				<path style="fill:#FFFFFF;" d="M292.226,270.842c-2.37,8.49-4.867,17.964-3.369,14.712c1.498-3.252,4.159-12.484,4.973-16.269
					C294.645,265.5,292.853,268.595,292.226,270.842z"/>
				<path style="fill:#FFFFFF;" d="M286.046,291.294c-0.343,1.852-0.32,3.871,0.375,3.159c0.695-0.712,1.158-2.527,1.046-4.111
					C287.356,288.759,286.346,289.679,286.046,291.294z"/>
				<path style="fill:#FFFFFF;" d="M276.795,288.219c-0.65,3.563,0.482,5.94,0.671,3.276
					C277.655,288.832,277.259,285.672,276.795,288.219z"/>
				<path style="fill:#FFFFFF;" d="M294.767,246.938c-1.096,5.113-0.799,5.717-0.141,3.691
					C295.285,248.603,295.197,244.93,294.767,246.938z"/>
				<path style="fill:#FFFFFF;" d="M298.468,251.715c-1.398,3.343-0.74,4.752,0.76,1.845
					C300.728,250.654,299.846,248.42,298.468,251.715z"/>
				<path style="fill:#FFFFFF;" d="M300.597,258.43c-1.464,2.836-0.938,4.426,0.206,1.691
					C301.946,257.387,301.875,255.955,300.597,258.43z"/>
				<path style="fill:#FFFFFF;" d="M277.072,244.207c-0.655,3.171-0.484,5.687,0.168,3.458
					C277.891,245.437,277.519,242.042,277.072,244.207z"/>
				<path style="fill:#FFFFFF;" d="M245.744,250.364c0.982,4.218,2.002,8.014,2.277,6.976c0.275-1.038-1.1-4.858-1.597-6.831
					C245.927,248.537,245.141,247.778,245.744,250.364z"/>
				<path style="fill:#FFFFFF;" d="M235.854,255.175c0.598,3.183,1.712,5.445,1.468,3.136
					C237.078,256.002,235.445,253.002,235.854,255.175z"/>
				<path style="fill:#FFFFFF;" d="M238.566,248.648c0.143,2.418,1.615,3.643,1.163,1.16
					C239.277,247.325,238.433,246.407,238.566,248.648z"/>
				<path style="fill:#FFFFFF;" d="M254.119,255.293c-0.786,2.291,0.111,3.983,0.636,1.514
					C255.279,254.339,254.848,253.17,254.119,255.293z"/>
				<path style="fill:#FFFFFF;" d="M273.468,244.596c-0.594,2.212,0.192,4.21,0.579,1.197
					C274.433,242.78,273.947,242.811,273.468,244.596z"/>
				<path style="fill:#FFFFFF;" d="M283.239,239.231c-0.681,2.845,0.406,4.726,0.795,2.117
					C284.423,238.738,283.939,236.311,283.239,239.231z"/>
				<path style="fill:#FFFFFF;" d="M243.109,259.861c0.396,3.741,2.521,5.554,1.872,2.224
					C244.331,258.755,242.703,256.021,243.109,259.861z"/>
				<path style="fill:#FFFFFF;" d="M282.847,247.832c-0.603,2.162,0.856,3.77,1.415,0.656S283.9,244.058,282.847,247.832z"/>
				<path style="fill:#FFFFFF;" d="M216.501,293.215c-3.003-3.12-5.824-5.858-5.528-4.826c0.295,1.032,3.433,3.609,4.87,5.049
					C217.279,294.879,218.342,295.129,216.501,293.215z"/>
				<path style="fill:#FFFFFF;" d="M225.363,271.243c-1.044-2.732-3.004-3.671-1.851-1.298
					C224.665,272.318,226.436,274.047,225.363,271.243z"/>
				<path style="fill:#FFFFFF;" d="M231.148,284.498c2.797,4.182,6.383,8.678,6.042,7.246c-0.341-1.432-5.429-7.322-6.154-8.15
					C230.311,282.767,230.315,283.253,231.148,284.498z"/>
				<path style="fill:#FFFFFF;" d="M228.885,277.603c1.89,3.003,4.231,7.175,4.244,5.962c0.014-1.214-3.087-5.351-3.852-6.502
					C228.512,275.913,227.512,275.421,228.885,277.603z"/>
				<path style="fill:#FFFFFF;" d="M226.623,283.671c1.577,2.036,3.143,3.947,2.576,2.805s-1.727-2.833-2.678-3.633
					C225.569,282.044,225.917,282.759,226.623,283.671z"/>
				<path style="fill:#FFFFFF;" d="M222.775,291.75c1.383,2.296,3.175,3.86,2.596,2.668c-0.579-1.192-2.059-2.811-2.492-3.328
					C222.444,290.573,221.669,289.914,222.775,291.75z"/>
				<path style="fill:#FFFFFF;" d="M217.387,278.999c3.761,5.986,7.655,10.517,7.324,9.383c-0.331-1.134-3.983-6.277-5.393-8.077
					C217.557,278.057,215.963,276.732,217.387,278.999z"/>
				<path style="fill:#FFFFFF;" d="M238.133,264.465c1.582,4.437,3.153,8.414,3.322,7.258c0.169-1.155-1.789-5.114-2.569-7.185
					C238.105,262.467,237.162,261.743,238.133,264.465z"/>
				<path style="fill:#FFFFFF;" d="M214.952,271.637c1.361,2.378,2.878,3.876,2.043,2.099
					C216.16,271.958,214.022,270.013,214.952,271.637z"/>
				<path style="fill:#FFFFFF;" d="M232.762,265.914c0.785,1.892,2.301,2.463,1.251,0.604
					C232.963,264.659,232.034,264.159,232.762,265.914z"/>
				<path style="fill:#FFFFFF;" d="M221.996,277.793c0.862,1.735,2.479,2.562,1.037,0.435
					C221.592,276.101,221.3,276.394,221.996,277.793z"/>
				<path style="fill:#FFFFFF;" d="M244.673,273.459c0.214,3.175,1.953,4.776,1.511,1.941
					C245.742,272.564,244.453,270.2,244.673,273.459z"/>
				<path style="fill:#FFFFFF;" d="M232.248,274.434c0.828,1.709,2.654,1.911,1.265-0.376
					C232.124,271.771,230.802,271.452,232.248,274.434z"/>
				<path style="fill:#FFFFFF;" d="M249.48,311.335c1.015,6.039,5.082,8.34,3.55,4.674
					C251.499,312.343,248.983,308.378,249.48,311.335z"/>
				<path style="fill:#FFFFFF;" d="M240.434,306.93c1.361,2.906,3.92,4.114,2.237,1.42S239.692,305.346,240.434,306.93z"/>
				<path style="fill:#FFFFFF;" d="M243.817,304.184c0.944,2.919,3.933,5.307,2.51,1.718
					C244.903,302.313,243.04,301.78,243.817,304.184z"/>
				<path style="fill:#FFFFFF;" d="M234.598,294.698c1.417,2.903,2.79,4.527,1.859,1.927
					C235.526,294.025,233.646,292.748,234.598,294.698z"/>
				<path style="fill:#FFFFFF;" d="M228.448,298.033c1.658,3.273,5.022,5.414,3.977,3.117
					C231.38,298.853,227.122,295.415,228.448,298.033z"/>
				<path style="fill:#FFFFFF;" d="M228.958,291.3c1.521,2.45,3.264,3.455,1.421,0.138S227.437,288.85,228.958,291.3z"/>
				<path style="fill:#FFFFFF;" d="M236.495,282.871c1.342,2.626,2.458,1.806,0.646-1.274
					C235.328,278.517,234.975,279.897,236.495,282.871z"/>
				<path style="fill:#FFFFFF;" d="M240.026,278.028c2.833,7.743,4.791,13.19,4.425,10.185c-0.366-3.005-3.564-10.896-4.378-12.575
					C239.259,273.958,239.008,275.245,240.026,278.028z"/>
				<path style="fill:#FFFFFF;" d="M252.303,291.612c0.534,1.938,1.553,4.116,1.452,2.177
					C253.654,291.85,251.867,290.029,252.303,291.612z"/>
				<path style="fill:#FFFFFF;" d="M264.429,281.652c0.023,2.658,0.796,2.788,0.837-0.175
					C265.307,278.513,264.4,278.36,264.429,281.652z"/>
				<path style="fill:#FFFFFF;" d="M246.578,295.891c0.605,2.062,2.077,2.259,1.082-0.292
					C246.664,293.049,245.789,293.205,246.578,295.891z"/>
				<path style="fill:#FFFFFF;" d="M218.821,300.526c2.318,2.428,3.292,1.973,1.609,0.26
					C218.748,299.074,216.502,298.098,218.821,300.526z"/>
				<path style="fill:#FFFFFF;" d="M244.614,320.21c2.556,3.149,6.797,5.161,4.015,2.228
					C245.848,319.506,243.344,318.645,244.614,320.21z"/>
				<path style="fill:#FFFFFF;" d="M246.226,315.289c1.175,2.143,2.6,2.404,1.446,0.157
					C246.517,313.199,245.251,313.512,246.226,315.289z"/>
				<path style="fill:#FFFFFF;" d="M266.87,325.135c1.875,4.981,2.887,5.414,1.541,0.647
					C267.066,321.014,265.683,321.981,266.87,325.135z"/>
				<path style="fill:#FFFFFF;" d="M254.863,272.025c1.691,8.964,3.783,19.879,3.147,14.464c-0.636-5.416-2.479-13.95-2.963-16.043
					C254.564,268.352,254.522,270.215,254.863,272.025z"/>
				<path style="fill:#FFFFFF;" d="M270.447,299.248c0.118,8.027-0.093,16.261,0.529,9.509c0.622-6.752,0.794-16.344,0.242-18.345
					C270.667,288.411,270.422,297.56,270.447,299.248z"/>
				<path style="fill:#FFFFFF;" d="M281.361,285.979c-2.365,17.024-3.503,22.335-2.538,18.945c0.966-3.39,3.971-17.994,4.412-21.655
					C283.678,279.607,281.99,281.449,281.361,285.979z"/>
				<path style="fill:#FFFFFF;" d="M291.417,257.745c-1.653,7.58-3.122,14.339-1.151,8.09c1.971-6.249,2.901-10.483,3.337-12.432
					C294.039,251.453,292.381,253.326,291.417,257.745z"/>
				<path style="fill:#FFFFFF;" d="M276.985,320.311c-1.355,5.703-1.594,8.873-0.532,4.867c1.062-4.006,1.454-5.629,1.668-7.696
					C278.336,315.416,277.385,318.628,276.985,320.311z"/>
				<path style="fill:#FFFFFF;" d="M270.894,316.142c0.148,6.579,0.564,15.6,0.75,9.969c0.186-5.631,0.051-8.276-0.308-11.004
					C270.978,312.378,270.848,314.08,270.894,316.142z"/>
				<path style="fill:#FFFFFF;" d="M258.224,255.664c-0.774,5.083,0.052,13.566,0.568,9.311
					C259.307,260.721,258.929,251.031,258.224,255.664z"/>
				<path style="fill:#FFFFFF;" d="M262.773,281.875c0.535,11.578,1.953,19.363,1.643,15.834c-0.276-3.13-0.983-14.549-1.178-18.503
					C263.117,276.766,262.707,280.452,262.773,281.875z"/>
				<path style="fill:#FFFFFF;" d="M278.403,266.005c-2.796,9.498-3.621,22.934-2.982,20.028c0.639-2.906,2.415-12.224,2.813-15.638
					S279.074,263.722,278.403,266.005z"/>
				<path style="fill:#FFFFFF;" d="M257.076,319.92c3.217,5.629,10.447,19.026,8.264,13.479c-2.183-5.547-6.119-11-7.382-13.573
					C256.695,317.253,255.593,317.325,257.076,319.92z"/>
				<path style="fill:#FFFFFF;" d="M238.979,312.459c3.457,3.382,6.932,6.382,3.459,2.368
					C238.966,310.813,237.383,310.897,238.979,312.459z"/>
				<path style="fill:#FFFFFF;" d="M253.655,308.735c2.433,5,6.488,12.434,5.541,9.283c-0.947-3.151-2.94-7.141-3.865-8.667
					C254.406,307.825,252.843,307.066,253.655,308.735z"/>
				<path style="fill:#FFFFFF;" d="M274.282,301.475c-1.228,8.368-0.561,12.814,0.459,6.772
					C275.762,302.205,274.77,298.15,274.282,301.475z"/>
				<g>
					
						<line style="fill:none;stroke:#FFFFFF;stroke-width:0.4595;stroke-miterlimit:10;stroke-dasharray:2.4439,2.0773;" x1="225.912" y1="304.352" x2="265.076" y2="333.595"/>
					
						<line style="fill:none;stroke:#FFFFFF;stroke-width:0.4595;stroke-miterlimit:10;stroke-dasharray:2.4439,2.0773;" x1="231.496" y1="298.892" x2="265.57" y2="333.135"/>
					
						<line style="fill:none;stroke:#FFFFFF;stroke-width:0.4595;stroke-miterlimit:10;stroke-dasharray:2.4439,2.0773;" x1="240.137" y1="297.268" x2="267.515" y2="334.59"/>
					
						<line style="fill:none;stroke:#FFFFFF;stroke-width:0.4595;stroke-miterlimit:10;stroke-dasharray:2.4439,2.0773;" x1="242.847" y1="288.081" x2="268.246" y2="334.432"/>
					
						<line style="fill:none;stroke:#FFFFFF;stroke-width:0.4595;stroke-miterlimit:10;stroke-dasharray:2.4439,2.0773;" x1="247.181" y1="269.116" x2="269.558" y2="334.965"/>
					
						<line style="fill:none;stroke:#FFFFFF;stroke-width:0.4595;stroke-miterlimit:10;stroke-dasharray:2.4439,2.0773;" x1="257.749" y1="276.411" x2="270.998" y2="335.008"/>
					
						<line style="fill:none;stroke:#FFFFFF;stroke-width:0.4595;stroke-miterlimit:10;stroke-dasharray:2.4439,2.0773;" x1="264.862" y1="261.45" x2="272.303" y2="334.965"/>
					
						<line style="fill:none;stroke:#FFFFFF;stroke-width:0.4595;stroke-miterlimit:10;stroke-dasharray:2.4439,2.0773;" x1="273.609" y1="261.342" x2="273.27" y2="332.652"/>
					
						<line style="fill:none;stroke:#FFFFFF;stroke-width:0.4595;stroke-miterlimit:10;stroke-dasharray:2.4439,2.0773;" x1="282.08" y1="263.802" x2="274.048" y2="334.18"/>
					
						<line style="fill:none;stroke:#FFFFFF;stroke-width:0.4595;stroke-miterlimit:10;stroke-dasharray:2.4439,2.0773;" x1="290.065" y1="259.993" x2="274.83" y2="333.042"/>
				</g>
			</g>
		</g>
		<g>
			<g>
				<path style="fill:#E7B2A1;" d="M185.486,378.763c2.304,1.595,6.605,7.189,8.98,10.604c2.375,3.415,3.414,4.502,4.499,6.043
					c1.085,1.541,0.316,2.748-1.399,2.109c-1.715-0.639-4.09-1.467-7.327-6.269c-3.237-4.801-8.235-10.712-8.235-10.712
					S184.254,377.91,185.486,378.763z"/>
				<path style="fill:#E7B2A1;" d="M194.87,409.234c0.634-0.615,0.915-4.418,0.931-6.781c0.022-3.206-0.54-5.565-1.82-8.714
					c-1.154-2.84-4.769-10.924-6.082-12.553c-2.622-3.251-8.593-7.696-9.461-10.427c-1.192-3.751-2.187-20.442-2.187-20.442
					l-14.083,5.434c0,0,0.992,6.854,1.397,9.131c1.08,6.072-0.436,10.287,0.962,15.78c1.399,5.493,3.725,7.609,5.508,9.312
					c1.783,1.703,3.842,5.227,4.541,7.365c0.699,2.138,1.927,7.21,2.984,8.418c1.057,1.207,3.036,0.288,3.036,0.288
					s0.585,1.218,1.081,2.926c0.484,1.667,2.32,2.103,3.578,1.03c0,0-0.211,1.935,0.878,2.51c1.09,0.575,2.484,0.16,3.539-1.648
					c0,0,0.499-4.78,0.528-6.876c0.029-2.095-0.431-5.377-0.54-6.17c-0.109-0.793-2.015-4.613-2.015-4.613s1.532,2.2,2.57,3.854
					c0.657,1.048,0.757,1.644,0.862,2.721c0.223,2.285,0.331,3.976,0.678,6.704C191.935,407.896,193.603,410.461,194.87,409.234z"/>
				<path style="fill:#5468CC;" d="M179.853,365.048c-5.768-0.14-11.762,3.114-17.623,7.2c0,0-20.359-44.506-24.831-62.046
					c-2.544-9.977-3.616-30.953-2.182-40.003c1.434-9.051,2.562-21.695,4.542-29.352c1.98-7.657,6.848-18.821,12.866-23.929
					c10.342-8.777,19.724-4.281,22.618-0.1c2.303,3.327,2.076,8.725,1.091,17.282c-0.985,8.557-12.489,59.13-12.489,59.13
					L179.853,365.048z"/>
				<path style="fill:none;stroke:#5468CC;stroke-width:1.1751;stroke-miterlimit:10;" d="M158.379,284.899
					c0,0,3.19,4.237,5.465,8.329"/>
				<path style="fill:none;stroke:#5468CC;stroke-width:1.1751;stroke-miterlimit:10;" d="M176.333,234.099
					c-0.985,8.557-12.489,59.13-12.489,59.13l16.009,71.82c-5.553,1.231-11.762,3.114-17.623,7.2c0,0-22.875-48.466-25.729-66.331
					c-1.026-6.419-2.971-17.961-1.309-32.441c1.188-10.351,2.951-21.645,2.951-21.645"/>
			</g>
			<path style="fill:#E7B2A1;" d="M198.094,222.493c-2.516-8.198-4.608-16.512-6.701-24.826l-1.031,0.557
				c-6.2,4.796-12.303,7.66-20.94,6.484c-4.072-0.555-22.341,3.437-22.341,3.437s-8.607,35.609,21.242,44.697
				c15.046,4.58,15.663-11.477,15.663-11.477s-0.147-7.984,2.344-11.658c1.444-2.129,7.25-4.892,11.881-6.84
				C198.174,222.741,198.133,222.617,198.094,222.493z"/>
			<path style="fill:#D4877B;" d="M198.094,222.493c-2.516-8.198-4.608-16.512-6.701-24.826l-1.031,0.557
				c-4.262,3.297-7.506,4.751-10.397,5.721c-0.094,1.909-0.007,3.805,0.173,5.692c2.745,15.223,7.729,18.513,8.183,18.194
				c1.816-1.274,6.324-3.06,10.06-4.425C198.288,223.101,198.188,222.798,198.094,222.493z"/>
			<g>
				<g>
					<path style="fill:#E97151;" d="M226.018,410.096l0.004,4.62h-32.572c0,0-9.364-2.485-11.895-2.192
						c-2.531,0.292-5.905,3.508-5.905,3.508h-12.654l0.073-8.333c0,0,7.941-2.483,19.33-1.752
						C193.787,406.678,226.018,410.096,226.018,410.096z"/>
				</g>
				<path style="fill:#444968;" d="M46.481,317.353c-0.439,1.833-7.41,28.65,8.891,37.882c8.383,4.748,44.21-1.232,56.065-8.244
					c11.33-6.701,47.506-28.486,47.506-28.486l3.408,26.981h32.737c0,0,4.227-41.621,3.585-50.608
					c-0.642-8.987-1.116-22.781-18.448-24.065C162.895,269.53,46.481,317.353,46.481,317.353z"/>
				<path style="fill:#E9BC51;" d="M200.9,328.946c0,0-4.57-1.326-18.076,1.187c-14.859,2.765-23.853,6.608-23.853,6.608
					s3.183,39.067,4.003,53.655c0.243,4.319,0.094,17.303,0.094,17.303l62.95,2.397c0,0,0.463-6.294-8.826-10.551
					c-9.288-4.257-22.396-8.381-22.396-8.381L200.9,328.946z"/>
				<path style="fill:none;stroke:#3D415B;stroke-width:1.1135;stroke-miterlimit:10;" d="M175.365,304.722
					c-6.733,7.28-15.041,13.364-23.595,18.299"/>
			</g>
			<g>
				<path style="fill:#302426;" d="M231.228,174.798c1.167,5.451,0.226,15.643-2.702,18.143c-2.929,2.501-5.728,3.99-5.728,3.99
					l-2.11-23.983L231.228,174.798z"/>
				<path style="fill:#E7B2A1;" d="M228.648,179.27c2.34,8.579-0.752,17.649-2.915,22.4c-2.163,4.751-1.795,5.376-3.427,11.859
					c-2.128,8.458-8.809,15.419-16.353,17.246c-9.425,2.283-21.134-13.903-22.937-18.684c-2.098-5.565-2.797-12.962-2.495-17.49
					c0.302-4.527,1.318-19.692,8.55-24.238c7.232-4.546,17.288-2.109,27.026,2.286C225.835,177.045,227.659,175.646,228.648,179.27z
					"/>
				<path style="fill:#302426;" d="M205.81,213.903c1.77,1.304,5.491,2.948,8.839,1.825c0,0-1.496,4.356-5.64,2.849
					C205.582,217.33,205.81,213.903,205.81,213.903z"/>
				<path style="fill:#302426;" d="M188.924,185.016c0,0,5.816-3.888,8.043-8.086c2.104-3.967,2.05-7.787,2.05-7.787
					s4.281,2.876,6.57,4.091c5.888,3.124,17.351,8.902,23.249,7.358c5.589-1.462,7.608-5.991,7.078-8.818
					c-0.443-2.367-2.49-4.032-8.573-5.938c-15.048-4.716-16.348-9.182-25.085-11.349c-10.912-2.706-13.991,5.634-13.991,5.634
					s-2.167-1.003-6.587,4.183c-4.586,5.382-4.744,10.699-4.563,18.593c0.245,10.689,6.378,17.951,6.378,17.951l1.906-9.122
					l2.837-1.158L188.924,185.016z"/>
				<g>
					<path style="fill:#302426;" d="M212.693,184.581c0,0-6.651-3.661-15.104-1.348c0,0,1.219,0.563,1.733,0.707
						c1.312,0.369,9.379,0.98,13.436,3.937C212.759,187.877,213.523,186.196,212.693,184.581z"/>
					<path style="fill:#302426;" d="M219.896,190.06c0,0,0.103-1.607,1.388-2.688c0,0,3.939-0.369,9.133,4.789
						c0,0-0.508,0.762-1.627,0.205C227.672,191.809,223.611,189.49,219.896,190.06z"/>
					<path style="fill:#302426;" d="M206.313,195.747c-0.412,1.469-0.044,2.858,0.823,3.1c0.866,0.243,1.902-0.752,2.314-2.221
						c0.412-1.47,0.043-2.858-0.823-3.1C207.76,193.283,206.724,194.278,206.313,195.747z"/>
					<path style="fill:#302426;" d="M221.849,199.515c-0.412,1.469-0.043,2.858,0.823,3.1c0.866,0.243,1.902-0.752,2.314-2.221
						c0.412-1.469,0.044-2.858-0.823-3.1C223.297,197.051,222.261,198.046,221.849,199.515z"/>
				</g>
				<g>
					<g>
						<path style="fill:#E7B2A1;" d="M184.801,190.435c-2.487-4.408-8.289-5.105-9.06,0.156c-0.643,4.385,1.338,5.758,3.898,10.137
							c1.737,2.971,4.152,2.337,4.588,1.178C185.46,198.629,186.346,193.173,184.801,190.435z"/>
					</g>
				</g>
				<path style="fill:#D4877B;" d="M215.948,198.782c0.585,1.514,1.067,3.056,1.535,4.603c0.478,1.544,0.883,3.106,1.288,4.667
					l0.284,1.175l0.142,0.588c0.028,0.239,0.055,0.481,0.068,0.72c-0.041,0.244-0.071,0.502-0.159,0.729
					c-0.123,0.21-0.21,0.462-0.391,0.608c-0.312,0.358-0.711,0.565-1.101,0.696c-1.573,0.514-2.356,0.524-3.883,0.19
					c0,0-0.881-0.486-0.137-0.611c0.74-0.097,3.089,0.015,3.711-0.296c0.618-0.319,1.069-0.771,1.044-1.38
					c-0.03-0.16-0.045-0.316-0.061-0.475l-0.152-0.583l-0.304-1.167c-0.38-1.561-0.759-3.121-1.065-4.699
					C216.449,201.971,216.148,200.39,215.948,198.782z"/>
				<path style="fill:#D4877B;" d="M181.789,189.643c-1.379-1.682-3.089-0.701-3.843,0.778c-0.753,1.479-0.003,0.715,1.386,0.074
					c1.389-0.641,2.275,2.056,1.885,3.572c-0.538,2.09-0.219,4.917,1.592,5.461c1.81,0.544,0.961-0.306,1.079-2.623
					c0.118-2.317,0.107,0.006-0.096-2.328C183.59,192.242,182.975,191.091,181.789,189.643z"/>
			</g>
			<path style="fill:#444968;" d="M91.911,298.892c0,0,71.77,28.616,91.774,45.328c7.02,5.865,6.332,8.319,7.551,13.036
				c2.254,8.723-0.889,17.443-6.625,21.314c-8.838,5.963-32.878,5.571-51.91,6.286c-19.032,0.714-51.55,0.831-51.55,0.831
				l-8.616-18.209l32.951-4.45c0,0-37.865,1.827-50.725-5.159c-12.86-6.986-18.361-26.313-18.844-33.786
				c-0.483-7.473,20.987-34.228,20.987-34.228L91.911,298.892z"/>
			<path style="fill:none;stroke:#3D415B;stroke-width:1.1135;stroke-miterlimit:10;" d="M94.08,301.689
				c0,0,46.816,16.636,67.449,28.727"/>
			<path style="fill:#697AD3;" d="M184.087,248.115c-3.625,15.964-23.913,37.506-43.883,48.6s-31.064,11.094-45.487,11.464
				c-14.423,0.37-25.887-3.328-33.283,2.589c-7.396,5.917-25.517,13.313-25.517,13.313s-4.068-30.325,10.725-56.581
				c14.792-26.257,35.986-46.016,68.489-55.981c22.297-6.836,41.388-7.519,59.139-6.779c0,0,2.325,7.921,3.746,15.075
				c1.845,9.293,1.579,19.827,4.383,19.63c1.299-0.091,2.664-6.892,2.664-6.892C185.624,234.567,185.315,242.707,184.087,248.115z"
				/>
			<path style="fill:none;stroke:#5468CC;stroke-width:1.1714;stroke-miterlimit:10;" d="M93.944,294.886
				c13.851,3.115,40.262,3.216,57.826-5.715"/>
			<path style="fill:#E9BC51;" d="M76.136,363.923c10.576-1.154,56.943-10.435,56.943-10.435
				c12.851,10.408,12.851,32.333,12.851,32.333c-15.169,0.705-53.642,4.83-53.642,4.83s1.923,7.115,3.269,8.653
				c1.346,1.538,6.538,4.807,9.23,6.346c2.692,1.538,3.632,4.499,3.632,4.499s-19.373,0.635-22.02,0.773
				c-6.514,0.338-3.726-0.657-10.84-10.656c-7.115-9.999-16.714-30.04-16.714-30.04S65.56,365.077,76.136,363.923z"/>
			<path style="fill:#444968;" d="M73.248,362.269c0,0,17.362,2.197,45.281-1.425c27.919-3.622,48.141-10.391,48.141-10.391
				s-29.277-12.019-52.216-14.321c-22.939-2.302-51.763,2.075-51.763,2.075L73.248,362.269z"/>
			<path style="fill:none;stroke:#3D415B;stroke-width:1.1135;stroke-miterlimit:10;" d="M153.241,351.706
				c0,0-27.166,13.213-77.425,10.806"/>
			<path style="fill:#E97151;" d="M58.844,370.226c0,0,8.266,13.86,14.621,23.557c3.775,5.761,6.959,13.835,9.372,15.371
				c2.413,1.536,25.582,0.996,25.582,0.996v4.168H79.903c0,0-5.045-4.387-6.581-8.336c-1.536-3.948-5.943-13.203-7.917-15.616
				c-1.974-2.413-5.464-0.616-5.464-0.616l-8.994-11.407L58.844,370.226z"/>
			<g>
				<path style="fill:#E7B2A1;" d="M247.003,344.392c2.736-0.552,9.696,0.338,13.771,1.069c4.075,0.731,5.57,0.752,7.417,1.071
					c1.848,0.32,2.169,1.781,0.522,2.594c-1.647,0.813-3.888,1.981-9.547,0.877c-5.659-1.104-13.33-1.706-13.33-1.706
					S245.54,344.686,247.003,344.392z"/>
				<path style="fill:#E7B2A1;" d="M270.985,354.067c-2.258-2.37-4.323-3.681-7.447-5.036c-2.817-1.221-11.067-4.453-13.137-4.666
					c-4.131-0.426-11.441,0.776-13.982-0.579c-3.49-1.862-16.02-13.37-16.02-13.37l-5.951,14.518c0,0,5.551,4.29,7.448,5.658
					c5.058,3.649,6.991,7.877,11.86,10.863c4.869,2.986,7.99,2.8,10.439,2.717c2.449-0.084,6.113,0.923,8.31,1.452
					c0.966,0.233,2.457,0.889,3.483,1.397c1.831,0.907,3.431,2.191,4.426,2.419c1.16,0.265,2.837-0.593,1.247-2.19
					c-0.173-0.173-1.221-1.187-1.957-1.75c-0.697-0.534-1.935-1.47-2.487-1.799c-0.98-0.584-4.713-2.666-4.713-2.666
					s6.34,2.625,6.981,3.042c1.83,1.189,3.29,2.89,3.833,3.332c0,0,0.896,1.119,2.452,2.002c1.435,0.815,3.306,0.127,2.861-1.389
					c-0.064-0.216-4.909-5.761-5.641-6.277c-1.956-1.377-7.171-4.046-7.171-4.046s2.555,0.739,4.767,1.712
					c1.418,0.624,2.825,1.794,3.18,2.031c0.91,0.607,4.002,4.173,4.669,4.78c0.394,0.358,1.513,2.469,2.947,2.456
					c1.231-0.012,2.264-1.896,1.295-3.856c-0.783-1.584-3.042-3.882-4.508-5.442c-1.466-1.56-3.588-3.211-4.227-3.712
					c-0.639-0.501-5.199-2.293-5.199-2.293s2.627,0.469,4.522,0.908c1.201,0.278,1.693,0.64,2.53,1.353
					c1.776,1.51,3.051,2.671,5.227,4.414c1.127,0.903,4.108,1.539,4.12-0.309C275.15,358.815,272.649,355.814,270.985,354.067z"/>
				<path style="fill:#697AD3;" d="M234.689,342.511c-5.204,2.423-9.118,7.992-12.549,14.247c0,0-37.696-30.927-49.386-44.685
					c-6.649-7.826-16.818-26.168-19.514-34.921c-2.697-8.752-7.244-20.594-8.842-28.338c-1.598-7.744-2.162-19.91,0.96-27.152
					c5.365-12.444,15.704-12.557,20.119-10.086c3.514,1.967,7.26,8.163,10.14,16.275c2.88,8.111,13.257,57.308,13.257,57.308
					L234.689,342.511z"/>
				<path style="fill:none;stroke:#5468CC;stroke-width:1.1714;stroke-miterlimit:10;" d="M180.346,280.103
					c0,0,4.704,2.391,8.53,5.056"/>
				<path style="fill:none;stroke:#5468CC;stroke-width:1.1714;stroke-miterlimit:10;" d="M176.667,230.995
					c2.88,8.111,12.208,54.164,12.208,54.164l45.814,57.351c-4.41,3.558-9.118,7.992-12.549,14.247c0,0-41.678-33.368-52.068-48.132
					c-3.733-5.305-10.537-14.799-15.415-28.522c-3.487-9.81-6.875-20.721-6.875-20.721"/>
			</g>
		</g>
		<g>
			<path style="fill:#9B6C4F;" d="M266.994,418.921h-86.062c0,0,4.725-2.688,10.372-3.314c5.648-0.626,6.625-4.016,7.553-5.25
				c2.027-2.695,6.757-3.275,11.004,0.565c0,0,0.993-1.491,3.668-1.909c2.675-0.417,4.751,1.553,5.791,1.344s5.92-1.655,9.516-3.453
				c1.391-0.695,7.244-2.257,10.217,0.706c2.972,2.963,3.984,3.03,6.065,3.598c2.081,0.568,4.496,3.247,4.496,3.247
				s3.855-0.543,7.867,0.501C261.496,415.999,266.994,418.921,266.994,418.921z"/>
		</g>
	</g>
</g>
</svg>
