<?xml version="1.0" encoding="utf-8"?>
<!-- Generator: Adobe Illustrator 27.5.0, SVG Export Plug-In . SVG Version: 6.00 Build 0)  -->
<svg version="1.1" xmlns="http://www.w3.org/2000/svg" xmlns:xlink="http://www.w3.org/1999/xlink" x="0px" y="0px"
	 viewBox="0 0 750 500" style="enable-background:new 0 0 750 500;" xml:space="preserve">
<g id="BACKGROUND">
	<rect x="-0.02" y="-0.006" style="fill:#D5E9F4;" width="750.023" height="500.005"/>
</g>
<g id="OBJECTS">
	<g>
		<ellipse style="opacity:0.2;fill:#222220;" cx="132.713" cy="410.264" rx="115.416" ry="7.117"/>
		<g>
			<path style="opacity:0.3;fill:#FFFFFF;" d="M68.137,238.613c0,0-19.032,20.399-20.083,59.514c0,0,1.262,2.839,3.575,3.26
				c2.313,0.421,4.206,3.68,10.41,3.996c6.204,0.315,23.974-4.206,23.974-4.206L68.137,238.613z"/>
			<path style="opacity:0.3;fill:#FFFFFF;" d="M104.763,238.613c0,0,19.032,20.399,20.083,59.514c0,0-1.262,2.839-3.575,3.26
				c-2.313,0.421-4.206,3.68-10.41,3.996c-6.204,0.315-23.974-4.206-23.974-4.206L104.763,238.613z"/>
			<g>
				<path style="fill:#D0646C;" d="M68.74,174.16c0,0-0.682,7.961-2.616,9.894c-1.933,1.933-19.333,8.984-1.82,19.333
					c17.514,10.349,22.29-15.239,22.29-15.239l-5.231-16.263L68.74,174.16z"/>
				<path style="fill:#D0646C;" d="M101.824,174.16c0,0,0.682,7.961,2.616,9.894c1.933,1.933,19.333,8.984,1.82,19.333
					c-17.514,10.349-22.29-15.239-22.29-15.239l5.231-16.263L101.824,174.16z"/>
				<path style="fill:#F6B28B;" d="M99.013,168.89c0,0,1.804-5.009,4.509-3.029c2.706,1.98-0.902,7.222-0.902,7.222
					s1.262,4.426-3.156,2.097C95.045,172.851,99.013,168.89,99.013,168.89z"/>
				<path style="fill:#F6B28B;" d="M71.598,168.89c0,0-1.804-5.009-4.509-3.029c-2.705,1.98,0.902,7.222,0.902,7.222
					s-1.263,4.426,3.156,2.097C75.566,172.851,71.598,168.89,71.598,168.89z"/>
				<g>
					<rect x="81.66" y="187.048" style="fill:#F6B28B;" width="8.473" height="8.644"/>
					<rect x="81.66" y="187.048" style="opacity:0.3;fill:#F6B28B;" width="8.473" height="8.644"/>
				</g>
				<path style="fill:#F6B28B;" d="M71.798,195.313c0,0,12.065-5.359,30.142,0l0.96,6.218l-11.106,6.583l-13.969-1.259l-6.126-8.645
					L71.798,195.313z"/>
				<g>
					<defs>
						<path id="SVGID_1_" d="M71.798,195.313c0,0,12.065-5.359,30.142,0l0.96,6.218l-11.106,6.583l-13.969-1.259l-6.126-8.645
							L71.798,195.313z"/>
					</defs>
					<clipPath id="SVGID_00000104669351756198776610000016704885362940093830_">
						<use xlink:href="#SVGID_1_"  style="overflow:visible;"/>
					</clipPath>
					<path style="opacity:0.3;clip-path:url(#SVGID_00000104669351756198776610000016704885362940093830_);fill:#F6B28B;" d="
						M75.149,187.715c0,0,7.91,13.955,12.041,14.207c4.131,0.252,9.723-14.157,9.874-14.308c0.151-0.151-7.859-1.914-7.859-1.914
						L75.149,187.715z"/>
				</g>
				<g>
					<path style="fill:#F6B28B;" d="M100.81,213.737c0,0,5.983,31.142,10.106,34.578c4.123,3.436,31.762-11.97,38.698-18.128
						l-6.123-2.352c0,0-23.641,7.147-25.703,6.872c0,0-2.691-19.726-6.402-34.845L100.81,213.737z"/>
					<g>
						<defs>
							<path id="SVGID_00000142864485042173710130000005623640375099187123_" d="M100.81,213.737c0,0,5.983,31.142,10.106,34.578
								c4.123,3.436,31.762-11.97,38.698-18.128l-6.123-2.352c0,0-23.641,7.147-25.703,6.872c0,0-2.691-19.726-6.402-34.845
								L100.81,213.737z"/>
						</defs>
						<clipPath id="SVGID_00000137112151289491632210000014017736405577429379_">
							<use xlink:href="#SVGID_00000142864485042173710130000005623640375099187123_"  style="overflow:visible;"/>
						</clipPath>
						<path style="opacity:0.3;clip-path:url(#SVGID_00000137112151289491632210000014017736405577429379_);fill:#F6B28B;" d="
							M114.94,205.398c0,0-2.62,21.396-4.476,23.252c-1.856,1.856-0.437,12.881,3.93,14.191c4.367,1.31,19.431-6.55,20.304-7.532
							c0.873-0.982-2.947-5.24-0.109-11.244c2.838-6.004,15.392,0.109,15.392,0.109l4.694,18.885l-32.421,17.575l-19.867-2.62
							l-7.641-35.368l10.37-18.339l4.803-9.715l7.423,4.694L114.94,205.398z"/>
					</g>
					<g>
						<g>
							<path style="fill:#F6B28B;" d="M85.886,300.141c0,0,6.325,74.461,6.325,76.761c0,2.3-0.575,26.45-0.575,26.45l2.588-0.575
								c0,0,16.387-40.249,15.237-49.162c-1.15-8.912-6.037-17.825-6.037-22.712c0-4.887,9.2-33.637,3.45-54.912
								c-5.75-21.275-18.975,6.9-18.975,6.9L85.886,300.141z"/>
							<path style="fill:#F6B28B;" d="M91.8,399.593l-0.273,6.019c0,0,0.398,0.381,1.906,0.58c0,0,4.059,2.601,8.798,1.806
								c0,0-0.298-0.729-7.331-4.589c0,0-1.087-0.023,0.859-4.674C96.369,397.278,91.8,399.593,91.8,399.593z"/>
						</g>
						<g>
							<path style="fill:#F6B28B;" d="M87.688,299.5c0,0-1.844,74.707-1.706,77.003c0.138,2.296,2.161,26.367,2.161,26.367
								l-2.617-0.419c0,0-18.773-39.193-18.16-48.159s4.957-18.155,4.663-23.034c-0.293-4.879-11.202-33.024-6.74-54.606
								c4.463-21.581,19.355,5.749,19.355,5.749L87.688,299.5z"/>
							<path style="fill:#F6B28B;" d="M87.755,399.128l0.633,5.992c0,0-0.374,0.404-1.867,0.693c0,0-3.896,2.84-8.674,2.331
								c0,0,0.254-0.746,7.043-5.02c0,0,1.084-0.088-1.138-4.615C83.055,397.091,87.755,399.128,87.755,399.128z"/>
						</g>
						<path style="fill:#FFFFFF;" d="M82.507,404.647c0,0-0.617,0.996,0.794,0.94c1.411-0.056,4.961-2.057,4.961-2.057l0.209,2.151
							l-1.849,0.553l-0.059-0.247c0,0-3.838,2.653-9.142,2.315C77.42,408.302,79.029,406.746,82.507,404.647z"/>
						<path style="fill:#FFFFFF;" d="M97.324,404.69c0,0,0.655,0.971-0.756,0.97c-1.412-0.001-5.037-1.862-5.037-1.862l-0.125,2.158
							l1.869,0.481l0.049-0.249c0,0,3.939,2.501,9.226,1.956C102.549,408.143,100.881,406.651,97.324,404.69z"/>
					</g>
					<path style="fill:#FFFFFF;" d="M101.791,195.313c0,0,9.479,2.905,9.955,4.571c0.476,1.666-3.452,22.674-5.356,26.721
						c-1.904,4.047-5.356-9.522-5.356-9.522L101.791,195.313z"/>
					<path style="fill:#FFFFFF;" d="M107.006,393.291c0,0,13.228-123.969,7.038-134.946c-3.932-6.972-12.789-22.153-7.765-31.059
						c0,0,3.654-9.592,3.197-27.177l-7.536-4.796c0,0-5.709,9.59-15.071,9.82c-9.362-0.23-15.071-9.82-15.071-9.82l-7.536,4.796
						c-0.457,17.585,3.197,27.177,3.197,27.177c5.024,8.907-4.127,23.93-7.765,31.059c-5.602,10.977,11.784,134.946,11.784,134.946
						C89.699,399.183,88.785,399.183,107.006,393.291z"/>
					<g>
						<defs>
							<path id="SVGID_00000114057580706576806990000011371746412076143776_" d="M107.006,393.291c0,0,13.228-123.969,7.038-134.946
								c-3.932-6.972-12.789-22.153-7.765-31.059c0,0,3.654-9.592,3.197-27.177l-7.536-4.796c0,0-5.709,9.59-15.071,9.82
								c-9.362-0.23-15.071-9.82-15.071-9.82l-7.536,4.796c-0.457,17.585,3.197,27.177,3.197,27.177
								c5.024,8.907-4.127,23.93-7.765,31.059c-5.602,10.977,11.784,134.946,11.784,134.946
								C89.699,399.183,88.785,399.183,107.006,393.291z"/>
						</defs>
						<clipPath id="SVGID_00000145748441388008679360000001922176474612243328_">
							<use xlink:href="#SVGID_00000114057580706576806990000011371746412076143776_"  style="overflow:visible;"/>
						</clipPath>
						<g style="clip-path:url(#SVGID_00000145748441388008679360000001922176474612243328_);">
							<path style="opacity:0.2;fill:#222220;" d="M56.575,251.118c0,0,1.302,13.503,8.134,16.92
								c6.833,3.417,14.154,7.972,16.269,6.508c2.115-1.464,2.603-8.785,2.603-8.785L56.575,251.118z"/>
							<path style="opacity:0.2;fill:#222220;" d="M85.125,380.838c2.815-6.601,2.343-14.077,1.832-21.235
								c-0.511-7.158-3.591-21.234,3.513-22.249c7.196-1.027,4.353,14.227,4.72,21.487c0.367,7.259-0.046,14.651,1.799,21.681
								c1.027,3.913,3.146,6.476,6.521,8.706c2.576,1.702,8.049,1.055,9.071,3.968c1.183,3.374-4.219,9.605-7.479,11.075
								c-4.344,1.958-9.191,2.469-13.952,2.675c-6.512,0.282-23.121-1.456-23.924-10.065c-0.334-3.583,2.551-5.102,8.221-6.803
								C79.375,388.9,83.464,384.733,85.125,380.838z"/>
							<path style="opacity:0.2;fill:#222220;" d="M64.624,231.633c0.523-0.902,1.197-1.834,2.206-2.099
								c0.77-0.202,1.578,0.03,2.345,0.241c4.657,1.285,10.032,1.76,13.971-1.037c1.594-1.132,2.961-2.793,4.89-3.112
								c2.668-0.442,4.922,1.845,7.431,2.853c3.361,1.351,7.37,0.397,10.62,1.997c3.595,1.769,5.147,6.19,5.034,10.195
								c-0.025,0.871-0.112,1.748-0.378,2.577c-0.353,1.103-1.007,2.083-1.701,3.01c-2.646,3.529-6.013,6.516-9.833,8.72
								c-0.81,0.467-1.653,0.909-2.317,1.568c-0.712,0.707-1.175,1.62-1.755,2.439c-1.502,2.119-3.753,3.562-5.947,4.952
								c-1.533,0.971-3.185,1.977-5,1.938c-1.438-0.031-2.769-0.719-4.04-1.391c-3.647-1.928-7.294-3.855-10.941-5.783
								c-1.556-0.823-3.146-1.671-4.325-2.978c-2.53-2.804-3.076-7.314-3.313-10.951C61.272,240.218,62.332,235.581,64.624,231.633z
								"/>
						</g>
					</g>
					<g>
						<path style="fill:#63A0A8;" d="M88.447,240.192c-0.021,0.436,0.351,0.854,0.786,0.883c-0.647,0.323-0.898,1.249-0.501,1.854
							c0.396,0.605,1.345,0.746,1.9,0.282c0.109,0.413,0.218,0.826,0.327,1.239c0.028,0.106,0.061,0.22,0.149,0.285
							c0.079,0.058,0.184,0.064,0.282,0.065c0.618,0.007,1.341-0.142,1.606-0.701c0.079,0.348,0.443,0.572,0.799,0.605
							c0.356,0.033,0.706-0.083,1.044-0.198c0.176-0.06,0.357-0.122,0.503-0.238c0.266-0.212,0.373-0.603,0.252-0.921
							c-0.121-0.318-0.462-0.538-0.801-0.519c1.016-0.059,1.05-1.451,0.631-2.384c-0.336-0.747-1.046-1.496-1.854-0.656
							c-0.007,0.007-0.598-1.382-1.491-1.91c-0.563-0.333-1.184,0.465-1.603,0.778c-0.367,0.274-1.407-0.221-1.185,0.716
							C88.869,239.426,88.469,239.739,88.447,240.192z"/>
						<path style="fill:#63A0A8;" d="M97.397,255.735c-0.221,0.377-0.084,0.919,0.289,1.147c-0.723-0.013-1.374,0.693-1.302,1.412
							c0.072,0.72,0.848,1.284,1.555,1.129c-0.094,0.417-0.188,0.833-0.283,1.25c-0.024,0.107-0.047,0.224,0.001,0.322
							c0.043,0.088,0.133,0.141,0.22,0.188c0.545,0.292,1.255,0.494,1.748,0.121c-0.091,0.345,0.129,0.712,0.429,0.905
							c0.3,0.193,0.665,0.253,1.017,0.308c0.184,0.029,0.372,0.057,0.555,0.022c0.334-0.065,0.61-0.362,0.649-0.7
							c0.039-0.338-0.16-0.691-0.471-0.831c0.928,0.418,1.603-0.801,1.662-1.823c0.047-0.818-0.236-1.81-1.341-1.439
							c-0.009,0.003,0.109-1.502-0.438-2.383c-0.346-0.556-1.265-0.135-1.781-0.051c-0.452,0.073-1.146-0.846-1.381,0.087
							C98.125,255.252,97.626,255.344,97.397,255.735z"/>
						<path style="fill:#494D1B;" d="M87.651,262.698c0,0,7.758-7.049,10.151-13.366c2.393-6.318,1.312-12.064,1.312-12.064
							s-4.388,10.694-4.873,12.594C93.756,251.762,88.941,260.01,87.651,262.698z"/>
						<g>
							<path style="fill:#494D1B;" d="M79.252,276.708c0,0,5.415-15.567,7.501-17.015c0,0-5.89-8.738-3.934-18.084
								c0,0,4.978,16.132,4.902,17.204l-7.837,18.715L79.252,276.708z"/>
							<path style="fill:#494D1B;" d="M81.054,277.439c0,0,11.042-12.237,11.307-14.762c0,0,10.494,0.96,17.746-5.252
								c0,0-16.537,3.397-17.441,3.98L80.03,277.281L81.054,277.439z"/>
							<path style="fill:#4F5936;" d="M79.956,275.896l9.448-14.074c0,0,8.379-8.115,15.281-9.393c0,0-11.255,9.764-13.987,10.605
								l-10.373,13.75L79.956,275.896z"/>
							<path style="fill:#4F5936;" d="M81.353,275.046l7.793-15.054c0,0,3.082-11.249,0.882-17.915c0,0-3.145,14.564-2.568,17.364
								l-7.063,15.709L81.353,275.046z"/>
							<path style="fill:#4F5936;" d="M81.498,275.971l9.49-14.046c0,0,4.369-10.814,2.959-17.691c0,0-4.817,14.1-4.569,16.948
								l-8.842,14.781L81.498,275.971z"/>
							<path style="fill:#494D1B;" d="M81.28,278.334c0,0,7.021-14.912,6.543-17.405c0,0,10.322-2.123,15.463-10.17
								c0,0-14.843,8.045-15.538,8.864l-7.493,18.856L81.28,278.334z"/>
						</g>
						<path style="fill:#494D1B;" d="M92.41,262.054c0,0,9.634-4.129,13.96-9.318c4.325-5.19,5.18-10.974,5.18-10.974
							s-7.639,8.674-8.719,10.312C101.751,253.711,94.507,259.935,92.41,262.054z"/>
						<path style="fill:#494D1B;" d="M88.205,261.353c0,0-1.016-10.432,1.452-16.721c2.468-6.289,7.128-9.821,7.128-9.821
							s-3.929,10.871-4.845,12.605C91.025,249.15,89.053,258.495,88.205,261.353z"/>
						<path style="fill:#494D1B;" d="M103.751,238.872c0,0-1.875,10.313-5.969,15.687c-4.094,5.374-9.542,7.497-9.542,7.497
							s6.751-9.382,8.107-10.8C97.702,249.839,102.154,241.389,103.751,238.872z"/>
						<path style="fill:#494D1B;" d="M95.623,249.518c0,0-1.875,10.313-5.969,15.687c-4.094,5.374-9.542,7.497-9.542,7.497
							s6.751-9.382,8.107-10.8C89.574,260.485,94.025,252.035,95.623,249.518z"/>
						<path style="fill:#63A0A8;" d="M83.733,251.962c0.428,0.459,1.23,0.494,1.697,0.074c-0.315,0.99,0.388,2.175,1.408,2.373
							c1.02,0.198,2.115-0.639,2.192-1.675c0.535,0.301,1.069,0.602,1.604,0.903c0.137,0.077,0.288,0.157,0.443,0.132
							c0.139-0.023,0.249-0.125,0.349-0.225c0.626-0.63,1.196-1.524,0.886-2.355c0.438,0.267,1.033,0.116,1.422-0.217
							c0.39-0.333,0.621-0.811,0.842-1.273c0.115-0.241,0.232-0.489,0.258-0.755c0.048-0.486-0.247-0.988-0.696-1.181
							c-0.449-0.193-1.016-0.063-1.336,0.306c0.957-1.105-0.443-2.535-1.824-3.036c-1.106-0.402-2.587-0.42-2.532,1.253
							c0.001,0.013-2.022-0.768-3.459-0.377c-0.907,0.247-0.706,1.685-0.803,2.429c-0.085,0.653-1.636,1.228-0.448,1.937
							C83.367,250.761,83.289,251.486,83.733,251.962z"/>
						<path style="fill:#63A0A8;" d="M97.585,245.454c-0.317,0.541-0.121,1.32,0.415,1.647c-1.038-0.018-1.973,0.995-1.87,2.029
							s1.218,1.843,2.233,1.621c-0.135,0.598-0.271,1.197-0.406,1.795c-0.035,0.154-0.068,0.321,0.001,0.463
							c0.062,0.126,0.191,0.203,0.316,0.27c0.783,0.419,1.802,0.71,2.51,0.174c-0.131,0.496,0.185,1.022,0.615,1.3
							c0.431,0.278,0.954,0.363,1.461,0.442c0.264,0.041,0.535,0.082,0.798,0.031c0.48-0.093,0.876-0.52,0.932-1.005
							c0.057-0.486-0.23-0.992-0.676-1.193c1.333,0.6,2.301-1.15,2.386-2.618c0.068-1.175-0.339-2.599-1.926-2.067
							c-0.013,0.004,0.156-2.157-0.63-3.422c-0.496-0.798-1.816-0.194-2.557-0.074c-0.65,0.105-1.645-1.215-1.984,0.125
							C98.631,244.759,97.914,244.892,97.585,245.454z"/>
						<path style="fill:#63A0A8;" d="M96.97,236.845c-0.221,0.377-0.084,0.919,0.289,1.147c-0.723-0.013-1.374,0.693-1.302,1.412
							c0.071,0.72,0.848,1.283,1.554,1.129c-0.094,0.417-0.188,0.833-0.282,1.25c-0.024,0.107-0.047,0.224,0.001,0.322
							c0.043,0.088,0.133,0.141,0.22,0.188c0.545,0.292,1.255,0.494,1.748,0.121c-0.091,0.345,0.128,0.712,0.428,0.905
							c0.3,0.194,0.665,0.253,1.017,0.308c0.184,0.029,0.372,0.057,0.555,0.022c0.334-0.065,0.61-0.362,0.649-0.7
							c0.039-0.338-0.16-0.691-0.471-0.83c0.928,0.418,1.603-0.801,1.662-1.823c0.047-0.818-0.236-1.81-1.341-1.439
							c-0.009,0.003,0.109-1.502-0.439-2.383c-0.346-0.556-1.265-0.135-1.781-0.051c-0.452,0.073-1.146-0.846-1.381,0.087
							C97.698,236.361,97.199,236.453,96.97,236.845z"/>
					</g>
					<path style="fill:#F6B28B;" d="M64.316,200.051c0,0-8.18,12.961-11.58,28.472c-3.4,15.511-1.381,21.248-0.85,21.991
						c0.531,0.744,16.786,13.174,26.135,15.723c0,0,4.568,4.887,8.605,4.887c4.037,0,5.418-5.312,5.312-6.481
						c-0.106-1.169-4.462-2.656-4.462-2.656s0.956-1.275-0.744-2.337c-1.7-1.062-5.949,0.212-6.693,0.106
						c-0.744-0.106-18.486-15.936-18.486-15.936s6.587-20.823,8.605-32.084C72.178,200.476,64.316,200.051,64.316,200.051z"/>
					<g>
						<defs>
							<path id="SVGID_00000096748030109213354140000008502175992294340007_" d="M64.316,200.051c0,0-8.18,12.961-11.58,28.472
								c-3.4,15.511-1.381,21.248-0.85,21.991c0.531,0.744,16.786,13.174,26.135,15.723c0,0,4.568,4.887,8.605,4.887
								c4.037,0,5.418-5.312,5.312-6.481c-0.106-1.169-4.462-2.656-4.462-2.656s0.956-1.275-0.744-2.337
								c-1.7-1.062-5.949,0.212-6.693,0.106c-0.744-0.106-18.486-15.936-18.486-15.936s6.587-20.823,8.605-32.084
								C72.178,200.476,64.316,200.051,64.316,200.051z"/>
						</defs>
						<clipPath id="SVGID_00000127005735646210669540000004070476410593189815_">
							<use xlink:href="#SVGID_00000096748030109213354140000008502175992294340007_"  style="overflow:visible;"/>
						</clipPath>
						<path style="opacity:0.3;clip-path:url(#SVGID_00000127005735646210669540000004070476410593189815_);fill:#F6B28B;" d="
							M63.525,207.145c0,0,0.109,14.628-0.546,18.012c-0.655,3.384-6.004,17.357-4.803,19.54c1.201,2.183,7.205,10.37,9.934,4.912
							c2.729-5.458,5.349-29.474,5.349-29.474L63.525,207.145z"/>
					</g>
					<path style="fill:#FFFFFF;" d="M71.798,195.313c0,0-9.479,2.86-9.955,4.501c-0.476,1.641,3.452,22.325,5.356,26.31
						c1.904,3.985,5.356-9.375,5.356-9.375L71.798,195.313z"/>
				</g>
				<g>
					<path style="fill:#23354D;" d="M190.413,396.263l-0.296,10.15c0,0,1.478,1.379,7.489,1.281c0,0,5.026,4.631,19.412,1.38
						c0,0-2.956-3.252-18.92-7.785l-1.675-10.938L190.413,396.263z"/>
					<path style="fill:#23354D;" d="M182.924,395.672v10.741c0,0-1.478,1.379-7.489,1.281c0,0-5.025,4.631-19.412,1.38
						c0,0,2.956-3.252,18.92-7.785l1.675-10.938L182.924,395.672z"/>
					<g>
						<path style="fill:#FFD6BE;" d="M215.589,273.1c0,0-2.747,12.129-2.34,13.121s2.849-3.914,2.849-3.914
							s-0.712,9.342-0.712,10.751c0,2.426,4.63,2.812,7.682-19.847L215.589,273.1z"/>
						<polygon style="fill:#FFFFFF;" points="215.376,269.398 214.67,273.502 223.48,274.259 224.306,270.351 						"/>
						<g>
							<polygon style="fill:#2B455E;" points="164.669,265.486 174.108,399.838 183.862,399.838 184.491,266.744 188.267,266.43 
								189.256,400.13 199.01,400.13 208.089,252.271 163.725,254.159 							"/>
							<g>
								<defs>
									<polygon id="SVGID_00000109711970907887804120000001070134640600932001_" points="164.669,265.486 174.108,399.838 
										183.862,399.838 184.491,266.744 188.267,266.43 189.256,400.13 199.01,400.13 208.089,252.271 163.725,254.159 									
										"/>
								</defs>
								<clipPath id="SVGID_00000098223309518594271560000017896876447770515900_">
									<use xlink:href="#SVGID_00000109711970907887804120000001070134640600932001_"  style="overflow:visible;"/>
								</clipPath>
								<path style="opacity:0.2;clip-path:url(#SVGID_00000098223309518594271560000017896876447770515900_);fill:#2B455E;" d="
									M157.843,261.501c0,0,38.041,13.988,37.87,29.341c-0.171,15.353-2.047,113.099-2.9,115.317
									c-0.853,2.218,18.253,2.047,18.253,2.047l14.841-137.664l-7.165-24.223l-49.47,4.435l-11.6,11.429L157.843,261.501z"/>
							</g>
							<g>
								<polygon style="fill:#FFFFFF;" points="173.992,167.508 175.415,162.553 195.3,162.553 197.363,167.508 202.199,189.608 
									197.532,214.025 190.565,222.141 178.052,223.291 172.641,199.145 172.98,170.872 								"/>
								<g>
									<path style="fill:#D0646C;" d="M185.308,165.859c0,0-4.663,5.231-3.98,6.824c0.682,1.592,4.322,3.867,4.322,3.867
										s4.48-1.374,4.776-5.231C190.539,169.839,185.308,165.859,185.308,165.859z"/>
									<path style="fill:#D0646C;" d="M180.759,214.078c0,0,0.227-39.007,5.231-39.917c5.004-0.91,5.686,44.239,5.686,44.239
										l-7.506,5.004L180.759,214.078z"/>
								</g>
								<g>
									<g>
										<polygon style="fill:#23354D;" points="175.016,205.719 186.331,218.968 195.486,206.401 197.021,260.989 
											177.233,260.648 										"/>
									</g>
									<g style="opacity:0.3;">
										<polygon style="fill:#23354D;" points="175.016,205.719 186.331,218.968 195.486,206.401 197.021,260.989 
											177.233,260.648 										"/>
									</g>
								</g>
								<g>
									<path style="fill:#253C51;" d="M173.992,167.508l10.747,99.111c0,0-17.229-1.023-26.611-7.335
										c0,0,5.629-41.111,4.606-43.158c-1.024-2.047-7.847-39.917-7.847-39.917L173.992,167.508z"/>
									<g>
										<defs>
											<path id="SVGID_00000007401002021853659780000018125413501569860506_" d="M173.992,167.508l10.747,99.111
												c0,0-17.229-1.023-26.611-7.335c0,0,5.629-41.111,4.606-43.158c-1.024-2.047-7.847-39.917-7.847-39.917L173.992,167.508z
												"/>
										</defs>
										<clipPath id="SVGID_00000052821296732289179890000003424546344667748026_">
											<use xlink:href="#SVGID_00000007401002021853659780000018125413501569860506_"  style="overflow:visible;"/>
										</clipPath>
										<path style="opacity:0.2;clip-path:url(#SVGID_00000052821296732289179890000003424546344667748026_);fill:#253C51;" d="
											M152.553,250.113c0,0,39.598,4.703,45.818-4.703c6.22-9.406,2.427-79.499,4.703-80.561
											c2.276-1.062,23.061,11.075,23.061,11.075l13.048,79.044l-20.633,23.819c0,0,5.158-29.281,0.607-37.019
											s-6.524,1.821-6.524,1.821l1.062,17.296l-6.372,6.827l-26.854,2.883l-19.116-5.007L152.553,250.113z"/>
									</g>
									<g>
										<defs>
											<path id="SVGID_00000180367206514931921260000010930762615822482611_" d="M173.992,167.508l10.747,99.111
												c0,0-17.229-1.023-26.611-7.335c0,0,5.629-41.111,4.606-43.158c-1.024-2.047-7.847-39.917-7.847-39.917L173.992,167.508z
												"/>
										</defs>
										<clipPath id="SVGID_00000047061477874715494900000010994311353445218971_">
											<use xlink:href="#SVGID_00000180367206514931921260000010930762615822482611_"  style="overflow:visible;"/>
										</clipPath>
										<polygon style="clip-path:url(#SVGID_00000047061477874715494900000010994311353445218971_);fill:#23354D;" points="
											175.016,162.049 173.992,167.508 163.757,184.396 171.092,196.337 166.486,206.231 182.863,243.93 179.792,178.937 
																					"/>
									</g>
								</g>
								<g>
									<path style="fill:#253C51;" d="M197.363,167.508l-10.747,99.111c0,0,17.229-1.023,26.612-7.335
										c0,0-5.629-41.111-4.606-43.158c1.023-2.047,7.847-39.917,7.847-39.917L197.363,167.508z"/>
									<g>
										<defs>
											<path id="SVGID_00000114758343730558039600000002894417463900684202_" d="M197.363,167.508l-10.747,99.111
												c0,0,17.229-1.023,26.612-7.335c0,0-5.629-41.111-4.606-43.158c1.023-2.047,7.847-39.917,7.847-39.917L197.363,167.508z"
												/>
										</defs>
										<clipPath id="SVGID_00000003796013191529519650000002221990257762300570_">
											<use xlink:href="#SVGID_00000114758343730558039600000002894417463900684202_"  style="overflow:visible;"/>
										</clipPath>
										<path style="opacity:0.2;clip-path:url(#SVGID_00000003796013191529519650000002221990257762300570_);fill:#253C51;" d="
											M152.553,250.113c0,0,39.598,4.703,45.818-4.703c6.22-9.406,2.427-79.499,4.703-80.561
											c2.276-1.062,23.061,11.075,23.061,11.075l13.048,79.044l-20.633,23.819c0,0,5.158-29.281,0.607-37.019
											s-6.524,1.821-6.524,1.821l1.062,17.296l-6.372,6.827l-26.854,2.883l-19.116-5.007L152.553,250.113z"/>
									</g>
									<g>
										<defs>
											<path id="SVGID_00000098206442859365565670000015564557237605480833_" d="M197.363,167.508l-10.747,99.111
												c0,0,17.229-1.023,26.612-7.335c0,0-5.629-41.111-4.606-43.158c1.023-2.047,7.847-39.917,7.847-39.917L197.363,167.508z"
												/>
										</defs>
										<clipPath id="SVGID_00000073000766280028464490000005536028418136971664_">
											<use xlink:href="#SVGID_00000098206442859365565670000015564557237605480833_"  style="overflow:visible;"/>
										</clipPath>
										<polygon style="clip-path:url(#SVGID_00000073000766280028464490000005536028418136971664_);fill:#23354D;" points="
											196.339,162.049 197.363,167.508 207.598,184.396 200.262,196.337 204.868,206.231 188.492,243.93 191.563,178.937 
																					"/>
									</g>
								</g>
								<g>
									<path style="fill:#FFD6BE;" d="M173.683,240.506c0,0,2.832,0.977,3.418,1.563c0.586,0.586,9.717,4.346,11.182,2.734
										c1.465-1.611,1.367-1.855,1.367-1.855s1.27,1.416,2.49-2.686c0,0,1.709-1.27,1.611-3.369c0,0-0.049-0.684-0.928-1.025
										c0,0,1.074-2.295-3.174-2.783c0,0,0.488-2.734-3.271-3.223c-3.76-0.488-9.131,3.857-11.523,3.564
										C172.462,233.133,173.683,240.506,173.683,240.506z"/>
									<polygon style="fill:#FFFFFF;" points="169.337,241.434 174.22,242.02 175.587,231.961 171.29,231.375 									"/>
									<path style="fill:#253C51;" d="M154.921,176.211c0,0-23.556,47.272-18.05,55.61c5.506,8.338,33.037,10.698,33.037,10.698
										l2.517-11.642c0,0-21.868-2.045-22.969-6.45c-1.101-4.405,11.799-27.216,11.799-27.216S160.742,177.312,154.921,176.211z"
										/>
									<g>
										<defs>
											<path id="SVGID_00000154413017336591358150000013639098324851741057_" d="M154.921,176.211
												c0,0-23.556,47.272-18.05,55.61c5.506,8.338,33.037,10.698,33.037,10.698l2.517-11.642c0,0-21.868-2.045-22.969-6.45
												c-1.101-4.405,11.799-27.216,11.799-27.216S160.742,177.312,154.921,176.211z"/>
										</defs>
										<clipPath id="SVGID_00000073679090762049356060000002860799475317323909_">
											<use xlink:href="#SVGID_00000154413017336591358150000013639098324851741057_"  style="overflow:visible;"/>
										</clipPath>
										<path style="opacity:0.2;clip-path:url(#SVGID_00000073679090762049356060000002860799475317323909_);fill:#253C51;" d="
											M159.229,191.854c0,0-11.834,17.751-12.289,24.274c-0.455,6.524-8.799,12.441,5.462,15.779
											c14.261,3.338,32.012,4.096,32.012,4.096S165.601,190.185,159.229,191.854z"/>
									</g>
								</g>
							</g>
							<g>
								<path style="fill:#23354D;" d="M194.181,250.683l12.972-3.166c0,0,1.123,11.44,0.306,11.746
									c-0.817,0.306-12.768,3.268-13.38,2.86C193.466,261.714,194.181,250.683,194.181,250.683z"/>
								<path style="fill:#23354D;" d="M164.969,247.721c0,0-0.306,10.725,0.511,11.235c0.817,0.511,10.827,3.269,11.542,2.86
									c0.715-0.409,0.204-11.031,0.204-11.031L164.969,247.721z"/>
							</g>
						</g>
						<path style="fill:#253C51;" d="M216.468,176.208c0,0,14.521,68.963,8.243,95.868l-10.182-1.473c0,0,1.008-24.456-6.051-70.595
							L216.468,176.208z"/>
						<g>
							<defs>
								<path id="SVGID_00000121260778019895613490000008843438571891293111_" d="M216.468,176.208c0,0,14.521,68.963,8.243,95.868
									l-10.182-1.473c0,0,1.008-24.456-6.051-70.595L216.468,176.208z"/>
							</defs>
							<clipPath id="SVGID_00000141429236694480296730000002948709947494258102_">
								<use xlink:href="#SVGID_00000121260778019895613490000008843438571891293111_"  style="overflow:visible;"/>
							</clipPath>
							<path style="opacity:0.2;clip-path:url(#SVGID_00000141429236694480296730000002948709947494258102_);fill:#253C51;" d="
								M152.553,250.113c0,0,39.598,4.703,45.818-4.703c6.22-9.406,2.427-79.499,4.703-80.561
								c2.276-1.062,23.061,11.075,23.061,11.075l13.048,79.044l-20.633,23.819c0,0,5.158-29.281,0.607-37.019
								s-6.524,1.821-6.524,1.821l1.062,17.296l-6.372,6.827l-26.854,2.883l-19.116-5.007L152.553,250.113z"/>
						</g>
					</g>
					<path style="fill:#FFD6BE;" d="M200.516,132.846c0,0,8.551-2.48,2.285,5.81c0,0,1.436,4.634-3.916,2.742
						C193.531,139.504,200.516,132.846,200.516,132.846z"/>
					<path style="fill:#FFD6BE;" d="M169.488,132.846c0,0-8.551-2.48-2.285,5.81c0,0-1.436,4.634,3.917,2.742
						C176.473,139.504,169.488,132.846,169.488,132.846z"/>
					<path style="fill:#FFD6BE;" d="M169.669,123.906c0,0-0.703,34.986,4.496,39.903c5.199,4.918,22.621,6.744,23.886-4.496
						c1.265-11.24,2.108-37.234,0.984-38.358C197.91,119.831,179.645,113.649,169.669,123.906z"/>
					<g>
						<defs>
							<path id="SVGID_00000082346363606972325810000009508814369548339131_" d="M169.669,123.906c0,0-0.703,34.986,4.496,39.903
								c5.199,4.918,22.621,6.744,23.886-4.496c1.265-11.24,2.108-37.234,0.984-38.358
								C197.91,119.831,179.645,113.649,169.669,123.906z"/>
						</defs>
						<clipPath id="SVGID_00000009582285583092045720000005602504133574409372_">
							<use xlink:href="#SVGID_00000082346363606972325810000009508814369548339131_"  style="overflow:visible;"/>
						</clipPath>
						<path style="opacity:0.4;clip-path:url(#SVGID_00000009582285583092045720000005602504133574409372_);fill:#FFD6BE;" d="
							M167.281,123.935c0,0-1.982,9.533,17.745,6.796c19.727-2.737,10.382,35.678,2.832,38.227
							c-7.551,2.548,21.803-5.758,21.803-5.758l11.704-39.17l-14.819-16.046l-27.278,7.268L167.281,123.935z"/>
					</g>
					<path style="fill:#FFD6BE;" d="M184.153,131.492c0,0-5.134,15.159-3.511,17.213c1.433,1.813,3.445-0.846,3.445-0.846
						s1.359,1.301,1.387-1.549C185.511,142.363,185.262,127.326,184.153,131.492z"/>
					<path style="fill:#382618;" d="M177.505,135.638c0,1.151-0.583,2.084-1.303,2.084c-0.719,0-1.303-0.933-1.303-2.084
						c0-1.151,0.583-2.084,1.303-2.084C176.922,133.554,177.505,134.487,177.505,135.638z"/>
					<path style="fill:#382618;" d="M193.382,135.638c0,1.151-0.583,2.084-1.303,2.084c-0.719,0-1.303-0.933-1.303-2.084
						c0-1.151,0.583-2.084,1.303-2.084C192.799,133.554,193.382,134.487,193.382,135.638z"/>
					<path style="fill:#FFFFFF;" d="M190.381,151.204c0.323,1.593-1.998,3.407-5.184,4.053c-3.186,0.645-6.03-0.122-6.352-1.715
						c-0.323-1.593,2.355-0.75,5.54-1.396C187.571,151.5,190.059,149.611,190.381,151.204z"/>
					<path style="fill:#382618;" d="M171.214,132.195c0,0,2.67-2.951,7.025-2.529l0.281-1.405c0,0-5.058-0.843-8.009,2.108
						L171.214,132.195z"/>
					<path style="fill:#382618;" d="M196.393,132.007c0,0-2.67-2.951-7.025-2.529l-0.281-1.405c0,0,5.058-0.843,8.009,2.108
						L196.393,132.007z"/>
					<path style="fill:#382618;" d="M174.561,155.652c-0.598,0.113-0.937,8.965-0.512,9.638c0.682,1.08,3.554,4.208,11.401,4.179
						c7.372-0.027,10.423-4.33,10.684-4.881c0.34-0.716-1.52-8.911-2.091-9.038c-1.023-0.228-2.593,1.074-2.707,1.358
						c-0.114,0.284,0.853,5.595,0.227,5.766c-0.626,0.171-2.843,0.284-2.843,0.284s-1.649-3.469-2.047-3.611
						c-1.348-0.482-3.753-0.483-4.35,0.028c-0.489,0.419-1.564,3.412-1.962,4.037c-0.398,0.625-3.07-0.142-3.07-0.483
						s0.256-5.857,0.085-6.141C177.205,156.505,175.613,155.453,174.561,155.652z"/>
					<path style="fill:#382618;" d="M170.655,125.649c5.849,0.347,19.1-5.771,23.901-4.443c0,0-0.301,1.085-0.765,1.658
						c-0.128,0.158-0.041,0.389,0.162,0.404c0.98,0.069,2.836,0.025,3.464-1.193c0,0,1.379,5.209,1.226,14.606
						c0,0-0.204,1.481,0.255,1.532c0.46,0.051,1.124-1.43,1.124-1.43s0.409,0.97,1.277,0.153c0.868-0.817,1.685-20.122,1.685-20.122
						s0.613-4.392-3.371-4.954c0,0,0.307-7.916-6.23-7.967c-6.537-0.051-13.227,7.099-18.59,6.077
						c-3.687-0.702-4.621-2.201-4.846-3.069c-0.086-0.333-0.505-0.45-0.77-0.231c-0.754,0.624-1.784,2.069-1.381,5.189
						c0,0-2.446-0.021-3.473-3.932C163.128,103.377,155.181,124.73,170.655,125.649z"/>
					<path style="fill:#382618;" d="M167.141,123.51c0,0,1.202,14.19,2.253,15.007c1.051,0.816,1.051,0.045,0.951-1.406
						c-0.1-1.451,0.15-13.057,0.1-13.329C170.396,123.51,167.141,123.51,167.141,123.51z"/>
					<path style="fill:#382618;" d="M164.337,141.837"/>
				</g>
				<path style="fill:#F6B28B;" d="M69.734,164.391c0,7.716,1.943,26.228,15.841,26.153c11.974-0.064,14.795-10.984,14.945-26.004
					c0,0,0.822-12.553-15.019-12.553C69.659,151.987,69.734,164.391,69.734,164.391z"/>
				<g>
					<defs>
						<path id="SVGID_00000089570704594141691620000010818942395589021826_" d="M69.734,164.391c0,7.716,1.943,26.228,15.841,26.153
							c11.974-0.064,14.795-10.984,14.945-26.004c0,0,0.822-12.553-15.019-12.553C69.659,151.987,69.734,164.391,69.734,164.391z"/>
					</defs>
					<clipPath id="SVGID_00000100368855371973748600000009712220606796561575_">
						<use xlink:href="#SVGID_00000089570704594141691620000010818942395589021826_"  style="overflow:visible;"/>
					</clipPath>
					<path style="opacity:0.3;clip-path:url(#SVGID_00000100368855371973748600000009712220606796561575_);fill:#F6B28B;" d="
						M96.602,156.102c0,0-5.707,7.563-8.045,7.77c-2.338,0.206-12.308-2.613-13.477-1.375c-1.169,1.238-1.581,13.408,0,16.364
						c1.581,2.957,5.157,10.589,11.208,9.351c6.051-1.238,10.314-9.489,11.483-3.094c1.169,6.395-21.796,8.732-21.796,8.732
						l-11.07-11.62l-0.756-18.427l5.432-13.27l16.777-2.475l10.107,2.544L96.602,156.102z"/>
				</g>
				<path style="fill:#D0646C;" d="M93.585,155.085c0,0-4.146,5.777-7.477,5.641c-2.422-0.099-5.672-1.78-9.252-2.035
					c-2.636-0.188-5.088,1.408-6.106,3.847c-0.412,0.987-0.789,2.172-1.016,3.529c0,0-5.907-3.958-2.182-12.477
					c6.569-15.024,18.077-14.373,26.234-6.965c0,0,2.606-0.232,7.092,3.439c4.486,3.67-0.604,20.112-0.604,20.112l-0.09,0.09
					C100.185,170.266,97.256,154.881,93.585,155.085z"/>
				<path style="fill:#FFFFFF;" d="M78.711,180.947c0,0,7.01-1.864,13.647-1.79c0,0,0.039,6.587-5.817,7.159
					C81.793,186.78,78.711,180.947,78.711,180.947z"/>
				<path style="opacity:0.7;fill:#F6B28B;" d="M84.399,167.617c0,0-3.191,9.659-2.098,10.577c1.093,0.918,4.065-0.699,4.327-1.18
					C86.891,176.533,85.186,165.344,84.399,167.617z"/>
				<path style="fill:#7A576A;" d="M92.66,170.042c0,0.712-0.43,1.289-0.961,1.289c-0.531,0-0.962-0.577-0.962-1.289
					s0.43-1.289,0.962-1.289C92.229,168.753,92.66,169.33,92.66,170.042z"/>
				<ellipse style="fill:#7A576A;" cx="78.018" cy="170.786" rx="0.962" ry="1.289"/>
				<path style="fill:#D0646C;" d="M73.997,167.661c0,0,1.224-2.054,5.594-1.136l0.044-1.574c0,0-3.234-1.355-5.944,1.879
					L73.997,167.661z"/>
				<path style="fill:#D0646C;" d="M94.889,167.661c0,0-1.224-2.054-5.594-1.136l-0.044-1.574c0,0,3.234-1.355,5.944,1.879
					L94.889,167.661z"/>
				<path style="fill:#D0646C;" d="M97.475,160.279c0,0,0.909,10.947,0.8,14.293c-0.109,3.346,2.328-6.219,2.109-8.983
					C100.167,162.825,97.475,160.279,97.475,160.279z"/>
				<path style="fill:#D0646C;" d="M71.813,160.279c0,0-0.909,10.947-0.8,14.293c0.109,3.346-2.328-6.219-2.109-8.983
					C69.121,162.825,71.813,160.279,71.813,160.279z"/>
				<path style="fill:#F6B28B;" d="M151.902,226.546c0,0,3.944-2.92,1.826-7.617c-2.118-4.697-6.666-7.248-7.216-7.021
					c-0.55,0.228,3.511,5.73,3.511,5.73s-6.672-4.868-7.131-4.182c-0.459,0.686,5.203,6.467,5.203,6.467s-5.328-2.279-5.398-1.432
					c-0.071,0.847,5.459,4.751,5.459,4.751s-4.529-1.247-4.416-0.674C143.854,223.139,147.303,226.146,151.902,226.546z"/>
			</g>
		</g>
	</g>
	<g>
		<ellipse style="opacity:0.2;fill:#222220;" cx="371.097" cy="410.264" rx="115.416" ry="7.117"/>
		<g>
			<path style="fill:#63A0A8;" d="M295.545,189.134c0,0,18.504,5.181,45.151-0.648c0,0,7.957-45.706-24.426-41.635
				C316.27,146.852,289.069,143.521,295.545,189.134z"/>
			<g>
				<path style="fill:#F6B28B;" d="M331.464,168.89c0,0,1.804-5.009,4.509-3.029c2.706,1.98-0.902,7.222-0.902,7.222
					s1.263,4.426-3.156,2.097C327.496,172.851,331.464,168.89,331.464,168.89z"/>
				<path style="fill:#F6B28B;" d="M304.048,168.89c0,0-1.804-5.009-4.509-3.029c-2.706,1.98,0.902,7.222,0.902,7.222
					s-1.263,4.426,3.156,2.097C308.016,172.851,304.048,168.89,304.048,168.89z"/>
				<g>
					<rect x="314.111" y="187.048" style="fill:#F6B28B;" width="8.473" height="8.644"/>
					<rect x="314.111" y="187.048" style="opacity:0.3;fill:#F6B28B;" width="8.473" height="8.644"/>
				</g>
				<path style="fill:#F6B28B;" d="M304.249,195.313c0,0,12.065-5.359,30.142,0l0.96,6.218l-11.106,6.583l-13.969-1.259
					l-6.126-8.645L304.249,195.313z"/>
				<g>
					<defs>
						<path id="SVGID_00000025417217013970679420000011026151909060095421_" d="M304.249,195.313c0,0,12.065-5.359,30.142,0
							l0.96,6.218l-11.106,6.583l-13.969-1.259l-6.126-8.645L304.249,195.313z"/>
					</defs>
					<clipPath id="SVGID_00000084527285611922993900000000262197470080735625_">
						<use xlink:href="#SVGID_00000025417217013970679420000011026151909060095421_"  style="overflow:visible;"/>
					</clipPath>
					<path style="opacity:0.3;clip-path:url(#SVGID_00000084527285611922993900000000262197470080735625_);fill:#F6B28B;" d="
						M307.6,187.715c0,0,7.91,13.955,12.041,14.207c4.131,0.252,9.723-14.157,9.874-14.308c0.151-0.151-7.859-1.914-7.859-1.914
						L307.6,187.715z"/>
				</g>
				<g>
					<path style="fill:#F6B28B;" d="M333.261,213.737c0,0,5.983,31.142,10.106,34.578c4.124,3.436,31.762-11.97,38.698-18.128
						l-6.122-2.352c0,0-23.641,7.147-25.703,6.872c0,0-2.691-19.726-6.402-34.845L333.261,213.737z"/>
					<g>
						<defs>
							<path id="SVGID_00000090289042295318366150000014220815643720905397_" d="M333.261,213.737c0,0,5.983,31.142,10.106,34.578
								c4.124,3.436,31.762-11.97,38.698-18.128l-6.122-2.352c0,0-23.641,7.147-25.703,6.872c0,0-2.691-19.726-6.402-34.845
								L333.261,213.737z"/>
						</defs>
						<clipPath id="SVGID_00000002342450388370600080000015609872633210915466_">
							<use xlink:href="#SVGID_00000090289042295318366150000014220815643720905397_"  style="overflow:visible;"/>
						</clipPath>
						<path style="opacity:0.3;clip-path:url(#SVGID_00000002342450388370600080000015609872633210915466_);fill:#F6B28B;" d="
							M347.391,205.398c0,0-2.62,21.396-4.476,23.252c-1.856,1.856-0.437,12.881,3.93,14.191c4.366,1.31,19.431-6.55,20.304-7.532
							c0.873-0.982-2.947-5.24-0.109-11.244c2.838-6.004,15.392,0.109,15.392,0.109l4.694,18.885l-32.421,17.575l-19.867-2.62
							l-7.641-35.368l10.37-18.339l4.803-9.715l7.423,4.694L347.391,205.398z"/>
					</g>
					<g>
						<g>
							<path style="fill:#F6B28B;" d="M318.337,300.141c0,0,6.325,74.461,6.325,76.761c0,2.3-0.575,26.45-0.575,26.45l2.587-0.575
								c0,0,16.387-40.249,15.237-49.162c-1.15-8.912-6.037-17.825-6.037-22.712c0-4.887,9.2-33.637,3.45-54.912
								c-5.75-21.275-18.975,6.9-18.975,6.9L318.337,300.141z"/>
							<path style="fill:#F6B28B;" d="M324.251,399.593l-0.272,6.019c0,0,0.398,0.381,1.905,0.58c0,0,4.06,2.601,8.798,1.806
								c0,0-0.298-0.729-7.331-4.589c0,0-1.087-0.023,0.859-4.674C328.82,397.278,324.251,399.593,324.251,399.593z"/>
						</g>
						<g>
							<path style="fill:#F6B28B;" d="M320.139,299.5c0,0-1.844,74.707-1.706,77.003c0.138,2.296,2.161,26.367,2.161,26.367
								l-2.617-0.419c0,0-18.773-39.193-18.16-48.159c0.613-8.965,4.957-18.155,4.663-23.034
								c-0.293-4.879-11.202-33.024-6.74-54.606c4.463-21.581,19.355,5.749,19.355,5.749L320.139,299.5z"/>
							<path style="fill:#F6B28B;" d="M320.206,399.128l0.633,5.992c0,0-0.374,0.404-1.867,0.693c0,0-3.896,2.84-8.674,2.331
								c0,0,0.254-0.746,7.043-5.02c0,0,1.084-0.088-1.138-4.615C315.506,397.091,320.206,399.128,320.206,399.128z"/>
						</g>
						<path style="fill:#FFFFFF;" d="M314.958,404.647c0,0-0.617,0.996,0.794,0.94c1.41-0.056,4.961-2.057,4.961-2.057l0.209,2.151
							l-1.849,0.553l-0.059-0.247c0,0-3.838,2.653-9.142,2.315C309.871,408.302,311.48,406.746,314.958,404.647z"/>
						<path style="fill:#FFFFFF;" d="M329.775,404.69c0,0,0.655,0.971-0.756,0.97c-1.412-0.001-5.038-1.862-5.038-1.862
							l-0.125,2.158l1.869,0.481l0.049-0.249c0,0,3.939,2.501,9.226,1.956C335,408.143,333.332,406.651,329.775,404.69z"/>
					</g>
					<path style="fill:#FFFFFF;" d="M334.242,195.313c0,0,9.479,2.905,9.955,4.571c0.476,1.666-3.452,22.674-5.356,26.721
						c-1.905,4.047-5.356-9.522-5.356-9.522L334.242,195.313z"/>
					<path style="fill:#FFFFFF;" d="M367.049,346.956c0,0-1.325-59.179-20.554-88.611c-4.378-6.701-12.789-22.153-7.765-31.059
						c0,0,3.654-9.592,3.197-27.177l-7.536-4.796c0,0-5.708,9.59-15.071,9.82c-9.362-0.23-15.071-9.82-15.071-9.82l-7.537,4.796
						c-0.457,17.585,3.197,27.177,3.197,27.177c5.024,8.907-3.387,24.359-7.765,31.059c-19.229,29.431-20.554,88.611-20.554,88.611
						c18.221,5.892,34.575,8.956,47.729,8.956C332.473,355.912,348.828,352.848,367.049,346.956z"/>
					<g>
						<defs>
							<path id="SVGID_00000133512639171024921930000003312856148584420541_" d="M367.049,346.956c0,0-1.325-59.179-20.554-88.611
								c-4.378-6.701-12.789-22.153-7.765-31.059c0,0,3.654-9.592,3.197-27.177l-7.536-4.796c0,0-5.708,9.59-15.071,9.82
								c-9.362-0.23-15.071-9.82-15.071-9.82l-7.537,4.796c-0.457,17.585,3.197,27.177,3.197,27.177
								c5.024,8.907-3.387,24.359-7.765,31.059c-19.229,29.431-20.554,88.611-20.554,88.611c18.221,5.892,34.575,8.956,47.729,8.956
								C332.473,355.912,348.828,352.848,367.049,346.956z"/>
						</defs>
						<clipPath id="SVGID_00000052083597503946407560000004710729804260847240_">
							<use xlink:href="#SVGID_00000133512639171024921930000003312856148584420541_"  style="overflow:visible;"/>
						</clipPath>
						<g style="clip-path:url(#SVGID_00000052083597503946407560000004710729804260847240_);">
							<path style="opacity:0.2;fill:#222220;" d="M283.55,352.598c0,0,1.266-35.811,3.979-37.258
								c2.713-1.447,5.607,43.95,5.064,44.131C292.051,359.652,283.55,352.598,283.55,352.598z"/>
							<path style="opacity:0.2;fill:#222220;" d="M312.126,358.567c0,0,1.447-44.131,3.798-44.492
								c2.351-0.362,7.777,47.205,7.777,47.205l-11.756-1.989L312.126,358.567z"/>
							<path style="opacity:0.2;fill:#222220;" d="M341.064,356.397c0,0,2.17-39.609,3.979-40.333
								c1.809-0.723,8.862,37.62,8.862,37.62L341.064,356.397z"/>
						</g>
						<path style="opacity:0.2;clip-path:url(#SVGID_00000052083597503946407560000004710729804260847240_);fill:#222220;" d="
							M303.046,237.324c1.586,1.349,3.363,2.473,5.262,3.327c2.981,1.342,6.396,2.115,8.605,4.525
							c0.321,0.35,0.613,0.733,0.994,1.016c1.349,1.005,3.345,0.426,4.612-0.68c1.267-1.106,2.085-2.633,3.225-3.87
							c3.427-3.718,9.073-4.238,13.398-6.858c0.877-0.531,1.721-1.172,2.261-2.044c0.542-0.874,0.74-1.914,0.859-2.935
							c0.327-2.805,0.13-5.671-0.578-8.405c-0.038-0.148-0.082-0.303-0.19-0.41c-0.21-0.209-0.567-0.153-0.826-0.01
							c-0.775,0.428-1.059,1.373-1.428,2.176c-1.466,3.189-5.122,4.923-8.63,5.056c-1.286,0.049-2.58-0.082-3.83-0.387
							c-1.653-0.404-3.217-1.106-4.851-1.582c-1.633-0.476-3.406-0.719-5.023-0.19c-0.596,0.195-1.154,0.489-1.723,0.753
							c-4.963,2.299-10.984,2.173-15.847-0.331c-0.297-0.153-0.619-0.32-0.949-0.263
							C295.035,226.784,302.082,236.505,303.046,237.324z"/>
						<path style="opacity:0.2;clip-path:url(#SVGID_00000052083597503946407560000004710729804260847240_);fill:#222220;" d="
							M287.114,260.482c0,0,13.092,8.632,18.703,9.639c0,0,8.344,10.502,15.538,0.432l-4.46-6.618l-13.524-4.892l-10.215-6.618
							L287.114,260.482z"/>
					</g>
					<g>
						<path style="fill:#D0646C;" d="M320.898,240.192c-0.021,0.436,0.35,0.854,0.786,0.883c-0.647,0.323-0.898,1.249-0.501,1.854
							c0.396,0.605,1.345,0.746,1.9,0.282c0.109,0.413,0.218,0.826,0.327,1.239c0.028,0.106,0.061,0.22,0.15,0.285
							c0.079,0.058,0.184,0.064,0.282,0.065c0.618,0.007,1.341-0.142,1.606-0.701c0.079,0.348,0.443,0.572,0.799,0.605
							c0.355,0.033,0.706-0.083,1.044-0.198c0.176-0.06,0.357-0.122,0.503-0.238c0.266-0.212,0.373-0.603,0.252-0.921
							c-0.122-0.318-0.462-0.538-0.802-0.519c1.016-0.059,1.051-1.451,0.631-2.384c-0.336-0.747-1.046-1.496-1.854-0.656
							c-0.006,0.007-0.598-1.382-1.491-1.91c-0.563-0.333-1.184,0.465-1.603,0.778c-0.367,0.274-1.407-0.221-1.184,0.716
							C321.32,239.426,320.92,239.739,320.898,240.192z"/>
						<path style="fill:#D0646C;" d="M329.848,255.735c-0.221,0.377-0.084,0.919,0.289,1.147c-0.723-0.013-1.374,0.693-1.302,1.412
							c0.072,0.72,0.848,1.284,1.555,1.129c-0.094,0.417-0.188,0.833-0.283,1.25c-0.024,0.107-0.047,0.224,0.001,0.322
							c0.043,0.088,0.133,0.141,0.22,0.188c0.545,0.292,1.255,0.494,1.748,0.121c-0.091,0.345,0.128,0.712,0.428,0.905
							c0.3,0.193,0.665,0.253,1.017,0.308c0.184,0.029,0.372,0.057,0.555,0.022c0.334-0.065,0.61-0.362,0.649-0.7
							c0.039-0.338-0.161-0.691-0.471-0.831c0.928,0.418,1.603-0.801,1.662-1.823c0.047-0.818-0.236-1.81-1.341-1.439
							c-0.009,0.003,0.109-1.502-0.439-2.383c-0.346-0.556-1.265-0.135-1.781-0.051c-0.452,0.073-1.146-0.846-1.381,0.087
							C330.576,255.252,330.077,255.344,329.848,255.735z"/>
						<path style="fill:#494D1B;" d="M320.102,262.698c0,0,7.758-7.049,10.151-13.366c2.393-6.318,1.312-12.064,1.312-12.064
							s-4.388,10.694-4.873,12.594C326.206,251.762,321.392,260.01,320.102,262.698z"/>
						<g>
							<path style="fill:#494D1B;" d="M311.703,276.708c0,0,5.415-15.567,7.501-17.015c0,0-5.89-8.738-3.934-18.084
								c0,0,4.978,16.132,4.902,17.204l-7.837,18.715L311.703,276.708z"/>
							<path style="fill:#494D1B;" d="M313.505,277.439c0,0,11.042-12.237,11.307-14.762c0,0,10.494,0.96,17.746-5.252
								c0,0-16.537,3.397-17.441,3.98l-12.636,15.875L313.505,277.439z"/>
							<path style="fill:#4F5936;" d="M312.407,275.896l9.448-14.074c0,0,8.379-8.115,15.281-9.393c0,0-11.255,9.764-13.987,10.605
								l-10.373,13.75L312.407,275.896z"/>
							<path style="fill:#4F5936;" d="M313.804,275.046l7.793-15.054c0,0,3.082-11.249,0.882-17.915c0,0-3.145,14.564-2.568,17.364
								l-7.063,15.709L313.804,275.046z"/>
							<path style="fill:#4F5936;" d="M313.949,275.971l9.49-14.046c0,0,4.369-10.814,2.959-17.691c0,0-4.817,14.1-4.569,16.948
								l-8.842,14.781L313.949,275.971z"/>
							<path style="fill:#494D1B;" d="M313.731,278.334c0,0,7.021-14.912,6.543-17.405c0,0,10.322-2.123,15.462-10.17
								c0,0-14.842,8.045-15.538,8.864l-7.493,18.856L313.731,278.334z"/>
						</g>
						<path style="fill:#494D1B;" d="M324.861,262.054c0,0,9.634-4.129,13.96-9.318c4.326-5.19,5.18-10.974,5.18-10.974
							s-7.64,8.674-8.719,10.312C334.202,253.711,326.958,259.935,324.861,262.054z"/>
						<path style="fill:#494D1B;" d="M320.656,261.353c0,0-1.016-10.432,1.452-16.721c2.468-6.289,7.128-9.821,7.128-9.821
							s-3.929,10.871-4.845,12.605C323.476,249.15,321.504,258.495,320.656,261.353z"/>
						<path style="fill:#494D1B;" d="M336.202,238.872c0,0-1.875,10.313-5.969,15.687c-4.094,5.374-9.542,7.497-9.542,7.497
							s6.751-9.382,8.107-10.8C330.153,249.839,334.605,241.389,336.202,238.872z"/>
						<path style="fill:#494D1B;" d="M328.074,249.518c0,0-1.875,10.313-5.969,15.687c-4.094,5.374-9.542,7.497-9.542,7.497
							s6.751-9.382,8.107-10.8C322.025,260.485,326.477,252.035,328.074,249.518z"/>
						<path style="fill:#D0646C;" d="M316.184,251.962c0.428,0.459,1.23,0.494,1.697,0.074c-0.315,0.99,0.388,2.175,1.408,2.373
							c1.02,0.198,2.115-0.639,2.192-1.675c0.534,0.301,1.069,0.602,1.603,0.903c0.137,0.077,0.288,0.157,0.444,0.132
							c0.139-0.023,0.25-0.125,0.349-0.225c0.626-0.63,1.196-1.524,0.886-2.355c0.438,0.267,1.033,0.116,1.422-0.217
							c0.39-0.333,0.621-0.811,0.842-1.273c0.115-0.241,0.232-0.489,0.258-0.755c0.048-0.486-0.247-0.988-0.696-1.181
							c-0.449-0.193-1.016-0.063-1.336,0.306c0.957-1.105-0.443-2.535-1.824-3.036c-1.106-0.402-2.587-0.42-2.532,1.253
							c0,0.013-2.022-0.768-3.459-0.377c-0.907,0.247-0.706,1.685-0.803,2.429c-0.085,0.653-1.636,1.228-0.448,1.937
							C315.818,250.761,315.74,251.486,316.184,251.962z"/>
						<path style="fill:#D0646C;" d="M330.036,245.454c-0.317,0.541-0.121,1.32,0.415,1.647c-1.038-0.018-1.973,0.995-1.87,2.029
							c0.103,1.033,1.218,1.843,2.233,1.621c-0.135,0.598-0.271,1.197-0.406,1.795c-0.035,0.154-0.068,0.321,0.001,0.463
							c0.062,0.126,0.191,0.203,0.316,0.27c0.783,0.419,1.802,0.71,2.51,0.174c-0.13,0.496,0.184,1.022,0.615,1.3
							c0.431,0.278,0.954,0.363,1.461,0.442c0.264,0.041,0.535,0.082,0.798,0.031c0.48-0.093,0.876-0.52,0.932-1.005
							c0.056-0.486-0.231-0.992-0.676-1.193c1.333,0.6,2.302-1.15,2.387-2.618c0.068-1.175-0.339-2.599-1.926-2.067
							c-0.013,0.004,0.156-2.157-0.63-3.422c-0.496-0.798-1.816-0.194-2.557-0.074c-0.65,0.105-1.645-1.215-1.984,0.125
							C331.082,244.759,330.365,244.892,330.036,245.454z"/>
						<path style="fill:#D0646C;" d="M329.421,236.845c-0.221,0.377-0.084,0.919,0.289,1.147c-0.723-0.013-1.374,0.693-1.302,1.412
							c0.071,0.72,0.848,1.283,1.555,1.129c-0.094,0.417-0.188,0.833-0.283,1.25c-0.024,0.107-0.047,0.224,0.001,0.322
							c0.043,0.088,0.133,0.141,0.22,0.188c0.545,0.292,1.255,0.494,1.748,0.121c-0.091,0.345,0.128,0.712,0.428,0.905
							c0.3,0.194,0.665,0.253,1.017,0.308c0.184,0.029,0.372,0.057,0.555,0.022c0.334-0.065,0.61-0.362,0.649-0.7
							c0.039-0.338-0.16-0.691-0.471-0.83c0.928,0.418,1.603-0.801,1.662-1.823c0.047-0.818-0.236-1.81-1.341-1.439
							c-0.009,0.003,0.109-1.502-0.439-2.383c-0.346-0.556-1.265-0.135-1.781-0.051c-0.452,0.073-1.146-0.846-1.381,0.087
							C330.149,236.361,329.65,236.453,329.421,236.845z"/>
					</g>
					<path style="fill:#F6B28B;" d="M296.767,200.051c0,0-8.18,12.961-11.58,28.472c-3.4,15.511-1.381,21.248-0.85,21.991
						c0.531,0.744,16.786,13.174,26.135,15.723c0,0,4.568,4.887,8.605,4.887c4.037,0,5.418-5.312,5.312-6.481
						c-0.106-1.169-4.462-2.656-4.462-2.656s0.956-1.275-0.744-2.337c-1.7-1.062-5.949,0.212-6.693,0.106
						c-0.744-0.106-18.486-15.936-18.486-15.936s6.587-20.823,8.605-32.084C304.629,200.476,296.767,200.051,296.767,200.051z"/>
					<g>
						<defs>
							<path id="SVGID_00000110461386629722580400000013886137727015725731_" d="M296.767,200.051c0,0-8.18,12.961-11.58,28.472
								c-3.4,15.511-1.381,21.248-0.85,21.991c0.531,0.744,16.786,13.174,26.135,15.723c0,0,4.568,4.887,8.605,4.887
								c4.037,0,5.418-5.312,5.312-6.481c-0.106-1.169-4.462-2.656-4.462-2.656s0.956-1.275-0.744-2.337
								c-1.7-1.062-5.949,0.212-6.693,0.106c-0.744-0.106-18.486-15.936-18.486-15.936s6.587-20.823,8.605-32.084
								C304.629,200.476,296.767,200.051,296.767,200.051z"/>
						</defs>
						<clipPath id="SVGID_00000111910305278539942560000001817752037525881014_">
							<use xlink:href="#SVGID_00000110461386629722580400000013886137727015725731_"  style="overflow:visible;"/>
						</clipPath>
						<path style="opacity:0.3;clip-path:url(#SVGID_00000111910305278539942560000001817752037525881014_);fill:#F6B28B;" d="
							M295.976,207.145c0,0,0.109,14.628-0.546,18.012s-6.004,17.357-4.803,19.54c1.201,2.183,7.205,10.37,9.934,4.912
							c2.729-5.458,5.349-29.474,5.349-29.474L295.976,207.145z"/>
					</g>
					<path style="fill:#FFFFFF;" d="M304.249,195.313c0,0-9.479,2.86-9.955,4.501s3.452,22.325,5.356,26.31
						c1.904,3.985,5.356-9.375,5.356-9.375L304.249,195.313z"/>
				</g>
				<path style="fill:#382618;" d="M422.864,396.263l-0.296,10.15c0,0,1.478,1.379,7.489,1.281c0,0,5.026,4.631,19.413,1.38
					c0,0-2.956-3.252-18.92-7.785l-1.675-10.938L422.864,396.263z"/>
				<path style="fill:#382618;" d="M415.375,395.672v10.741c0,0-1.478,1.379-7.489,1.281c0,0-5.026,4.631-19.412,1.38
					c0,0,2.956-3.252,18.92-7.785l1.675-10.938L415.375,395.672z"/>
				<path style="fill:#5B3D29;" d="M447.124,239.853c0,0,0.426,11.988,0.711,17.852c0.285,5.864-2.189,7.755-1.493,10.178
					c0.696,2.423,1.908,2.075,1.908,2.075s-2.707,4.275,5.072,2.741c0,0,2.701-4.142,3.803-5.027
					c1.101-0.885-3.016-10.501-3.016-10.501l-0.416-21.697L447.124,239.853z"/>
				<polygon style="fill:#FFFFFF;" points="397.135,244.798 393.87,173.072 409.296,172.059 409.521,165.753 426.636,164.965 
					427.312,171.721 442.062,173.185 440.261,245.474 				"/>
				<g style="opacity:0.2;">
					<path style="fill:#222220;" d="M413.405,245.789l-1.478-69.968l9.259-3.782l3.311,3.171v70.445L413.405,245.789z
						 M412.941,176.487l1.442,68.291l9.113-0.11v-69.03l-2.533-2.427L412.941,176.487z"/>
				</g>
				<polygon style="fill:#C4AC90;" points="406.559,399.838 416.313,399.838 416.942,266.744 420.718,266.43 421.707,400.13 
					431.461,400.13 440.681,245.449 396.781,245.449 				"/>
				<rect x="396.304" y="244.179" style="fill:#553B2B;" width="44.773" height="3.096"/>
				<path style="fill:#FFFFFF;" d="M442.066,173.266c0,0,10.068-5.886,12.972,70.629l-9.701,1.063c0,0,1.872,7.192-5.188-38.947
					L442.066,173.266z"/>
				<path style="fill:#F6B28B;" d="M302.185,164.391c0,7.716,1.943,26.228,15.841,26.153c11.974-0.064,14.795-10.984,14.944-26.004
					c0,0,0.822-12.553-15.019-12.553C302.11,151.987,302.185,164.391,302.185,164.391z"/>
				<g>
					<defs>
						<path id="SVGID_00000123415347814199572890000001951792846313301651_" d="M302.185,164.391
							c0,7.716,1.943,26.228,15.841,26.153c11.974-0.064,14.795-10.984,14.944-26.004c0,0,0.822-12.553-15.019-12.553
							C302.11,151.987,302.185,164.391,302.185,164.391z"/>
					</defs>
					<clipPath id="SVGID_00000138567144859835970210000009764647472734762881_">
						<use xlink:href="#SVGID_00000123415347814199572890000001951792846313301651_"  style="overflow:visible;"/>
					</clipPath>
					<path style="opacity:0.3;clip-path:url(#SVGID_00000138567144859835970210000009764647472734762881_);fill:#F6B28B;" d="
						M329.053,156.102c0,0-5.707,7.563-8.045,7.77c-2.338,0.206-12.308-2.613-13.477-1.375c-1.169,1.238-1.581,13.408,0,16.364
						c1.581,2.957,5.157,10.589,11.208,9.351c6.051-1.238,10.314-9.489,11.483-3.094c1.169,6.395-21.796,8.732-21.796,8.732
						l-11.07-11.62l-0.756-18.427l5.432-13.27l16.777-2.475l10.107,2.544L329.053,156.102z"/>
				</g>
				<path style="fill:#FFFFFF;" d="M321.173,181.187c0.117,0.99-1.267,1.967-3.09,2.182c-1.824,0.216-3.397-0.412-3.514-1.401
					c-0.117-0.99,1.464-0.428,3.287-0.644C319.68,181.109,321.056,180.198,321.173,181.187z"/>
				<path style="opacity:0.7;fill:#F6B28B;" d="M317.623,167.968c0,0-3.19,9.659-2.098,10.577c1.093,0.918,4.065-0.699,4.327-1.18
					C320.115,176.884,318.41,165.695,317.623,167.968z"/>
				<path style="fill:#848C86;" d="M325.817,171.923c0,0.712-0.431,1.289-0.962,1.289c-0.531,0-0.962-0.577-0.962-1.289
					s0.43-1.289,0.962-1.289C325.386,170.634,325.817,171.211,325.817,171.923z"/>
				<path style="fill:#848C86;" d="M312.418,171.682c0,0.712-0.431,1.289-0.962,1.289s-0.961-0.577-0.961-1.289
					c0-0.712,0.43-1.289,0.961-1.289S312.418,170.97,312.418,171.682z"/>
				<path style="fill:#63A0A8;" d="M306.448,167.661c0,0,1.224-2.054,5.594-1.136l0.044-1.574c0,0-3.234-1.355-5.944,1.879
					L306.448,167.661z"/>
				<path style="fill:#63A0A8;" d="M327.34,167.661c0,0-1.224-2.054-5.594-1.136l-0.044-1.574c0,0,3.234-1.355,5.944,1.879
					L327.34,167.661z"/>
				<polygon style="fill:#FFFFFF;" points="454.423,241.328 455.968,238.314 455.038,236.055 455.702,234.859 454.374,232.6 
					455.437,231.404 454.241,229.145 455.171,227.55 453.443,225.025 454.108,223.564 451.849,218.913 				"/>
				<path style="fill:#FFFFFF;" d="M442.414,217.85l-0.664,3.721l1.462,0.93l-1.462,2.658l2.392,2.392l-2.126,1.993l1.86,1.86
					l-1.196,1.993l0.93,1.86c0,0-1.196,1.329-0.797,1.329c0.399,0,1.993,0.532,1.993,0.532l-1.462,1.993l1.063,0.797l-0.664,2.658
					l6.379-0.797L442.414,217.85z"/>
				<polygon style="fill:#FFFFFF;" points="443.743,246.951 457.563,245.224 456.5,239.643 442.946,242.034 				"/>
				<circle style="opacity:0.2;fill:#222220;" cx="454.88" cy="243.001" r="0.7"/>
				<g style="opacity:0.2;">
					<path style="fill:#222220;" d="M419.414,179.192c0,0.386-0.313,0.7-0.7,0.7s-0.7-0.313-0.7-0.7c0-0.387,0.313-0.7,0.7-0.7
						S419.414,178.805,419.414,179.192z"/>
					<path style="fill:#222220;" d="M419.414,188.008c0,0.387-0.313,0.7-0.7,0.7s-0.7-0.313-0.7-0.7s0.313-0.7,0.7-0.7
						S419.414,187.621,419.414,188.008z"/>
					<path style="fill:#222220;" d="M419.414,196.824c0,0.387-0.313,0.7-0.7,0.7s-0.7-0.313-0.7-0.7s0.313-0.7,0.7-0.7
						S419.414,196.437,419.414,196.824z"/>
					<path style="fill:#222220;" d="M419.414,205.639c0,0.387-0.313,0.7-0.7,0.7s-0.7-0.313-0.7-0.7c0-0.386,0.313-0.7,0.7-0.7
						S419.414,205.253,419.414,205.639z"/>
					<path style="fill:#222220;" d="M419.414,214.455c0,0.387-0.313,0.7-0.7,0.7s-0.7-0.313-0.7-0.7s0.313-0.7,0.7-0.7
						S419.414,214.069,419.414,214.455z"/>
					<path style="fill:#222220;" d="M419.414,223.271c0,0.386-0.313,0.7-0.7,0.7s-0.7-0.313-0.7-0.7c0-0.387,0.313-0.7,0.7-0.7
						S419.414,222.885,419.414,223.271z"/>
					<path style="fill:#222220;" d="M419.414,232.087c0,0.387-0.313,0.7-0.7,0.7s-0.7-0.313-0.7-0.7s0.313-0.7,0.7-0.7
						S419.414,231.7,419.414,232.087z"/>
					<path style="fill:#222220;" d="M419.414,240.903c0,0.387-0.313,0.7-0.7,0.7s-0.7-0.313-0.7-0.7s0.313-0.7,0.7-0.7
						S419.414,240.516,419.414,240.903z"/>
				</g>
				<g>
					<path style="fill:#D0646C;" d="M409.407,170.73c0,0-0.092,6.888,0.827,7.301c0.918,0.413,7.393-3.536,7.76-4.408
						C418.361,172.751,409.361,168.802,409.407,170.73z"/>
					<path style="fill:#D0646C;" d="M427.461,170.547c0,0,0.092,6.888-0.826,7.301c-0.918,0.413-7.393-3.536-7.76-4.408
						C418.507,172.567,427.507,168.618,427.461,170.547z"/>
					<path style="fill:#D0646C;" d="M414.917,172.98c0,0-0.781,3.352,2.066,3.444c2.847,0.092,3.168-0.184,3.168-0.184
						s1.607,0.367,1.607-3.168c0-3.536-2.893-2.342-2.893-2.342l-2.617-0.046C416.249,170.684,414.55,170.409,414.917,172.98z"/>
				</g>
				<g>
					<path style="fill:#5B3D29;" d="M431.408,132.846c0,0,8.551-2.48,2.285,5.81c0,0,1.436,4.634-3.917,2.742
						C424.423,139.504,431.408,132.846,431.408,132.846z"/>
					<path style="fill:#5B3D29;" d="M401.939,132.846c0,0-8.551-2.48-2.285,5.81c0,0-1.436,4.634,3.917,2.742
						C408.924,139.504,401.939,132.846,401.939,132.846z"/>
					<path style="fill:#5B3D29;" d="M402.12,123.906c0,0-0.703,34.986,4.496,39.903c5.199,4.918,22.621,6.744,23.886-4.496
						c1.264-11.24,1.13-36.775,0.983-38.358c-0.446-4.825-7.922-9.738-14.791-9.519C409.004,111.682,401.868,117.684,402.12,123.906
						z"/>
					<path style="fill:#2C1D10;" d="M409.956,135.638c0,1.151-0.583,2.084-1.303,2.084c-0.719,0-1.303-0.933-1.303-2.084
						c0-1.151,0.583-2.084,1.303-2.084C409.373,133.554,409.956,134.487,409.956,135.638z"/>
					<path style="fill:#2C1D10;" d="M425.833,135.638c0,1.151-0.583,2.084-1.303,2.084s-1.303-0.933-1.303-2.084
						c0-1.151,0.583-2.084,1.303-2.084S425.833,134.487,425.833,135.638z"/>
					<path style="fill:#2C1D10;" d="M404.742,132.587c0,0,2.67-2.951,7.025-2.529l0.281-1.405c0,0-5.058-0.843-8.009,2.108
						L404.742,132.587z"/>
					<path style="fill:#2C1D10;" d="M428.844,132.007c0,0-2.67-2.951-7.025-2.529l-0.281-1.405c0,0,5.058-0.843,8.009,2.108
						L428.844,132.007z"/>
					<path style="fill:#382618;" d="M396.788,141.837"/>
					<path style="fill:#FFFFFF;" d="M422.832,151.204c0.323,1.593-1.998,3.407-5.184,4.053c-3.186,0.645-6.03-0.122-6.353-1.715
						c-0.323-1.593,2.355-0.75,5.54-1.396C420.022,151.5,422.509,149.611,422.832,151.204z"/>
					<path style="opacity:0.2;fill:#5B3D29;" d="M416.667,134.11c0,0-8.473,9.534-3.848,12.334c2.218,1.343,4.344-0.57,4.344-0.57
						s1.691,0.439,2.126-0.496C419.724,144.442,418.186,131.768,416.667,134.11z"/>
				</g>
				<g>
					<polygon style="fill:#553B2B;" points="432.773,171.805 431.607,238.803 436.142,238.992 436.849,172.253 					"/>
					<path style="fill:#C4AC90;" d="M429.159,243.666c0,0-0.787-4.204,3.971-4.31c5.995-0.134,5.086,4.361,5.086,4.361l0.823-0.172
						c0,0,0.816-5.449-5.833-5.206c-5.337,0.195-4.848,5.243-4.848,5.243L429.159,243.666z"/>
					<g>
						<circle style="fill:#382618;" cx="428.923" cy="244.214" r="1.02"/>
						<circle style="fill:#382618;" cx="438.565" cy="244.214" r="1.02"/>
						<polygon style="fill:#382618;" points="428.449,244.925 428.437,246.123 429.455,246.168 429.398,244.857 						"/>
						<polygon style="fill:#382618;" points="438.059,244.981 438.003,246.157 439.416,246.168 439.1,244.845 						"/>
					</g>
				</g>
				<g>
					<polygon style="fill:#553B2B;" points="404.668,171.805 405.834,238.803 401.299,238.992 400.591,172.253 					"/>
					<path style="fill:#C4AC90;" d="M408.282,243.666c0,0,0.787-4.204-3.971-4.31c-5.994-0.134-5.086,4.361-5.086,4.361
						l-0.823-0.172c0,0-0.816-5.449,5.833-5.206c5.337,0.195,4.848,5.243,4.848,5.243L408.282,243.666z"/>
					<g>
						<path style="fill:#382618;" d="M407.497,244.214c0,0.564,0.457,1.02,1.021,1.02c0.564,0,1.02-0.457,1.02-1.02
							s-0.457-1.02-1.02-1.02C407.954,243.193,407.497,243.65,407.497,244.214z"/>
						<path style="fill:#382618;" d="M397.856,244.214c0,0.564,0.457,1.02,1.021,1.02c0.564,0,1.02-0.457,1.02-1.02
							s-0.457-1.02-1.02-1.02C398.313,243.193,397.856,243.65,397.856,244.214z"/>
						<polygon style="fill:#382618;" points="408.992,244.925 409.003,246.123 407.986,246.168 408.042,244.857 						"/>
						<polygon style="fill:#382618;" points="399.381,244.981 399.438,246.157 398.024,246.168 398.341,244.845 						"/>
					</g>
				</g>
				<g>
					<g>
						<path style="fill:#5B3D29;" d="M381.694,236.702c1.255,0.717,10.72,2.426,13.381,3.052c0.076,0.018,1.483,0.988,2.739,1.33
							c3.588,0.978,13.068,1.33,13.146,0.704c0.078-0.626-6.279-1.737-6.279-1.737s9.801-0.062,9.801-0.61
							c0-0.548-9.546-1.487-9.546-1.487s11.19-0.156,11.033-1.174c-0.156-1.017-11.19-1.174-11.19-1.174s9.781-0.939,9.703-1.722
							c-0.078-0.783-12.207-0.939-12.207-0.939s6.025-4.538,5.008-5.243c-1.017-0.704-10.579,4.021-10.579,4.021
							c-7.868-0.721-13.6-2.769-13.6-2.769L381.694,236.702z"/>
						<path style="fill:#FFFFFF;" d="M371.709,215.06l-1.501,1.561l0.36,1.08c0,0-1.381,0.66-1.321,0.9
							c0.06,0.24,0.48,2.521,0.48,2.521l-1.981,1.501l1.141,1.321l-1.561,1.32l1.201,0.78l-1.441,2.461l1.381,1.32l0.12,3.181
							l1.561-0.3l0.24,1.621l1.501-0.36l0.9,2.281l1.621-0.54l1.081,1.861l2.401-0.12l1.141,0.9l1.26-0.12l2.761-8.223l-9.064-2.101
							l-1.561-6.903L371.709,215.06z"/>
						<g>
							<path style="fill:#FFFFFF;" d="M395.604,173.533c-0.533-0.562-2.242-0.588-2.643,0.075
								c-4.356,7.195-29.867,51.48-23.638,58.212c5.791,6.26,16.747,7.924,16.747,7.924l2.774-11.233c0,0-4.507-0.763-6.935-4.085
								c-2.679-3.666,14.974-26.254,14.974-26.254S399.63,177.781,395.604,173.533z"/>
						</g>
					</g>
					<path style="fill:#F6B28B;" d="M384.353,226.546c0,0,3.944-2.92,1.826-7.617c-2.118-4.697-6.666-7.248-7.216-7.021
						c-0.55,0.228,3.511,5.73,3.511,5.73s-6.672-4.868-7.131-4.182c-0.459,0.686,5.203,6.467,5.203,6.467s-5.328-2.279-5.398-1.432
						c-0.071,0.847,5.459,4.751,5.459,4.751s-4.529-1.247-4.416-0.674C376.305,223.139,379.754,226.146,384.353,226.546z"/>
					<g>
						<polygon style="fill:#FFFFFF;" points="386.93,227.264 383.872,240.3 387.26,240.924 391.062,227.68 						"/>
						<path style="opacity:0.2;fill:#222220;" d="M385.288,239.345c-0.014-0.386,0.287-0.711,0.673-0.725
							c0.386-0.014,0.711,0.287,0.725,0.673c0.014,0.386-0.287,0.711-0.673,0.725C385.627,240.033,385.302,239.731,385.288,239.345z
							"/>
					</g>
				</g>
				<g>
					<g>
						<path style="fill:#C4AC90;" d="M418.32,264.285c-0.778-0.032-1.461-0.378-2.03-1.026c-2.94-3.351-1.993-14.364-1.951-14.831
							l0.996,0.089c-0.01,0.11-0.952,11.053,1.707,14.084c0.387,0.44,0.818,0.665,1.319,0.686L418.32,264.285z"/>
					</g>
					<g>
						
							<rect x="411.233" y="256.479" transform="matrix(0.0176 -0.9998 0.9998 0.0176 155.514 672.2342)" style="fill:#C4AC90;" width="17.218" height="1"/>
					</g>
				</g>
				<g>
					<path style="fill:#C4AC90;" d="M437.751,259.87c-7.458-1.629-6.606-10.363-6.596-10.451l0.994,0.107
						c-0.034,0.323-0.762,7.931,5.814,9.368L437.751,259.87z"/>
				</g>
				<g>
					<path style="fill:#C4AC90;" d="M398.955,259.87c7.458-1.629,6.605-10.363,6.596-10.451l-0.994,0.107
						c0.034,0.323,0.762,7.931-5.815,9.368L398.955,259.87z"/>
				</g>
			</g>
			<path style="fill:#63A0A8;" d="M302.854,157.399c0,0,2.961,6.107,16.932,6.754c0,0-3.978-2.683-4.256-3.423
				c0,0,3.608,2.868,14.063,4.349c0,0,3.053,2.128,2.128,6.754c0,0,2.128-6.291,2.128-7.957c0-1.665-3.369-14.558-17.857-13.138
				C306.555,151.663,302.854,157.399,302.854,157.399z"/>
			<path style="fill:#63A0A8;" d="M303.965,176.366c0,0-4.256-8.512-1.018-18.412l3.238,1.203c0,0-1.85,6.384-2.128,8.975
				C303.78,170.722,303.965,176.366,303.965,176.366z"/>
		</g>
	</g>
	<g>
		<path style="fill:#222220;" d="M533.648,183.383c-0.098,0.75,0.144,1.538,0.647,2.104c-1.066,0.234-2.041-0.568-2.981-1.124
			c-0.939-0.556-2.413-0.75-2.898,0.228c0.065-0.494,0.13-0.988,0.195-1.482c-0.844-0.413-1.864-0.447-2.734-0.092
			c-0.415,0.17-0.815,0.428-1.264,0.432c-0.449,0.004-0.936-0.418-0.777-0.838c0.308-0.119,0.616-0.238,0.923-0.357
			c-0.81,0.296-1.809-0.391-1.823-1.253c-0.011-0.676,0.477-1.346,0.257-1.985c-0.195-0.566-0.854-0.816-1.446-0.904
			c-0.592-0.088-1.234-0.099-1.716-0.453c-0.483-0.354-0.61-1.233-0.069-1.49c-1.304-0.431-2.609-0.861-3.913-1.292
			c0.875-0.301,0.946-1.632,0.33-2.322c-0.616-0.69-1.599-0.892-2.513-1.035c0.454-0.872-0.836-1.993-0.3-2.817
			c0.169-0.26,0.483-0.397,0.658-0.653c0.457-0.669-0.273-1.499-0.929-1.975c0.984-0.602,1.505-1.872,1.229-2.992
			c-0.276-1.12-1.329-2.001-2.48-2.077c0.738,0.305,1.593-0.328,1.825-1.092c0.232-0.765,0.025-1.585-0.182-2.357
			c-0.372-1.388-0.744-2.775-1.116-4.163c1.067,0.093,2.062-1.003,1.867-2.056c-0.084-0.453-0.342-0.853-0.498-1.287
			c-0.598-1.664,0.674-3.72,2.43-3.928c0.26,0.147,0.388,0.491,0.288,0.772c1.587-0.78,1.823-2.931,1.655-4.691
			c-0.036-0.375-0.062-0.805,0.205-1.071c0.444-0.443,1.181-0.029,1.808-0.018c1.946,0.033,1.879-3.473,3.713-4.128
			c0.657-0.234,1.395-0.02,2.074-0.175c0.68-0.155,1.251-1.092,0.695-1.513c2.445-0.531,5.001-0.541,7.45-0.029
			c0.741-0.882,1.609-1.833,2.758-1.921c1.575-0.12,3.298,1.41,4.554,0.452c1.153-0.88,0.605-3.105,1.893-3.773
			c0.379-0.197,0.827-0.191,1.255-0.181c1.459,0.035,2.917,0.07,4.376,0.105c0.156,2.156,2.912,3.64,4.798,2.582
			c1.105-0.62,2.007-1.928,3.261-1.747c0.93,0.134,1.553,1.071,2.456,1.329c1.355,0.388,3.1-0.78,4.077,0.236
			c0.823,0.856,0.179,2.522,1.07,3.308c0.799,0.705,2.231,0.13,3.012,0.855c-0.064,0.319-0.204,0.622-0.405,0.878
			c-0.108,0.732,0.908,1.07,1.641,0.971c0.734-0.1,1.635-0.286,2.087,0.3c0.306,0.396,0.255,1.011,0.628,1.345
			c0.602,0.54,1.827-0.061,2.242,0.633c0.124,0.207,0.117,0.465,0.105,0.706c-0.037,0.794-0.074,1.587-0.111,2.381
			c0.691-0.237,1.426-0.478,2.14-0.322c0.714,0.156,1.359,0.872,1.158,1.575c-0.148,0.516-0.662,0.82-1.024,1.216
			c-0.362,0.396-0.52,1.136-0.048,1.392c1.376-0.061,2.807-1.163,3.999-0.472c0.929,0.539,1.017,1.94,0.446,2.85
			c-0.57,0.91-1.584,1.431-2.569,1.86c0.508,0.984,1.64,1.609,2.744,1.514c0.995,2.328,0.059,5.314-2.086,6.658
			c-0.528,0.331-1.216,0.882-0.888,1.412c0.159,0.256,0.489,0.331,0.76,0.461c1.459,0.699,1.136,2.923,0.204,4.246
			c-0.932,1.323-2.299,2.553-2.29,4.171c0.008,1.479,1.06,3.349-0.163,4.182c-0.906,0.617-2.399-0.072-3.11,0.762
			c0.59,0.471,1.196,0.962,1.543,1.632c0.347,0.67,0.362,1.574-0.169,2.109c0.161,0.329,0.323,0.658,0.484,0.987
			c-0.999,0.195-2.023,0.261-3.039,0.197c-0.111,0.71,0.02,1.455,0.365,2.085c-2.182,0.38-4.373,0.706-6.571,0.976
			c0.076,0.369,0.152,0.738,0.227,1.107c-1.03-0.42-2.061-0.839-3.091-1.259c0.837,0.834,0.298,2.47-0.82,2.85
			c-1.119,0.38-2.41-0.338-2.923-1.402c-0.029,0.656-0.656,1.224-1.312,1.188c-0.655-0.036-1.217-0.669-1.175-1.324
			c-4.269,0.815-8.664,0.968-12.979,0.453c-1.93-0.231-3.565-0.983-5.41-1.414C536.892,183.077,535.149,183.389,533.648,183.383z"/>
		<path style="fill:#222220;" d="M670.622,248.143c0,0,9.997,56.557,8.216,59.229c-1.781,2.672-34.448-24.81-35.593-42.114
			C642.1,247.954,670.622,248.143,670.622,248.143z"/>
		<path style="fill:#222220;" d="M623.652,240.957c0,0-9.374,63.743-7.592,66.415c1.781,2.672,34.448-24.81,35.593-42.114
			C652.797,247.954,623.652,240.957,623.652,240.957z"/>
		<ellipse style="opacity:0.2;fill:#222220;" cx="604.955" cy="410.264" rx="115.416" ry="7.117"/>
		<g>
			<g>
				<path style="fill:#5B3D29;" d="M561.06,168.89c0,0,1.804-5.009,4.509-3.029c2.706,1.98-0.902,7.222-0.902,7.222
					s1.263,4.426-3.156,2.097C557.092,172.851,561.06,168.89,561.06,168.89z"/>
				<path style="fill:#5B3D29;" d="M533.645,168.89c0,0-1.804-5.009-4.509-3.029c-2.706,1.98,0.902,7.222,0.902,7.222
					s-1.262,4.426,3.156,2.097C537.613,172.851,533.645,168.89,533.645,168.89z"/>
				<g>
					<g>
						<rect x="543.707" y="187.048" style="fill:#5B3D29;" width="8.473" height="8.644"/>
						<g style="opacity:0.3;">
							<rect x="543.707" y="187.048" style="fill:#5B3D29;" width="8.473" height="8.644"/>
						</g>
					</g>
				</g>
				<path style="fill:#5B3D29;" d="M533.845,195.313c0,0,12.065-5.359,30.142,0l0.96,6.218l-11.106,6.583l-13.969-1.259
					l-6.126-8.645L533.845,195.313z"/>
				<g>
					<defs>
						<path id="SVGID_00000153678764319164703350000015790667535226498441_" d="M533.845,195.313c0,0,12.065-5.359,30.142,0
							l0.96,6.218l-11.106,6.583l-13.969-1.259l-6.126-8.645L533.845,195.313z"/>
					</defs>
					<clipPath id="SVGID_00000150819601558325695400000000843155357921100684_">
						<use xlink:href="#SVGID_00000153678764319164703350000015790667535226498441_"  style="overflow:visible;"/>
					</clipPath>
					<path style="opacity:0.3;clip-path:url(#SVGID_00000150819601558325695400000000843155357921100684_);fill:#F6B28B;" d="
						M537.196,187.715c0,0,7.91,13.955,12.041,14.207c4.131,0.252,9.723-14.157,9.874-14.308c0.151-0.151-7.859-1.914-7.859-1.914
						L537.196,187.715z"/>
				</g>
				<g>
					<path style="fill:#5B3D29;" d="M562.858,213.737c0,0,5.983,31.142,10.106,34.578c4.124,3.436,31.762-11.97,38.698-18.128
						l-6.123-2.352c0,0-23.641,7.147-25.703,6.872c0,0-2.691-19.726-6.402-34.845L562.858,213.737z"/>
					<g>
						<defs>
							<path id="SVGID_00000134966581501938953290000016171094901555992995_" d="M562.858,213.737c0,0,5.983,31.142,10.106,34.578
								c4.124,3.436,31.762-11.97,38.698-18.128l-6.123-2.352c0,0-23.641,7.147-25.703,6.872c0,0-2.691-19.726-6.402-34.845
								L562.858,213.737z"/>
						</defs>
						<clipPath id="SVGID_00000104702481934247849670000017127527842784127651_">
							<use xlink:href="#SVGID_00000134966581501938953290000016171094901555992995_"  style="overflow:visible;"/>
						</clipPath>
						<path style="opacity:0.3;clip-path:url(#SVGID_00000104702481934247849670000017127527842784127651_);fill:#F6B28B;" d="
							M576.987,205.398c0,0-2.62,21.396-4.476,23.252c-1.856,1.856-0.437,12.881,3.93,14.191c4.367,1.31,19.431-6.55,20.304-7.532
							c0.873-0.982-2.947-5.24-0.109-11.244c2.838-6.004,15.392,0.109,15.392,0.109l4.694,18.885l-32.421,17.575l-19.867-2.62
							l-7.641-35.368l10.37-18.339l4.803-9.715l7.423,4.694L576.987,205.398z"/>
					</g>
					<path style="opacity:0.6;fill:#FFFFFF;" d="M562.858,213.737c0,0,5.983,31.142,10.106,34.578
						c4.124,3.436,31.762-11.97,38.698-18.128l-6.123-2.352c0,0-23.641,7.147-25.703,6.872c0,0-2.691-19.726-6.402-34.845
						L562.858,213.737z"/>
					<g>
						<g>
							<g>
								<g>
									<path style="fill:#5B3D29;" d="M547.934,300.141c0,0,6.325,74.461,6.325,76.761c0,2.3-0.575,26.45-0.575,26.45l2.588-0.575
										c0,0,16.387-40.249,15.237-49.162c-1.15-8.912-6.037-17.825-6.037-22.712c0-4.887,9.2-33.637,3.45-54.912
										c-5.75-21.275-18.975,6.9-18.975,6.9L547.934,300.141z"/>
								</g>
								<path style="fill:#5B3D29;" d="M553.847,399.593l-0.273,6.019c0,0,0.398,0.381,1.905,0.58c0,0,4.06,2.601,8.798,1.806
									c0,0-0.298-0.729-7.331-4.589c0,0-1.088-0.023,0.859-4.674C558.416,397.278,553.847,399.593,553.847,399.593z"/>
							</g>
						</g>
						<g>
							<g>
								<g>
									<path style="fill:#5B3D29;" d="M549.736,299.5c0,0-1.844,74.707-1.706,77.003c0.138,2.296,2.161,26.367,2.161,26.367
										l-2.617-0.419c0,0-18.773-39.193-18.16-48.159c0.613-8.965,4.957-18.155,4.663-23.034
										c-0.293-4.879-11.202-33.024-6.74-54.606c4.463-21.581,19.355,5.749,19.355,5.749L549.736,299.5z"/>
								</g>
								<path style="fill:#5B3D29;" d="M549.802,399.128l0.633,5.992c0,0-0.374,0.404-1.867,0.693c0,0-3.896,2.84-8.674,2.331
									c0,0,0.254-0.746,7.042-5.02c0,0,1.084-0.088-1.138-4.615C545.102,397.091,549.802,399.128,549.802,399.128z"/>
							</g>
						</g>
						<path style="fill:#FFFFFF;" d="M544.554,404.647c0,0-0.617,0.996,0.794,0.94c1.41-0.056,4.961-2.057,4.961-2.057l0.209,2.151
							l-1.849,0.553l-0.059-0.247c0,0-3.838,2.653-9.142,2.315C539.468,408.302,541.076,406.746,544.554,404.647z"/>
						<path style="fill:#FFFFFF;" d="M559.371,404.69c0,0,0.655,0.971-0.756,0.97c-1.412-0.001-5.038-1.862-5.038-1.862
							l-0.125,2.158l1.869,0.481l0.049-0.249c0,0,3.939,2.501,9.226,1.956C564.596,408.143,562.928,406.651,559.371,404.69z"/>
					</g>
					<path style="fill:#FFFFFF;" d="M563.838,195.313c0,0,9.479,2.905,9.955,4.571c0.476,1.666-3.452,22.674-5.356,26.721
						c-1.904,4.047-5.356-9.522-5.356-9.522L563.838,195.313z"/>
					<path style="fill:#FFFFFF;" d="M613.753,388.86c6.513-40.734-42.386-114.448-42.319-129.367
						c0.036-8.004-8.132-23.3-3.107-32.206c0,0,3.654-9.592,3.197-27.177l-7.536-4.796c0,0-5.708,9.59-15.071,9.82
						c-9.362-0.23-15.071-9.82-15.071-9.82l-7.536,4.796c-0.457,17.585,3.197,27.177,3.197,27.177
						c5.024,8.907-3.678,26.584-3.346,34.581c0.778,18.718-47.059,75.487-43.079,127.596
						C483.703,397.602,611.834,400.862,613.753,388.86z"/>
					<g>
						<defs>
							<path id="SVGID_00000109727552710333963110000000816644752260996487_" d="M613.753,388.86
								c6.513-40.734-42.386-114.448-42.319-129.367c0.036-8.004-8.132-23.3-3.107-32.206c0,0,3.654-9.592,3.197-27.177
								l-7.536-4.796c0,0-5.708,9.59-15.071,9.82c-9.362-0.23-15.071-9.82-15.071-9.82l-7.536,4.796
								c-0.457,17.585,3.197,27.177,3.197,27.177c5.024,8.907-3.678,26.584-3.346,34.581c0.778,18.718-47.059,75.487-43.079,127.596
								C483.703,397.602,611.834,400.862,613.753,388.86z"/>
						</defs>
						<clipPath id="SVGID_00000132080057373853578470000005287185977498002585_">
							<use xlink:href="#SVGID_00000109727552710333963110000000816644752260996487_"  style="overflow:visible;"/>
						</clipPath>
						
							<rect x="528.298" y="236.186" style="clip-path:url(#SVGID_00000132080057373853578470000005287185977498002585_);fill:#F49D56;" width="41.411" height="4.504"/>
						<g style="clip-path:url(#SVGID_00000132080057373853578470000005287185977498002585_);">
							<path style="opacity:0.2;fill:#222220;" d="M498.331,324.581c0.722,0.359,0.961,1.263,1.042,2.066
								c0.567,5.577-2.552,10.756-4.75,15.913c-2.759,6.472-4.167,13.516-4.108,20.552c0.049,5.805,1.32,12.037,5.584,15.976
								c4.264,3.939,12.181,4.117,15.194-0.845c0.584-0.962,1.031-2.124,2.04-2.622c1.123-0.554,2.529-0.012,3.393,0.895
								c0.864,0.907,1.331,2.108,1.876,3.236c1.953,4.046,5.253,7.548,9.445,9.164c4.192,1.615,9.277,1.123,12.735-1.744
								c1.458-1.208,2.727-2.855,4.582-3.235c3.69-0.756,6.177,3.757,9.666,5.178c5.11,2.082,10.25-2.868,15.681-3.841
								c4.368-0.783,8.709,1.075,12.978,2.288c7.614,2.164,16.514,2.062,22.631-2.962c1.357-1.114,2.594-2.474,4.253-3.048
								c3.066-1.061,6.615,1.216,7.589,4.312c0.974,3.095-0.22,6.568-2.355,9.011c-2.135,2.443-5.086,4.017-8.067,5.299
								c-10.86,4.671-22.821,6.115-34.625,6.751c-25.62,1.381-51.361-0.813-76.605-5.398c-7.289-1.324-15.198-3.244-19.659-9.159
								c-2.604-3.452-3.653-7.861-3.866-12.18c-0.435-8.849,2.372-17.565,6.128-25.589c3.188-6.812,7.356-13.153,10.469-19.99
								c0.864-1.896,0.859-4.105,1.806-5.928C492.323,326.878,496.137,323.491,498.331,324.581z"/>
							<path style="opacity:0.2;fill:#222220;" d="M528.508,266.47c3.558,2.963,8.062,4.64,12.641,5.327
								c1.22,0.183,2.562,0.275,3.594-0.401c0.557-0.365,0.961-0.917,1.33-1.471c1.246-1.874,2.257-4.033,2.138-6.28
								c-0.126-2.4-1.502-4.52-2.504-6.704c-1.146-2.497-1.833-5.203-2.02-7.943c-0.08-1.173-0.062-2.387,0.383-3.475
								c0.622-1.523,1.997-2.609,3.43-3.419c4.717-2.669,10.353-3.024,15.533-4.62c1.221-0.376,2.443-0.836,3.442-1.634
								c0.936-0.748,1.628-1.757,2.223-2.797c1.749-3.06,2.763-6.501,3.285-9.987c0.21-1.404,0.05-3.278-1.324-3.639
								c-0.999-0.262-1.943,0.51-2.705,1.207c-1.792,1.639-3.718,3.191-5.956,4.132c-2.239,0.942-4.844,1.219-7.092,0.3
								c-2.381-0.974-4.295-3.222-6.864-3.35c-3.346-0.166-5.622,3.229-8.517,4.915c-2.037,1.187-4.551,1.525-6.83,0.919
								c-1.254-0.333-2.482-0.944-3.775-0.84c-1.62,0.131-2.971,1.399-3.667,2.869c-0.696,1.469-0.858,3.126-1.009,4.745
								c-0.6,6.419-1.104,12.855-1.802,19.264C521.9,258.556,524.733,263.326,528.508,266.47z"/>
						</g>
					</g>
					<g>
						<path style="fill:#F49D56;" d="M550.495,240.192c-0.021,0.436,0.35,0.854,0.786,0.883c-0.647,0.323-0.898,1.249-0.501,1.854
							c0.396,0.605,1.346,0.746,1.9,0.282c0.109,0.413,0.218,0.826,0.327,1.239c0.028,0.106,0.061,0.22,0.149,0.285
							c0.079,0.058,0.184,0.064,0.282,0.065c0.618,0.007,1.341-0.142,1.606-0.701c0.079,0.348,0.443,0.572,0.799,0.605
							c0.355,0.033,0.706-0.083,1.044-0.198c0.176-0.06,0.357-0.122,0.503-0.238c0.266-0.212,0.373-0.603,0.252-0.921
							c-0.122-0.318-0.462-0.538-0.802-0.519c1.016-0.059,1.051-1.451,0.631-2.384c-0.336-0.747-1.046-1.496-1.854-0.656
							c-0.006,0.007-0.598-1.382-1.491-1.91c-0.563-0.333-1.184,0.465-1.603,0.778c-0.367,0.274-1.407-0.221-1.185,0.716
							C550.916,239.426,550.517,239.739,550.495,240.192z"/>
						<path style="fill:#F49D56;" d="M559.444,255.735c-0.221,0.377-0.084,0.919,0.289,1.147c-0.723-0.013-1.374,0.693-1.302,1.412
							c0.071,0.72,0.848,1.284,1.555,1.129c-0.094,0.417-0.188,0.833-0.282,1.25c-0.024,0.107-0.047,0.224,0.001,0.322
							c0.043,0.088,0.133,0.141,0.22,0.188c0.545,0.292,1.255,0.494,1.748,0.121c-0.091,0.345,0.128,0.712,0.429,0.905
							c0.3,0.193,0.665,0.253,1.017,0.308c0.184,0.029,0.372,0.057,0.555,0.022c0.334-0.065,0.61-0.362,0.649-0.7
							c0.039-0.338-0.161-0.691-0.471-0.831c0.928,0.418,1.603-0.801,1.662-1.823c0.047-0.818-0.236-1.81-1.341-1.439
							c-0.009,0.003,0.109-1.502-0.439-2.383c-0.346-0.556-1.265-0.135-1.781-0.051c-0.452,0.073-1.146-0.846-1.381,0.087
							C560.172,255.252,559.673,255.344,559.444,255.735z"/>
						<path style="fill:#494D1B;" d="M549.698,262.698c0,0,7.758-7.049,10.151-13.366c2.393-6.318,1.312-12.064,1.312-12.064
							s-4.388,10.694-4.873,12.594C555.803,251.762,550.989,260.01,549.698,262.698z"/>
						<g>
							<path style="fill:#494D1B;" d="M541.299,276.708c0,0,5.415-15.567,7.501-17.015c0,0-5.89-8.738-3.934-18.084
								c0,0,4.978,16.132,4.902,17.204l-7.837,18.715L541.299,276.708z"/>
							<path style="fill:#494D1B;" d="M543.101,277.439c0,0,11.042-12.237,11.307-14.762c0,0,10.494,0.96,17.746-5.252
								c0,0-16.537,3.397-17.441,3.98l-12.636,15.875L543.101,277.439z"/>
							<path style="fill:#4F5936;" d="M542.003,275.896l9.448-14.074c0,0,8.379-8.115,15.281-9.393c0,0-11.255,9.764-13.987,10.605
								l-10.373,13.75L542.003,275.896z"/>
							<path style="fill:#4F5936;" d="M543.4,275.046l7.793-15.054c0,0,3.083-11.249,0.882-17.915c0,0-3.145,14.564-2.568,17.364
								l-7.063,15.709L543.4,275.046z"/>
							<path style="fill:#4F5936;" d="M543.545,275.971l9.49-14.046c0,0,4.369-10.814,2.959-17.691c0,0-4.817,14.1-4.569,16.948
								l-8.842,14.781L543.545,275.971z"/>
							<path style="fill:#494D1B;" d="M543.328,278.334c0,0,7.021-14.912,6.543-17.405c0,0,10.322-2.123,15.462-10.17
								c0,0-14.842,8.045-15.538,8.864l-7.493,18.856L543.328,278.334z"/>
						</g>
						<path style="fill:#494D1B;" d="M554.457,262.054c0,0,9.635-4.129,13.96-9.318c4.326-5.19,5.18-10.974,5.18-10.974
							s-7.64,8.674-8.719,10.312C563.798,253.711,556.554,259.935,554.457,262.054z"/>
						<path style="fill:#494D1B;" d="M550.252,261.353c0,0-1.016-10.432,1.452-16.721c2.468-6.289,7.128-9.821,7.128-9.821
							s-3.929,10.871-4.845,12.605C553.072,249.15,551.101,258.495,550.252,261.353z"/>
						<path style="fill:#494D1B;" d="M565.798,238.872c0,0-1.875,10.313-5.969,15.687c-4.094,5.374-9.542,7.497-9.542,7.497
							s6.752-9.382,8.107-10.8C559.749,249.839,564.201,241.389,565.798,238.872z"/>
						<path style="fill:#494D1B;" d="M557.67,249.518c0,0-1.875,10.313-5.969,15.687c-4.094,5.374-9.542,7.497-9.542,7.497
							s6.751-9.382,8.107-10.8C551.621,260.485,556.073,252.035,557.67,249.518z"/>
						<path style="fill:#F49D56;" d="M545.781,251.962c0.428,0.459,1.23,0.494,1.697,0.074c-0.315,0.99,0.388,2.175,1.408,2.373
							c1.02,0.198,2.115-0.639,2.192-1.675c0.535,0.301,1.069,0.602,1.604,0.903c0.137,0.077,0.288,0.157,0.444,0.132
							c0.139-0.023,0.249-0.125,0.349-0.225c0.626-0.63,1.196-1.524,0.886-2.355c0.438,0.267,1.032,0.116,1.422-0.217
							c0.39-0.333,0.621-0.811,0.842-1.273c0.115-0.241,0.232-0.489,0.258-0.755c0.048-0.486-0.247-0.988-0.696-1.181
							c-0.449-0.193-1.016-0.063-1.336,0.306c0.957-1.105-0.443-2.535-1.824-3.036c-1.106-0.402-2.587-0.42-2.532,1.253
							c0,0.013-2.022-0.768-3.459-0.377c-0.907,0.247-0.706,1.685-0.803,2.429c-0.085,0.653-1.636,1.228-0.448,1.937
							C545.414,250.761,545.336,251.486,545.781,251.962z"/>
						<path style="fill:#F49D56;" d="M559.633,245.454c-0.317,0.541-0.121,1.32,0.415,1.647c-1.039-0.018-1.973,0.995-1.87,2.029
							s1.218,1.843,2.233,1.621c-0.135,0.598-0.271,1.197-0.406,1.795c-0.035,0.154-0.068,0.321,0.001,0.463
							c0.062,0.126,0.192,0.203,0.316,0.27c0.783,0.419,1.802,0.71,2.51,0.174c-0.13,0.496,0.184,1.022,0.615,1.3
							c0.431,0.278,0.954,0.363,1.461,0.442c0.264,0.041,0.535,0.082,0.798,0.031c0.48-0.093,0.876-0.52,0.932-1.005
							c0.057-0.486-0.231-0.992-0.676-1.193c1.333,0.6,2.302-1.15,2.387-2.618c0.068-1.175-0.339-2.599-1.926-2.067
							c-0.013,0.004,0.156-2.157-0.63-3.422c-0.496-0.798-1.816-0.194-2.557-0.074c-0.65,0.105-1.645-1.215-1.984,0.125
							C560.678,244.759,559.961,244.892,559.633,245.454z"/>
						<path style="fill:#F49D56;" d="M559.018,236.845c-0.221,0.377-0.084,0.919,0.289,1.147c-0.723-0.013-1.374,0.693-1.302,1.412
							s0.848,1.283,1.555,1.129c-0.094,0.417-0.188,0.833-0.283,1.25c-0.024,0.107-0.047,0.224,0.001,0.322
							c0.043,0.088,0.133,0.141,0.22,0.188c0.545,0.292,1.255,0.494,1.748,0.121c-0.091,0.345,0.128,0.712,0.429,0.905
							c0.3,0.194,0.665,0.253,1.017,0.308c0.184,0.029,0.372,0.057,0.555,0.022c0.334-0.065,0.61-0.362,0.649-0.7
							c0.039-0.338-0.161-0.691-0.471-0.83c0.928,0.418,1.602-0.801,1.662-1.823c0.047-0.818-0.236-1.81-1.341-1.439
							c-0.009,0.003,0.109-1.502-0.439-2.383c-0.346-0.556-1.265-0.135-1.781-0.051c-0.452,0.073-1.146-0.846-1.381,0.087
							C559.745,236.361,559.246,236.453,559.018,236.845z"/>
					</g>
					<path style="fill:#5B3D29;" d="M526.364,200.051c0,0-8.18,12.961-11.58,28.472c-3.4,15.511-1.381,21.248-0.85,21.991
						c0.531,0.744,16.786,13.174,26.135,15.723c0,0,4.568,4.887,8.605,4.887s5.418-5.312,5.312-6.481
						c-0.106-1.169-4.462-2.656-4.462-2.656s0.956-1.275-0.744-2.337c-1.7-1.062-5.949,0.212-6.693,0.106
						s-18.486-15.936-18.486-15.936s6.587-20.823,8.605-32.084C534.225,200.476,526.364,200.051,526.364,200.051z"/>
					<g>
						<defs>
							<path id="SVGID_00000026154351905881374100000013872322259749769663_" d="M526.364,200.051c0,0-8.18,12.961-11.58,28.472
								c-3.4,15.511-1.381,21.248-0.85,21.991c0.531,0.744,16.786,13.174,26.135,15.723c0,0,4.568,4.887,8.605,4.887
								s5.418-5.312,5.312-6.481c-0.106-1.169-4.462-2.656-4.462-2.656s0.956-1.275-0.744-2.337c-1.7-1.062-5.949,0.212-6.693,0.106
								s-18.486-15.936-18.486-15.936s6.587-20.823,8.605-32.084C534.225,200.476,526.364,200.051,526.364,200.051z"/>
						</defs>
						<clipPath id="SVGID_00000129194970372636353150000010964645316845875120_">
							<use xlink:href="#SVGID_00000026154351905881374100000013872322259749769663_"  style="overflow:visible;"/>
						</clipPath>
						<path style="opacity:0.3;clip-path:url(#SVGID_00000129194970372636353150000010964645316845875120_);fill:#F6B28B;" d="
							M525.572,207.145c0,0,0.109,14.628-0.546,18.012c-0.655,3.384-6.004,17.357-4.803,19.54c1.201,2.183,7.205,10.37,9.934,4.912
							s5.349-29.474,5.349-29.474L525.572,207.145z"/>
					</g>
					<path style="fill:#FFFFFF;" d="M533.845,195.313c0,0-9.479,2.86-9.955,4.501c-0.476,1.641,3.452,22.325,5.356,26.31
						c1.904,3.985,5.356-9.375,5.356-9.375L533.845,195.313z"/>
					<g style="opacity:0.6;">
						<path style="fill:#FFFFFF;" d="M523.601,243.822c0,0,6.587-20.823,8.605-32.084c2.019-11.261-5.843-11.686-5.843-11.686
							s-8.18,12.961-11.58,28.472c-3.4,15.511-1.381,21.248-0.85,21.991c0.469,0.657,13.219,10.439,22.63,14.464l3.188-7.027
							C534.766,253.783,523.601,243.822,523.601,243.822z"/>
					</g>
				</g>
				<g>
					<path style="fill:#222220;" d="M652.461,396.263l-0.296,10.15c0,0,1.478,1.379,7.489,1.281c0,0,5.026,4.631,19.412,1.38
						c0,0-2.956-3.252-18.92-7.785l-1.675-10.938L652.461,396.263z"/>
					<path style="fill:#222220;" d="M644.971,395.672v10.741c0,0-1.478,1.379-7.489,1.281c0,0-5.026,4.631-19.412,1.38
						c0,0,2.956-3.252,18.92-7.785l1.675-10.938L644.971,395.672z"/>
					<g>
						<path style="fill:#FFD6BE;" d="M677.636,273.1c0,0-2.747,12.129-2.34,13.121c0.407,0.992,2.849-3.914,2.849-3.914
							s-0.712,9.342-0.712,10.751c0,2.426,4.63,2.812,7.682-19.847L677.636,273.1z"/>
						<polygon style="fill:#FFFFFF;" points="677.424,269.398 676.717,273.502 685.527,274.259 686.353,270.351 						"/>
						<g>
							<polygon style="fill:#3D3D3D;" points="626.716,265.486 636.155,399.838 645.909,399.838 646.539,266.744 650.314,266.43 
								651.304,400.13 661.058,400.13 669.455,242.484 626.451,242.484 							"/>
							<g>
								<defs>
									<polygon id="SVGID_00000111877857044158021270000016581827175234562205_" points="626.716,265.486 636.155,399.838 
										645.909,399.838 646.539,266.744 650.314,266.43 651.304,400.13 661.058,400.13 670.137,252.271 625.772,254.159 									
										"/>
								</defs>
								<clipPath id="SVGID_00000075853456974510589150000010591933753605452964_">
									<use xlink:href="#SVGID_00000111877857044158021270000016581827175234562205_"  style="overflow:visible;"/>
								</clipPath>
							</g>
							<g>
								<polygon style="fill:#FFFFFF;" points="636.039,167.508 636.504,162.665 656.744,163.117 657.139,167.909 664.246,189.608 
									659.579,214.025 652.612,222.141 640.1,223.291 634.689,199.145 635.027,170.872 								"/>
								<g>
									<g style="opacity:0.2;">
										<path style="fill:#222220;" d="M641.626,247.815l-1.478-69.968l9.259-3.782l3.311,3.171v70.445L641.626,247.815z
											 M641.162,178.512l1.442,68.29l9.113-0.11v-69.03l-2.533-2.427L641.162,178.512z"/>
									</g>
									<path style="fill:#222220;" d="M647.635,181.218c0,0.386-0.313,0.7-0.7,0.7s-0.7-0.313-0.7-0.7c0-0.387,0.313-0.7,0.7-0.7
										S647.635,180.831,647.635,181.218z"/>
									<path style="fill:#222220;" d="M647.635,190.033c0,0.387-0.313,0.7-0.7,0.7s-0.7-0.313-0.7-0.7c0-0.386,0.313-0.7,0.7-0.7
										S647.635,189.647,647.635,190.033z"/>
									<path style="fill:#222220;" d="M647.635,198.849c0,0.386-0.313,0.7-0.7,0.7s-0.7-0.313-0.7-0.7c0-0.387,0.313-0.7,0.7-0.7
										S647.635,198.463,647.635,198.849z"/>
									<path style="fill:#222220;" d="M647.635,207.665c0,0.386-0.313,0.7-0.7,0.7s-0.7-0.313-0.7-0.7c0-0.387,0.313-0.7,0.7-0.7
										S647.635,207.279,647.635,207.665z"/>
									<path style="fill:#222220;" d="M647.635,216.481c0,0.386-0.313,0.7-0.7,0.7s-0.7-0.313-0.7-0.7c0-0.387,0.313-0.7,0.7-0.7
										S647.635,216.094,647.635,216.481z"/>
									<path style="fill:#222220;" d="M647.635,225.297c0,0.386-0.313,0.7-0.7,0.7s-0.7-0.313-0.7-0.7c0-0.387,0.313-0.7,0.7-0.7
										S647.635,224.91,647.635,225.297z"/>
									<path style="fill:#222220;" d="M647.635,234.113c0,0.387-0.313,0.7-0.7,0.7s-0.7-0.313-0.7-0.7c0-0.386,0.313-0.7,0.7-0.7
										S647.635,233.726,647.635,234.113z"/>
								</g>
								<g>
									<g>
										<g>
											<polygon style="fill:#F49D56;" points="636.071,204.869 647.216,210.207 656.541,205.551 658.076,241.974 
												638.288,241.633 											"/>
										</g>
									</g>
								</g>
								<g>
									<path style="fill:#30302F;" d="M636.039,167.508l9.347,77.863c0,0-12.701,8.818-23.516,8.182c0,0,3.933-35.381,2.91-37.428
										c-1.023-2.047-7.847-39.917-7.847-39.917L636.039,167.508z"/>
									<g>
										<defs>
											<path id="SVGID_00000064341855082629615880000014703133916148003228_" d="M636.039,167.508l9.347,77.863
												c0,0-12.701,8.818-23.516,8.182c0,0,3.933-35.381,2.91-37.428c-1.023-2.047-7.847-39.917-7.847-39.917L636.039,167.508z"
												/>
										</defs>
										<clipPath id="SVGID_00000070076464788607291860000001876168272210893981_">
											<use xlink:href="#SVGID_00000064341855082629615880000014703133916148003228_"  style="overflow:visible;"/>
										</clipPath>
										<polygon style="clip-path:url(#SVGID_00000070076464788607291860000001876168272210893981_);fill:#222220;" points="
											637.063,162.049 636.039,167.508 625.804,184.396 633.139,196.337 628.534,206.231 644.91,243.93 641.839,178.937 
																					"/>
									</g>
								</g>
								<g>
									<path style="fill:#30302F;" d="M657.084,167.508l-9.347,77.863c0,0,13.015,8.807,23.83,8.171c0,0-4.247-35.37-3.224-37.417
										c1.023-2.047,7.847-39.917,7.847-39.917L657.084,167.508z"/>
									<g>
										<defs>
											<path id="SVGID_00000031906678952380144820000013144661721536679559_" d="M657.084,167.508l-9.347,77.863
												c0,0,12.999,8.807,23.814,8.171c0,0-4.231-35.37-3.208-37.417c1.023-2.047,7.847-39.917,7.847-39.917L657.084,167.508z"
												/>
										</defs>
										<clipPath id="SVGID_00000181056432319943434230000001381613557203266746_">
											<use xlink:href="#SVGID_00000031906678952380144820000013144661721536679559_"  style="overflow:visible;"/>
										</clipPath>
										<polygon style="clip-path:url(#SVGID_00000181056432319943434230000001381613557203266746_);fill:#222220;" points="
											656.061,162.049 657.084,167.508 667.319,184.396 659.984,196.337 664.59,206.231 648.214,243.93 651.284,178.937 
																					"/>
									</g>
								</g>
								<g>
									<path style="fill:#FFD6BE;" d="M635.73,240.506c0,0,2.832,0.977,3.418,1.563c0.586,0.586,9.717,4.346,11.182,2.734
										c1.465-1.611,1.367-1.855,1.367-1.855s1.269,1.416,2.49-2.686c0,0,1.709-1.27,1.611-3.369c0,0-0.049-0.684-0.928-1.025
										c0,0,1.074-2.295-3.174-2.783c0,0,0.488-2.734-3.271-3.223c-3.76-0.488-9.131,3.857-11.523,3.564
										C634.509,233.133,635.73,240.506,635.73,240.506z"/>
									<polygon style="fill:#FFFFFF;" points="631.384,241.434 636.267,242.02 637.634,231.961 633.337,231.375 									"/>
									<path style="fill:#30302F;" d="M616.969,176.211c0,0-23.556,47.272-18.05,55.61c5.506,8.338,33.037,10.698,33.037,10.698
										l2.517-11.642c0,0-21.868-2.045-22.969-6.45s11.799-27.216,11.799-27.216S622.789,177.312,616.969,176.211z"/>
								</g>
							</g>
						</g>
						<path style="fill:#30302F;" d="M676.193,176.223c0,0,16.843,68.947,10.565,95.852l-10.182-1.473c0,0,0.45-20.716-6.61-66.855
							L676.193,176.223z"/>
					</g>
				</g>
				<path style="fill:#5B3D29;" d="M531.781,164.391c0,7.716,1.943,26.228,15.841,26.153c11.974-0.064,14.795-10.984,14.945-26.004
					c0,0,0.822-12.553-15.019-12.553C531.706,151.987,531.781,164.391,531.781,164.391z"/>
				<g>
					<defs>
						<path id="SVGID_00000019675418578265082170000018296008381072358291_" d="M531.781,164.391
							c0,7.716,1.943,26.228,15.841,26.153c11.974-0.064,14.795-10.984,14.945-26.004c0,0,0.822-12.553-15.019-12.553
							C531.706,151.987,531.781,164.391,531.781,164.391z"/>
					</defs>
					<clipPath id="SVGID_00000096043498290382619050000012781072637564973962_">
						<use xlink:href="#SVGID_00000019675418578265082170000018296008381072358291_"  style="overflow:visible;"/>
					</clipPath>
				</g>
				<path style="fill:#FFFFFF;" d="M540.758,180.947c0,0,7.01-1.864,13.646-1.79c0,0,0.039,6.587-5.817,7.159
					C543.84,186.78,540.758,180.947,540.758,180.947z"/>
				<path style="opacity:0.2;fill:#5B3D29;" d="M546.447,167.617c0,0-3.19,9.659-2.098,10.577c1.093,0.918,4.065-0.699,4.327-1.18
					C548.938,176.533,547.233,165.344,546.447,167.617z"/>
				<path style="fill:#2C1D10;" d="M554.707,170.042c0,0.712-0.43,1.289-0.962,1.289c-0.531,0-0.961-0.577-0.961-1.289
					s0.43-1.289,0.961-1.289C554.277,168.753,554.707,169.33,554.707,170.042z"/>
				<path style="fill:#2C1D10;" d="M541.027,170.786c0,0.712-0.43,1.289-0.961,1.289c-0.531,0-0.962-0.577-0.962-1.289
					c0-0.712,0.43-1.289,0.962-1.289C540.597,169.496,541.027,170.073,541.027,170.786z"/>
				<path style="fill:#2C1D10;" d="M536.045,167.661c0,0,1.224-2.054,5.594-1.136l0.044-1.574c0,0-3.234-1.355-5.944,1.879
					L536.045,167.661z"/>
				<path style="fill:#2C1D10;" d="M556.936,167.661c0,0-1.224-2.054-5.594-1.136l-0.044-1.574c0,0,3.234-1.355,5.944,1.879
					L556.936,167.661z"/>
				<path style="fill:#5B3D29;" d="M613.95,226.546c0,0,3.944-2.92,1.826-7.617c-2.117-4.697-6.666-7.248-7.216-7.021
					c-0.55,0.228,3.511,5.73,3.511,5.73s-6.672-4.868-7.131-4.182c-0.459,0.686,5.203,6.467,5.203,6.467s-5.328-2.279-5.398-1.432
					c-0.071,0.847,5.459,4.751,5.459,4.751s-4.529-1.247-4.416-0.674C605.901,223.139,609.35,226.146,613.95,226.546z"/>
				<g>
					<path style="opacity:0.6;fill:#FFFFFF;" d="M563.987,195.313c-4.306-1.277-8.265-1.94-11.807-2.218v-1.63h-8.473v1.669
						c-6.24,0.574-9.862,2.178-9.862,2.178l-0.099,2.898l6.126,8.645l13.969,1.259l11.106-6.584L563.987,195.313z"/>
					<rect x="543.525" y="191.174" style="fill:#FFFFFF;" width="8.816" height="1.037"/>
				</g>
			</g>
		</g>
		<g>
			<path style="fill:#382618;" d="M629.889,142.439c0,0-4.891,1.859-6.261-1.761c-1.37-3.62,0.196-4.598,0.196-4.598
				s-4.402-1.565-4.207-4.207c0.196-2.641,2.348-4.402,2.348-4.402s-2.935-2.152-1.859-4.891c1.076-2.739,3.228-2.739,3.228-2.739
				s-1.467-4.794,0.391-5.968c1.859-1.174,3.717-0.489,3.717-0.489s0.587-3.717,5.478-3.815c4.892-0.098,4.5,3.228,4.5,3.228
				s1.565-4.891,4.5-5.087c2.935-0.196,3.815,1.957,3.815,1.957s3.62-1.467,5.772,0.489c2.152,1.957,1.859,2.935,1.859,2.935
				s3.131-3.326,4.598-2.25c1.467,1.076,2.446,3.424,2.446,3.424s2.739-1.174,4.305,0.978c1.565,2.152,0.489,4.109,0.489,4.109
				s3.326,1.467,3.228,4.109c-0.098,2.641-1.663,3.815-1.663,3.815s1.859,2.641,0.489,4.109c-1.37,1.467-3.033,1.467-3.033,1.467
				s1.957,2.641,0.587,3.913c-1.37,1.272-2.446,2.641-4.598,2.935C658.064,139.994,629.889,142.439,629.889,142.439z"/>
			<path style="fill:#FFD6BE;" d="M660.997,138.503c0,0,8.551-2.48,2.285,5.809c0,0,1.436,4.635-3.917,2.742
				C654.013,145.161,660.997,138.503,660.997,138.503z"/>
			<path style="fill:#FFD6BE;" d="M629.97,138.503c0,0-8.551-2.48-2.285,5.809c0,0-1.436,4.635,3.917,2.742
				C636.954,145.161,629.97,138.503,629.97,138.503z"/>
			<path style="fill:#FFD6BE;" d="M630.151,129.563c0,0-0.703,34.986,4.496,39.903c5.199,4.918,22.621,6.744,23.886-4.496
				c1.265-11.24,2.108-37.234,0.984-38.358C658.392,125.488,640.126,119.306,630.151,129.563z"/>
			<g>
				<defs>
					<path id="SVGID_00000161624403423776304800000008498781416344099979_" d="M630.151,129.563c0,0-0.703,34.986,4.496,39.903
						c5.199,4.918,22.621,6.744,23.886-4.496c1.265-11.24,2.108-37.234,0.984-38.358
						C658.392,125.488,640.126,119.306,630.151,129.563z"/>
				</defs>
				<clipPath id="SVGID_00000025415100284789677390000015421045556264909225_">
					<use xlink:href="#SVGID_00000161624403423776304800000008498781416344099979_"  style="overflow:visible;"/>
				</clipPath>
				<path style="opacity:0.4;clip-path:url(#SVGID_00000025415100284789677390000015421045556264909225_);fill:#FFD6BE;" d="
					M627.763,129.592c0,0-1.982,9.533,17.745,6.796c19.727-2.737,10.383,35.678,2.832,38.227
					c-7.551,2.548,21.803-5.758,21.803-5.758l11.704-39.17l-14.819-16.046l-27.278,7.268L627.763,129.592z"/>
			</g>
			<path style="fill:#382618;" d="M637.987,141.295c0,1.151-0.583,2.084-1.303,2.084c-0.719,0-1.303-0.933-1.303-2.084
				c0-1.151,0.583-2.084,1.303-2.084C637.404,139.211,637.987,140.144,637.987,141.295z"/>
			<path style="fill:#382618;" d="M653.864,141.295c0,1.151-0.583,2.084-1.303,2.084c-0.719,0-1.303-0.933-1.303-2.084
				c0-1.151,0.583-2.084,1.303-2.084C653.281,139.211,653.864,140.144,653.864,141.295z"/>
			<path style="fill:#382618;" d="M632.772,138.244c0,0,2.67-2.951,7.025-2.529l0.281-1.405c0,0-5.058-0.843-8.009,2.108
				L632.772,138.244z"/>
			<path style="fill:#382618;" d="M656.875,137.664c0,0-2.67-2.951-7.025-2.529l-0.281-1.405c0,0,5.058-0.843,8.009,2.108
				L656.875,137.664z"/>
			<path style="fill:#382618;" d="M624.819,147.494"/>
			<path style="fill:#382618;" d="M632.667,131.626c0.835,0.539,1.954,0.711,2.833,0.247c0.879-0.464,1.372-1.644,0.914-2.526
				c0.558,0.792,1.509,1.234,2.466,1.386c0.957,0.151,1.934,0.046,2.896-0.06c0.943-0.104,2.131-0.442,2.217-1.386
				c-0.268,0.524,0.054,1.196,0.551,1.512c0.497,0.316,1.112,0.367,1.7,0.401c0.856,0.051,1.829,0.045,2.421-0.576
				c1.674,1.274,4.171,1.336,5.907,0.147c-0.058,0.638,0.459,1.215,1.058,1.443c0.599,0.227,1.262,0.186,1.901,0.142
				c0.988-0.069,2.024-0.153,2.855-0.693c1.062-0.689,1.558-1.961,1.99-3.15c0.501-1.377,1-2.917,0.428-4.266
				c-0.2-0.471-0.519-0.882-0.866-1.258c-1.531-1.665-3.622-2.738-5.797-3.36c-2.175-0.622-4.446-0.821-6.704-0.954
				c-3.063-0.181-6.152-0.246-9.182,0.237c-3.029,0.483-6.016,1.541-8.44,3.421c-1.478,1.146-2.752,2.628-3.347,4.4
				c-0.569,1.694-0.527,4.593,0.896,5.946c0.576,0.548,1.397,0.741,2.176,0.725C632.316,133.387,634.101,132.251,632.667,131.626z"
				/>
			<path style="fill:#382618;" d="M632.606,153.395c3.181-1.108,12.274-3.448,25.365,0.04c0.626,0.167,1.24-0.304,1.216-0.951
				c-0.145-3.917-0.516-15.385,0.051-16.599c0.5-1.071,0.166-4.904-0.051-6.897c-0.068-0.622,0.47-1.135,1.09-1.047h0
				c0.471,0.067,0.822,0.466,0.823,0.942c0.023,5.614,0.157,38.097,0.192,41.829c0.098,10.468-9.731,10.507-16.142,10.174
				c-7.53-0.391-16.819,1.075-15.752-24.815c0.001-0.022,0.001-0.044,0-0.066c-0.034-1.015-0.865-25.703-0.195-25.99
				c0.19-0.081,0.417-0.155,0.647-0.22c0.61-0.171,1.218,0.277,1.226,0.911l0.263,21.793
				C631.348,153.153,631.988,153.611,632.606,153.395z"/>
			<path style="fill:#FFFFFF;" d="M650.863,156.861c0.323,1.593-1.998,3.407-5.184,4.053c-3.186,0.646-6.03-0.122-6.353-1.715
				c-0.323-1.593,2.355-0.75,5.54-1.395C648.052,157.157,650.54,155.268,650.863,156.861z"/>
			<g>
				<path style="fill:#FFD6BE;" d="M644.634,137.149c0,0-5.135,15.159-3.511,17.213c1.433,1.813,3.445-0.846,3.445-0.846
					s1.359,1.301,1.387-1.549C645.992,148.02,645.744,132.983,644.634,137.149z"/>
				<path style="fill:#FFD6BE;" d="M644.634,137.149c0,0-5.135,15.159-3.511,17.213c1.433,1.813,3.445-0.846,3.445-0.846
					s1.359,1.301,1.387-1.549C645.992,148.02,645.744,132.983,644.634,137.149z"/>
			</g>
		</g>
		<path style="fill:#222220;" d="M531.565,170.693c0.485,0.027,0.97,0.054,1.456,0.082c-0.383,1.225-0.464,2.542-0.235,3.805
			c0.286-0.183,0.573-0.365,0.86-0.548c-0.213,0.505,0.329,1.143,0.862,1.013c0.359-0.359,0.567-0.863,0.567-1.371
			c-0.699,0.151-1.414-0.621-1.21-1.306c0.07-0.235,0.221-0.439,0.287-0.675c0.251-0.897-0.77-1.918-0.258-2.695
			c-0.005,0.333-0.009,0.666-0.013,1c-0.299-1.248-0.476-2.525-0.526-3.806c0.505,0.044,0.921-0.463,0.97-0.967
			c0.049-0.505-0.164-0.994-0.373-1.456c0.569,0.252,0.824-0.677,0.992-1.277c0.243-0.867,1.15-1.495,2.047-1.418
			c0.073-0.567,0.146-1.134,0.219-1.701c0.549,0.561,1.477-0.147,1.779-0.872c0.302-0.725,0.57-1.659,1.343-1.8
			c0.182,0.604,0.93,0.966,1.516,0.733c0.424-0.168,0.703-0.565,1.01-0.902c0.307-0.337,0.732-0.65,1.18-0.561
			c0.447,0.089,0.677,0.809,0.264,1c-0.4-0.129-0.623,0.58-0.293,0.841c0.33,0.261,0.819,0.137,1.185-0.07
			c0.366-0.206,0.714-0.49,1.132-0.529c0.006,0.296,0.011,0.592,0.016,0.887c-0.296,0.15-0.591,0.3-0.887,0.45
			c0.194,0.579,0.812,0.985,1.42,0.933c0.609-0.052,1.149-0.557,1.241-1.161c0.213,0.221,0.426,0.443,0.639,0.665
			c0.01-0.283,0.02-0.567,0.03-0.85c0.825-0.245,1.78,0.495,1.75,1.355c-0.837,0.253-1.423,1.158-1.311,2.025
			c0.112,0.867,0.909,1.593,1.782,1.625c0.127,0.005,0.259-0.005,0.367-0.071c0.37-0.223,0.155-0.808-0.161-1.103
			c-0.316-0.295-0.738-0.612-0.677-1.039c0.438-0.298,1.039-0.339,1.514-0.104c0.279-0.6-0.335-1.258-0.301-1.919
			c0.046-0.893,1.572-1.153,1.911-0.325c-0.058-0.527,0.085-1.123,0.526-1.418c0.441-0.295,1.186-0.076,1.249,0.45
			c0.077,0.646-0.796,1.336-0.354,1.813c0.89,0.357,2.024-0.381,2.059-1.339c0.234,0.152,0.467,0.303,0.701,0.455
			c-0.45,0.262-0.692,0.835-0.567,1.34c0.406-0.416,1.165-0.405,1.559,0.023c0.393,0.428,0.341,1.185-0.107,1.555
			c0.048,0.508,0.804,0.763,1.15,0.389c0.603,0.204,0.58,1.26-0.031,1.438c-0.281,0.082-0.609,0.002-0.854,0.16
			c-0.369,0.238-0.251,0.859,0.109,1.11c0.36,0.251,0.835,0.242,1.273,0.223c0.49,0.381,0.357,1.153,0.095,1.715
			c-0.262,0.562-0.617,1.173-0.419,1.761c0.132,0.394,0.488,0.671,0.671,1.044c0.631,1.284-1.017,2.741-0.645,4.122
			c0.345,0.161,0.765,0.15,1.101-0.028c0.051,0.725-0.062,1.46-0.329,2.136c0.211,0.005,0.421,0.01,0.632,0.014
			c0.184-0.955,0.368-1.91,0.551-2.865c0.047-0.245,0.094-0.491,0.142-0.736c0.23-1.196,0.461-2.4,0.46-3.618
			c0-0.403-0.022-0.829,0.168-1.185c0.189-0.356,0.683-0.586,1.008-0.346c-0.01-0.454-0.106-0.905-0.284-1.323
			c1.043-0.294,1.258-1.67,1.167-2.749c-0.485-5.722-4.127-11.076-9.272-13.628c-2.465-1.223-5.192-1.821-7.914-2.223
			c-2.065-0.305-4.262-0.485-6.162,0.379c-1.314,0.597-2.363,1.641-3.382,2.663c-2.038,2.045-4.1,4.12-5.552,6.616
			c-1.521,2.614-1.658,5.401-2.292,8.273c-0.222,1.004-0.359,1.909-0.103,2.934C530.097,168.089,531.793,170.706,531.565,170.693z"
			/>
	</g>
</g>
</svg>
